<?xml version="1.0" encoding="UTF-8"?>
<svg id="All_good" data-name="All good" xmlns="http://www.w3.org/2000/svg" viewBox="0 0 397.13 396.85">
  <defs>
    <style>
      .cls-1 {
        fill: #eaea92;
      }

      .cls-2 {
        fill: #fff;
      }

      .cls-3 {
        fill: #282475;
      }

      .cls-4 {
        fill: #2ca878;
      }

      .cls-5 {
        fill: #fffce4;
      }

      .cls-6 {
        fill: #8f84ff;
      }

      .cls-7 {
        fill: #5945b8;
      }

      .cls-8 {
        fill: #1a1b38;
        opacity: .3;
      }
    </style>
  </defs>
  <path class="cls-4" d="M268.39,286.28c0,23.38-32.71,42.32-73.06,42.32-16.84,0-32.35-3.31-44.7-8.85-17.25-7.74-28.35-19.85-28.35-33.47,0-5.57,1.86-10.91,5.26-15.79,10.8-15.55,37.09-26.52,67.79-26.52s56.99,10.97,67.8,26.52c3.39,4.88,5.26,10.22,5.26,15.79Z"/>
  <circle class="cls-4" cx="161.94" cy="95.23" r="25.53"/>
  <path class="cls-2" d="M174.95,88.72l-7.27,9.32-5.25,6.73c-.84,1.08-2.4,1.28-3.49.45l-9.83-7.47c-.46-.35-.55-1.01-.18-1.47l2.39-2.97c.35-.42.96-.51,1.4-.19l6.84,4.86c.45.32,1.08.23,1.41-.22l4.87-6.39,4.76-6.24c.36-.47,1.05-.55,1.5-.16l2.69,2.33c.42.36.48.98.14,1.41Z"/>
  <path class="cls-4" d="M268.39,286.28v20.71c0,23.37-32.71,42.31-73.06,42.31-3.89,0-7.7-.16-11.43-.51-2.62-.23-5.19-.56-7.71-.95-31.06-4.88-53.91-21.32-53.91-40.85v-20.71c0,13.62,11.1,25.73,28.35,33.47,12.35,5.54,27.86,8.85,44.7,8.85,40.35,0,73.06-18.94,73.06-42.32Z"/>
  <path class="cls-8" d="M268.39,286.28c0,23.38-32.71,42.32-73.06,42.32-16.84,0-32.35-3.31-44.7-8.85-17.25-7.74-28.35-19.85-28.35-33.47,0-5.57,1.86-10.91,5.26-15.79,10.8-15.55,37.09-26.52,67.79-26.52s56.99,10.97,67.8,26.52c3.39,4.88,5.26,10.22,5.26,15.79Z"/>
  <path class="cls-6" d="M193.37,245.2h0c-.46-.33-1.14-.33-1.88.1l-46.34,26.76c-1.38.8-2.5,2.74-2.5,4.33l.03,10.43c0,.81.3,1.37.78,1.62h0s49.77,28.94,49.77,28.94l49.85-43.29-49.7-28.89Z"/>
  <path class="cls-3" d="M198.69,305.26l-54.93-31.94c-.68.91-1.13,2.05-1.12,3.05l.03,10.43c0,.81.3,1.37.78,1.62h0s49.77,28.94,49.77,28.94l5.48-4.75v-7.36Z"/>
  <path class="cls-7" d="M241.23,274.23c1.38-.8,2.51-.15,2.51,1.43l.03,10.43c0,1.58-1.12,3.53-2.5,4.33l-46.34,26.76c-1.38.8-2.51.15-2.51-1.43l-.03-10.43c0-1.58,1.12-3.53,2.5-4.33l46.34-26.76Z"/>
  <path class="cls-5" d="M205.15,307.25l-.02-8.16c0-.4-.28-.56-.63-.36l-7.1,4.1c-.34.2-.62.69-.62,1.08l.02,8.16c0,.4.28.56.63.36l7.1-4.1c.34-.2.62-.69.62-1.08h0Z"/>
  <path class="cls-1" d="M236.34,288.91c1.8-1.04,3.26-3.56,3.25-5.63,0-2.07-1.47-2.9-3.27-1.86-1.8,1.04-3.26,3.56-3.25,5.63,0,2.07,1.47,2.9,3.27,1.86h0Z"/>
  <path class="cls-1" d="M227.99,293.73c1.8-1.04,3.26-3.56,3.25-5.63,0-2.07-1.47-2.9-3.27-1.86-1.8,1.04-3.26,3.56-3.25,5.63,0,2.07,1.47,2.9,3.27,1.86h0Z"/>
  <path class="cls-6" d="M193.37,224.11h0c-.46-.33-1.14-.33-1.88.1l-46.34,26.76c-1.38.8-2.5,2.74-2.5,4.33l.03,10.43c0,.81.3,1.37.78,1.62h0s49.77,28.94,49.77,28.94l49.85-43.29-49.7-28.89Z"/>
  <path class="cls-3" d="M198.69,284.18l-54.93-31.94c-.68.91-1.13,2.05-1.12,3.05l.03,10.43c0,.81.3,1.37.78,1.62h0s49.77,28.94,49.77,28.94l5.48-4.75v-7.36Z"/>
  <path class="cls-7" d="M241.23,253.14c1.38-.8,2.51-.15,2.51,1.43l.03,10.43c0,1.58-1.12,3.53-2.5,4.33l-46.34,26.76c-1.38.8-2.51.15-2.51-1.43l-.03-10.43c0-1.58,1.12-3.53,2.5-4.33l46.34-26.76Z"/>
  <path class="cls-5" d="M205.15,286.16l-.02-8.16c0-.4-.28-.56-.63-.36l-7.1,4.1c-.34.2-.62.69-.62,1.08l.02,8.16c0,.4.28.56.63.36l7.1-4.1c.34-.2.62-.69.62-1.08h0Z"/>
  <path class="cls-1" d="M236.34,267.82c1.8-1.04,3.26-3.56,3.25-5.63,0-2.07-1.47-2.9-3.27-1.86-1.8,1.04-3.26,3.56-3.25,5.63,0,2.07,1.47,2.9,3.27,1.86h0Z"/>
  <path class="cls-1" d="M227.99,272.64c1.8-1.04,3.26-3.56,3.25-5.63,0-2.07-1.47-2.9-3.27-1.86-1.8,1.04-3.26,3.56-3.25,5.63,0,2.07,1.47,2.9,3.27,1.86h0Z"/>
  <path class="cls-6" d="M193.37,203.02h0c-.46-.33-1.14-.33-1.88.1l-46.34,26.76c-1.38.8-2.5,2.74-2.5,4.33l.03,10.43c0,.81.3,1.37.78,1.62h0s49.77,28.94,49.77,28.94l49.85-43.29-49.7-28.89Z"/>
  <path class="cls-3" d="M198.69,263.09l-54.93-31.94c-.68.91-1.13,2.05-1.12,3.05l.03,10.43c0,.81.3,1.37.78,1.62h0s49.77,28.94,49.77,28.94l5.48-4.75v-7.36Z"/>
  <path class="cls-7" d="M241.23,232.05c1.38-.8,2.51-.15,2.51,1.43l.03,10.43c0,1.58-1.12,3.53-2.5,4.32l-46.34,26.76c-1.38.8-2.51.15-2.51-1.43l-.03-10.43c0-1.58,1.12-3.53,2.5-4.33l46.34-26.76Z"/>
  <path class="cls-5" d="M205.15,265.07l-.02-8.16c0-.4-.28-.56-.63-.36l-7.1,4.1c-.34.2-.62.69-.62,1.08l.02,8.16c0,.4.28.56.63.36l7.1-4.1c.34-.2.62-.69.62-1.08h0Z"/>
  <path class="cls-1" d="M236.34,246.73c1.8-1.04,3.26-3.56,3.25-5.63,0-2.07-1.47-2.9-3.27-1.86-1.8,1.04-3.26,3.56-3.25,5.63,0,2.07,1.47,2.9,3.27,1.86h0Z"/>
  <path class="cls-1" d="M227.99,251.55c1.8-1.04,3.26-3.56,3.25-5.63,0-2.07-1.47-2.9-3.27-1.86-1.8,1.04-3.26,3.56-3.25,5.63,0,2.07,1.47,2.9,3.27,1.86h0Z"/>
  <path class="cls-6" d="M192.38,184.39h0c-.46-.33-1.14-.33-1.88.1l-46.34,26.76c-1.38.8-2.5,2.74-2.5,4.33l.03,10.43c0,.81.3,1.37.78,1.62h0s49.77,28.94,49.77,28.94l49.85-43.29-49.7-28.89Z"/>
  <path class="cls-3" d="M197.7,244.46l-54.93-31.94c-.68.91-1.13,2.05-1.12,3.05l.03,10.43c0,.81.3,1.37.78,1.62h0s49.77,28.94,49.77,28.94l5.48-4.75v-7.36Z"/>
  <path class="cls-7" d="M240.24,213.42c1.38-.8,2.51-.15,2.51,1.43l.03,10.43c0,1.58-1.12,3.53-2.5,4.33l-46.34,26.76c-1.38.8-2.51.15-2.51-1.43l-.03-10.43c0-1.58,1.12-3.53,2.5-4.33l46.34-26.76Z"/>
  <path class="cls-5" d="M204.16,246.44l-.02-8.16c0-.4-.28-.56-.63-.36l-7.1,4.1c-.34.2-.62.69-.62,1.08l.02,8.16c0,.4.28.56.63.36l7.1-4.1c.34-.2.62-.69.62-1.08h0Z"/>
  <path class="cls-1" d="M235.34,228.11c1.8-1.04,3.26-3.56,3.25-5.63,0-2.07-1.47-2.9-3.27-1.86-1.8,1.04-3.26,3.56-3.25,5.63,0,2.07,1.47,2.9,3.27,1.86h0Z"/>
  <path class="cls-1" d="M226.99,232.93c1.8-1.04,3.26-3.56,3.25-5.63,0-2.07-1.47-2.9-3.27-1.86-1.8,1.04-3.26,3.56-3.25,5.63,0,2.07,1.47,2.9,3.27,1.86h0Z"/>
  <path class="cls-6" d="M192.02,164.64h0c-.46-.33-1.14-.33-1.88.1l-46.34,26.76c-1.38.8-2.5,2.74-2.5,4.33l.03,10.43c0,.81.3,1.37.78,1.62h0s49.77,28.94,49.77,28.94l49.85-43.29-49.7-28.89Z"/>
  <path class="cls-3" d="M197.34,224.71l-54.93-31.94c-.68.91-1.13,2.05-1.12,3.05l.03,10.43c0,.81.3,1.37.78,1.62h0s49.77,28.94,49.77,28.94l5.48-4.75v-7.36Z"/>
  <path class="cls-7" d="M239.88,193.67c1.38-.8,2.51-.15,2.51,1.43l.03,10.43c0,1.58-1.12,3.53-2.5,4.33l-46.34,26.76c-1.38.8-2.51.15-2.51-1.43l-.03-10.43c0-1.58,1.12-3.53,2.5-4.33l46.34-26.76Z"/>
  <path class="cls-5" d="M203.8,226.69l-.02-8.16c0-.4-.28-.56-.63-.36l-7.1,4.1c-.34.2-.62.69-.62,1.08l.02,8.16c0,.4.28.56.63.36l7.1-4.1c.34-.2.62-.69.62-1.08h0Z"/>
  <path class="cls-1" d="M234.99,208.36c1.8-1.04,3.26-3.56,3.25-5.63,0-2.07-1.47-2.9-3.27-1.86-1.8,1.04-3.26,3.56-3.25,5.63,0,2.07,1.47,2.9,3.27,1.86h0Z"/>
  <path class="cls-1" d="M226.64,213.18c1.8-1.04,3.26-3.56,3.25-5.63,0-2.07-1.47-2.9-3.27-1.86-1.8,1.04-3.26,3.56-3.25,5.63,0,2.07,1.47,2.9,3.27,1.86h0Z"/>
  <g>
    <path class="cls-4" d="M195.37,153.82s-.42.02-1.24.03c-.83.01-2.05.03-3.65.05-3.21.05-7.94.17-14.03.47-6.09.32-13.53.85-22.13,1.83-4.3.52-8.89,1.11-13.73,1.91-4.85.77-9.95,1.74-15.26,2.95-5.31,1.21-10.84,2.65-16.49,4.5-5.64,1.86-11.44,4.07-17.1,7.05-2.83,1.49-5.59,3.22-8.2,5.24-2.58,2.03-5.02,4.41-6.71,7.34-.2.37-.42.73-.62,1.11l-.47,1.18-.24.59c-.07.2-.1.41-.16.62l-.3,1.24c-.2,1.68-.26,3.44.25,5.1.82,3.39,3.06,6.31,5.62,8.77,5.24,4.92,11.92,8.35,18.85,11.22,6.97,2.86,14.36,5.09,21.97,6.95,15.23,3.71,31.37,5.89,47.95,7.06,16.59,1.13,32.86,1.12,48.51.19,15.65-.95,30.69-2.85,44.79-5.84,7.04-1.51,13.84-3.31,20.31-5.48,6.47-2.15,12.59-4.74,18.15-7.91,2.75-1.63,5.35-3.41,7.65-5.45,2.29-2.04,4.3-4.37,5.54-7.05l.41-1.02c.13-.34.29-.67.35-1.03l.26-1.06c.04-.18.09-.35.12-.53l.04-.54c.2-1.43.05-2.86-.31-4.22-.38-1.36-1.05-2.6-1.77-3.78-.79-1.14-1.63-2.22-2.59-3.18-1.88-1.95-3.99-3.59-6.12-5.05-2.14-1.46-4.32-2.73-6.49-3.87-4.33-2.3-8.61-4.08-12.65-5.63-8.1-3.06-15.3-5.06-21.21-6.54-5.91-1.48-10.56-2.41-13.71-3.01-1.57-.31-2.78-.52-3.59-.67-.81-.15-1.22-.24-1.22-.24,0,0,1.67.24,4.83.82,3.16.58,7.81,1.48,13.73,2.93,5.92,1.46,13.13,3.44,21.25,6.47,4.05,1.54,8.34,3.31,12.69,5.61,2.18,1.13,4.37,2.41,6.52,3.87,2.15,1.46,4.27,3.11,6.18,5.07.97.97,1.83,2.07,2.63,3.22.74,1.2,1.42,2.46,1.81,3.86.38,1.39.53,2.88.33,4.34l-.04.55c-.03.18-.08.36-.12.54l-.26,1.08c-.07.37-.22.71-.36,1.06l-.42,1.04c-1.26,2.74-3.3,5.11-5.61,7.17-2.32,2.07-4.94,3.86-7.7,5.5-5.58,3.19-11.73,5.8-18.21,7.96-6.48,2.18-13.29,3.98-20.35,5.51-14.11,3.01-29.18,4.92-44.84,5.88-15.67.94-31.96.95-48.57-.18-16.6-1.17-32.76-3.36-48.02-7.08-7.62-1.87-15.03-4.1-22.02-6.98-6.95-2.89-13.67-6.33-18.97-11.31-2.59-2.49-4.88-5.47-5.72-8.96-.52-1.72-.46-3.53-.25-5.26l.31-1.28c.05-.21.09-.43.16-.63l.24-.61.49-1.21c.2-.39.42-.76.63-1.13,1.73-3,4.21-5.4,6.82-7.45,2.63-2.03,5.42-3.77,8.26-5.26,5.69-2.99,11.51-5.2,17.16-7.05,5.67-1.84,11.2-3.28,16.52-4.48,5.32-1.2,10.43-2.16,15.28-2.92,4.85-.79,9.45-1.37,13.75-1.88,8.61-.96,16.06-1.47,22.15-1.76,6.09-.27,10.83-.37,14.04-.39,1.6,0,2.82,0,3.65,0,.82,0,1.24.01,1.24.01Z"/>
    <path class="cls-4" d="M195.37,153.82c-18.51.23-37.11,1.52-55.4,4.51-18.11,3.23-36.68,7.38-52.54,17.05-21.91,14.09-11.51,28.49,7.9,37.4,39.84,17.56,96.76,19.09,139.77,14.64,21.36-2.43,68.35-9.99,79.1-30.05,3.59-7.5-1.13-13.59-7-18.12-11.7-8.67-25.91-13.16-39.81-16.99-4.8-1.27-11.1-2.48-15.96-3.6-1.79-.37-3.57-.66-5.38-1.03,0,0,.18-.98.18-.98,20.23,3.48,45.24,9.45,61.87,21.76,6.14,4.73,11,11.37,7.27,19.32-10.68,20.74-58.36,28.39-80.05,30.84-42.86,4.21-89.45,2.9-130.55-10.87-10.63-4-26.51-10.6-30.06-22.32-2.47-8.91,5.25-16.3,12.14-20.6,27.98-17.02,75.98-21.05,108.52-20.97h0ZM195.37,153.82c-32.45.04-80.43,4.26-108.28,21.35-5.41,3.5-10.97,8.32-12.18,14.74-1.9,14.5,18.94,23.14,30.05,27.26,49.69,16.83,122.91,16.82,173.27,2.31,12.16-3.83,30.3-10.16,36.32-22.09,3.52-7.56-1.12-13.68-7.02-18.26-5.77-4.44-12.43-7.61-19.17-10.32-13.59-5.35-27.89-8.84-42.29-11.18,0,0,.18-.98.18-.98,1.76.36,3.58.66,5.36,1.03,4.87,1.14,11.19,2.35,16.02,3.64,14.01,3.87,28.32,8.43,40.12,17.2,6.13,4.74,11.04,11.2,7.25,19.19-10.83,20.46-58.22,28.02-79.82,30.45-43.11,4.4-100.17,2.79-140.09-14.88-13.85-6.3-29.43-18.99-14.26-33.43,13.57-11.89,33.95-16.69,51.26-20.35,20.81-3.98,42.11-5.48,63.27-5.68h0Z"/>
  </g>
  <g>
    <path class="cls-4" d="M127.03,102.7s-.48.11-1.41.29c-.93.19-2.32.45-4.13.84-3.63.75-8.97,1.92-15.76,3.77-6.77,1.89-15.04,4.4-24.14,8.53-2.27,1.04-4.59,2.18-6.91,3.5-2.32,1.31-4.66,2.76-6.93,4.45-2.26,1.69-4.48,3.6-6.4,5.88-1.9,2.27-3.59,4.92-4.34,7.95-.81,3.01-.58,6.35.69,9.37,1.24,3.03,3.34,5.73,5.79,8.1,4.95,4.75,11.23,8.34,17.92,11.44,13.47,6.12,28.85,10.22,45.18,13.29,16.35,3.03,33.75,4.9,51.83,5.72,18.08.8,36.85.57,55.98-1,19.12-1.59,37.73-4.4,55.23-9,8.74-2.32,17.22-5.09,25.16-8.64,3.96-1.79,7.8-3.76,11.37-6.07,3.56-2.31,6.9-4.92,9.58-8.08,2.67-3.12,4.63-6.94,4.75-10.98.05-.5-.02-1-.05-1.49-.06-.49-.03-1-.16-1.48l-.33-1.45c-.08-.49-.32-.93-.48-1.4-.65-1.87-1.75-3.54-2.87-5.13-2.4-3.1-5.38-5.63-8.48-7.84-3.12-2.19-6.42-4.01-9.71-5.68-6.63-3.27-13.34-5.76-19.89-7.81-6.55-2.05-12.94-3.67-19.08-5.03-24.61-5.31-45.02-6.75-59.05-7.53-7.03-.36-12.49-.38-16.2-.47-1.85-.04-3.26-.07-4.21-.09-.95-.02-1.44-.05-1.44-.05,0,0,.49,0,1.44,0,.96.01,2.37.03,4.21.05,3.7.07,9.17.05,16.2.39,14.04.73,34.46,2.12,59.11,7.4,6.15,1.35,12.55,2.97,19.12,5.01,6.56,2.04,13.29,4.53,19.95,7.8,3.31,1.66,6.62,3.49,9.76,5.7,3.12,2.21,6.13,4.77,8.57,7.91,1.14,1.62,2.26,3.31,2.93,5.22.16.48.4.93.49,1.44l.34,1.49c.14.49.1,1.01.16,1.52.03.51.1,1.02.05,1.53-.06,2.06-.59,4.1-1.45,5.98-.85,1.9-2.03,3.64-3.38,5.24-2.72,3.2-6.08,5.84-9.66,8.16-3.59,2.33-7.44,4.3-11.42,6.1-7.97,3.57-16.46,6.35-25.22,8.67-17.54,4.61-36.16,7.43-55.31,9.02-19.15,1.57-37.94,1.79-56.04.99-18.1-.82-35.51-2.7-51.88-5.75-16.34-3.08-31.75-7.2-45.25-13.35-6.7-3.11-13.01-6.73-18-11.53-2.47-2.39-4.6-5.13-5.85-8.22-1.29-3.07-1.52-6.49-.69-9.56.77-3.1,2.49-5.77,4.41-8.07,1.94-2.3,4.18-4.22,6.46-5.91,2.28-1.7,4.64-3.14,6.97-4.45,2.33-1.32,4.66-2.46,6.93-3.49,9.13-4.12,17.41-6.61,24.2-8.48,6.8-1.83,12.15-2.97,15.78-3.69,3.63-.73,5.56-1.04,5.56-1.04Z"/>
    <path class="cls-4" d="M127.03,102.7c-18.95,3.64-72.26,15.94-70.22,40.59,1.79,11.41,14.46,18.38,23.98,22.99,26.46,11.77,55.6,16.02,84.26,18.44,47.68,3.24,109.57.71,153.25-19.62,16.47-7.96,31.79-22.51,13.48-38.46-16.95-13.86-43-19.78-64.23-23.77-22.78-4.16-45.89-5.42-69.03-5.78,0,0,.02-1,.02-1,23.25.08,46.55,1.5,69.45,5.63,20.58,3.7,64.49,13.51,72.47,34.84,4.47,14.1-10.6,24.02-21.39,29.46-51.18,23.99-133.44,24.79-188.78,15.4-20.25-3.53-70.46-14.61-74.1-38.17-1.86-25.13,51.66-37.24,70.85-40.58h0ZM127.03,102.7c-19.18,3.4-72.44,15.71-70.55,40.54,3.69,23.29,53.95,34.2,73.89,37.67,55.01,8.82,118.97,8.05,172.3-8.95,51.42-17.51,49.61-44.39-1.1-61.09-33.18-10.66-68.34-13.62-103.02-13.77,0,0,.02-1,.02-1,34.64.53,69.73,3.43,102.87,14.16,51.1,16.81,53.6,44.41,1.09,62.09-53.32,16.82-117.03,17.54-171.99,8.73-20.11-3.47-70.25-14.49-74.03-37.75-2-24.94,51.57-37.04,70.52-40.63h0Z"/>
  </g>
  <path class="cls-4" d="M242.76,217.21c17.17,3.18,48.46,10.97,55.16,28.91,6.32,22.36-33.32,34.14-49.58,37.61-40.85,8.44-92.66,7.6-131.06-9.76-11.31-5.31-26.55-16.76-18.85-30.75,5.07-8.64,14.5-13.45,23.39-17.29-6,2.6-11.88,5.69-16.85,9.98-11.59,9.83-10.43,21.55,1.28,30.63,23.33,17.08,60.76,20.95,89.1,21.4,27.93.21,81.53-4.72,99.54-27.82,6.7-9.39,1.93-18.96-6.4-25.27-13.24-9.94-29.71-14.41-45.72-17.65h0Z"/>
  <g>
    <path class="cls-4" d="M205.79,136.65c-.55-.24-.92.61-.37.85s.92-.61.37-.85h0Z"/>
    <path class="cls-4" d="M213.91,124.45c-.55-.24-.92.61-.37.85s.92-.61.37-.85h0Z"/>
    <path class="cls-4" d="M252.17,138.46c-.55-.24-.92.61-.37.85s.92-.61.37-.85h0Z"/>
    <path class="cls-4" d="M250.9,131.8c-.55-.24-.92.61-.37.85s.92-.61.37-.85h0Z"/>
    <path class="cls-4" d="M286.81,209.01c-.55-.24-.92.61-.37.85s.92-.61.37-.85h0Z"/>
    <path class="cls-4" d="M291.59,202.67c-.55-.24-.92.61-.37.85s.92-.61.37-.85h0Z"/>
    <path class="cls-4" d="M282.68,203.16c-.55-.24-.92.61-.37.85s.92-.61.37-.85h0Z"/>
    <path class="cls-4" d="M295.02,182.69c-.55-.24-.92.61-.37.85s.92-.61.37-.85h0Z"/>
    <path class="cls-4" d="M271.79,165.72c-.55-.24-.92.61-.37.85s.92-.61.37-.85h0Z"/>
    <path class="cls-4" d="M263.79,163.42c-.55-.24-.92.61-.37.85s.92-.61.37-.85h0Z"/>
    <path class="cls-4" d="M268.04,158.29c-.55-.24-.92.61-.37.85s.92-.61.37-.85h0Z"/>
    <path class="cls-4" d="M95.18,187.8c-.24.55.61.92.85.37s-.61-.92-.85-.37h0Z"/>
    <path class="cls-4" d="M110.6,249c-.24.55.61.92.85.37s-.61-.92-.85-.37h0Z"/>
    <path class="cls-4" d="M110.21,219.14c-.24.55.61.92.85.37s-.61-.92-.85-.37h0Z"/>
    <path class="cls-4" d="M103.55,220.41c-.24.55.61.92.85.37s-.61-.92-.85-.37h0Z"/>
    <path class="cls-4" d="M167.79,130.34c-.24.55.61.92.85.37.24-.55-.61-.92-.85-.37h0Z"/>
    <path class="cls-4" d="M161.45,125.56c-.24.55.61.92.85.37s-.61-.92-.85-.37h0Z"/>
    <path class="cls-4" d="M161.94,134.48c-.24.55.61.92.85.37s-.61-.92-.85-.37h0Z"/>
    <path class="cls-4" d="M141.47,122.13c-.24.55.61.92.85.37s-.61-.92-.85-.37h0Z"/>
    <path class="cls-4" d="M114.78,157.03c-.24.55.61.92.85.37s-.61-.92-.85-.37h0Z"/>
    <path class="cls-4" d="M112.48,165.03c-.24.55.61.92.85.37s-.61-.92-.85-.37h0Z"/>
    <path class="cls-4" d="M107.35,160.78c-.24.55.61.92.85.37s-.61-.92-.85-.37h0Z"/>
    <path class="cls-4" d="M88.76,207.83c0,1.47-1.2,2.67-2.67,2.67s-2.67-1.2-2.67-2.67,1.2-2.67,2.67-2.67,2.67,1.2,2.67,2.67Z"/>
    <circle class="cls-4" cx="319.58" cy="165.23" r="2.67"/>
    <path class="cls-4" d="M132.27,195c0,.74-.6,1.33-1.33,1.33s-1.33-.6-1.33-1.33.6-1.33,1.33-1.33,1.33.6,1.33,1.33Z"/>
    <path class="cls-4" d="M298.28,227.35c0,.74-.6,1.33-1.33,1.33s-1.33-.6-1.33-1.33.6-1.33,1.33-1.33,1.33.6,1.33,1.33Z"/>
  </g>
  <polygon class="cls-4" points="278.19 96.38 277.05 102.38 271.4 104.7 277.4 105.84 279.72 111.5 280.86 105.49 286.51 103.17 280.51 102.04 278.19 96.38"/>
  <polygon class="cls-4" points="105.58 280.82 104.58 286.09 99.61 288.13 104.88 289.13 106.92 294.09 107.92 288.82 112.88 286.79 107.61 285.79 105.58 280.82"/>
</svg>