<?xml version="1.0" encoding="UTF-8"?>
<svg id="All_Done" data-name="All Done" xmlns="http://www.w3.org/2000/svg" viewBox="0 0 397.13 396.85">
  <defs>
    <style>
      .cls-1 {
        fill: #fff;
      }

      .cls-2 {
        fill: none;
      }

      .cls-3, .cls-4 {
        opacity: .14;
      }

      .cls-3, .cls-5 {
        fill: #8f84ff;
      }

      .cls-6 {
        fill: #2ca878;
      }

      .cls-7 {
        fill: #be4e3d;
      }

      .cls-4, .cls-8, .cls-9 {
        fill: #1a1b38;
      }

      .cls-9 {
        opacity: .3;
      }
    </style>
  </defs>
  <path class="cls-5" d="M199.87,107.33c7.45-10.02,18.33-25.82,14.56-27.9-3.92-2.16-13.34,15.79-18.6,26.66-.53-.15-1.06-.3-1.6-.45,2.54-10.74,5.99-28.03,2.04-28.51-3.63-.44-5.59,15.53-6.54,27.35-8.24-1.98-16.94-3.29-25.96-3.81-3.86-.22-7.67-.29-11.42-.23-9.11.17-17.9,1.17-26.21,2.91-2.05-10.45-6.25-29.06-9.94-28.13-3.99,1,3.13,20.41,6.45,28.9-.26.06-.51.13-.76.19-5.32-8.35-18.16-27.61-21.84-24.92-3.48,2.54,10.93,17.97,18.59,25.76-34.52,9.36-59.2,31.77-60.78,59.24-2.22,38.43,41.63,72.21,97.91,75.45,1.91.11,3.81.18,5.7.23l6.22,21.64,5.9-.05,7.31-22.48c9.38-1.07,18.31-3.03,26.57-5.78,31.05-10.3,52.75-31.56,54.22-57.26,1.71-29.68-24.05-56.58-61.82-68.79Z"/>
  <path class="cls-3" d="M345.05,186.58l-165.33-2.21c-37.84-.51-45.07-54.14-8.68-64.51.28-.08.56-.16.85-.23,8.42-27.99,34.57-48.22,65.25-47.81,20.06.27,37.94,9.29,50.06,23.39,6.61-4.36,14.54-6.85,23.05-6.73,19.47.26,35.57,14.07,39.48,32.33,2.06.45,4.08,1,6.06,1.63,35.84,11.5,26.91,64.65-10.73,64.15Z"/>
  <path class="cls-3" d="M110.7,278.14l-58.13-.78c-13.3-.18-15.85-19.04-3.05-22.68.1-.03.2-.06.3-.08,2.96-9.84,12.16-16.96,22.95-16.81,7.05.09,13.34,3.27,17.6,8.23,2.32-1.53,5.11-2.41,8.11-2.37,6.85.09,12.51,4.95,13.88,11.37.72.16,1.43.35,2.13.57,12.6,4.04,9.46,22.73-3.77,22.56Z"/>
  <path class="cls-2" d="M290.61,254.6s-.08-.01-.12-.01h-.04M291.27,255.23c.62.05,1.21.05,1.79.01,1.24-.09,2.41-.34,3.48-.77.18-.07.36-.15.53-.22.36-.16.69-.33,1.02-.53.45-.26.9-.59,1.36-.98.82-.7,1.5-1.56,2.06-2.53s.94-2.06,1.15-3.22c.21-1.19.24-2.45.07-3.76-.09-.75-.22-1.37-.41-1.94s-.44-1.12-.74-1.64c-.28-.48-.63-.94-1.04-1.37-.36-.37-.78-.73-1.28-1.08-.86-.59-1.87-1.06-3.02-1.35-.51-.13-1.07-.22-1.72-.29-.54-.05-1.11-.07-1.69-.04-.55.03-1.13.09-1.76.21-.55.09-1.11.24-1.65.42-.37.12-.74.28-1.1.44-.18.08-.36.16-.51.25-.54.28-1.11.63-1.73,1.08-.18.13-.37.28-.54.42"/>
  <polygon class="cls-7" points="326.48 237.23 326.48 237.23 326.48 237.23 326.48 237.23"/>
  <polygon class="cls-6" points="280.57 115.54 278.76 121.66 272.64 123.48 278.76 125.29 280.57 131.41 282.39 125.29 288.51 123.48 282.39 121.66 280.57 115.54"/>
  <polygon class="cls-8" points="274.56 188.92 273.06 196.85 265.59 199.91 273.52 201.41 276.57 208.87 278.08 200.95 285.54 197.89 277.62 196.39 274.56 188.92"/>
  <polygon class="cls-8" points="108.42 291.1 107.1 298.05 100.55 300.74 107.51 302.06 110.19 308.61 111.51 301.65 118.06 298.97 111.11 297.65 108.42 291.1"/>
  <path class="cls-1" d="M90.04,133.21c8.17-16.54,30.8-17.17,50.54-1.42,19.73,15.76,29.11,41.95,20.92,58.48-5.38,10.89-17.01,14.87-29.96,11.85-6.73-1.57-13.82-5.03-20.58-10.43-12.2-9.75-20.43-23.47-23-36.43-1.61-8.02-1.05-15.73,2.08-22.05Z"/>
  <path class="cls-8" d="M127.1,178.46c4.41,12.16,13.53,20,20.39,17.52,6.85-2.48,8.84-14.35,4.43-26.51-4.41-12.16-13.53-20-20.39-17.52-6.85,2.48-8.84,14.35-4.43,26.51Z"/>
  <path class="cls-6" d="M129.84,302.71c1.25,20.94,49.97,16.32,49.97,16.32l-.33-14.57,13.22-.81,11.46,1.72c-2.55-26.81-10.47-40.09-21.63-45.97l.47-15.61-26.5.49-1.83,14.32s-26.05,23.17-24.82,44.12Z"/>
  <path class="cls-5" d="M180.12,304.23l-.39,6.65-.17,2.93,9.11-.58s.5.4,1.38,1.04c5.22,3.85,23.86,16.6,31.32,7.93,7.19-8.34-6.66-21.02-20.9-24.02-1.3-.27-2.61-.47-3.9-.57-1.48-.11-2.5-1.54-2.18-2.99l1.31-5.93c.36-1.63-.9-3.21-2.57-3.14-9.76.41-4.97,18.14-4.97,18.14l-8.03.54Z"/>
  <polygon class="cls-9" points="179.21 319.2 180.41 319.18 180.16 297.06 145.44 297.94 151.24 273.92 150.07 273.64 143.9 299.18 178.97 298.29 179.21 319.2"/>
  <polygon class="cls-9" points="156.49 244.28 155.75 249.7 182.85 249.37 182.99 243.79 156.49 244.28"/>
  <path class="cls-8" d="M151.23,226.18c11.97,11.73,31.74,11.45,44.93,1.86,4.83-3.58,10.17-10.94,8.37-17.31-.8.77-1.74,1.42-2.84,1.89-3.66,1.63-8.02,1.82-11.91,2.22-10.96.86-20.27-5.04-30.98-5.93-3.8-.24-9.38.43-11.68,4.03-2.84,4.25,1.05,10.27,4.11,13.23Z"/>
  <path class="cls-1" d="M152.2,225.59c10.28,10.74,27.83,11.05,39.79,2.92,1.86-1.29,3.81-3.18,5.34-5.36l-.74-2.99-11.13,2.57,6.97-3.12-1.5-3.27c-1.44.13-2.87.19-4.25.29-9.73.45-17.83-5.04-27.31-6.14-3.36-.31-8.33.12-10.47,3.25-2.64,3.69.65,9.14,3.28,11.85Z"/>
  <path class="cls-9" d="M186.47,278.26c.05-.54-.55-1.05-1.77-1.53-.2-2.82-2.31-5.24-5.22-5.72-1.8-.29-3.54.22-4.88,1.27-1.28-.71-2.14-.87-2.54-.44-.42.44-.18,1.37.72,2.75-.13.29-.25.59-.34.91-1.49.23-2.28.65-2.33,1.24-.06.6.7,1.17,2.23,1.69.51,2.47,2.48,4.49,5.11,4.92,1.4.23,2.76-.03,3.93-.65.67.37,1.23.6,1.66.67.41.07.71,0,.91-.2.37-.39.22-1.16-.44-2.3.32-.43.58-.9.79-1.42,1.39-.24,2.13-.64,2.18-1.2ZM177.6,282.51c-2.11-.35-3.73-1.88-4.3-3.8.74.2,1.57.38,2.46.52.42.07.86.13,1.3.18,1.2,1.1,2.4,2.04,3.47,2.74-.9.37-1.9.51-2.93.34ZM179.35,271.84c2.94.48,4.94,3.27,4.46,6.21-.04.26-.11.51-.19.75-1.43.17-3.38.16-5.44-.03-.25-.02-.52-.05-.78-.08-.09-.09-.19-.17-.28-.26-1.39-1.32-2.59-2.68-3.4-3.82,1.07-1.97,3.3-3.15,5.63-2.77ZM184.71,277.54c.66.3.85.54.84.63,0,.1-.25.31-1.01.48.04-.15.07-.31.1-.46.04-.22.06-.44.07-.65ZM176.12,278.52c-1.13-.17-2.16-.39-3.01-.64-.07-.51-.06-1.04.02-1.58.05-.31.13-.61.23-.9.73.98,1.67,2.05,2.75,3.12ZM173.19,273.83c-.53-.88-.54-1.28-.46-1.36.09-.09.45-.1,1.29.33-.31.31-.59.66-.83,1.03ZM172.24,277.61c-.96-.37-1.22-.67-1.2-.79.01-.13.3-.37,1.25-.55-.07.45-.08.89-.05,1.33ZM183,281.49c.35.67.35.98.28,1.05-.07.08-.41.09-1.16-.28.32-.23.61-.49.88-.77ZM181.3,281.78c-.87-.54-1.87-1.3-2.93-2.22,1.83.16,3.54.16,4.95.02-.46.92-1.16,1.68-2.02,2.2Z"/>
  <path class="cls-4" d="M207.46,233.38c-.52-58.9-40.8-114.88-55.11-132.94,3.75-.07,7.57.01,11.42.23,56.3,3.25,100.13,37.02,97.91,75.44-1.47,25.7-23.17,46.96-54.22,57.26Z"/>
  <path class="cls-1" d="M237.48,122.56c15.57-2.99,27.74,12.18,27.21,33.87-.55,21.7-13.61,41.7-29.18,44.68-10.24,1.97-19.01-3.93-23.67-14.36-2.42-5.42-3.73-12.08-3.54-19.51.35-13.41,5.46-26.17,13.01-34.66,4.65-5.26,10.23-8.88,16.18-10.02Z"/>
  <path class="cls-8" d="M218.72,172.62c-.67,11.9,4.22,21.84,10.93,22.22,6.71.38,12.68-8.96,13.35-20.86.67-11.9-4.22-21.84-10.93-22.22-6.71-.38-12.68,8.96-13.35,20.86Z"/>
  <path class="cls-6" d="M307.17,239.32l-43.42,55.69c-3.25,4.17-9.31,4.84-13.39,1.47l-30.51-25.1c-2.31-1.9-3.78-4.64-4.07-7.63l-.57-5.68c.22.59.6,1.12,1.14,1.53l33.31,25.33c3.68,2.81,8.97,2.13,11.82-1.53l17.8-22.82,24.63-31.59c.76-.98.93-2.23.53-3.31l.19-.19,3.26,9.51c.51,1.47.23,3.1-.72,4.32Z"/>
  <path class="cls-6" d="M303.91,228.99l-24.63,31.59-17.8,22.82c-2.85,3.66-8.14,4.34-11.82,1.53l-33.31-25.33c-.54-.41-.92-.94-1.14-1.53-.44-1.12-.29-2.44.52-3.45l8.1-10.08c1.17-1.44,3.24-1.74,4.75-.66l23.2,16.47c1.53,1.1,3.66.78,4.79-.73l16.52-21.67,16.13-21.14c1.23-1.6,3.55-1.85,5.08-.53l9.13,7.91c.48.42.82.93,1.01,1.49.4,1.08.23,2.33-.53,3.31Z"/>
  <polygon class="cls-6" points="318.09 205.03 315.56 213.57 307.02 216.1 315.56 218.63 318.09 227.16 320.62 218.63 329.15 216.1 320.62 213.57 318.09 205.03"/>
  <path class="cls-9" d="M307.17,239.32l-43.42,55.69c-3.25,4.17-9.31,4.84-13.39,1.47l-30.51-25.1c-2.31-1.9-3.78-4.64-4.07-7.63l-.57-5.68c.22.59.6,1.12,1.14,1.53l33.31,25.33c3.68,2.81,8.97,2.13,11.82-1.53l17.8-22.82,24.63-31.59c.76-.98.93-2.23.53-3.31l.19-.19,3.26,9.51c.51,1.47.23,3.1-.72,4.32Z"/>
</svg>