<?xml version="1.0" encoding="UTF-8"?>
<svg id="Error" xmlns="http://www.w3.org/2000/svg" viewBox="0 0 397.13 396.85">
  <defs>
    <style>
      .cls-1, .cls-2, .cls-3 {
        fill: #8f84ff;
      }

      .cls-1, .cls-4, .cls-5 {
        opacity: .3;
      }

      .cls-6, .cls-4 {
        fill: #fff;
      }

      .cls-2, .cls-7 {
        opacity: .14;
      }

      .cls-8 {
        fill: #f0f;
      }

      .cls-7, .cls-9, .cls-5 {
        fill: #1a1b38;
      }

      .cls-10 {
        fill: #be1621;
      }
    </style>
  </defs>
  <path class="cls-3" d="M329.24,169.45l-.7.4c-.63-.26-1.31-.4-2.02-.4h-167.64c-2.51,0-4.54,2.32-4.54,5.18v114.68c0,2.86,2.03,5.33,4.54,5.52l169.05,12.44s.02.01.02,0l1.29.1c3.04.22,5.52-2.16,5.52-5.33v-126.86c0-3.16-2.48-5.73-5.52-5.73Z"/>
  <path class="cls-2" d="M198.32,62.01c74.01-2.19,138.12,51.52,147.8,121.98,10.59,77.04-47.69,146.36-119.41,157.46-89.2,13.81-175.73-66.08-167.96-152.75,5.85-65.3,64.33-124.47,139.57-126.69Z"/>
  <path class="cls-5" d="M334.76,175.18v126.86c0,3.17-2.48,5.55-5.52,5.33l-1.29-.1c2.36-.48,4.1-2.58,4.1-5.23v-126.86c0-2.42-1.45-4.49-3.51-5.33l.7-.4c3.04,0,5.52,2.57,5.52,5.73Z"/>
  <path class="cls-1" d="M158.88,294.83l169.05,12.44c-.45.1-.92.14-1.41.1l-170.36-12.54c-2.51-.19-4.54-2.66-4.54-5.52v-114.68c0-2.86,2.03-5.18,4.54-5.18h2.72c-2.51,0-4.54,2.32-4.54,5.18v114.68c0,2.86,2.03,5.33,4.54,5.52Z"/>
  <path class="cls-6" d="M161.47,286.74l158.67,10.89c2.48.17,4.5-1.79,4.5-4.37v-111.07c0-2.58-2.02-4.69-4.5-4.7l-158.67-.68c-2.07,0-3.75,1.89-3.75,4.25v101.16c0,2.35,1.68,4.38,3.75,4.52Z"/>
  <path class="cls-6" d="M235.32,172.92c0,1.18.88,2.14,1.96,2.14,1.08,0,1.96-.95,1.96-2.13,0-1.18-.88-2.14-1.96-2.14-1.08,0-1.96.95-1.96,2.13Z"/>
  <path class="cls-10" d="M147.77,122.07l155.08-5c5.3-.17,9.61,3.93,9.61,9.17v151.18c0,5.23-4.32,9.21-9.61,8.89l-155.08-9.48c-4.4-.27-7.96-4.33-7.96-9.06v-136.85c0-4.74,3.55-8.69,7.96-8.83Z"/>
  <path class="cls-7" d="M207.4,179.53c18.08-25.97,49.55-17.51,69.57-46.41,3.62-5.23,6.08-10.55,7.77-15.46l18.12-.58c5.3-.17,9.61,3.93,9.61,9.17v151.18c0,5.23-4.32,9.21-9.61,8.89l-149.5-9.14c3.37-4.79,32.81-22.28,40.45-49.86,7-25.26,2.72-32.15,13.59-47.77Z"/>
  <path class="cls-4" d="M221.37,166.43c-22.03.57-39.56,18.24-39.56,39.4s17.53,38.68,39.56,39.08c6.9.13,13.77-1.47,19.85-4.62,6.58-3.4,12.08-8.5,15.9-14.74,3.69-6.05,5.65-12.99,5.65-20.05,0-22.14-18.8-39.66-41.4-39.07ZM253.9,223.76c-3.46,5.68-8.47,10.34-14.45,13.44-5.39,2.81-11.56,4.35-18.08,4.25-20.14-.33-36.14-16.28-36.14-35.64s16-35.43,36.14-35.92c20.61-.5,37.67,15.45,37.67,35.63,0,6.66-1.87,12.89-5.14,18.24Z"/>
  <path class="cls-6" d="M259.04,205.52c0,6.66-1.87,12.89-5.14,18.24-3.46,5.68-8.47,10.34-14.45,13.44-5.39,2.81-11.56,4.35-18.08,4.25-20.14-.33-36.14-16.28-36.14-35.64s16-35.43,36.14-35.92c20.61-.5,37.67,15.45,37.67,35.63Z"/>
  <polygon class="cls-10" points="75.76 181.21 73.88 187.55 67.55 189.43 73.88 191.31 75.76 197.65 77.64 191.31 83.98 189.43 77.64 187.55 75.76 181.21"/>
  <polygon class="cls-10" points="224.8 95.24 223.68 99.02 219.91 100.14 223.68 101.26 224.8 105.04 225.92 101.26 229.7 100.14 225.92 99.02 224.8 95.24"/>
  <polygon class="cls-10" points="181.79 76.82 179.12 85.81 170.13 88.48 179.12 91.15 181.79 100.14 184.46 91.15 193.45 88.48 184.46 85.81 181.79 76.82"/>
  <path class="cls-10" d="M233.12,194.96c1.24-1.48,2.69-3,3.17-4.93.4-1.59-.99-2.8-2.51-2.51-1.79.34-3.26,1.6-4.66,2.67-1.54,1.18-3,2.44-4.46,3.72-2.05,1.79-4.02,3.7-5.97,5.62-.99-1.43-1.98-2.87-2.98-4.3-1-1.43-1.98-2.87-3.04-4.26-1.12-1.46-2.24-3.14-3.85-4.1-1.4-.84-3.75.21-3.54,2.03.41,3.55,2.95,6.96,4.74,9.97,1.16,1.94,2.35,3.84,3.57,5.74-1.44,1.45-2.87,2.91-4.29,4.38-2.57,2.64-6.06,5.42-7.31,8.98-.74,2.1,1.68,4.8,3.88,3.88,3.54-1.48,6.05-4.92,8.67-7.62,1.09-1.12,2.19-2.23,3.29-3.35,1.34,1.9,2.7,3.78,4.11,5.62,1.13,1.47,2.27,2.94,3.43,4.38.58.72,1.13,1.51,1.81,2.14,1.24,1.16,2.48,1.4,4.13,1.12,1.18-.2,2.02-1.32,2.37-2.37.83-2.47-1.04-4.26-2.51-5.97-1.11-1.29-2.2-2.59-3.27-3.9-1.68-2.06-3.29-4.17-4.88-6.3,2.21-2.22,4.45-4.43,6.57-6.73,1.19-1.28,2.39-2.56,3.52-3.9Z"/>
  <g>
    <path class="cls-9" d="M209.09,304.89c-.18,0-.35-.1-.44-.27-.31-.6-.6-1.23-.85-1.87-.1-.26.02-.55.28-.65.26-.1.55.02.65.28.24.61.51,1.21.81,1.78.13.25.03.55-.21.67-.07.04-.15.06-.23.06Z"/>
    <path class="cls-9" d="M207.17,299.17c-.24,0-.45-.17-.49-.41-.22-1.26-.34-2.57-.34-3.87v-.25c0-.27.23-.49.5-.49h0c.28,0,.5.23.49.51v.24c0,1.25.11,2.49.32,3.7.05.27-.13.53-.41.58-.03,0-.06,0-.09,0ZM207.25,291.11s-.06,0-.09,0c-.27-.05-.45-.31-.4-.58.26-1.36.64-2.7,1.13-3.98.1-.26.39-.39.65-.29.26.1.39.39.29.65-.47,1.23-.83,2.51-1.08,3.81-.05.24-.25.41-.49.41ZM210.14,283.58c-.09,0-.18-.02-.26-.07-.24-.14-.31-.45-.17-.69.73-1.19,1.57-2.31,2.49-3.31.19-.2.5-.21.71-.03.2.19.22.5.03.71-.88.96-1.68,2.02-2.38,3.16-.09.15-.26.24-.43.24ZM215.61,277.67c-.15,0-.31-.07-.41-.21-.16-.22-.11-.54.11-.7,1.09-.79,2.29-1.5,3.55-2.12.25-.12.55-.02.67.23.12.25.02.55-.23.67-1.21.59-2.36,1.27-3.4,2.03-.09.06-.19.09-.29.09ZM222.84,274.09c-.21,0-.41-.13-.48-.35-.08-.26.06-.54.32-.63,1.23-.4,2.57-.75,3.97-1.04.27-.06.53.12.59.39.06.27-.12.54-.39.59-1.37.28-2.67.62-3.87,1.01-.05.02-.1.02-.15.02ZM230.76,272.4c-.25,0-.46-.18-.5-.44-.04-.27.16-.52.43-.56,1.25-.16,2.58-.29,4.06-.4.27-.02.52.19.54.46s-.19.52-.46.54c-1.46.11-2.77.24-4.01.4-.02,0-.04,0-.06,0ZM238.85,271.76c-.27,0-.49-.21-.5-.48-.01-.28.2-.51.48-.52l4.05-.17c.31,0,.51.2.52.48.01.28-.2.51-.48.52l-4.05.17s-.02,0-.02,0ZM246.95,271.41c-.26,0-.49-.21-.5-.47-.01-.28.2-.51.47-.52,1.35-.07,2.7-.14,4.04-.23.25-.02.51.19.53.47.02.28-.19.51-.47.53-1.35.09-2.7.16-4.05.23,0,0-.02,0-.03,0ZM255.04,270.88c-.26,0-.47-.2-.5-.46-.02-.27.18-.52.46-.54,1.34-.12,2.68-.25,4.02-.41.27-.03.52.16.55.44.03.27-.17.52-.44.55-1.35.16-2.7.29-4.05.41-.01,0-.03,0-.04,0ZM263.09,269.93c-.24,0-.46-.18-.49-.42-.04-.27.14-.53.42-.57,1.36-.21,2.7-.45,3.97-.7.27-.06.53.12.59.39s-.12.53-.39.59c-1.29.26-2.64.49-4.01.71-.03,0-.05,0-.08,0ZM271.04,268.33c-.22,0-.43-.15-.48-.38-.07-.27.09-.54.36-.61,1.35-.35,2.65-.73,3.85-1.13.26-.09.54.05.63.31s-.05.54-.31.63c-1.23.41-2.55.8-3.92,1.15-.04.01-.08.02-.12.02ZM278.71,265.73c-.19,0-.37-.11-.46-.3-.11-.25,0-.55.25-.66,1.26-.56,2.45-1.17,3.55-1.82.24-.14.54-.06.68.17.14.24.06.54-.17.68-1.13.67-2.36,1.3-3.66,1.88-.07.03-.13.04-.2.04ZM285.65,261.58c-.15,0-.29-.06-.39-.19-.17-.22-.14-.53.08-.7.13-.11.26-.21.39-.32.88-.74,1.72-1.55,2.48-2.41.18-.21.5-.23.71-.04.21.18.23.5.04.71-.8.9-1.67,1.74-2.59,2.51-.13.11-.27.23-.41.33-.09.07-.2.11-.31.11ZM290.99,255.53c-.09,0-.18-.02-.26-.07-.24-.14-.31-.45-.17-.69.7-1.15,1.28-2.35,1.72-3.56.09-.26.38-.39.64-.3s.39.38.3.64c-.46,1.27-1.07,2.53-1.8,3.73-.09.16-.26.24-.43.24ZM284.32,251.6c-.25,0-.47-.19-.5-.44-.03-.27.17-.52.44-.55,1.25-.14,2.54-.43,3.85-.86.26-.08.54.06.63.32.09.26-.06.54-.32.63-1.37.45-2.73.75-4.05.9-.02,0-.04,0-.06,0ZM280.28,251.54s-.05,0-.08,0c-.34-.05-.67-.12-1-.19-1.04-.24-2.04-.61-2.99-1.11-.24-.13-.34-.43-.21-.67.13-.24.43-.34.67-.21.87.46,1.8.8,2.75,1.02.31.07.62.13.93.18.27.04.46.3.42.57-.04.25-.25.42-.49.42ZM292,249.14c-.18,0-.35-.1-.44-.27-.13-.25-.03-.55.21-.67.49-.25.97-.53,1.45-.81.08-.63.11-1.26.11-1.88,0-.42-.02-.84-.05-1.26-.02-.26-.05-.51-.09-.76-.04-.27.15-.53.42-.57.27-.03.53.15.57.42.04.27.07.55.09.82.04.45.06.89.06,1.34,0,.39-.01.79-.04,1.19.29-.2.58-.4.86-.6.22-.16.53-.12.7.11.16.22.12.54-.11.7-1.11.82-2.29,1.55-3.5,2.18-.07.04-.15.06-.23.06ZM273.25,247.82c-.14,0-.28-.06-.38-.17-.92-1.04-1.59-2.21-1.99-3.46l-.07-.25c-.08-.26.08-.54.34-.62.26-.08.54.08.62.34l.07.23c.35,1.12.95,2.16,1.78,3.09.18.21.16.52-.04.71-.09.08-.21.12-.33.12ZM298.51,244.36c-.13,0-.26-.05-.35-.15-.2-.2-.19-.51,0-.71.94-.93,1.82-1.94,2.61-3,.17-.22.48-.27.7-.1.22.17.27.48.1.7-.82,1.1-1.73,2.15-2.7,3.11-.1.1-.23.15-.35.15ZM271.23,240.3s-.08,0-.11-.01c-.27-.06-.44-.33-.37-.6.31-1.32.93-2.65,1.8-3.83.17-.22.48-.27.7-.11.22.16.27.48.11.7-.79,1.07-1.35,2.27-1.63,3.46-.05.23-.26.39-.49.39ZM292.52,240.04c-.19,0-.37-.11-.45-.29-.55-1.19-1.25-2.3-2.1-3.29-.18-.21-.15-.53.06-.7.21-.18.53-.15.7.06.9,1.06,1.66,2.25,2.25,3.52.12.25,0,.55-.25.66-.07.03-.14.05-.21.05ZM303.34,237.88c-.08,0-.16-.02-.24-.06-.24-.13-.33-.43-.2-.68.63-1.17,1.17-2.4,1.6-3.63.09-.26.38-.4.64-.31.26.09.4.38.31.64-.45,1.29-1.01,2.56-1.66,3.78-.09.17-.26.26-.44.26ZM287.32,233.96c-.09,0-.19-.03-.27-.08-1.12-.72-2.32-1.23-3.55-1.5-.27-.06-.44-.33-.38-.6.06-.27.33-.44.6-.38,1.35.3,2.65.85,3.87,1.64.23.15.3.46.15.69-.1.15-.26.23-.42.23ZM275.87,233.87c-.16,0-.32-.08-.42-.22-.15-.23-.09-.54.14-.69,1.22-.81,2.53-1.36,3.89-1.63.27-.06.53.12.59.39.05.27-.12.53-.39.59-1.23.25-2.42.75-3.54,1.48-.08.06-.18.08-.28.08ZM306.02,230.26s-.06,0-.1,0c-.27-.05-.45-.31-.4-.59.24-1.25.41-2.58.51-3.96.02-.28.26-.48.54-.46.28.02.48.26.46.54-.1,1.42-.28,2.79-.53,4.08-.05.24-.26.41-.49.41ZM306.63,222.19c-.27,0-.49-.22-.5-.49-.02-.77-.05-1.54-.09-2.31-.04-.57-.08-1.13-.13-1.7-.03-.28.18-.52.45-.54.27-.02.52.18.54.45.05.58.1,1.16.13,1.73.05.78.08,1.57.1,2.35,0,.28-.21.5-.49.51h0ZM305.86,214.13c-.24,0-.45-.17-.49-.41-.25-1.36-.56-2.67-.93-3.88-.08-.26.07-.54.33-.62.26-.08.54.07.62.33.38,1.25.7,2.6.96,4,.05.27-.13.53-.4.58-.03,0-.06,0-.09,0ZM303.46,206.41c-.19,0-.37-.11-.45-.29-.31-.65-.65-1.29-1-1.9-.31-.52-.64-1.03-.99-1.53-.16-.23-.1-.54.12-.7s.54-.1.7.12c.37.52.71,1.06,1.03,1.6.37.63.72,1.29,1.05,1.97.12.25.01.55-.24.67-.07.03-.14.05-.21.05ZM298.83,199.8c-.13,0-.26-.05-.36-.15-.91-.93-1.92-1.81-2.99-2.63-.22-.17-.26-.48-.1-.7.17-.22.48-.26.7-.1,1.11.85,2.15,1.76,3.1,2.72.19.2.19.51,0,.71-.1.1-.22.14-.35.14ZM292.41,194.89c-.08,0-.17-.02-.25-.07-1.13-.65-2.33-1.26-3.57-1.8-.25-.11-.37-.4-.26-.66.11-.25.41-.37.66-.26,1.27.55,2.51,1.18,3.67,1.85.24.14.32.44.18.68-.09.16-.26.25-.43.25Z"/>
    <path class="cls-9" d="M284.9,191.61s-.1,0-.15-.02c-.63-.2-1.26-.38-1.9-.55-.27-.07-.42-.35-.35-.61.07-.27.34-.42.61-.35.65.17,1.3.36,1.94.57.26.08.41.36.33.63-.07.21-.26.35-.48.35Z"/>
  </g>
  <path class="cls-8" d="M109.96,292.53c-.12,0-.24-.04-.34-.13-.99-.9-1.96-1.85-2.88-2.83-.19-.2-.18-.52.02-.71.2-.19.52-.18.71.02.9.96,1.85,1.89,2.82,2.78.2.19.22.5.03.71-.1.11-.23.16-.37.16ZM104.5,286.7c-.15,0-.29-.06-.39-.19-.84-1.05-1.64-2.14-2.39-3.25-.15-.23-.09-.54.13-.69.23-.16.54-.09.69.13.74,1.09,1.53,2.16,2.35,3.19.17.21.14.53-.08.7-.09.07-.2.11-.31.11ZM100.02,280.08c-.17,0-.34-.09-.44-.25-.66-1.17-1.28-2.38-1.85-3.59-.12-.25,0-.55.24-.66.25-.12.55,0,.66.24.55,1.19,1.16,2.38,1.81,3.52.14.24.05.54-.19.68-.08.04-.16.07-.25.07ZM96.65,272.84c-.2,0-.39-.12-.47-.33-.47-1.26-.88-2.56-1.24-3.84-.07-.27.08-.54.35-.62.27-.08.54.08.62.35.35,1.26.76,2.53,1.22,3.77.1.26-.04.55-.3.64-.06.02-.12.03-.17.03ZM94.52,265.13c-.24,0-.45-.17-.49-.41-.25-1.33-.44-2.67-.56-4-.03-.28.18-.52.45-.55.28-.02.52.18.55.45.12,1.3.31,2.62.55,3.92.05.27-.13.53-.4.58-.03,0-.06,0-.09,0ZM93.77,257.18c-.28,0-.5-.22-.5-.5v-.15c0-.38,0-.75.01-1.13.02-.91.08-1.84.16-2.76.03-.27.27-.46.54-.45.27.03.48.27.45.54-.08.9-.14,1.8-.16,2.69,0,.37-.01.74-.01,1.11v.15c0,.28-.22.5-.5.5ZM94.5,249.23s-.06,0-.09,0c-.27-.05-.45-.31-.4-.58.25-1.32.56-2.64.93-3.94.08-.26.36-.42.62-.34.27.08.42.35.34.62-.36,1.27-.67,2.56-.91,3.85-.04.24-.25.41-.49.41ZM96.69,241.54c-.06,0-.12-.01-.18-.03-.26-.1-.39-.39-.29-.65.48-1.25,1.03-2.5,1.62-3.71.12-.25.42-.35.67-.23.25.12.35.42.23.67-.58,1.18-1.11,2.4-1.58,3.62-.08.2-.27.32-.47.32ZM133.42,236.71c-1.14,0-2.26-.15-3.33-.44-.27-.07-.42-.35-.35-.62.07-.27.35-.42.61-.35,1.22.33,2.51.46,3.8.39.28-.03.51.19.53.47.02.28-.19.51-.47.53-.26.02-.53.02-.79.02ZM138.06,235.8c-.19,0-.38-.12-.46-.31-.11-.25.01-.55.27-.66,1.22-.52,2.27-1.23,3.12-2.11.19-.2.51-.21.71-.02.2.19.21.51.02.71-.94.98-2.1,1.77-3.46,2.34-.06.03-.13.04-.19.04ZM126.63,234.56c-.1,0-.21-.03-.29-.1-1.1-.8-2.08-1.78-2.93-2.91-.17-.22-.12-.53.1-.7.22-.17.53-.12.7.1.79,1.05,1.7,1.96,2.72,2.7.22.16.27.48.11.7-.1.13-.25.21-.4.21ZM100.21,234.37c-.09,0-.18-.02-.26-.07-.24-.14-.31-.45-.17-.69.7-1.15,1.45-2.28,2.25-3.36.16-.22.48-.27.7-.11s.27.48.11.7c-.78,1.06-1.51,2.16-2.2,3.29-.09.16-.26.24-.43.24ZM143.34,230.15s-.1,0-.14-.02c-.26-.08-.41-.36-.33-.62.23-.78.35-1.6.35-2.44,0-.43-.03-.86-.09-1.3-.04-.27.15-.53.43-.56.27-.04.53.15.56.43.07.48.1.97.1,1.44,0,.94-.13,1.86-.4,2.73-.06.22-.26.36-.48.36ZM121.86,228.27c-.2,0-.38-.12-.46-.31-.51-1.25-.88-2.57-1.11-3.95-.05-.27.14-.53.41-.58.27-.05.53.14.58.41.22,1.3.57,2.56,1.05,3.74.1.26-.02.55-.28.65-.06.03-.12.04-.19.04ZM104.94,227.93c-.12,0-.24-.04-.33-.12-.21-.18-.23-.5-.04-.71.9-1.01,1.84-1.99,2.82-2.9.2-.19.52-.18.71.02.19.2.18.52-.02.71-.95.89-1.88,1.85-2.75,2.84-.1.11-.24.17-.37.17ZM110.77,222.47c-.15,0-.3-.07-.4-.19-.17-.22-.13-.53.09-.7,1.07-.82,2.19-1.6,3.32-2.31.24-.15.54-.08.69.16s.07.54-.16.69c-1.11.69-2.2,1.45-3.24,2.25-.09.07-.2.1-.3.1ZM142.38,222.41c-.18,0-.35-.1-.44-.27-.59-1.13-1.36-2.17-2.27-3.09-.19-.2-.19-.51,0-.71.2-.19.51-.2.71,0,.98.99,1.81,2.11,2.45,3.33.13.25.03.55-.21.67-.07.04-.15.06-.23.06ZM120.54,220.44h-.02c-.28-.01-.49-.25-.48-.52.02-.47.06-.94.11-1.41.06-.48.13-.96.22-1.45-.55.21-1.09.44-1.63.69-.33.15-.65.3-.97.46-.25.12-.55.02-.67-.23-.12-.25-.02-.55.23-.67.33-.16.67-.32,1-.47.75-.34,1.52-.65,2.28-.93v-.03c.07-.27.34-.44.61-.37.19.04.32.19.37.36.05.05.09.12.12.19.08.24-.02.49-.24.61-.14.66-.25,1.32-.32,1.98-.05.44-.09.89-.11,1.33-.01.27-.23.48-.5.48ZM136.81,216.83c-.08,0-.16-.02-.23-.06-.21-.11-.42-.21-.63-.3-.95-.41-1.96-.73-3.01-.94-.27-.05-.45-.32-.39-.59.05-.27.32-.45.59-.39,1.12.23,2.2.56,3.21,1,.24.1.47.21.7.33.25.13.34.43.21.67-.09.17-.26.27-.44.27ZM125.09,215.65c-.23,0-.44-.17-.49-.4-.05-.27.12-.53.39-.59,1.38-.27,2.75-.43,4.06-.46h.01c.27,0,.49.22.5.49,0,.28-.21.5-.49.51-1.25.03-2.56.17-3.88.44-.03,0-.07,0-.1,0ZM122.32,212.68c-.06,0-.12-.01-.19-.04-.26-.1-.38-.39-.28-.65.48-1.2,1.07-2.43,1.74-3.66.13-.24.44-.33.68-.2.24.13.33.44.2.68-.65,1.19-1.22,2.39-1.69,3.56-.08.2-.27.31-.46.31ZM126.13,205.66c-.1,0-.19-.03-.28-.08-.23-.15-.29-.47-.14-.69.63-.93,1.33-1.9,2.08-2.88l.29-.38c.17-.22.48-.26.7-.09.22.17.26.48.09.7l-.29.38c-.74.96-1.43,1.91-2.04,2.83-.1.14-.25.22-.42.22ZM131.02,199.34c-.12,0-.23-.04-.33-.12-.21-.18-.23-.5-.05-.71.88-1.01,1.8-2.01,2.73-2.96.19-.2.51-.2.71,0,.2.19.2.51,0,.71-.92.94-1.82,1.92-2.69,2.92-.1.11-.24.17-.38.17ZM136.61,193.61c-.14,0-.27-.05-.37-.16-.19-.2-.17-.52.03-.71.98-.9,2.01-1.79,3.04-2.64.21-.18.53-.14.7.07s.14.53-.07.7c-1.02.84-2.03,1.72-3,2.61-.1.09-.22.13-.34.13ZM142.78,188.53c-.15,0-.31-.07-.4-.2-.16-.22-.12-.54.11-.7,1.08-.79,2.19-1.57,3.31-2.3.23-.15.54-.09.69.14.15.23.09.54-.14.69-1.1.72-2.2,1.49-3.26,2.27-.09.07-.19.1-.3.1ZM149.47,184.14c-.17,0-.34-.09-.43-.25-.14-.24-.06-.54.18-.68,1.15-.67,2.34-1.32,3.53-1.93.25-.13.55-.03.67.22.13.25.03.55-.22.67-1.18.61-2.35,1.25-3.48,1.91-.08.05-.17.07-.25.07Z"/>
  <path class="cls-6" d="M179.28,168.99c-.41-.47-.81-.94-1.26-1.37-.44-.42-.87-.84-1.35-1.22-.25-.2-.5-.4-.75-.6-.18-.14-.33-.27-.54-.35-.04-.02-.09-.04-.13-.06-.13-.06-.26-.11-.4-.17-.48-.2-.94-.24-1.38.1-.37.28-.61.84-.44,1.3.12.34.23.78.43,1.08.16.25.35.48.53.71.45.61.94,1.16,1.46,1.71.43.46.91.85,1.39,1.25.31.26.62.55.97.75.43.25.89.52,1.4.46.34-.04.67-.11.92-.38.24-.27.35-.56.38-.92.07-.88-.69-1.68-1.22-2.29Z"/>
  <path class="cls-6" d="M177.32,177.36c-.2-.32-.47-.52-.78-.71-.39-.34-.99-.47-1.47-.51-.38-.03-.76-.05-1.14-.04-.47,0-.96.11-1.42.2-.53.1-1.02.24-1.39.68-.51.6-.46,1.46.24,1.9.29.18.62.31.97.31.19,0,.38-.02.56-.02.36-.01.73.01,1.08-.04.76-.1,1.83-.05,2.48-.54,0,0,0,0,.01,0,.15-.06.28-.12.41-.22.12-.09.25-.19.35-.3.17-.18.23-.48.09-.7Z"/>
  <path class="cls-6" d="M186.72,164.19c0-.25,0-.51,0-.76-.02-.43-.16-.71-.39-1.05-.29-.42-.79-.57-1.25-.33-.33.17-.62.37-.81.71-.17.3-.29.66-.42.98-.21.53-.25,1.16-.32,1.73-.08.59-.13,1.16-.09,1.76.04.68.05,1.44.45,2.03.49.73,1.53.77,2.02,0,.22-.36.32-.78.37-1.19.01-.11.02-.22.04-.33,0-.05.02-.09.02-.12.1-.63.17-1.25.23-1.88.02-.25.05-.5.08-.74,0-.04.01-.09.02-.1.03-.23.08-.46.07-.7Z"/>
  <path class="cls-3" d="M328.28,307.19v3.16c0,1.86-1.17,3.44-2.76,3.72l-75.79,13.5c-.9.16-1.81.21-2.72.13l-183.86-15.39c-1.64-.14-2.91-1.73-2.91-3.64v-2.86l85.03-11.59c.95-.13,1.91-.16,2.87-.09l7.1.52c.3.1.6.16.92.18l170.36,12.54c.62.04,1.21-.02,1.76-.18Z"/>
  <path class="cls-5" d="M148.13,294.13l180.14,13.2-78.54,13.99c-.9.16-1.81.2-2.72.13l-186.77-15.64,85.03-11.59c.95-.13,1.91-.16,2.87-.09Z"/>
  <polygon class="cls-3" points="301.99 307.45 152.02 296.29 105.6 302.57 254.28 314.49 301.99 307.45"/>
</svg>