<svg width="522" height="400" viewBox="0 0 522 400" fill="none" xmlns="http://www.w3.org/2000/svg">
  <g clip-path="url(#clip0_1388_32289)">
    <path opacity="0.1"
          d="M238.834 353.205C358.458 353.205 455.433 345.685 455.433 336.407C455.433 327.13 358.458 319.609 238.834 319.609C119.21 319.609 22.2358 327.13 22.2358 336.407C22.2358 345.685 119.21 353.205 238.834 353.205Z"
          fill="#BE1621"/>
    <g opacity="0.1">
      <path opacity="0.1"
            d="M430.674 240.689C429.379 236.765 424.13 234.958 418.952 236.658C418.206 236.901 417.484 237.213 416.796 237.589C416.465 237.498 416.124 237.416 415.777 237.355C416.06 236.226 416.168 235.061 416.098 233.899C417.884 232.705 419.333 231.073 420.306 229.16C421.279 227.246 421.743 225.114 421.653 222.97C423.435 221.773 424.879 220.14 425.848 218.226C426.817 216.313 427.278 214.183 427.188 212.041C428.983 210.86 430.431 209.222 431.382 207.297C433.88 202.359 432.845 196.811 429.069 194.902C425.292 192.993 420.201 195.452 417.704 200.389C416.714 202.295 416.251 204.43 416.363 206.574C414.582 207.771 413.138 209.404 412.169 211.318C411.2 213.231 410.738 215.361 410.828 217.503C409.047 218.7 407.603 220.333 406.634 222.246C405.665 224.16 405.204 226.29 405.294 228.432C403.508 229.627 402.06 231.26 401.087 233.175C400.115 235.089 399.65 237.221 399.739 239.366C397.944 240.547 396.496 242.185 395.544 244.11C395.075 245.038 394.719 246.019 394.484 247.032C393.858 246.118 393.095 245.306 392.221 244.624C392.121 243.847 391.951 243.08 391.712 242.333C390.01 237.157 385.443 234.001 381.519 235.294C377.595 236.587 375.78 241.824 377.483 247.001C378.179 249.221 379.52 251.184 381.335 252.641C381.435 253.419 381.606 254.185 381.845 254.932C382.834 257.935 384.786 260.256 387.018 261.422C386.82 262.07 386.679 262.735 386.595 263.407C384.49 265.429 383.135 268.105 382.752 270.997C380.646 273.02 379.291 275.698 378.91 278.592C377.867 279.592 377.005 280.765 376.361 282.058C373.859 286.996 374.894 292.549 378.67 294.453C382.446 296.357 387.538 293.908 390.04 288.966C390.7 287.677 391.131 286.283 391.314 284.848C393.419 282.826 394.774 280.15 395.157 277.258C397.263 275.235 398.618 272.557 399 269.663C401.09 267.636 402.429 264.96 402.797 262.074C404.911 260.051 406.27 257.368 406.649 254.469C407.298 253.855 407.877 253.172 408.377 252.433C410.459 252.859 412.618 252.724 414.63 252.041C415.376 251.798 416.098 251.486 416.786 251.109C419.04 251.703 421.42 251.618 423.626 250.865C428.788 249.18 431.963 244.619 430.674 240.689Z"
            fill="#3F3D56"/>
      <g opacity="0.1">
        <path opacity="0.1"
              d="M421.536 225.214C421.001 225.74 420.414 226.209 419.783 226.614C419.863 228.067 419.671 229.523 419.217 230.905C419.618 230.352 419.976 229.768 420.287 229.159C420.919 227.923 421.341 226.589 421.536 225.214Z"
              fill="black"/>
        <path opacity="0.1"
              d="M427.071 214.285C426.536 214.811 425.948 215.28 425.318 215.685C425.398 217.138 425.206 218.593 424.752 219.976C425.154 219.421 425.512 218.836 425.822 218.225C426.452 216.989 426.874 215.658 427.071 214.285Z"
              fill="black"/>
        <path opacity="0.1"
              d="M414.518 210.218C414.471 209.469 414.5 208.717 414.605 207.974C413.615 208.948 412.792 210.078 412.169 211.318C411.861 211.93 411.602 212.564 411.394 213.217C412.238 212.03 413.298 211.013 414.518 210.218Z"
              fill="black"/>
        <path opacity="0.1"
              d="M379.389 276.357C379.834 275.737 380.337 275.161 380.892 274.636C380.979 273.946 381.127 273.264 381.335 272.6C380.892 273.195 380.502 273.827 380.168 274.489C379.86 275.09 379.6 275.715 379.389 276.357Z"
              fill="black"/>
        <path opacity="0.1"
              d="M383.231 268.772C383.677 268.152 384.18 267.576 384.735 267.051C384.818 266.379 384.959 265.715 385.158 265.066C384.735 265.644 384.36 266.255 384.037 266.894C383.721 267.499 383.452 268.127 383.231 268.772Z"
              fill="black"/>
        <path opacity="0.1"
              d="M415.996 236.144C415.464 236.669 414.878 237.136 414.248 237.538C414.318 238.7 414.21 239.866 413.927 240.995C414.271 241.054 414.611 241.132 414.946 241.229C415.634 240.852 416.356 240.54 417.102 240.297C422.29 238.597 427.535 240.404 428.824 244.329C429.144 245.315 429.2 246.368 428.987 247.383C430.694 245.377 431.403 242.934 430.669 240.694C429.374 236.77 424.125 234.963 418.947 236.663C418.201 236.906 417.479 237.218 416.791 237.594C416.46 237.503 416.119 237.421 415.772 237.36C415.869 236.953 415.94 236.551 415.996 236.144Z"
              fill="black"/>
        <path opacity="0.1"
              d="M377.493 280.169C377.05 280.763 376.659 281.395 376.326 282.057C376.016 282.671 375.754 283.308 375.541 283.961C375.996 283.338 376.508 282.759 377.07 282.23C377.148 281.532 377.29 280.842 377.493 280.169Z"
              fill="black"/>
        <path opacity="0.1"
              d="M408.958 221.148C408.912 220.398 408.941 219.646 409.045 218.903C408.055 219.877 407.232 221.007 406.609 222.247C406.301 222.859 406.042 223.494 405.834 224.146C406.677 222.959 407.737 221.942 408.958 221.148Z"
              fill="black"/>
        <path opacity="0.1"
              d="M400.962 265.718C400.861 266.475 400.691 267.222 400.452 267.948C400.851 267.392 401.207 266.806 401.517 266.197C401.851 265.543 402.129 264.861 402.348 264.161C401.931 264.718 401.467 265.239 400.962 265.718Z"
              fill="black"/>
        <path opacity="0.1"
              d="M393.276 280.897C393.176 281.654 393.006 282.4 392.767 283.126C393.169 282.571 393.527 281.986 393.837 281.375C394.169 280.72 394.447 280.039 394.668 279.339C394.25 279.898 393.785 280.419 393.276 280.897Z"
              fill="black"/>
        <path opacity="0.1"
              d="M397.119 273.302C397.019 274.06 396.848 274.806 396.609 275.532C397.016 274.986 397.38 274.411 397.7 273.811C398.034 273.157 398.312 272.476 398.531 271.775C398.104 272.323 397.632 272.834 397.119 273.302Z"
              fill="black"/>
        <path opacity="0.1"
              d="M404.804 258.128C404.704 258.884 404.534 259.628 404.295 260.352C404.695 259.799 405.051 259.215 405.36 258.606C405.698 257.941 405.977 257.248 406.196 256.535C405.781 257.106 405.315 257.639 404.804 258.128Z"
              fill="black"/>
        <path opacity="0.1"
              d="M379.643 238.933C383.578 237.645 388.144 240.796 389.836 245.973C390.075 246.721 390.245 247.49 390.346 248.269C391.22 248.95 391.983 249.762 392.609 250.676C392.843 249.662 393.199 248.679 393.669 247.749C393.847 247.403 394.041 247.072 394.24 246.731C393.661 245.932 392.975 245.216 392.201 244.604C392.101 243.826 391.931 243.059 391.691 242.313C389.989 237.136 385.423 233.98 381.499 235.273C379.256 236.006 377.707 238.027 377.105 240.582C377.795 239.823 378.669 239.255 379.643 238.933Z"
              fill="black"/>
        <path opacity="0.1"
              d="M397.889 243.005C397.844 242.258 397.874 241.507 397.98 240.766C396.987 241.738 396.163 242.868 395.539 244.11C395.231 244.719 394.972 245.353 394.765 246.004C395.61 244.819 396.67 243.802 397.889 243.005Z"
              fill="black"/>
        <path opacity="0.1"
              d="M403.423 232.071C403.378 231.323 403.409 230.573 403.515 229.831C402.521 230.801 401.696 231.93 401.074 233.171C400.766 233.782 400.507 234.417 400.299 235.069C401.143 233.883 402.203 232.865 403.423 232.071Z"
              fill="black"/>
        <path opacity="0.1"
              d="M389.434 288.486C389.334 289.246 389.163 289.994 388.924 290.721C389.762 289.562 390.404 288.274 390.825 286.908C390.408 287.474 389.943 288.002 389.434 288.486Z"
              fill="black"/>
      </g>
      <path opacity="0.1"
            d="M438.227 190.183C440.023 189.003 441.471 187.366 442.421 185.439C444.924 180.502 443.889 174.948 440.113 173.039C436.336 171.131 431.245 173.589 428.742 178.532C427.751 180.442 427.29 182.583 427.407 184.732C425.626 185.929 424.182 187.562 423.213 189.475C422.244 191.389 421.782 193.518 421.872 195.661C420.075 196.839 418.627 198.477 417.678 200.405C417.371 201.009 417.114 201.637 416.909 202.283C418.239 200.359 420.169 198.927 422.397 198.211C422.651 198.995 423.058 199.721 423.595 200.347C424.131 200.973 424.787 201.486 425.523 201.857C426.26 202.228 427.063 202.45 427.886 202.509C428.709 202.568 429.535 202.464 430.317 202.202C431.07 204.415 431.07 206.814 430.317 209.028C430.715 208.479 431.07 207.901 431.377 207.297C432.366 205.391 432.827 203.256 432.713 201.112C434.496 199.917 435.942 198.285 436.911 196.371C437.88 194.457 438.34 192.326 438.247 190.183H438.227Z"
            fill="#3F3D56"/>
      <path opacity="0.1"
            d="M499.058 120.12C500.594 119.404 502.079 118.583 503.502 117.662L487.025 105.639L506.392 115.6C510.31 112.492 513.551 108.617 515.917 104.213C518.283 99.8099 519.724 94.9703 520.152 89.991L487.239 90.327L520.223 84.8193C519.882 79.8351 518.525 74.9731 516.234 70.5321C513.943 66.091 510.767 62.1647 506.902 58.9942C503.036 55.8237 498.562 53.476 493.755 52.0954C488.948 50.7147 483.909 50.3302 478.948 50.9655C473.987 51.6008 469.208 53.2425 464.905 55.7897C460.602 58.337 456.866 61.7359 453.927 65.7779C450.987 69.8198 448.905 74.4193 447.81 79.294C446.715 84.1686 446.63 89.2154 447.558 94.1243C445.166 95.2354 442.9 96.6007 440.801 98.1965L458.001 122.085L437.35 101.174C432.992 105.449 429.77 110.741 427.975 116.572C426.18 122.404 425.869 128.59 427.071 134.572C420.832 137.48 415.539 142.082 411.796 147.853C408.052 153.624 406.009 160.33 405.901 167.205C405.793 174.081 407.623 180.848 411.183 186.733C414.742 192.619 419.888 197.385 426.032 200.488C432.175 203.591 439.069 204.906 445.925 204.281C452.781 203.656 459.322 201.117 464.802 196.955C470.282 192.793 474.479 187.175 476.914 180.743C479.349 174.311 479.923 167.325 478.57 160.583C486.035 157.113 492.115 151.235 495.831 143.896C499.547 136.557 500.684 128.183 499.058 120.12Z"
            fill="#BE1621"/>
      <path opacity="0.1"
            d="M430.317 110.795C426.589 118.131 425.449 126.508 427.081 134.572C420.843 137.48 415.549 142.083 411.806 147.853C408.062 153.624 406.02 160.33 405.911 167.205C405.803 174.081 407.633 180.848 411.193 186.733C414.753 192.619 419.898 197.385 426.042 200.488C432.186 203.591 439.079 204.906 445.935 204.281C452.791 203.656 459.333 201.118 464.813 196.955C470.293 192.793 474.49 187.175 476.924 180.743C479.359 174.312 479.933 167.325 478.58 160.583C485.782 157.244 432.162 107.125 430.317 110.795Z"
            fill="black"/>
      <path opacity="0.1"
            d="M471.67 57.7288C474.679 57.7288 477.118 55.2925 477.118 52.2872C477.118 49.282 474.679 46.8457 471.67 46.8457C468.661 46.8457 466.222 49.282 466.222 52.2872C466.222 55.2925 468.661 57.7288 471.67 57.7288Z"
            fill="#BE1621"/>
      <path opacity="0.1"
            d="M503.492 61.2205C506.501 61.2205 508.94 58.7842 508.94 55.7789C508.94 52.7737 506.501 50.3374 503.492 50.3374C500.483 50.3374 498.044 52.7737 498.044 55.7789C498.044 58.7842 500.483 61.2205 503.492 61.2205Z"
            fill="#BE1621"/>
      <path opacity="0.1"
            d="M515.764 110.118C518.773 110.118 521.212 107.682 521.212 104.677C521.212 101.671 518.773 99.2352 515.764 99.2352C512.755 99.2352 510.316 101.671 510.316 104.677C510.316 107.682 512.755 110.118 515.764 110.118Z"
            fill="#BE1621"/>
      <path opacity="0.1"
            d="M499.201 134.536C502.21 134.536 504.649 132.1 504.649 129.095C504.649 126.09 502.21 123.653 499.201 123.653C496.192 123.653 493.753 126.09 493.753 129.095C493.753 132.1 496.192 134.536 499.201 134.536Z"
            fill="#BE1621"/>
      <path opacity="0.1"
            d="M476.572 185.251C479.581 185.251 482.021 182.815 482.021 179.809C482.021 176.804 479.581 174.368 476.572 174.368C473.564 174.368 471.124 176.804 471.124 179.809C471.124 182.815 473.564 185.251 476.572 185.251Z"
            fill="#BE1621"/>
      <path opacity="0.1"
            d="M476.572 185.251C479.581 185.251 482.021 182.815 482.021 179.809C482.021 176.804 479.581 174.368 476.572 174.368C473.564 174.368 471.124 176.804 471.124 179.809C471.124 182.815 473.564 185.251 476.572 185.251Z"
            fill="black"/>
      <path opacity="0.1"
            d="M426.261 127.812C429.269 127.812 431.709 125.376 431.709 122.371C431.709 119.365 429.269 116.929 426.261 116.929C423.252 116.929 420.812 119.365 420.812 122.371C420.812 125.376 423.252 127.812 426.261 127.812Z"
            fill="#BE1621"/>
      <path opacity="0.1"
            d="M426.261 127.812C429.269 127.812 431.709 125.376 431.709 122.371C431.709 119.365 429.269 116.929 426.261 116.929C423.252 116.929 420.812 119.365 420.812 122.371C420.812 125.376 423.252 127.812 426.261 127.812Z"
            fill="black"/>
      <path opacity="0.1"
            d="M420.451 211.873C416.827 210.046 415.731 204.869 417.846 200.094C417.734 200.288 417.627 200.486 417.525 200.695C415.023 205.632 416.057 211.181 419.834 213.09C423.61 214.999 428.702 212.54 431.199 207.602C431.306 207.399 431.398 207.19 431.49 206.986C428.895 211.522 424.069 213.706 420.451 211.873Z"
            fill="black"/>
      <path opacity="0.1"
            d="M415.069 222.502C411.45 220.674 410.349 215.497 412.47 210.718C412.357 210.916 412.245 211.115 412.143 211.318C409.641 216.256 410.676 221.809 414.452 223.713C418.229 225.617 423.32 223.169 425.822 218.226C425.924 218.022 426.021 217.819 426.113 217.61C423.514 222.145 418.692 224.329 415.069 222.502Z"
            fill="black"/>
      <path opacity="0.1"
            d="M409.687 233.125C406.068 231.298 404.968 226.121 407.088 221.346C406.976 221.54 406.863 221.738 406.762 221.947C404.259 226.884 405.299 232.433 409.075 234.342C412.852 236.251 417.938 233.792 420.44 228.854C420.542 228.651 420.639 228.442 420.731 228.238C418.137 232.774 413.31 234.958 409.687 233.125Z"
            fill="black"/>
      <path opacity="0.1"
            d="M404.325 243.778C400.702 241.951 399.606 236.774 401.721 232C401.609 232.193 401.502 232.391 401.395 232.595C398.898 237.533 399.932 243.086 403.709 244.995C407.485 246.904 412.577 244.445 415.074 239.503C415.181 239.299 415.273 239.095 415.364 238.887C412.755 243.397 407.929 245.58 404.325 243.778Z"
            fill="black"/>
      <path opacity="0.1"
            d="M398.928 254.377C395.305 252.549 394.209 247.373 396.324 242.598C396.212 242.791 396.105 242.99 396.003 243.199C393.501 248.136 394.535 253.685 398.312 255.593C402.088 257.502 407.179 255.044 409.682 250.106C409.784 249.902 409.88 249.694 409.972 249.49C407.383 254.026 402.547 256.209 398.928 254.377Z"
            fill="black"/>
      <path opacity="0.1"
            d="M393.546 265.005C389.928 263.178 388.827 258.001 390.947 253.226C390.835 253.42 390.723 253.618 390.621 253.822C388.119 258.759 389.153 264.313 392.935 266.222C396.716 268.131 401.777 265.667 404.325 260.729C404.427 260.526 404.524 260.322 404.616 260.113C401.991 264.649 397.19 266.833 393.546 265.005Z"
            fill="black"/>
      <path opacity="0.1"
            d="M388.165 275.629C384.546 273.802 383.445 268.625 385.565 263.85C385.453 264.049 385.346 264.242 385.239 264.451C382.742 269.388 383.777 274.937 387.553 276.846C391.33 278.755 396.421 276.296 398.918 271.358C399.025 271.155 399.117 270.946 399.209 270.742C396.615 275.278 391.788 277.462 388.165 275.629Z"
            fill="black"/>
      <path opacity="0.1"
            d="M382.788 286.257C379.164 284.429 378.069 279.252 380.184 274.478C380.072 274.671 379.964 274.87 379.863 275.073C377.36 280.011 378.395 285.564 382.171 287.473C385.948 289.382 391.039 286.923 393.541 281.981C393.643 281.777 393.735 281.574 393.827 281.365C391.233 285.9 386.406 288.064 382.788 286.257Z"
            fill="black"/>
      <path opacity="0.1"
            d="M379.251 293.241C375.633 291.409 374.532 286.237 376.652 281.457C376.54 281.656 376.428 281.854 376.326 282.058C373.823 286.995 374.858 292.549 378.634 294.453C382.411 296.356 387.502 293.908 390.004 288.965C390.106 288.762 390.203 288.558 390.295 288.349C387.696 292.885 382.869 295.068 379.251 293.241Z"
            fill="black"/>
      <path opacity="0.1"
            d="M476.486 245.947C477.047 244.339 477.39 242.663 477.505 240.964C477.879 240.963 478.25 240.885 478.592 240.735C478.935 240.585 479.243 240.366 479.497 240.091C479.751 239.817 479.946 239.493 480.069 239.14C480.192 238.787 480.241 238.412 480.213 238.039C480.184 237.666 480.079 237.303 479.904 236.973C479.729 236.643 479.487 236.352 479.194 236.119C478.901 235.886 478.563 235.716 478.202 235.62C477.84 235.523 477.462 235.502 477.092 235.558C476.487 232.803 475.274 230.217 473.543 227.989C471.811 225.76 469.605 223.945 467.083 222.675C467.409 222.031 467.465 221.284 467.239 220.598C467.014 219.913 466.525 219.345 465.88 219.02C465.235 218.694 464.488 218.638 463.801 218.863C463.115 219.089 462.547 219.577 462.221 220.221C462.103 220.45 462.021 220.695 461.976 220.949C458.986 220.393 455.906 220.557 452.992 221.429C450.079 222.301 447.415 223.856 445.224 225.963C443.57 225.696 441.887 225.646 440.22 225.815L438.013 235.848L437.88 226.177C435.348 226.731 432.955 227.796 430.848 229.305C428.741 230.815 426.964 232.738 425.626 234.956C424.289 237.175 423.418 239.643 423.068 242.209C422.717 244.775 422.895 247.386 423.589 249.881C424.283 252.376 425.479 254.704 427.104 256.722C428.729 258.74 430.75 260.406 433.041 261.617C435.333 262.829 437.848 263.561 440.432 263.769C443.017 263.977 445.617 263.656 448.073 262.827C448.336 263.3 448.736 263.684 449.22 263.926C449.719 264.18 450.284 264.273 450.838 264.194C451.392 264.114 451.908 263.866 452.316 263.484C452.724 263.101 453.004 262.601 453.117 262.054C453.231 261.506 453.173 260.937 452.951 260.424C453.82 259.828 454.638 259.16 455.397 258.429C459.376 259.075 463.457 258.446 467.056 256.633C470.655 254.82 473.587 251.915 475.431 248.335L465.162 246.609L476.486 245.947Z"
            fill="#BE1621"/>
      <g opacity="0.1">
        <path opacity="0.1"
              d="M460.621 250.819C456.829 245.82 454.505 239.9 451.829 234.219C450.755 231.887 449.552 229.617 448.226 227.418L446.218 225.082C445.882 225.367 445.545 225.662 445.199 225.973C443.544 225.705 441.862 225.656 440.194 225.825L437.987 235.858L437.855 226.187C435.322 226.741 432.929 227.806 430.822 229.315C428.715 230.825 426.939 232.748 425.601 234.966C424.263 237.185 423.393 239.653 423.042 242.219C422.692 244.785 422.869 247.395 423.563 249.891C424.257 252.386 425.453 254.714 427.079 256.732C428.704 258.75 430.724 260.416 433.016 261.627C435.307 262.839 437.822 263.571 440.407 263.779C442.992 263.987 445.591 263.666 448.048 262.837C448.31 263.31 448.71 263.693 449.194 263.936C449.694 264.189 450.259 264.283 450.813 264.203C451.367 264.124 451.883 263.876 452.291 263.493C452.699 263.11 452.979 262.611 453.092 262.064C453.205 261.516 453.147 260.947 452.925 260.434C453.794 259.838 454.613 259.17 455.371 258.439C459.267 259.068 463.262 258.478 466.808 256.749C464.441 255.116 462.352 253.113 460.621 250.819Z"
              fill="black"/>
      </g>
      <path opacity="0.1"
            d="M393.475 229.337C393.685 228.922 393.785 228.46 393.766 227.996C393.746 227.531 393.607 227.079 393.363 226.684C393.118 226.288 392.776 225.961 392.37 225.735C391.963 225.509 391.505 225.391 391.039 225.392C390.267 221.302 388.172 217.577 385.076 214.789C385.575 212.846 385.764 210.836 385.637 208.834L375.622 207.128L385.346 206.518C385.172 205.606 384.931 204.707 384.628 203.83C385.006 203.57 385.314 203.22 385.525 202.812C385.77 202.325 385.864 201.776 385.793 201.236C385.723 200.696 385.492 200.189 385.13 199.781C384.769 199.374 384.293 199.084 383.765 198.949C383.236 198.814 382.679 198.84 382.166 199.025C379.591 195.39 375.822 192.771 371.514 191.624C367.207 190.476 362.633 190.872 358.587 192.742C354.542 194.613 351.28 197.84 349.369 201.863C347.458 205.886 347.019 210.451 348.127 214.764C347.537 215.012 347.056 215.464 346.771 216.036C346.521 216.529 346.428 217.087 346.503 217.634C346.578 218.182 346.819 218.693 347.192 219.101C347.566 219.508 348.055 219.792 348.594 219.915C349.134 220.038 349.698 219.994 350.212 219.788C351.189 221.428 352.407 222.912 353.825 224.191C352.793 228.211 353.104 232.458 354.712 236.286L368.141 232.804L356.164 239.095C358.282 242.456 361.398 245.072 365.077 246.577C368.757 248.082 372.815 248.401 376.684 247.489C380.554 246.577 384.041 244.48 386.659 241.491C389.277 238.502 390.894 234.771 391.284 230.819C391.745 230.779 392.189 230.622 392.572 230.363C392.956 230.103 393.267 229.75 393.475 229.337Z"
            fill="#BE1621"/>
      <path opacity="0.1"
            d="M393.475 229.338C393.685 228.923 393.785 228.461 393.766 227.996C393.746 227.531 393.607 227.08 393.363 226.684C393.118 226.288 392.776 225.961 392.37 225.735C391.963 225.509 391.505 225.391 391.039 225.393C390.267 221.302 388.172 217.577 385.076 214.789C385.158 214.469 385.229 214.153 385.29 213.833C384.935 214.09 384.605 214.381 384.307 214.703C382.497 216.683 381.57 219.345 379.781 221.346C377.671 223.708 374.511 224.94 371.357 225.27C368.202 225.601 365.027 225.118 361.913 224.512C359.334 224.003 356.72 223.412 354.105 223.662C353.85 223.662 353.596 223.718 353.361 223.759C353.514 223.906 353.667 224.054 353.825 224.196C352.793 228.217 353.104 232.464 354.712 236.291L368.141 232.804L356.164 239.096C358.282 242.457 361.398 245.072 365.077 246.577C368.757 248.082 372.815 248.401 376.684 247.489C380.554 246.577 384.041 244.48 386.659 241.491C389.277 238.502 390.894 234.771 391.284 230.819C391.745 230.779 392.189 230.622 392.572 230.363C392.956 230.103 393.267 229.751 393.475 229.338Z"
            fill="black"/>
    </g>
    <g opacity="0.1">
      <path opacity="0.1"
            d="M45.608 260.236C46.2603 258.256 48.9054 257.345 51.5147 258.2C51.89 258.323 52.2534 258.48 52.6003 258.668C52.7684 258.622 52.9417 258.582 53.1099 258.551C52.9667 257.983 52.9117 257.395 52.9468 256.81C52.0511 256.205 51.3249 255.382 50.837 254.418C50.3492 253.454 50.1158 252.382 50.1591 251.303C49.2555 250.709 48.5271 249.884 48.0491 248.915C47.5511 247.955 47.3172 246.88 47.3713 245.8C46.4684 245.203 45.7403 244.377 45.2614 243.407C44.0077 240.923 44.5173 238.129 46.4285 237.162C48.3396 236.195 50.8981 237.442 52.1569 239.926C52.654 240.888 52.8862 241.965 52.8296 243.046C53.7277 243.647 54.4559 244.47 54.9441 245.433C55.4323 246.397 55.6642 247.47 55.6174 248.549C56.5152 249.152 57.243 249.975 57.7311 250.939C58.2192 251.903 58.4513 252.977 58.4051 254.056C59.3032 254.658 60.0314 255.48 60.5196 256.443C61.0078 257.407 61.2397 258.48 61.1928 259.559C62.0977 260.155 62.8276 260.981 63.3079 261.951C63.537 262.421 63.7082 262.917 63.8175 263.428C64.1315 262.966 64.5148 262.556 64.954 262.211C65.0064 261.819 65.0951 261.432 65.219 261.056C66.0803 258.449 68.3788 256.861 70.3613 257.492C72.3438 258.124 73.251 260.786 72.3999 263.392C72.0481 264.511 71.3725 265.501 70.4582 266.237C70.4052 266.628 70.3165 267.013 70.1931 267.388C69.7748 268.769 68.843 269.939 67.5889 270.656C67.6872 270.989 67.7588 271.329 67.8029 271.674C68.3291 272.178 68.7652 272.769 69.0923 273.42C69.4258 274.07 69.6431 274.772 69.7345 275.497C70.2626 276.001 70.7004 276.591 71.029 277.243C71.3617 277.893 71.579 278.595 71.6711 279.32C72.2005 279.824 72.6384 280.417 72.9656 281.071C74.2244 283.555 73.7046 286.354 71.8036 287.311C69.9026 288.268 67.334 287.036 66.0752 284.547C65.7433 283.897 65.5261 283.194 65.4331 282.47C64.3712 281.453 63.6882 280.105 63.4964 278.648C62.4346 277.63 61.7515 276.282 61.5598 274.825C61.032 274.321 60.5942 273.73 60.2653 273.079C59.9357 272.428 59.7186 271.725 59.6231 271.002C59.097 270.498 58.6609 269.907 58.3338 269.256C58.0003 268.606 57.783 267.903 57.6916 267.179C57.3635 266.874 57.0711 266.532 56.8201 266.161C55.7715 266.375 54.6849 266.309 53.6705 265.968C53.2938 265.842 52.9288 265.684 52.5799 265.494C51.4464 265.795 50.249 265.752 49.1398 265.372C46.5559 264.512 44.9607 262.216 45.608 260.236Z"
            fill="#3F3D56"/>
      <g opacity="0.1">
        <path opacity="0.1"
              d="M50.2101 252.433C50.4803 252.699 50.7775 252.936 51.0969 253.141C51.0537 253.872 51.1506 254.604 51.3823 255.299C51.1775 255.022 50.9968 254.727 50.8421 254.419C50.5233 253.796 50.3098 253.125 50.2101 252.433Z"
              fill="black"/>
        <path opacity="0.1"
              d="M47.4223 246.936C47.6939 247.198 47.991 247.434 48.3091 247.638C48.2663 248.371 48.3631 249.105 48.5945 249.801C47.9772 248.955 47.5749 247.972 47.4223 246.936Z"
              fill="black"/>
        <path opacity="0.1"
              d="M53.7572 244.884C53.7815 244.507 53.7678 244.129 53.7165 243.754C54.2147 244.245 54.6295 244.815 54.9447 245.439C55.0986 245.747 55.2281 246.067 55.332 246.396C54.9073 245.797 54.373 245.284 53.7572 244.884Z"
              fill="black"/>
        <path opacity="0.1"
              d="M71.4418 278.205C71.219 277.893 70.9664 277.603 70.6875 277.34C70.641 276.995 70.566 276.655 70.4633 276.322C70.6845 276.621 70.8805 276.938 71.0494 277.269C71.204 277.571 71.3352 277.884 71.4418 278.205Z"
              fill="black"/>
        <path opacity="0.1"
              d="M69.4899 274.383C69.267 274.071 69.0144 273.781 68.7356 273.517C68.694 273.172 68.6223 272.832 68.5215 272.499C68.9414 273.067 69.2651 273.7 69.4797 274.372L69.4899 274.383Z"
              fill="black"/>
        <path opacity="0.1"
              d="M53.0029 257.951C53.2705 258.215 53.5661 258.449 53.8846 258.648C53.8465 259.234 53.9016 259.821 54.0477 260.389C53.8759 260.42 53.7058 260.459 53.538 260.506C53.189 260.319 52.824 260.162 52.4474 260.038C49.838 259.183 47.193 260.094 46.5457 262.074C46.3835 262.567 46.3537 263.093 46.4591 263.601C46.0398 263.161 45.7416 262.62 45.5934 262.03C45.4452 261.44 45.4519 260.823 45.6131 260.237C46.2654 258.256 48.9105 257.345 51.5199 258.2C51.8952 258.323 52.2585 258.48 52.6054 258.669C52.7736 258.623 52.9469 258.582 53.115 258.552C53.066 258.354 53.0286 258.153 53.0029 257.951Z"
              fill="black"/>
        <path opacity="0.1"
              d="M72.4 280.124C72.6223 280.424 72.8184 280.742 72.986 281.076C73.1416 281.384 73.2729 281.704 73.3785 282.033C73.1557 281.719 72.9031 281.428 72.6242 281.162C72.5788 280.811 72.5038 280.463 72.4 280.124Z"
              fill="black"/>
        <path opacity="0.1"
              d="M56.5449 250.397C56.5693 250.02 56.5556 249.641 56.5042 249.267C57.0036 249.757 57.4186 250.327 57.7324 250.952C57.8863 251.259 58.0158 251.577 58.1197 251.904C57.6949 251.307 57.1605 250.795 56.5449 250.397Z"
              fill="black"/>
        <path opacity="0.1"
              d="M60.5762 272.845C60.6239 273.225 60.7075 273.6 60.826 273.965C60.4013 273.383 60.0774 272.735 59.8678 272.046C60.0796 272.333 60.3167 272.6 60.5762 272.845Z"
              fill="black"/>
        <path opacity="0.1"
              d="M64.4444 280.491C64.4958 280.871 64.5811 281.246 64.6993 281.611C64.4945 281.333 64.3137 281.039 64.159 280.73C63.9914 280.403 63.8516 280.063 63.7411 279.712C63.9546 279.99 64.1897 280.25 64.4444 280.491Z"
              fill="black"/>
        <path opacity="0.1"
              d="M62.5129 276.668C62.5606 277.049 62.6442 277.423 62.7626 277.788C62.5596 277.509 62.379 277.215 62.2224 276.907C62.0541 276.581 61.9143 276.24 61.8045 275.889C62.0172 276.169 62.2542 276.43 62.5129 276.668Z"
              fill="black"/>
        <path opacity="0.1"
              d="M58.6396 269.017C58.6867 269.399 58.7703 269.776 58.8893 270.142C58.6961 269.862 58.5256 269.568 58.3797 269.261C58.2088 268.935 58.0672 268.594 57.9567 268.243C58.1603 268.521 58.3889 268.78 58.6396 269.017Z"
              fill="black"/>
        <path opacity="0.1"
              d="M71.3144 259.351C69.3319 258.699 67.0334 260.287 66.1772 262.914C66.0533 263.29 65.9645 263.677 65.9122 264.069C65.4714 264.412 65.0863 264.821 64.7706 265.281C64.6523 264.769 64.4726 264.274 64.2354 263.805C64.1488 263.632 64.052 263.464 63.95 263.296C64.2393 262.895 64.5823 262.535 64.9693 262.227C65.0217 261.834 65.1104 261.447 65.2343 261.071C66.0956 258.465 68.3941 256.877 70.3766 257.508C70.9452 257.726 71.4476 258.087 71.8351 258.556C72.2227 259.025 72.4822 259.587 72.5885 260.186C72.2422 259.803 71.8035 259.516 71.3144 259.351Z"
              fill="black"/>
        <path opacity="0.1"
              d="M62.1204 261.402C62.1447 261.025 62.131 260.646 62.0797 260.272C62.5791 260.762 62.9941 261.332 63.3079 261.957C63.4618 262.265 63.5913 262.585 63.6952 262.914C63.2719 262.314 62.7373 261.801 62.1204 261.402Z"
              fill="black"/>
        <path opacity="0.1"
              d="M59.3327 255.894C59.3569 255.517 59.3432 255.139 59.2919 254.764C59.789 255.257 60.2037 255.826 60.5202 256.449C60.674 256.758 60.8036 257.078 60.9075 257.406C60.4828 256.808 59.9485 256.295 59.3327 255.894Z"
              fill="black"/>
        <path opacity="0.1"
              d="M66.381 284.313C66.43 284.696 66.5153 285.072 66.6359 285.438C66.4322 285.158 66.2515 284.862 66.0957 284.553C65.928 284.226 65.7882 283.885 65.6777 283.535C65.8912 283.812 66.1264 284.073 66.381 284.313Z"
              fill="black"/>
      </g>
      <path opacity="0.1"
            d="M41.801 234.79C40.8974 234.196 40.169 233.372 39.691 232.402C38.4322 229.913 38.9521 227.119 40.853 226.157C42.754 225.195 45.3226 226.432 46.5814 228.921C47.0793 229.881 47.3116 230.956 47.2541 232.036C48.152 232.639 48.8798 233.462 49.3679 234.426C49.856 235.391 50.0881 236.464 50.0419 237.544C50.946 238.138 51.6759 238.962 52.1569 239.931C52.3099 240.236 52.4393 240.553 52.5442 240.878C51.8691 239.915 50.8972 239.2 49.7769 238.842C49.6521 239.239 49.4492 239.608 49.1801 239.927C48.9109 240.245 48.5809 240.507 48.2094 240.696C47.8379 240.886 47.4322 240.999 47.0162 241.031C46.6002 241.062 46.1821 241.01 45.7864 240.878C45.4085 241.992 45.4085 243.2 45.7864 244.314C45.5949 244.037 45.4245 243.746 45.2767 243.443C44.7787 242.483 44.5448 241.408 44.5989 240.328C43.7021 239.724 42.9751 238.901 42.4871 237.937C41.9991 236.973 41.7664 235.9 41.8112 234.82L41.801 234.79Z"
            fill="#3F3D56"/>
      <path opacity="0.1"
            d="M11.1612 199.494C10.3881 199.133 9.64061 198.72 8.92387 198.257L17.2209 192.2L7.46629 197.214C5.49403 195.647 3.86252 193.695 2.67162 191.477C1.48071 189.26 0.755456 186.822 0.540233 184.315L17.124 184.488L0.504559 181.709C0.647659 179.176 1.31133 176.701 2.45423 174.436C3.59713 172.171 5.19476 170.165 7.1476 168.544C9.10043 166.922 11.3666 165.72 13.805 165.012C16.2433 164.304 18.8016 164.104 21.3204 164.427C23.8392 164.749 26.2646 165.586 28.4454 166.885C30.6262 168.185 32.5158 169.919 33.9963 171.979C35.4769 174.04 36.5167 176.383 37.051 178.863C37.5853 181.342 37.6027 183.905 37.102 186.392C38.3059 186.948 39.4471 187.63 40.5065 188.428L31.8425 200.461L42.2443 189.934C44.4393 192.088 46.0622 194.754 46.9663 197.691C47.8704 200.629 48.0271 203.745 47.4223 206.758C50.5689 208.222 53.2395 210.541 55.1288 213.449C57.0181 216.358 58.0497 219.738 58.1058 223.205C58.1618 226.671 57.24 230.084 55.4457 233.052C53.6515 236.02 51.0572 238.423 47.9596 239.988C44.8619 241.552 41.386 242.215 37.9292 241.899C34.4724 241.583 31.1744 240.302 28.4122 238.203C25.65 236.103 23.5352 233.269 22.3095 230.026C21.0839 226.782 20.7969 223.259 21.4815 219.86C17.7259 218.112 14.667 215.155 12.7955 211.462C10.9241 207.77 10.3485 203.557 11.1612 199.499V199.494Z"
            fill="#BE1621"/>
      <path opacity="0.1"
            d="M45.7914 194.8C47.671 198.495 48.2457 202.716 47.4223 206.778C50.5689 208.242 53.2395 210.56 55.1288 213.469C57.018 216.377 58.0497 219.758 58.1057 223.225C58.1618 226.691 57.24 230.104 55.4457 233.072C53.6514 236.039 51.0572 238.443 47.9595 240.008C44.8619 241.572 41.386 242.235 37.9292 241.919C34.4724 241.603 31.1744 240.322 28.4122 238.223C25.65 236.123 23.5351 233.289 22.3095 230.045C21.0839 226.802 20.7969 223.279 21.4814 219.88C17.8477 218.195 44.8588 192.952 45.7914 194.8Z"
            fill="black"/>
      <path opacity="0.1"
            d="M24.9572 168.066C26.4743 168.066 27.7042 166.838 27.7042 165.323C27.7042 163.807 26.4743 162.579 24.9572 162.579C23.4401 162.579 22.2102 163.807 22.2102 165.323C22.2102 166.838 23.4401 168.066 24.9572 168.066Z"
            fill="#BE1621"/>
      <path opacity="0.1"
            d="M8.92384 169.828C10.441 169.828 11.6708 168.599 11.6708 167.084C11.6708 165.569 10.441 164.34 8.92384 164.34C7.40673 164.34 6.17686 165.569 6.17686 167.084C6.17686 168.599 7.40673 169.828 8.92384 169.828Z"
            fill="#BE1621"/>
      <path opacity="0.1"
            d="M2.74698 194.46C4.26409 194.46 5.49395 193.231 5.49395 191.716C5.49395 190.201 4.26409 188.973 2.74698 188.973C1.22986 188.973 0 190.201 0 191.716C0 193.231 1.22986 194.46 2.74698 194.46Z"
            fill="#BE1621"/>
      <path opacity="0.1"
            d="M11.0899 206.763C12.607 206.763 13.8368 205.535 13.8368 204.02C13.8368 202.504 12.607 201.276 11.0899 201.276C9.57274 201.276 8.34288 202.504 8.34288 204.02C8.34288 205.535 9.57274 206.763 11.0899 206.763Z"
            fill="#BE1621"/>
      <path opacity="0.1"
            d="M22.4855 232.311C24.0026 232.311 25.2325 231.082 25.2325 229.567C25.2325 228.052 24.0026 226.823 22.4855 226.823C20.9684 226.823 19.7385 228.052 19.7385 229.567C19.7385 231.082 20.9684 232.311 22.4855 232.311Z"
            fill="#BE1621"/>
      <path opacity="0.1"
            d="M22.4855 232.311C24.0026 232.311 25.2325 231.082 25.2325 229.567C25.2325 228.052 24.0026 226.823 22.4855 226.823C20.9684 226.823 19.7385 228.052 19.7385 229.567C19.7385 231.082 20.9684 232.311 22.4855 232.311Z"
            fill="black"/>
      <path opacity="0.1"
            d="M47.83 203.372C49.3471 203.372 50.577 202.144 50.577 200.628C50.577 199.113 49.3471 197.885 47.83 197.885C46.3129 197.885 45.0831 199.113 45.0831 200.628C45.0831 202.144 46.3129 203.372 47.83 203.372Z"
            fill="#BE1621"/>
      <path opacity="0.1"
            d="M47.83 203.372C49.3471 203.372 50.577 202.144 50.577 200.628C50.577 199.113 49.3471 197.885 47.83 197.885C46.3129 197.885 45.0831 199.113 45.0831 200.628C45.0831 202.144 46.3129 203.372 47.83 203.372Z"
            fill="black"/>
      <path opacity="0.1"
            d="M50.7604 245.719C52.585 244.798 53.1354 242.191 52.0702 239.784C52.1263 239.885 52.1823 239.982 52.2333 240.084C53.4921 242.573 52.9723 245.368 51.0662 246.33C49.1602 247.292 46.6017 246.055 45.3429 243.566C45.292 243.464 45.241 243.362 45.1951 243.255C46.5049 245.541 48.9359 246.64 50.7604 245.719Z"
            fill="black"/>
      <path opacity="0.1"
            d="M53.4667 251.073C55.2912 250.152 55.8467 247.54 54.7816 245.138C54.8376 245.235 54.8937 245.336 54.9446 245.438C56.2035 247.927 55.6836 250.722 53.7776 251.684C51.8715 252.646 49.3131 251.409 48.0542 248.92C47.9982 248.818 47.9523 248.711 47.9064 248.609C49.2162 250.905 51.6523 251.994 53.4667 251.073Z"
            fill="black"/>
      <path opacity="0.1"
            d="M56.1779 256.423C58.0025 255.502 58.558 252.896 57.4877 250.488C57.5489 250.59 57.5998 250.687 57.6559 250.793C58.9147 253.278 58.3898 256.077 56.4888 257.034C54.5879 257.991 52.0243 256.759 50.7655 254.27C50.7095 254.168 50.6636 254.067 50.6177 253.96C51.9224 256.245 54.3534 257.345 56.1779 256.423Z"
            fill="black"/>
      <path opacity="0.1"
            d="M58.8893 261.779C60.7138 260.857 61.2693 258.251 60.199 255.844C60.2551 255.94 60.3112 256.042 60.3621 256.144C61.626 258.633 61.1011 261.428 59.2001 262.39C57.2992 263.352 54.7306 262.115 53.4718 259.626C53.4208 259.524 53.3749 259.417 53.329 259.315C54.6337 261.596 57.0647 262.7 58.8893 261.779Z"
            fill="black"/>
      <path opacity="0.1"
            d="M61.6006 267.128C63.4251 266.207 63.9755 263.601 62.9104 261.198C62.9664 261.295 63.0225 261.397 63.0734 261.498C64.3323 263.988 63.8124 266.782 61.9115 267.744C60.0105 268.706 57.4419 267.464 56.1831 264.98C56.1321 264.873 56.0862 264.771 56.0353 264.67C57.3451 266.95 59.7761 268.05 61.6006 267.128Z"
            fill="black"/>
      <path opacity="0.1"
            d="M64.3119 272.483C66.1364 271.562 66.6868 268.956 65.6216 266.548C65.6777 266.65 65.7338 266.746 65.7847 266.848C67.0435 269.337 66.5237 272.132 64.6227 273.094C62.7218 274.056 60.1532 272.819 58.8944 270.33C58.8434 270.228 58.7924 270.126 58.7466 270.019C60.0563 272.285 62.4873 273.404 64.3119 272.483Z"
            fill="black"/>
      <path opacity="0.1"
            d="M67.0231 277.839C68.8426 276.917 69.3981 274.306 68.3329 271.903C68.389 272 68.445 272.102 68.496 272.204C69.7548 274.693 69.235 277.487 67.3289 278.449C65.4229 279.411 62.8644 278.169 61.6056 275.685C61.5547 275.578 61.5037 275.477 61.4578 275.375C62.7676 277.655 65.1986 278.76 67.0231 277.839Z"
            fill="black"/>
      <path opacity="0.1"
            d="M69.7294 283.188C71.5539 282.267 72.1094 279.661 71.0392 277.253C71.1003 277.355 71.1513 277.451 71.2074 277.558C72.4662 280.042 71.9413 282.842 70.0403 283.799C68.1393 284.756 65.5758 283.524 64.317 281.035C64.2609 280.933 64.2151 280.831 64.1692 280.724C65.479 283.01 67.9049 284.109 69.7294 283.188Z"
            fill="black"/>
      <path opacity="0.1"
            d="M71.5285 286.705C73.353 285.784 73.9034 283.178 72.8383 280.77C72.8943 280.872 72.9504 280.968 73.0013 281.075C74.2602 283.559 73.7403 286.359 71.8394 287.316C69.9384 288.273 67.3698 287.041 66.111 284.552C66.06 284.45 66.009 284.348 65.9632 284.241C67.2577 286.537 69.6887 287.627 71.5285 286.705Z"
            fill="black"/>
      <path opacity="0.1"
            d="M22.5313 262.883C22.2483 262.074 22.0768 261.23 22.0217 260.374C21.8332 260.373 21.6469 260.334 21.4744 260.258C21.3019 260.182 21.1469 260.072 21.0191 259.933C20.8913 259.795 20.7934 259.632 20.7315 259.454C20.6697 259.276 20.6452 259.088 20.6596 258.9C20.674 258.712 20.727 258.53 20.8152 258.363C20.9035 258.197 21.0251 258.051 21.1726 257.933C21.32 257.816 21.49 257.73 21.6721 257.682C21.8541 257.633 22.0443 257.623 22.2306 257.651C22.5364 256.263 23.1473 254.961 24.0191 253.839C24.8908 252.716 26.0016 251.801 27.271 251.16C27.1068 250.836 27.0784 250.459 27.1922 250.114C27.3059 249.768 27.5524 249.482 27.8775 249.318C28.2026 249.154 28.5796 249.125 28.9255 249.239C29.2715 249.353 29.5582 249.599 29.7224 249.924C29.7821 250.039 29.8233 250.162 29.8447 250.29C31.3527 250.013 32.905 250.1 34.3728 250.543C35.8406 250.985 37.1816 251.771 38.2844 252.835C39.1268 252.697 39.9839 252.673 40.8326 252.764L41.9436 257.813L41.9691 252.942C43.2328 253.234 44.4242 253.778 45.4715 254.542C46.5189 255.306 47.4005 256.274 48.0632 257.388C48.726 258.501 49.1561 259.737 49.3277 261.021C49.4993 262.305 49.4089 263.611 49.0618 264.859C48.7146 266.107 48.1181 267.272 47.3081 268.283C46.498 269.295 45.4913 270.132 44.3485 270.745C43.2058 271.358 41.9506 271.733 40.6588 271.848C39.367 271.963 38.0652 271.816 36.8319 271.415C36.6978 271.651 36.4977 271.844 36.256 271.97C36.0041 272.096 35.7192 272.143 35.4399 272.103C35.1607 272.063 34.9005 271.938 34.6947 271.745C34.4888 271.552 34.3473 271.301 34.2893 271.025C34.2313 270.749 34.2596 270.462 34.3703 270.203C33.9333 269.898 33.5225 269.558 33.1421 269.185C31.1374 269.509 29.0814 269.192 27.2687 268.277C25.456 267.363 23.9796 265.899 23.0512 264.095L28.224 263.224L22.5313 262.883Z"
            fill="#BE1621"/>
      <g opacity="0.1">
        <path opacity="0.1"
              d="M30.5226 265.336C32.4337 262.791 33.6059 259.839 34.9514 256.978C35.4902 255.801 36.0959 254.655 36.7657 253.547L37.785 252.371C37.9583 252.519 38.1264 252.666 38.2946 252.819C39.137 252.681 39.9941 252.657 40.8428 252.748L41.9539 257.797L41.9692 252.941C43.2328 253.233 44.4242 253.777 45.4716 254.541C46.5189 255.305 47.4005 256.273 48.0633 257.387C48.726 258.5 49.1562 259.736 49.3278 261.02C49.4994 262.304 49.4089 263.61 49.0618 264.858C48.7147 266.106 48.1181 267.271 47.3081 268.283C46.4981 269.294 45.4913 270.132 44.3486 270.744C43.2058 271.357 41.9507 271.732 40.6588 271.847C39.367 271.962 38.0652 271.815 36.832 271.414C36.6978 271.651 36.4977 271.843 36.2561 271.969C36.0042 272.096 35.7193 272.142 35.44 272.102C35.1607 272.062 34.9005 271.937 34.6947 271.744C34.4889 271.552 34.3474 271.3 34.2894 271.024C34.2314 270.749 34.2596 270.462 34.3704 270.202C33.9334 269.898 33.5225 269.557 33.1421 269.184C31.179 269.499 29.1665 269.202 27.3781 268.334C28.5809 267.511 29.6428 266.498 30.5226 265.336Z"
              fill="black"/>
      </g>
      <path opacity="0.1"
            d="M64.3476 254.515C64.2661 254.354 64.2171 254.179 64.2035 254C64.1898 253.821 64.2118 253.641 64.2682 253.47C64.3246 253.299 64.4142 253.141 64.5319 253.005C64.6496 252.869 64.7931 252.757 64.9541 252.677C65.1464 252.579 65.3597 252.528 65.5758 252.529C65.9646 250.468 67.019 248.591 68.5776 247.185C68.3256 246.206 68.231 245.194 68.2973 244.186L73.3377 243.341L68.44 243.031C68.5287 242.571 68.6514 242.119 68.807 241.677C68.6145 241.549 68.4583 241.374 68.3534 241.168C68.2308 240.923 68.1845 240.646 68.2203 240.375C68.256 240.103 68.3724 239.848 68.5542 239.643C68.7361 239.438 68.9753 239.292 69.241 239.223C69.5067 239.155 69.7868 239.167 70.0454 239.259C70.9455 237.98 72.1483 236.943 73.5466 236.24C75.1937 235.406 77.0468 235.063 78.8839 235.254C80.721 235.444 82.464 236.16 83.904 237.315C85.3441 238.47 86.42 240.016 87.0028 241.766C87.5855 243.517 87.6505 245.398 87.1898 247.185C87.4293 247.287 87.6346 247.456 87.7817 247.671C87.9287 247.886 88.0113 248.138 88.0199 248.398C88.0284 248.658 87.9626 248.916 87.83 249.14C87.6974 249.364 87.5036 249.546 87.2713 249.664C87.0972 249.752 86.9062 249.802 86.7111 249.811C86.516 249.819 86.3213 249.787 86.1399 249.714C85.6481 250.538 85.0347 251.283 84.3205 251.924C84.8428 253.954 84.6871 256.098 83.8771 258.032L77.1345 256.261L83.1636 259.432C82.2584 260.875 80.9854 262.051 79.475 262.84C77.9646 263.63 76.2712 264.004 74.5684 263.924C72.8657 263.844 71.2148 263.313 69.785 262.386C68.3552 261.459 67.198 260.169 66.432 258.648C65.8987 257.589 65.5637 256.442 65.4433 255.263C65.2119 255.242 64.9897 255.162 64.7979 255.031C64.6061 254.9 64.4511 254.722 64.3476 254.515Z"
            fill="#BE1621"/>
      <path opacity="0.1"
            d="M64.3476 254.515C64.2661 254.354 64.2171 254.18 64.2035 254C64.1898 253.821 64.2118 253.641 64.2682 253.47C64.3246 253.299 64.4142 253.141 64.5319 253.005C64.6496 252.869 64.7931 252.758 64.9541 252.677C65.1464 252.579 65.3597 252.528 65.5758 252.53C65.9646 250.468 67.019 248.591 68.5776 247.185C68.5368 247.027 68.5012 246.864 68.4706 246.706C68.6534 246.836 68.824 246.983 68.9802 247.144C69.8925 248.162 70.3614 249.481 71.2583 250.488C72.3822 251.646 73.8932 252.351 75.5037 252.469C77.0988 252.578 78.7015 252.45 80.2586 252.087C81.5428 251.756 82.8677 251.611 84.1931 251.654L84.5702 251.705L84.3358 251.924C84.8581 253.954 84.7024 256.099 83.8924 258.032L77.1345 256.261L83.1636 259.432C82.2584 260.875 80.9854 262.051 79.475 262.84C77.9646 263.63 76.2712 264.004 74.5684 263.924C72.8657 263.844 71.2148 263.314 69.785 262.386C68.3552 261.459 67.198 260.169 66.432 258.648C65.8987 257.589 65.5637 256.442 65.4433 255.263C65.2119 255.242 64.9897 255.162 64.7979 255.031C64.6061 254.9 64.4511 254.723 64.3476 254.515Z"
            fill="black"/>
    </g>
    <path opacity="0.1"
          d="M176.515 26.4234C174.5 26.0414 172.417 26.2682 170.532 27.075C169.401 27.5783 168.177 27.8384 166.939 27.8384C165.701 27.8384 164.477 27.5783 163.346 27.075C162.009 26.4898 160.561 26.2018 159.102 26.2308C157.643 26.2598 156.208 26.6051 154.896 27.2429C154.147 27.6383 153.312 27.8461 152.465 27.8487C149.04 27.8487 146.191 24.4026 145.6 19.8569C146.283 19.357 146.864 18.7316 147.312 18.0143C149.32 14.7819 152.409 12.7051 155.92 12.7051C159.432 12.7051 162.49 14.7412 164.498 17.9532C165.097 18.9178 165.936 19.7119 166.932 20.2593C167.928 20.8067 169.048 21.0888 170.185 21.0786H170.277C172.978 21.0633 175.338 23.2471 176.515 26.4234Z"
          fill="#BE1621"/>
    <path opacity="0.1"
          d="M186.922 12.1709L181.387 15.6781L184.746 9.56974C183.793 8.81173 182.615 8.39258 181.397 8.37862H181.311C180.927 8.38331 180.543 8.35435 180.164 8.29208L178.283 9.48321L179.089 8.0223C177.763 7.56166 176.616 6.6984 175.806 5.55351L172.438 7.65579L174.558 3.80245C172.596 1.44564 169.946 0 167.036 0C163.544 0 160.41 2.07684 158.423 5.30917C157.828 6.27465 156.988 7.06576 155.988 7.60217C154.988 8.13858 153.864 8.40119 152.73 8.36334H152.562C148.709 8.36334 145.58 12.7257 145.58 18.1163C145.58 23.507 148.709 27.8642 152.562 27.8642C153.409 27.8617 154.243 27.6538 154.993 27.2585C156.305 26.6202 157.74 26.2749 159.2 26.2468C160.659 26.2187 162.107 26.5083 163.443 27.0956C164.574 27.5974 165.798 27.8566 167.036 27.8566C168.273 27.8566 169.497 27.5974 170.629 27.0956C171.954 26.5208 173.388 26.2378 174.833 26.2659C176.278 26.294 177.7 26.6326 179.002 27.2585C179.746 27.6432 180.57 27.8457 181.407 27.849C185.265 27.849 188.39 23.4866 188.39 18.1011C188.403 16.033 187.899 13.9944 186.922 12.1709Z"
          fill="#BE1621"/>
    <path opacity="0.1"
          d="M61.3355 96.9449C58.4577 96.4011 55.4829 96.7235 52.7888 97.8714C51.1721 98.5872 49.4225 98.9549 47.654 98.9505C45.8855 98.9461 44.1378 98.5698 42.5246 97.8459C40.6158 97.01 38.5479 96.5985 36.4641 96.6398C34.3803 96.6811 32.3304 97.1743 30.4563 98.0852C29.3844 98.6491 28.192 98.946 26.9805 98.9505C22.0879 98.9505 18.0159 94.0282 17.1699 87.533C18.1475 86.8215 18.9782 85.9278 19.6161 84.9013C22.4854 80.2844 26.9295 77.3168 31.9189 77.3168C36.9083 77.3168 41.2964 80.2488 44.1504 84.8148C45.0081 86.1986 46.2099 87.3371 47.6389 88.1194C49.0679 88.9017 50.6753 89.3012 52.3047 89.279H52.4321C56.2952 89.2739 59.669 92.3942 61.3355 96.9449Z"
          fill="#BE1621"/>
    <path opacity="0.1"
          d="M76.2172 76.5577L68.3075 81.5665L73.1083 72.8468C71.7477 71.7621 70.0636 71.162 68.3228 71.1416H68.1954C67.6458 71.1496 67.0966 71.1087 66.5543 71.0194L63.8838 72.745L65.0356 70.658C63.1351 69.9947 61.4937 68.7473 60.3469 67.0948L55.546 70.149L58.5682 64.6006C55.7601 61.2359 51.9785 59.1743 47.8198 59.1743C42.8304 59.1743 38.3863 62.1369 35.517 66.7538C34.6672 68.1392 33.4648 69.2747 32.0323 70.0446C30.5998 70.8146 28.9885 71.1913 27.3628 71.1365H27.0926C21.5834 71.1365 17.1189 77.3721 17.1189 85.0686C17.1189 92.7651 21.5834 99.0007 27.0926 99.0007C28.3049 98.9975 29.498 98.6987 30.5684 98.1303C32.4429 97.2202 34.493 96.7279 36.5768 96.6875C38.6606 96.647 40.7283 97.0595 42.6368 97.8962C44.2499 98.62 45.9977 98.9964 47.7662 99.0007C49.5346 99.0051 51.2842 98.6374 52.901 97.9216C54.7953 97.1004 56.8444 96.6958 58.9092 96.7353C60.9739 96.7748 63.0059 97.2575 64.8674 98.1507C65.9276 98.7049 67.1057 98.9964 68.3024 99.0007C73.8116 99.0007 78.2761 92.7601 78.2761 85.0686C78.3145 82.1042 77.6065 79.1776 76.2172 76.5577Z"
          fill="#BE1621"/>
    <path opacity="0.1"
          d="M381.198 46.2755C383.213 45.8938 385.296 46.1206 387.181 46.9271C388.311 47.4306 389.534 47.6908 390.771 47.6908C392.009 47.6908 393.232 47.4306 394.362 46.9271C395.698 46.3419 397.146 46.0539 398.605 46.0829C400.064 46.1119 401.5 46.4572 402.812 47.095C403.561 47.4898 404.395 47.6976 405.243 47.7008C408.668 47.7008 411.522 44.2547 412.113 39.709C411.429 39.2104 410.847 38.5848 410.4 37.8664C408.403 34.6238 405.278 32.5317 401.777 32.5317C398.276 32.5317 395.213 34.5679 393.205 37.7798C392.606 38.7487 391.767 39.5469 390.769 40.0971C389.771 40.6473 388.647 40.9309 387.507 40.9205H387.421C384.709 40.9154 382.345 43.0992 381.198 46.2755Z"
          fill="#BE1621"/>
    <path opacity="0.1"
          d="M370.76 32.023L376.295 35.52L372.931 29.4117C373.884 28.6543 375.062 28.2353 376.28 28.2205H376.371C376.756 28.225 377.139 28.196 377.518 28.134L379.394 29.3251L378.588 27.8642C379.923 27.4113 381.082 26.5513 381.901 25.4056L385.26 27.5334L383.134 23.68C385.102 21.3232 387.721 19.8776 390.662 19.8776C394.153 19.8776 397.287 21.9544 399.275 25.1867C399.869 26.1526 400.709 26.944 401.709 27.4804C402.709 28.0169 403.833 28.2793 404.968 28.2409H405.151C409.009 28.2409 412.133 32.6033 412.133 37.9939C412.133 43.3845 409.009 47.7418 405.151 47.7418C404.304 47.738 403.47 47.5302 402.72 47.1361C401.408 46.4977 399.972 46.1525 398.513 46.1244C397.054 46.0962 395.606 46.3859 394.27 46.9732C393.14 47.4748 391.917 47.734 390.68 47.734C389.443 47.734 388.22 47.4748 387.089 46.9732C385.763 46.3982 384.328 46.1152 382.882 46.1433C381.437 46.1714 380.014 46.51 378.711 47.1361C377.967 47.5214 377.143 47.7238 376.305 47.7265C372.452 47.7265 369.323 43.3642 369.323 37.9786C369.296 35.9046 369.79 33.8569 370.76 32.023Z"
          fill="#BE1621"/>
    <path opacity="0.1"
          d="M313.752 395.454C346.12 395.454 372.361 390.896 372.361 385.274C372.361 379.651 346.12 375.093 313.752 375.093C281.383 375.093 255.143 379.651 255.143 385.274C255.143 390.896 281.383 395.454 313.752 395.454Z"
          fill="#BE1621"/>
    <path
      d="M283.076 336.916L192.263 335.75L192.533 333.424L196.921 295.048H276.675L282.541 333.424L282.99 336.336L283.076 336.916Z"
      fill="#D0D2D5"/>
    <path opacity="0.1" d="M282.99 336.336H237.672L192.263 335.751L192.533 333.425H282.541L282.99 336.336Z"
          fill="black"/>
    <path d="M297.632 334.01H177.126V336.916H297.632V334.01Z" fill="#D0D2D5"/>
    <path
      d="M412.602 64.5599C412.609 62.5542 411.818 60.6278 410.404 59.2038C408.99 57.7798 407.067 56.9746 405.059 56.9652H68.5317C67.5365 56.9699 66.5519 57.1703 65.6343 57.555C64.7166 57.9397 63.8838 58.5012 63.1834 59.2074C62.483 59.9135 61.9287 60.7506 61.5522 61.6707C61.1756 62.5909 60.9843 63.5761 60.989 64.5701V268.309H412.602V64.5599Z"
      fill="#3F3D56"/>
    <path
      d="M60.989 266.273V290.136C60.989 292.135 61.7837 294.051 63.1982 295.464C64.6127 296.876 66.5313 297.67 68.5317 297.67H405.059C407.06 297.67 408.978 296.876 410.393 295.464C411.807 294.051 412.602 292.135 412.602 290.136V266.273H60.989Z"
      fill="#D0D2D5"/>
    <path d="M399.795 69.7424H75.5444V252.896H399.795V69.7424Z" fill="white"/>
    <path
      d="M238.544 288.615C239.734 288.616 240.91 288.347 241.981 287.827C243.052 287.308 243.99 286.552 244.726 285.616C244.949 285.332 245.153 285.032 245.337 284.72L241.02 283.993L245.684 284.023C246.131 283.052 246.375 282 246.4 280.931C246.425 279.862 246.232 278.799 245.831 277.808L239.578 281.045L245.347 276.81C244.806 275.88 244.078 275.071 243.21 274.434C242.342 273.796 241.352 273.344 240.301 273.104C239.251 272.865 238.162 272.844 237.103 273.043C236.045 273.242 235.038 273.656 234.146 274.259C233.254 274.863 232.496 275.644 231.919 276.552C231.341 277.461 230.958 278.479 230.791 279.542C230.624 280.605 230.678 281.691 230.949 282.732C231.22 283.774 231.703 284.749 232.367 285.596C233.099 286.534 234.036 287.294 235.107 287.817C236.177 288.34 237.352 288.613 238.544 288.615Z"
      fill="#BE1621"/>
    <path opacity="0.1" d="M246.402 297.665L282.633 334.01L277.073 297.665H246.402Z" fill="black"/>
    <path opacity="0.1" d="M399.892 69.7626H75.2896V80.4624H399.892V69.7626Z" fill="#444053"/>
    <path opacity="0.3"
          d="M285.497 71.6257H188.288C188.124 71.6257 187.992 71.7579 187.992 71.921V77.841C187.992 78.004 188.124 78.1362 188.288 78.1362H285.497C285.66 78.1362 285.793 78.004 285.793 77.841V71.921C285.793 71.7579 285.66 71.6257 285.497 71.6257Z"
          fill="#BE1621"/>
    <path
      d="M282.888 75.5553H282.648L282.561 75.4789C282.858 75.123 283.02 74.6745 283.02 74.2115C283.017 73.8314 282.901 73.4607 282.688 73.1461C282.474 72.8316 282.172 72.5874 281.819 72.4443C281.467 72.3011 281.079 72.2655 280.707 72.3418C280.334 72.4182 279.992 72.6032 279.724 72.8734C279.457 73.1436 279.275 73.4869 279.203 73.8601C279.13 74.2332 279.17 74.6195 279.317 74.9701C279.464 75.3207 279.712 75.62 280.029 75.8301C280.346 76.0402 280.718 76.1519 281.099 76.1509C281.563 76.1492 282.012 75.9853 282.368 75.6876L282.454 75.764V76.0032L283.948 77.4947L284.391 77.0468L282.888 75.5553ZM281.099 75.5553C280.832 75.5563 280.572 75.4784 280.35 75.3313C280.128 75.1843 279.955 74.9747 279.852 74.7293C279.749 74.4838 279.722 74.2134 279.773 73.9524C279.825 73.6914 279.953 73.4515 280.14 73.263C280.328 73.0746 280.568 72.9461 280.829 72.8938C281.09 72.8416 281.361 72.8679 281.607 72.9694C281.853 73.071 282.064 73.2432 282.212 73.4643C282.36 73.6854 282.439 73.9455 282.439 74.2115C282.44 74.3879 282.407 74.5628 282.34 74.7261C282.273 74.8895 282.175 75.0379 282.05 75.1629C281.925 75.2879 281.777 75.3869 281.614 75.4543C281.45 75.5216 281.275 75.556 281.099 75.5553Z"
      fill="#3F3D56"/>
    <path opacity="0.8"
          d="M81.125 77.0721C82.2086 77.0721 83.0871 76.1947 83.0871 75.1123C83.0871 74.03 82.2086 73.1526 81.125 73.1526C80.0413 73.1526 79.1629 74.03 79.1629 75.1123C79.1629 76.1947 80.0413 77.0721 81.125 77.0721Z"
          fill="#BE1621"/>
    <path opacity="0.8"
          d="M86.5221 77.0721C87.6058 77.0721 88.4843 76.1947 88.4843 75.1123C88.4843 74.03 87.6058 73.1526 86.5221 73.1526C85.4385 73.1526 84.56 74.03 84.56 75.1123C84.56 76.1947 85.4385 77.0721 86.5221 77.0721Z"
          fill="#FED253"/>
    <path opacity="0.8"
          d="M91.9243 77.0721C93.008 77.0721 93.8864 76.1947 93.8864 75.1123C93.8864 74.03 93.008 73.1526 91.9243 73.1526C90.8406 73.1526 89.9622 74.03 89.9622 75.1123C89.9622 76.1947 90.8406 77.0721 91.9243 77.0721Z"
          fill="#8CCF4D"/>
    <path
      d="M254.847 148.331C250.398 142.426 243.951 138.7 236.775 138.7C229.599 138.7 223.152 142.426 218.703 148.331C219.687 150.74 221.142 152.93 222.984 154.77C225.26 157.042 228.064 158.717 231.146 159.645C234.227 160.573 237.491 160.724 240.645 160.087C243.799 159.449 246.747 158.042 249.225 155.991C251.703 153.94 253.634 151.308 254.847 148.331Z"
      fill="#BE1621"/>
    <path
      d="M215.457 151.278C215.736 151.48 216.037 151.651 216.354 151.787C219.768 158.685 226.842 163.963 234.961 164.406V197.111C228.82 196.745 223.901 193.655 219.768 188.834C219.412 189.104 219.147 189.348 218.902 189.577C218.559 189.902 218.319 190.32 218.213 190.78C218.107 191.24 218.139 191.722 218.306 192.163C218.53 192.772 218.588 193.429 218.474 194.067C218.36 194.705 218.079 195.302 217.658 195.795C217.237 196.289 216.692 196.662 216.08 196.876C215.467 197.09 214.808 197.137 214.171 197.013C213.534 196.889 212.942 196.598 212.454 196.17C211.967 195.741 211.603 195.191 211.398 194.576C211.194 193.961 211.157 193.302 211.292 192.668C211.427 192.034 211.728 191.447 212.164 190.967C212.296 190.823 212.439 190.69 212.593 190.57C212.681 190.489 212.778 190.419 212.883 190.361C213.444 188.335 214.774 186.508 216.935 184.833C214.503 180.682 213.015 176.047 212.577 171.258C212.262 171.26 211.947 171.281 211.634 171.319C211.209 171.376 210.808 171.548 210.475 171.817C210.141 172.087 209.888 172.442 209.744 172.846C209.508 173.471 209.106 174.02 208.581 174.433C208.055 174.846 207.427 175.108 206.763 175.19C206.1 175.272 205.426 175.171 204.816 174.898C204.205 174.625 203.682 174.19 203.301 173.641C202.92 173.092 202.697 172.449 202.656 171.783C202.615 171.116 202.757 170.451 203.068 169.859C203.378 169.268 203.845 168.772 204.417 168.426C204.989 168.081 205.645 167.898 206.314 167.898C206.462 167.901 206.61 167.911 206.757 167.928C207.305 167.535 207.912 167.233 208.556 167.033C209.814 166.64 211.122 166.429 212.44 166.406C212.57 163.011 213.212 159.654 214.346 156.45C213.522 155.982 212.746 155.437 212.027 154.821C211.326 154.196 210.752 153.442 210.335 152.602C210.114 152.177 209.776 151.823 209.361 151.584C209.042 151.392 208.751 151.157 208.495 150.886C208.042 150.398 207.731 149.796 207.595 149.145C207.46 148.493 207.505 147.817 207.725 147.19C207.946 146.562 208.334 146.006 208.848 145.582C209.362 145.159 209.982 144.883 210.641 144.786C211.299 144.688 211.973 144.772 212.587 145.028C213.202 145.284 213.735 145.703 214.129 146.24C214.523 146.777 214.763 147.41 214.822 148.073C214.882 148.736 214.76 149.402 214.468 150C214.696 150.496 215.034 150.933 215.457 151.278Z"
      fill="#BE1621"/>
    <path
      d="M257.671 151.096C257.391 151.298 257.09 151.469 256.774 151.605C253.359 158.503 246.285 163.781 238.166 164.224V196.929C244.308 196.563 249.226 193.473 253.359 188.652C253.716 188.922 253.981 189.166 254.225 189.395C254.569 189.72 254.808 190.139 254.914 190.599C255.02 191.059 254.988 191.54 254.822 191.981C254.597 192.59 254.539 193.247 254.653 193.885C254.767 194.523 255.049 195.12 255.469 195.613C255.89 196.107 256.435 196.48 257.048 196.694C257.66 196.908 258.319 196.955 258.956 196.831C259.593 196.707 260.186 196.416 260.673 195.988C261.16 195.56 261.525 195.009 261.729 194.394C261.933 193.779 261.97 193.12 261.835 192.486C261.701 191.852 261.399 191.265 260.963 190.785C260.832 190.641 260.688 190.508 260.535 190.388C260.446 190.307 260.349 190.237 260.244 190.179C259.684 188.153 258.353 186.326 256.193 184.651C258.625 180.5 260.112 175.865 260.55 171.076C260.865 171.078 261.18 171.099 261.493 171.137C261.918 171.194 262.319 171.366 262.652 171.636C262.986 171.905 263.239 172.261 263.384 172.664C263.619 173.289 264.021 173.838 264.546 174.251C265.072 174.664 265.7 174.926 266.364 175.008C267.028 175.09 267.701 174.989 268.311 174.716C268.922 174.443 269.446 174.008 269.826 173.459C270.207 172.91 270.43 172.267 270.471 171.601C270.512 170.934 270.37 170.269 270.059 169.677C269.749 169.086 269.283 168.59 268.71 168.244C268.138 167.899 267.482 167.716 266.814 167.716C266.665 167.719 266.517 167.729 266.37 167.746C265.823 167.353 265.215 167.051 264.571 166.851C263.313 166.458 262.005 166.247 260.688 166.224C260.558 162.829 259.915 159.472 258.782 156.268C259.605 155.8 260.382 155.255 261.1 154.639C261.801 154.014 262.375 153.26 262.792 152.42C263.013 151.995 263.351 151.641 263.766 151.402C264.085 151.21 264.377 150.975 264.632 150.704C265.085 150.216 265.396 149.614 265.532 148.963C265.668 148.311 265.623 147.635 265.402 147.008C265.181 146.38 264.793 145.824 264.279 145.4C263.765 144.977 263.146 144.701 262.487 144.604C261.828 144.506 261.155 144.59 260.54 144.846C259.925 145.102 259.392 145.521 258.998 146.058C258.604 146.595 258.365 147.228 258.305 147.891C258.245 148.554 258.368 149.22 258.659 149.818C258.431 150.314 258.093 150.751 257.671 151.096Z"
      fill="#BE1621"/>
    <path
      d="M347.067 379.339C346.771 378.87 346.397 378.455 345.961 378.112C343.734 376.01 342.699 372.925 342.149 369.901C341.598 366.878 341.441 363.793 340.559 360.835C340.079 359.319 339.479 357.843 338.765 356.422C338.255 355.333 337.613 353.2 336.68 352.437C336.497 352.278 336.276 352.171 336.038 352.126C335.598 351.191 334.97 350.356 334.193 349.672C332.736 348.354 330.957 347.306 329.984 345.6C329.716 345.009 329.386 344.447 329 343.926C328.343 343.203 327.303 342.907 326.697 342.144C325.907 341.156 326.085 339.741 326.187 338.484C326.289 337.227 326.187 335.72 325.096 335.058C324.444 334.656 323.603 334.697 322.925 334.341C321.906 333.831 321.503 332.549 321.524 331.403C321.544 330.258 321.901 329.143 321.993 327.998C322.278 324.353 319.872 320.729 320.8 317.196C321.152 315.858 321.957 314.697 322.553 313.45C322.761 313.035 322.932 312.602 323.063 312.157C324.653 312.787 326.324 313.189 328.027 313.353C325.219 307.062 325.932 299.752 324.622 292.992L324.79 292.763C326.113 291.02 326.864 288.912 326.941 286.726C326.941 284.211 325.764 281.86 325.234 279.396C324.78 277.304 324.801 275.115 324.215 273.059C323.808 271.781 323.268 270.549 322.604 269.383C321.969 268.206 321.301 267.047 320.601 265.907C319.949 263.748 319.295 261.59 318.639 259.432C317.722 256.403 316.779 253.323 314.995 250.707C314.343 249.75 314.144 247.806 313.14 247.225C312.325 246.804 311.4 246.642 310.49 246.762C309.073 245.968 307.83 244.823 307.651 243.255C307.634 242.912 307.668 242.569 307.753 242.237H307.926C310.169 242.033 311.305 240.058 312.472 238.327C314.358 235.528 313.639 231.741 312.472 228.554C312.183 227.548 311.659 226.626 310.943 225.861C309.308 224.334 306.719 224.67 304.609 223.932C303.9 223.688 303.238 223.316 302.514 223.143C301.112 222.817 299.645 223.276 298.36 223.922C297.076 224.568 295.878 225.403 294.533 225.912C293.187 226.421 291.526 226.823 291.195 228.203C291.102 228.668 291.141 229.149 291.307 229.593C291.617 230.478 292.161 231.262 292.882 231.863C292.309 233.043 291.999 234.332 291.974 235.643C291.948 236.954 292.208 238.255 292.734 239.456C293.261 240.657 294.042 241.73 295.024 242.6C296.006 243.47 297.165 244.117 298.422 244.497C298.809 245.118 299.171 245.749 299.502 246.396C300.093 247.536 300.593 248.88 300.389 250.101C300.02 250.493 299.679 250.909 299.369 251.348C297.907 253.385 297.076 255.772 296.312 258.154C295.285 261.196 294.462 264.303 293.85 267.454C292.606 270.096 291.088 272.621 290.186 275.395C288.571 275.397 286.963 275.181 285.405 274.754L281.104 273.781C279.605 273.44 278.046 273.074 276.874 272.086C276.252 271.577 275.768 270.9 275.136 270.396C274.504 269.892 273.235 269.302 272.542 269.719C272.415 269.796 272.297 269.887 272.19 269.989C271.558 268.711 270.957 267.444 270.223 266.207C269.168 264.476 267.598 262.893 265.611 262.562C264.396 262.367 263.154 262.656 262.15 263.367C260.988 264.191 260.259 265.912 261.131 267.072C261.349 267.331 261.585 267.572 261.839 267.795C262.429 268.474 262.956 269.205 263.414 269.979C265.057 272.282 267.514 273.876 270.289 274.438L270.111 274.947C269.749 276.006 268.979 277.283 269.173 278.383L288.305 284.924C289.532 285.422 290.835 285.709 292.158 285.774C292.674 285.77 293.188 285.701 293.687 285.57V286.548V286.589C293.738 293.303 292.668 299.971 292.469 306.68C292.433 307.907 292.469 309.225 293.244 310.182C294.11 311.231 295.649 311.439 296.989 311.2C297.312 311.146 297.628 311.075 297.937 310.986C298.391 312.675 298.718 314.395 298.916 316.133L300.18 325.224C300.342 326.155 300.409 327.1 300.379 328.044C300.231 330.177 299.104 332.086 298.289 334.055C297.474 336.025 296.989 338.382 298.06 340.225C298.396 340.795 298.86 341.279 299.161 341.869C299.543 342.783 299.717 343.771 299.67 344.76C299.748 347.502 299.823 350.248 299.894 352.996C299.672 352.96 299.444 353.005 299.252 353.124C298.192 353.948 298.309 357.873 298.233 359.09C298.151 361.126 298.233 363.202 298.121 365.259C297.988 368.03 297.542 370.778 296.791 373.449C296.607 374.318 296.205 375.125 295.624 375.796C295.028 376.314 294.316 376.682 293.549 376.87C291.01 377.664 288.355 378.026 285.696 377.939C284.62 377.903 283.499 377.801 282.5 378.209C281.501 378.616 280.696 379.736 281.058 380.754C281.369 381.609 282.312 382.016 283.163 382.337C285.107 383.021 286.984 383.883 288.769 384.913C289.456 385.38 290.18 385.79 290.935 386.139C291.658 386.399 292.406 386.583 293.167 386.689L302.203 388.247C304.053 388.562 306.28 388.756 307.457 387.229C308.095 386.404 308.186 385.284 308.156 384.236C308.105 382.199 307.697 380.128 307.962 378.092C308.163 376.888 308.481 375.707 308.91 374.564C309.81 371.893 310.714 369.224 311.621 366.557C312.528 363.879 313.446 361.177 313.797 358.367C313.925 357.349 313.915 356.188 313.135 355.552C312.938 355.39 312.708 355.272 312.462 355.206C312.432 352.752 312.111 350.293 312.248 347.84C312.284 347.229 312.345 346.618 312.396 346.002C312.868 346.451 313.29 346.949 313.655 347.489C314.526 348.853 314.847 350.655 316.177 351.561C317.309 352.335 318.986 352.294 319.781 353.414C320.036 353.844 320.228 354.309 320.351 354.793C320.813 355.993 321.506 357.092 322.39 358.026C322.694 359.143 323.116 360.225 323.649 361.253C324.4 362.838 325.147 364.417 325.891 365.992C326.656 367.692 327.507 369.351 328.439 370.965C329.152 371.981 329.726 373.087 330.147 374.253C330.865 376.768 329.693 379.527 327.838 381.38C325.983 383.233 323.537 384.297 321.126 385.289C320.872 385.375 320.639 385.514 320.443 385.696C320.234 385.944 320.124 386.259 320.132 386.582C320.132 387.758 321.101 388.766 322.212 389.127C323.347 389.432 324.538 389.476 325.693 389.255C332.206 388.466 338.699 386.877 344.458 383.716C345.319 383.309 346.082 382.72 346.695 381.991C346.991 381.623 347.182 381.183 347.247 380.716C347.313 380.249 347.25 379.773 347.067 379.339Z"
      fill="url(#paint0_linear_1388_32289)"/>
    <path
      d="M319.541 265.189C320.628 266.855 321.648 268.562 322.599 270.31C323.265 271.466 323.807 272.689 324.215 273.959C324.806 275.996 324.791 278.169 325.234 280.246C325.744 282.689 326.936 285.021 326.936 287.525C326.858 289.695 326.107 291.787 324.785 293.511C323.468 295.221 321.96 296.775 320.29 298.143C316.442 288.186 314.292 277.654 313.93 266.986C313.879 265.51 313.869 263.988 314.409 262.608C314.74 261.743 316.33 259.371 317.355 260.302C317.727 260.643 317.824 262.181 318.053 262.695C318.483 263.564 318.98 264.398 319.541 265.189Z"
      fill="#2F2E41"/>
    <path opacity="0.1"
          d="M319.541 265.189C320.628 266.855 321.648 268.562 322.599 270.31C323.265 271.466 323.807 272.689 324.215 273.959C324.806 275.996 324.791 278.169 325.234 280.246C325.744 282.689 326.936 285.021 326.936 287.525C326.858 289.695 326.107 291.787 324.785 293.511C323.468 295.221 321.96 296.775 320.29 298.143C316.442 288.186 314.292 277.654 313.93 266.986C313.879 265.51 313.869 263.988 314.409 262.608C314.74 261.743 316.33 259.371 317.355 260.302C317.727 260.643 317.824 262.181 318.053 262.695C318.483 263.564 318.98 264.398 319.541 265.189Z"
          fill="black"/>
    <path
      d="M185.179 195.742C181.148 199.763 180.663 201.535 178.243 202.334C175.822 203.133 167.112 207.638 169.849 212.632L177.208 217.488L177.422 217.63L178.548 221.01L167.418 240.801C167.418 240.801 149.071 232.423 147.272 244.817C145.473 257.212 146.614 260.597 146.13 267.215C145.646 273.832 146.288 275.746 144.672 275.746C143.057 275.746 142.42 271.399 142.42 271.399C142.42 271.399 142.318 271.2 142.139 270.829C139.739 265.845 123.446 229.262 149.545 204.116C149.545 204.116 161.633 203.321 164.543 189.476C166.551 179.906 173.574 180.731 178.243 182.68C179.76 183.275 181.174 184.104 182.432 185.139C183.564 186.21 184.571 187.405 185.434 188.702C186.764 190.799 187.488 193.431 185.179 195.742Z"
      fill="#D0D2D5"/>
    <path opacity="0.1"
          d="M177.422 217.631L178.548 221.011L167.418 240.802C167.418 240.802 149.071 232.423 147.272 244.818C145.473 257.213 146.614 260.598 146.13 267.215C145.646 273.833 146.288 275.747 144.672 275.747C143.057 275.747 142.42 271.4 142.42 271.4C142.42 271.4 142.318 271.201 142.139 270.829C141.329 264.64 137.221 228.432 152.113 230.356C152.113 230.356 164.197 235.997 166.128 233.747C167.657 231.965 174.446 221.718 177.208 217.514L177.422 217.631Z"
          fill="black"/>
    <path opacity="0.1"
          d="M185.434 188.671L178.074 197.025C178.074 197.025 169.528 208.447 167.754 207.964C167.223 207.848 166.682 207.785 166.139 207.775C165.547 207.73 164.98 207.518 164.504 207.164C164.028 206.811 163.662 206.329 163.449 205.776C163.236 205.223 163.184 204.621 163.299 204.04C163.414 203.458 163.692 202.922 164.1 202.492C167.015 199.437 172.387 193.639 172.738 192.352C173.09 191.064 176.51 185.419 178.222 182.655C179.74 183.249 181.153 184.079 182.412 185.113C183.551 186.181 184.564 187.375 185.434 188.671Z"
          fill="black"/>
    <path
      d="M393.654 308.848C392.405 311.342 386.009 320.698 383.211 324.785L381.901 326.71C381.901 326.71 381.392 330.09 373.038 325.9C364.685 321.711 168.427 238.999 168.427 238.999L167.097 235.008L176.78 220.526L391.885 303.533C391.885 303.533 395.269 305.626 393.654 308.848Z"
      fill="#454B69"/>
    <path opacity="0.1"
          d="M383.211 324.786L381.901 326.71C381.901 326.71 381.391 330.09 373.038 325.901C364.685 321.712 168.427 238.999 168.427 238.999L167.097 235.009L383.211 324.786Z"
          fill="black"/>
    <path
      d="M264.831 270.757C262.838 270.432 260.626 270.589 259.077 271.882C258.141 272.674 257.549 273.798 257.426 275.018C257.293 276.428 258.114 278.103 259.531 278.209C259.872 278.213 260.212 278.191 260.55 278.143C261.445 278.139 262.339 278.214 263.221 278.367C264.956 278.53 266.706 278.275 268.322 277.623C269.939 276.971 271.375 275.942 272.511 274.621C273.729 273.094 272.124 272.432 270.687 272.127C268.72 271.709 266.798 271.073 264.831 270.757Z"
      fill="#FDEBEC"/>
    <path
      d="M298.916 316.728L300.18 325.697C300.341 326.623 300.406 327.563 300.374 328.502C300.226 330.614 299.099 332.508 298.289 334.463C297.479 336.417 296.984 338.759 298.06 340.571C298.391 341.136 298.855 341.62 299.155 342.205C299.538 343.11 299.712 344.09 299.665 345.071L300.012 357.797C303.946 358.065 307.894 358.043 311.825 357.73C311.979 357.738 312.131 357.691 312.253 357.598C312.357 357.467 312.41 357.302 312.401 357.135C312.574 354.157 312.055 351.174 312.223 348.196C312.284 347.107 312.437 346.023 312.457 344.928C312.518 340.495 310.327 336.153 310.989 331.77C311.197 330.664 311.47 329.571 311.805 328.497C313.899 320.861 313.456 312.839 312.992 304.954C313 304.827 312.964 304.702 312.89 304.598C312.815 304.523 312.719 304.471 312.615 304.45C310.386 303.782 308.028 303.66 305.741 304.094C303.454 304.528 301.305 305.506 299.477 306.945C298.921 307.393 297.52 307.825 297.153 308.36C296.643 309.103 297.311 309.846 297.606 310.635C298.261 312.613 298.7 314.656 298.916 316.728Z"
      fill="#3F3D56"/>
    <path opacity="0.1"
          d="M298.916 316.728L300.18 325.697C300.341 326.623 300.406 327.563 300.374 328.502C300.226 330.614 299.099 332.508 298.289 334.463C297.479 336.417 296.984 338.759 298.06 340.571C298.391 341.136 298.855 341.62 299.155 342.205C299.538 343.11 299.712 344.09 299.665 345.071L300.012 357.797C303.946 358.065 307.894 358.043 311.825 357.73C311.979 357.738 312.131 357.691 312.253 357.598C312.357 357.467 312.41 357.302 312.401 357.135C312.574 354.157 312.055 351.174 312.223 348.196C312.284 347.107 312.437 346.023 312.457 344.928C312.518 340.495 310.327 336.153 310.989 331.77C311.197 330.664 311.47 329.571 311.805 328.497C313.899 320.861 313.456 312.839 312.992 304.954C313 304.827 312.964 304.702 312.89 304.598C312.815 304.523 312.719 304.471 312.615 304.45C310.386 303.782 308.028 303.66 305.741 304.094C303.454 304.528 301.305 305.506 299.477 306.945C298.921 307.393 297.52 307.825 297.153 308.36C296.643 309.103 297.311 309.846 297.606 310.635C298.261 312.613 298.7 314.656 298.916 316.728Z"
          fill="black"/>
    <path
      d="M322.548 314.025C321.952 315.262 321.152 316.412 320.795 317.741C319.867 321.248 322.268 324.867 321.982 328.461C321.891 329.596 321.539 330.701 321.513 331.836C321.488 332.971 321.906 334.234 322.915 334.758C323.593 335.104 324.444 335.068 325.081 335.465C326.156 336.122 326.279 337.613 326.172 338.866C326.065 340.118 325.886 341.518 326.681 342.495C327.288 343.254 328.327 343.549 328.98 344.266C329.368 344.782 329.698 345.338 329.963 345.926C330.937 347.626 332.715 348.664 334.173 349.998C335.631 351.332 336.864 353.286 336.212 355.134C335.732 356.488 334.387 357.323 333.093 357.959C330.731 359.125 328.238 360.005 325.667 360.581C325.391 360.664 325.099 360.68 324.816 360.627C324.529 360.522 324.273 360.347 324.072 360.118C322.568 358.647 321.014 357.104 320.321 355.124C320.198 354.644 320.005 354.185 319.75 353.76C318.955 352.645 317.278 352.686 316.147 351.917C314.822 351.016 314.501 349.23 313.634 347.881C312.768 346.532 311.499 345.727 310.577 344.541C309.017 342.566 308.635 339.93 307.519 337.675C307.045 336.718 306.438 335.822 306.061 334.824C305.68 333.628 305.446 332.391 305.363 331.139C304.644 325.193 302.815 319.207 303.966 313.323C304.221 312.03 304.614 310.778 304.777 309.444C305.057 307.138 304.614 304.776 304.955 302.475C304.964 302.186 305.037 301.903 305.17 301.647C305.304 301.39 305.493 301.167 305.725 300.994C306 300.871 306.3 300.81 306.601 300.816C309.623 300.655 312.652 300.723 315.663 301.019C317.192 301.167 318.904 301.478 319.821 302.725C320.601 303.794 320.56 305.224 320.81 306.522C321.121 308.12 321.931 308.991 322.782 310.243C323.634 311.495 323.175 312.732 322.548 314.025Z"
      fill="#3F3D56"/>
    <path
      d="M310.791 355.389C311.596 355.389 312.488 355.338 313.109 355.847C313.884 356.483 313.894 357.649 313.772 358.641C313.415 361.431 312.503 364.114 311.591 366.786L308.879 374.732C308.45 375.866 308.133 377.039 307.931 378.234C307.666 380.27 308.074 382.306 308.125 384.342C308.125 385.36 308.059 386.49 307.422 387.31C306.27 388.791 304.023 388.618 302.173 388.328L293.147 386.801C292.385 386.7 291.637 386.517 290.915 386.256C290.161 385.909 289.437 385.502 288.749 385.04C286.962 384.02 285.086 383.168 283.142 382.495C282.296 382.179 281.349 381.777 281.043 380.927C280.681 379.909 281.486 378.789 282.485 378.382C283.484 377.974 284.6 378.076 285.681 378.107C288.337 378.191 290.99 377.833 293.529 377.048C294.294 376.861 295.003 376.494 295.598 375.979C296.203 375.3 296.614 374.473 296.791 373.581C297.56 370.929 298.018 368.195 298.157 365.437C298.264 363.401 298.192 361.365 298.274 359.329C298.325 358.122 298.208 354.238 299.268 353.409C300.078 352.788 303.411 354.503 304.507 354.752C306.567 355.224 308.678 355.438 310.791 355.389Z"
      fill="#2F2E41"/>
    <path
      d="M340.523 361.049C341.405 363.965 341.543 367.05 342.113 370.048C342.684 373.046 343.693 376.106 345.92 378.193C346.354 378.536 346.727 378.949 347.026 379.414C347.214 379.85 347.278 380.33 347.211 380.799C347.143 381.269 346.947 381.711 346.644 382.077C346.029 382.801 345.266 383.386 344.407 383.792C338.653 386.928 332.175 388.511 325.647 389.295C324.493 389.511 323.306 389.467 322.171 389.167C321.06 388.791 320.076 387.793 320.097 386.622C320.086 386.301 320.195 385.987 320.403 385.742C320.601 385.561 320.835 385.424 321.091 385.34C323.496 384.352 325.937 383.278 327.797 381.456C329.658 379.633 330.825 376.874 330.106 374.401C329.681 373.242 329.103 372.145 328.389 371.138C327.457 369.537 326.606 367.891 325.84 366.205L323.598 361.507C322.941 360.132 322.278 358.717 322.166 357.2C324.983 357.326 327.796 356.876 330.432 355.877C331.663 355.376 332.809 354.689 333.832 353.841C334.698 353.118 335.488 351.769 336.655 352.711C337.593 353.464 338.184 355.587 338.734 356.661C339.449 358.072 340.048 359.54 340.523 361.049Z"
      fill="#2F2E41"/>
    <path
      d="M307.661 244.385C307.886 246.34 309.781 247.627 311.591 248.401L300.139 252.051C300.878 250.636 300.282 248.905 299.548 247.47C298.95 246.333 298.269 245.243 297.509 244.207C297.397 244.049 297.27 243.85 297.351 243.667C297.424 243.548 297.538 243.459 297.672 243.418C300.027 242.369 302.453 241.285 305.027 240.903C305.771 240.796 307.177 240.501 307.733 241.254C308.288 242.008 307.554 243.484 307.661 244.385Z"
      fill="#FDEBEC"/>
    <path opacity="0.1"
          d="M307.661 244.385C307.886 246.34 309.781 247.627 311.591 248.401L300.139 252.051C300.878 250.636 300.282 248.905 299.548 247.47C298.95 246.333 298.269 245.243 297.509 244.207C297.397 244.049 297.27 243.85 297.351 243.667C297.424 243.548 297.538 243.459 297.672 243.418C300.027 242.369 302.453 241.285 305.027 240.903C305.771 240.796 307.177 240.501 307.733 241.254C308.288 242.008 307.554 243.484 307.661 244.385Z"
          fill="black"/>
    <path
      d="M301.005 245.968C305.965 245.968 309.985 241.952 309.985 236.999C309.985 232.045 305.965 228.03 301.005 228.03C296.046 228.03 292.026 232.045 292.026 236.999C292.026 241.952 296.046 245.968 301.005 245.968Z"
      fill="#FDEBEC"/>
    <path
      d="M293.223 310.808C294.095 311.851 295.629 312.055 296.969 311.826C300.103 311.317 302.667 309.011 305.735 308.181C309.496 307.163 313.476 308.471 317.029 310.075C320.581 311.678 324.113 313.638 327.996 313.913C324.485 306.094 326.493 296.687 323.134 288.802C322.314 286.873 321.167 285.015 320.983 282.928C320.754 280.337 322.049 277.838 322.247 275.262C322.431 272.966 321.738 270.681 321.075 268.492C320.256 265.804 319.438 263.117 318.619 260.429C317.701 257.421 316.759 254.361 314.98 251.775C314.322 250.824 314.124 248.894 313.125 248.319C310.943 247.062 307.636 248.645 305.271 248.731C302.906 248.818 300.751 250.498 299.37 252.396C297.907 254.402 297.076 256.789 296.312 259.151C295.094 262.668 294.186 266.284 293.595 269.958C293.519 270.508 293.453 271.057 293.402 271.612C292.892 276.84 293.636 282.098 293.677 287.351V287.387C293.728 294.05 292.658 300.673 292.459 307.331C292.438 308.547 292.469 309.876 293.223 310.808Z"
      fill="#2F2E41"/>
    <path opacity="0.1"
          d="M293.692 287.357C295.45 286.914 297.04 285.779 298.406 284.537C299.589 283.479 300.64 282.283 301.535 280.974C302.663 279.213 303.569 277.321 304.231 275.339C306.118 270.038 307.317 264.518 307.799 258.912C307.931 257.385 307.972 255.746 307.06 254.535C306.548 253.879 305.828 253.415 305.019 253.219C304.209 253.023 303.357 253.106 302.601 253.456C301.398 254.041 300.618 255.227 299.894 256.362C298.462 258.612 297.02 260.893 296.098 263.397C295.69 264.507 295.389 265.647 294.992 266.762C294.587 267.861 294.121 268.937 293.595 269.984C293.519 270.534 293.453 271.083 293.402 271.638C292.928 276.866 293.651 282.104 293.692 287.357Z"
          fill="black"/>
    <path
      d="M307.034 253.553C307.947 254.764 307.906 256.418 307.779 257.925C307.298 263.53 306.099 269.051 304.211 274.352C303.554 276.35 302.648 278.259 301.515 280.032C300.618 281.34 299.567 282.537 298.386 283.595C296.653 285.173 294.543 286.583 292.194 286.604C290.871 286.542 289.569 286.258 288.341 285.764L269.204 279.259C269.01 278.169 269.78 276.897 270.141 275.848L271.161 272.83C271.451 271.995 271.788 271.094 272.547 270.641C273.306 270.188 274.509 270.809 275.141 271.313C275.773 271.817 276.252 272.478 276.874 272.992C278.051 273.97 279.606 274.336 281.104 274.672L285.4 275.634C286.958 276.06 288.566 276.274 290.181 276.271C291.378 272.616 293.656 269.399 294.946 265.774C295.343 264.665 295.644 263.519 296.057 262.41C296.974 259.905 298.422 257.63 299.854 255.375C300.572 254.245 301.352 253.059 302.56 252.468C303.318 252.115 304.174 252.029 304.988 252.226C305.801 252.423 306.523 252.891 307.034 253.553Z"
      fill="#2F2E41"/>
    <path
      d="M303.87 239.025C303.802 238.435 303.618 237.864 303.329 237.345C303.179 237.085 302.95 236.88 302.675 236.759C302.4 236.638 302.094 236.608 301.8 236.673C300.903 236.953 300.603 238.338 299.665 238.383C299.033 238.414 298.58 237.773 298.381 237.172C298.182 236.571 298.075 235.884 297.601 235.462C297.271 235.215 296.892 235.042 296.49 234.953C294.314 234.265 292.066 232.998 291.343 230.834C291.172 230.395 291.132 229.917 291.225 229.455C291.557 228.086 293.264 227.673 294.564 227.18C295.863 226.686 297.112 225.841 298.386 225.2C299.66 224.558 301.138 224.105 302.539 224.431C303.251 224.654 303.95 224.914 304.634 225.21C306.744 225.943 309.328 225.602 310.964 227.124C311.679 227.879 312.203 228.793 312.493 229.791C313.634 232.957 314.358 236.714 312.467 239.493C311.3 241.208 310.169 243.168 307.926 243.377C305.317 243.596 304.282 241.234 303.87 239.025Z"
      fill="#2F2E41"/>
    <g opacity="0.1">
      <path opacity="0.1"
            d="M299.884 236.093C299.686 235.492 299.578 234.805 299.11 234.382C298.78 234.136 298.401 233.962 297.999 233.873C295.817 233.186 293.575 231.919 292.846 229.755C292.68 229.315 292.641 228.837 292.734 228.376C292.784 228.158 292.876 227.953 293.004 227.77C292.173 228.131 291.45 228.61 291.246 229.455C291.152 229.916 291.193 230.395 291.363 230.834C292.087 232.998 294.334 234.265 296.51 234.952C296.913 235.041 297.291 235.215 297.621 235.461C298.095 235.884 298.197 236.566 298.401 237.172C298.605 237.777 299.054 238.414 299.686 238.383C300.317 238.353 300.623 237.777 301.026 237.294C300.47 237.223 300.068 236.653 299.884 236.093Z"
            fill="black"/>
      <path opacity="0.1"
            d="M309.425 242.282C306.805 242.521 305.771 240.139 305.348 237.945C305.292 237.357 305.118 236.786 304.838 236.265C304.687 236.006 304.458 235.801 304.183 235.68C303.908 235.56 303.602 235.529 303.309 235.593C302.844 235.819 302.453 236.172 302.183 236.611C302.417 236.634 302.642 236.71 302.842 236.833C303.042 236.957 303.21 237.125 303.335 237.324C303.623 237.843 303.807 238.414 303.875 239.004C304.288 241.198 305.322 243.585 307.952 243.341C308.991 243.226 309.951 242.729 310.643 241.946C310.258 242.125 309.847 242.239 309.425 242.282Z"
            fill="black"/>
    </g>
    <path
      d="M414.396 336.972C423.485 336.972 430.852 335.557 430.852 333.811C430.852 332.065 423.485 330.65 414.396 330.65C405.307 330.65 397.94 332.065 397.94 333.811C397.94 335.557 405.307 336.972 414.396 336.972Z"
      fill="#BE1621"/>
    <path
      d="M414.121 334.972C415.179 334.972 416.037 333.85 416.037 332.467C416.037 331.084 415.179 329.963 414.121 329.963C413.062 329.963 412.204 331.084 412.204 332.467C412.204 333.85 413.062 334.972 414.121 334.972Z"
      fill="#3F3D56"/>
    <path
      d="M414.121 331.907C415.179 331.907 416.037 330.786 416.037 329.402C416.037 328.019 415.179 326.898 414.121 326.898C413.062 326.898 412.204 328.019 412.204 329.402C412.204 330.786 413.062 331.907 414.121 331.907Z"
      fill="#3F3D56"/>
    <path
      d="M414.121 328.848C415.179 328.848 416.037 327.726 416.037 326.343C416.037 324.96 415.179 323.839 414.121 323.839C413.062 323.839 412.204 324.96 412.204 326.343C412.204 327.726 413.062 328.848 414.121 328.848Z"
      fill="#3F3D56"/>
    <path
      d="M414.121 325.784C415.179 325.784 416.037 324.662 416.037 323.279C416.037 321.896 415.179 320.775 414.121 320.775C413.062 320.775 412.204 321.896 412.204 323.279C412.204 324.662 413.062 325.784 414.121 325.784Z"
      fill="#3F3D56"/>
    <path
      d="M414.121 322.719C415.179 322.719 416.037 321.598 416.037 320.214C416.037 318.831 415.179 317.71 414.121 317.71C413.062 317.71 412.204 318.831 412.204 320.214C412.204 321.598 413.062 322.719 414.121 322.719Z"
      fill="#3F3D56"/>
    <path
      d="M414.121 319.66C415.179 319.66 416.037 318.539 416.037 317.156C416.037 315.772 415.179 314.651 414.121 314.651C413.062 314.651 412.204 315.772 412.204 317.156C412.204 318.539 413.062 319.66 414.121 319.66Z"
      fill="#3F3D56"/>
    <path
      d="M414.121 316.596C415.179 316.596 416.037 315.474 416.037 314.091C416.037 312.708 415.179 311.587 414.121 311.587C413.062 311.587 412.204 312.708 412.204 314.091C412.204 315.474 413.062 316.596 414.121 316.596Z"
      fill="#3F3D56"/>
    <path
      d="M421.291 293.155C421.553 292.822 421.791 292.472 422.005 292.106L416.97 291.282L422.418 291.317C422.938 290.181 423.221 288.952 423.251 287.703C423.281 286.454 423.056 285.213 422.591 284.053L415.283 287.841L422.02 282.893C421.388 281.806 420.539 280.86 419.525 280.115C418.511 279.37 417.355 278.842 416.128 278.562C414.901 278.283 413.629 278.258 412.392 278.491C411.156 278.723 409.98 279.207 408.938 279.913C407.897 280.618 407.012 281.531 406.338 282.592C405.665 283.654 405.217 284.843 405.024 286.085C404.83 287.328 404.894 288.596 405.213 289.812C405.531 291.028 406.096 292.166 406.874 293.155C406.464 293.672 406.112 294.232 405.824 294.824L412.362 298.22L405.391 295.883C404.904 297.326 404.784 298.867 405.043 300.367C405.302 301.867 405.931 303.279 406.874 304.476C405.81 305.827 405.149 307.451 404.966 309.16C404.783 310.869 405.085 312.595 405.837 314.141C406.59 315.687 407.762 316.991 409.221 317.903C410.68 318.815 412.367 319.298 414.088 319.298C415.809 319.298 417.495 318.815 418.954 317.903C420.413 316.991 421.586 315.687 422.338 314.141C423.09 312.595 423.392 310.869 423.209 309.16C423.026 307.451 422.365 305.827 421.302 304.476C422.575 302.86 423.267 300.864 423.267 298.808C423.267 296.751 422.575 294.755 421.302 293.14L421.291 293.155Z"
      fill="#BE1621"/>
    <path opacity="0.1"
          d="M404.896 298.805C404.895 300.864 405.592 302.863 406.874 304.475C405.81 305.827 405.149 307.451 404.966 309.16C404.783 310.869 405.085 312.595 405.837 314.141C406.59 315.687 407.762 316.991 409.221 317.903C410.68 318.814 412.367 319.298 414.088 319.298C415.809 319.298 417.495 318.814 418.954 317.903C420.413 316.991 421.586 315.687 422.338 314.141C423.09 312.595 423.392 310.869 423.209 309.16C423.026 307.451 422.365 305.827 421.302 304.475C422.52 302.913 404.896 297.777 404.896 298.805Z"
          fill="black"/>
    <path
      d="M75.6413 400C88.7267 400 99.3346 397.963 99.3346 395.45C99.3346 392.936 88.7267 390.899 75.6413 390.899C62.5558 390.899 51.948 392.936 51.948 395.45C51.948 397.963 62.5558 400 75.6413 400Z"
      fill="#BE1621"/>
    <path
      d="M75.2437 397.124C76.7665 397.124 78.0009 395.508 78.0009 393.515C78.0009 391.521 76.7665 389.906 75.2437 389.906C73.721 389.906 72.4866 391.521 72.4866 393.515C72.4866 395.508 73.721 397.124 75.2437 397.124Z"
      fill="#3F3D56"/>
    <path
      d="M75.2437 392.715C76.7665 392.715 78.0009 391.1 78.0009 389.106C78.0009 387.113 76.7665 385.497 75.2437 385.497C73.721 385.497 72.4866 387.113 72.4866 389.106C72.4866 391.1 73.721 392.715 75.2437 392.715Z"
      fill="#3F3D56"/>
    <path
      d="M75.2437 388.308C76.7665 388.308 78.0009 386.692 78.0009 384.699C78.0009 382.705 76.7665 381.09 75.2437 381.09C73.721 381.09 72.4866 382.705 72.4866 384.699C72.4866 386.692 73.721 388.308 75.2437 388.308Z"
      fill="#3F3D56"/>
    <path
      d="M75.2437 383.899C76.7665 383.899 78.0009 382.284 78.0009 380.29C78.0009 378.297 76.7665 376.681 75.2437 376.681C73.721 376.681 72.4866 378.297 72.4866 380.29C72.4866 382.284 73.721 383.899 75.2437 383.899Z"
      fill="#3F3D56"/>
    <path
      d="M75.2437 379.492C76.7665 379.492 78.0009 377.876 78.0009 375.883C78.0009 373.889 76.7665 372.274 75.2437 372.274C73.721 372.274 72.4866 373.889 72.4866 375.883C72.4866 377.876 73.721 379.492 75.2437 379.492Z"
      fill="#3F3D56"/>
    <path
      d="M75.2437 375.078C76.7665 375.078 78.0009 373.462 78.0009 371.469C78.0009 369.476 76.7665 367.86 75.2437 367.86C73.721 367.86 72.4866 369.476 72.4866 371.469C72.4866 373.462 73.721 375.078 75.2437 375.078Z"
      fill="#3F3D56"/>
    <path
      d="M75.2437 370.67C76.7665 370.67 78.0009 369.054 78.0009 367.061C78.0009 365.068 76.7665 363.452 75.2437 363.452C73.721 363.452 72.4866 365.068 72.4866 367.061C72.4866 369.054 73.721 370.67 75.2437 370.67Z"
      fill="#3F3D56"/>
    <path
      d="M85.5691 336.896C85.9423 336.41 86.2828 335.9 86.5884 335.369L79.3413 334.177L87.1796 334.239C87.9308 332.603 88.3405 330.833 88.3834 329.034C88.4263 327.235 88.1017 325.447 87.4293 323.778L76.9205 329.245L86.6037 322.119C85.6969 320.547 84.4756 319.179 83.016 318.1C81.5564 317.021 79.8899 316.254 78.1203 315.847C76.3507 315.44 74.5161 315.402 72.731 315.734C70.9459 316.067 69.2486 316.763 67.7449 317.78C66.2413 318.797 64.9636 320.112 63.9916 321.644C63.0196 323.176 62.3742 324.892 62.0956 326.684C61.8169 328.477 61.9111 330.307 62.3723 332.061C62.8334 333.816 63.6515 335.456 64.7757 336.88C64.1805 337.624 63.6678 338.429 63.2467 339.283L72.6598 344.17L62.625 340.805C61.9217 342.891 61.7519 345.12 62.1311 347.288C62.5103 349.457 63.4264 351.496 64.796 353.22C63.2627 355.167 62.3088 357.506 62.0434 359.969C61.778 362.431 62.2119 364.919 63.2954 367.147C64.3789 369.376 66.0682 371.254 68.1704 372.569C70.2725 373.883 72.7025 374.58 75.1826 374.58C77.6626 374.58 80.0927 373.883 82.1948 372.569C84.2969 371.254 85.9863 369.376 87.0698 367.147C88.1533 364.919 88.5871 362.431 88.3217 359.969C88.0564 357.506 87.1025 355.167 85.5691 353.22C87.4018 350.894 88.3983 348.02 88.3983 345.061C88.3983 342.101 87.4018 339.227 85.5691 336.901V336.896Z"
      fill="#BE1621"/>
    <path opacity="0.1"
          d="M61.9675 345.076C61.968 348.031 62.9643 350.9 64.796 353.221C63.2627 355.167 62.3088 357.506 62.0434 359.969C61.778 362.432 62.2119 364.919 63.2954 367.148C64.3788 369.376 66.0682 371.254 68.1704 372.569C70.2725 373.883 72.7025 374.58 75.1826 374.58C77.6626 374.58 80.0927 373.883 82.1948 372.569C84.2969 371.254 85.9863 369.376 87.0698 367.148C88.1533 364.919 88.5871 362.432 88.3217 359.969C88.0564 357.506 87.1024 355.167 85.5691 353.221C87.3274 350.971 61.9675 343.574 61.9675 345.076Z"
          fill="black"/>
  </g>
  <defs>
    <linearGradient id="paint0_linear_1388_32289" x1="306.745" y1="390.093" x2="300.016" y2="223.068"
                    gradientUnits="userSpaceOnUse">
      <stop stop-color="#808080" stop-opacity="0.25"/>
      <stop offset="0.54" stop-color="#808080" stop-opacity="0.12"/>
      <stop offset="1" stop-color="#808080" stop-opacity="0.1"/>
    </linearGradient>
    <clipPath id="clip0_1388_32289">
      <rect width="521.212" height="400" fill="white"/>
    </clipPath>
  </defs>
</svg>
