<?xml version="1.0" encoding="UTF-8"?>
<svg id="Power_Off" data-name="Power Off" xmlns="http://www.w3.org/2000/svg" xmlns:xlink="http://www.w3.org/1999/xlink" viewBox="0 0 397.13 396.85">
  <defs>
    <style>
      .cls-1 {
        fill: #eaea92;
      }

      .cls-2 {
        fill: #fff;
      }

      .cls-3 {
        fill: url(#Dégradé_sans_nom_70);
      }

      .cls-4 {
        fill: #484960;
      }

      .cls-5 {
        fill: #f0f;
      }

      .cls-6, .cls-7 {
        fill: #1a1b38;
      }

      .cls-8 {
        fill: #be1621;
      }

      .cls-9 {
        fill: #8f84ff;
      }

      .cls-7 {
        opacity: .3;
      }
    </style>
    <linearGradient id="Dégradé_sans_nom_70" data-name="Dégradé sans nom 70" x1="3691.32" y1="4318.86" x2="3681.99" y2="4311.56" gradientTransform="translate(5619.39 1941.51) rotate(148.86)" gradientUnits="userSpaceOnUse">
      <stop offset="0" stop-color="#871818"/>
      <stop offset="1" stop-color="#bf1818" stop-opacity=".5"/>
    </linearGradient>
  </defs>
  <path class="cls-6" d="M344.8,118.73c6.42,10.62,9.31,22.95,8.42,35.17-.07,1.01-.17,2.03-.3,3.04-.07.52-.13,1.02-.21,1.52-.15,1.02-.32,2.03-.54,3.03-.02.11-.05.22-.07.32-.18.9-.38,1.79-.62,2.68-.13.5-.27,1-.41,1.5-.1.39-.22.78-.33,1.17-.11.35-.22.71-.34,1.07-.25.75-.51,1.51-.79,2.26-.22.59-.45,1.17-.69,1.75-.47,1.16-.98,2.29-1.53,3.41-1.09,2.23-2.32,4.41-3.66,6.49-.34.51-.68,1.03-1.04,1.54-1.42,2.03-2.97,3.98-4.63,5.82-.83.93-1.69,1.81-2.57,2.68-.89.88-1.8,1.71-2.74,2.52-.17.14-.33.29-.51.44-.54.44-1.13.93-1.77,1.42-.45.35-.9.7-1.37,1.04-3.73,2.73-8.02,5.17-12.49,7.05-.93.39-1.87.75-2.8,1.09-.58.21-1.14.39-1.69.57-.55.18-1.1.35-1.63.51-1.52.44-3.06.83-4.6,1.15-3.59.75-7.22,1.15-10.86,1.23h-.01c-1.98.03-3.98-.03-5.96-.19h-.01c-1.14-.08-2.28-.21-3.43-.37-.39-.06-.76-.12-1.14-.18h-.01c-.4-.05-.81-.12-1.22-.2-.78-.15-1.56-.3-2.31-.46-7.55-1.66-14.53-4.67-20.72-8.86-7-4.75-12.95-11.02-17.49-18.53-1.5-2.49-2.8-5.03-3.91-7.66-1.26-2.97-2.28-6.03-3.03-9.18-.6-2.44-1.03-4.91-1.3-7.44-.03-.26-.06-.51-.08-.77-.08-.71-.14-1.45-.18-2.2-.01-.16-.02-.34-.03-.52h0c-.05-1.02-.08-2.03-.07-3.04,0-7.09,1.27-14.08,3.68-20.65.51-1.41,1.08-2.79,1.71-4.16.21-.45.42-.9.63-1.35.88-1.81,1.83-3.56,2.89-5.26.53-.85,1.08-1.69,1.65-2.52.57-.82,1.15-1.64,1.77-2.43.61-.81,1.24-1.58,1.9-2.36.65-.76,1.32-1.52,2.02-2.25l.34-.36c.94-.99,1.96-1.97,3.04-2.95.23-.22.47-.43.71-.64,1.12-.99,2.29-1.93,3.51-2.84,1.58-1.18,3.23-2.29,4.94-3.32,2.73-1.65,5.58-3.07,8.51-4.25.97-.39,1.95-.76,2.94-1.1.02,0,.01,0,.01,0,.99-.34,1.99-.65,3-.94,9.55-2.73,19.69-3.06,29.5-.84,1.55.35,3.09.76,4.62,1.24.85.27,1.7.55,2.5.84.71.25,1.37.51,2,.75.42.18.83.35,1.25.54.43.18.84.35,1.26.55,4.8,2.17,9.23,4.96,13.23,8.27,1.71,1.41,3.35,2.93,4.9,4.52,1.55,1.61,3,3.29,4.37,5.07.46.6.9,1.2,1.33,1.81.87,1.22,1.69,2.47,2.47,3.77Z"/>
  <path class="cls-6" d="M154.43,257.1c15.11,25.01,10.04,56.96-12.06,75.98-.47.38-1.03.86-1.65,1.36-.21.17-.42.34-.64.5-.48.37-.98.76-1.48,1.12-3.71,2.69-7.96,5.11-12.37,6.97-.93.39-1.87.75-2.8,1.09-.57.2-1.13.39-1.68.57-.55.18-1.1.35-1.65.52-1.81.53-3.65.98-5.5,1.33-1.23.22-2.47.42-3.72.58-1.87.24-3.76.39-5.66.44-1.37.04-2.75.03-4.22-.02-5.65-.23-11.14-1.25-16.37-2.96-.59-.19-1.17-.39-1.74-.61-1.71-.62-3.39-1.33-5.04-2.1-.56-.25-1.11-.53-1.64-.81-1.08-.55-2.13-1.13-3.18-1.75-8.36-4.93-15.5-11.92-20.69-20.5-8.5-14.08-10.49-30.3-6.82-45.13,3.64-14.82,12.94-28.27,27.03-36.78,8.67-5.24,18.43-8.14,28.38-8.53,1.81-.08,3.63-.07,5.45.03,2.72.14,5.45.48,8.17.99,1.07.2,2.17.43,3.29.72.56.14,1.11.28,1.66.44.55.16,1.08.32,1.59.47.84.28,1.7.55,2.56.86.4.15.79.29,1.18.44.28.11.55.21.84.32.82.33,1.65.68,2.46,1.06.68.32,1.37.64,2.04.98,4.03,2.01,7.78,4.46,11.2,7.29,1.71,1.41,3.35,2.93,4.9,4.53,1.54,1.6,3,3.28,4.37,5.06.45.59.89,1.19,1.33,1.81.86,1.21,1.69,2.47,2.47,3.76Z"/>
  <path class="cls-4" d="M245.8,102.94l.32-.32s.02-.03.03-.05c-.11.12-.22.23-.34.36Z"/>
  <path class="cls-9" d="M257.96,101.84c-1.21.9-2.39,1.85-3.51,2.84-.24.21-.48.42-.71.64-1.08.98-2.11,1.96-3.04,2.95l-.34.36c-.7.73-1.37,1.49-2.02,2.25-.66.78-1.29,1.55-1.9,2.36-.62.8-1.2,1.61-1.77,2.43-.57.82-1.12,1.66-1.65,2.52-1.05,1.71-2,3.46-2.89,5.26-.21.45-.42.9-.63,1.35-.63,1.36-1.2,2.75-1.71,4.16-2.41,6.57-3.69,13.56-3.68,20.65-.01,1.01.02,2.01.07,3.03h0c0,.19.02.37.03.53.03.75.1,1.49.18,2.2.03.25.05.5.08.77.27,2.52.7,5,1.3,7.44.74,3.14,1.75,6.21,3.03,9.18,1.11,2.62,2.41,5.17,3.91,7.66,4.54,7.51,10.49,13.78,17.49,18.53,6.18,4.19,13.17,7.22,20.72,8.88.76.16,1.53.32,2.31.45.41.08.82.15,1.22.2.39.06.77.13,1.15.18,1.15.16,2.3.29,3.43.37-1.26,1.15-2.58,2.23-3.93,3.21-1.53,1.11-3.11,2.09-4.72,2.92-1.8.93-3.61,1.72-5.43,2.36-1.98-.55-3.94-1.18-5.84-1.89-14.86-5.49-27.32-15.77-35.68-29.61-5.49-9.09-8.8-19.02-9.82-29.52-.11-1.1-.2-2.22-.25-3.33-.8-16.05,3.94-31.91,13.21-44.8,1.14-1.59,2.33-3.13,3.6-4.61,1.96-.48,3.95-.88,5.98-1.18-.11.12-.22.23-.34.36l.32-.32s.02-.03.03-.05c.49-.07,1-.14,1.51-.21,1.47-.18,2.93-.32,4.43-.41,1.94-.13,3.9-.16,5.88-.12Z"/>
  <path class="cls-9" d="M354.08,113.12c10.1,16.73,12.81,37.07,7.44,55.79-.48,1.74-1.07,3.54-1.76,5.38-4.13,11.08-11.04,20.98-19.97,28.66-.71.61-1.65,1.41-2.69,2.19-2.14,1.67-4.47,3.28-6.91,4.75-4.03,2.44-8.32,4.48-12.79,6.08-1.33.48-2.6.88-3.89,1.27-9.61,2.81-19.5,3.52-29.42,2.14-1.87-.26-3.72-.59-5.5-.98-1.22-.28-2.43-.57-3.63-.89,1.82-.65,3.63-1.43,5.43-2.36,1.61-.83,3.19-1.82,4.72-2.92,1.35-.97,2.67-2.05,3.93-3.21,1.99.18,3.98.23,5.97.19h.01c3.65-.07,7.28-.47,10.86-1.23,1.54-.31,3.08-.71,4.6-1.15.54-.16,1.09-.32,1.63-.51.56-.17,1.12-.36,1.69-.57.93-.34,1.87-.7,2.8-1.09,4.46-1.86,8.76-4.31,12.49-7.05.47-.34.92-.68,1.37-1.04.65-.49,1.24-.97,1.77-1.42.18-.15.34-.29.51-.44.95-.81,1.85-1.64,2.74-2.52.89-.86,1.74-1.76,2.57-2.68,1.66-1.84,3.22-3.79,4.63-5.82.35-.51.7-1.03,1.04-1.54,1.35-2.07,2.58-4.25,3.66-6.49.55-1.12,1.06-2.26,1.53-3.41.25-.57.47-1.16.69-1.74.27-.76.54-1.52.78-2.27.12-.36.23-.72.34-1.07.11-.39.23-.79.33-1.17.15-.5.28-1,.41-1.5.24-.89.44-1.79.62-2.68.02-.11.05-.21.07-.32.21-1,.39-2.01.54-3.03.08-.5.14-1,.21-1.52.14-1.01.24-2.03.3-3.04.88-12.22-2.01-24.55-8.42-35.17-.78-1.3-1.61-2.55-2.47-3.77-.44-.61-.88-1.22-1.33-1.81-1.37-1.78-2.82-3.46-4.37-5.07-1.55-1.58-3.18-3.1-4.9-4.52-3.99-3.3-8.43-6.1-13.23-8.27-.42-.2-.83-.37-1.26-.55-.42-.18-.83-.35-1.25-.54-.63-.24-1.29-.5-2-.75-.81-.29-1.65-.57-2.5-.84-1.52-.47-3.07-.89-4.62-1.24-9.81-2.22-19.95-1.9-29.5.84-1.01.29-2.01.59-3,.94,0,0,0,.01-.01,0-.99.34-1.96.71-2.94,1.1-2.93,1.18-5.78,2.6-8.51,4.25-1.71,1.03-3.36,2.14-4.94,3.32-1.98-.04-3.95,0-5.88.12-1.5.09-2.96.23-4.43.41-.51.07-1.02.14-1.51.21-2.03.3-4.01.69-5.98,1.18.87-1,1.76-1.99,2.69-2.96l.67-.7h.01c1.18-1.21,2.45-2.4,3.76-3.56,3.07-2.68,6.43-5.14,9.99-7.29,17.24-10.42,38.15-12.96,57.33-6.98.96.29,1.99.63,3.02.99l.03.02h.03c.78.3,1.53.58,2.29.89l.07.02.07.03c.92.39,1.88.79,2.84,1.23,12.96,5.89,23.72,15.47,31.1,27.69Z"/>
  <path class="cls-9" d="M120.42,219.55c-.5-.13-1.03-.25-1.55-.37-.09.17-.2.35-.3.52-1.1,1.86-2.24,3.9-3.39,6.1-.47.89-.94,1.79-1.41,2.74-.11.21-.21.42-.31.62.36.06.72.13,1.09.19.81.15,1.62.31,2.45.52.56-1.14,1.13-2.25,1.7-3.31,1.03-1.93,2.06-3.75,3.04-5.41.22-.37.44-.74.65-1.09-.64-.18-1.29-.35-1.95-.51Z"/>
  <path class="cls-9" d="M163.71,251.49c8.67,14.34,11.94,31.34,9.23,47.84-2.68,16.33-11.02,31.24-23.52,42-.76.66-1.68,1.42-2.68,2.18-2.14,1.67-4.47,3.28-6.91,4.75-4.03,2.44-8.32,4.48-12.79,6.08-1.33.48-2.6.88-3.89,1.27-5.71,1.66-11.63,2.61-17.55,2.78-1.6.05-3.24.04-5.04-.02-23.74-.97-45.24-13.67-57.5-33.98-20.1-33.26-9.38-76.69,23.88-96.78,14.9-9,32.5-12.16,49.56-8.9.8.14,1.6.3,2.38.47-.09.17-.2.35-.3.52-1.1,1.86-2.24,3.9-3.39,6.1-.47.89-.94,1.79-1.41,2.74-.11.21-.21.42-.31.62-2.36-.41-4.73-.68-7.08-.8-1.82-.1-3.64-.11-5.45-.03-9.95.4-19.71,3.3-28.38,8.53-14.09,8.51-23.39,21.96-27.03,36.78-3.67,14.83-1.68,31.05,6.82,45.13,5.19,8.59,12.34,15.57,20.69,20.5,1.03.61,2.1,1.19,3.18,1.75.54.28,1.08.56,1.64.81,1.64.78,3.32,1.49,5.04,2.1.57.22,1.14.42,1.74.61,4.45,1.48,9.11,2.43,13.89,2.82.82.07,1.65.12,2.47.15.53.02,1.06.03,1.57.04.91.01,1.79,0,2.66-.03,1.9-.05,3.79-.2,5.66-.44,1.25-.15,2.49-.35,3.72-.58,1.86-.35,3.7-.8,5.5-1.33.54-.16,1.09-.32,1.65-.52.55-.16,1.11-.36,1.68-.57.93-.34,1.87-.7,2.8-1.09,4.41-1.85,8.67-4.27,12.37-6.97.5-.36,1-.74,1.48-1.12.22-.16.43-.33.64-.5.63-.49,1.19-.97,1.65-1.36,22.09-19.02,27.16-50.98,12.06-75.98-.78-1.29-1.6-2.54-2.47-3.76-.44-.62-.88-1.23-1.33-1.81-1.36-1.77-2.82-3.46-4.37-5.06-1.55-1.59-3.19-3.11-4.9-4.53-3.43-2.83-7.17-5.28-11.2-7.29-.67-.34-1.36-.66-2.04-.98-.81-.38-1.64-.73-2.46-1.06-.7-.27-1.34-.52-2.02-.76-.86-.31-1.72-.58-2.56-.86-.5-.16-1.05-.31-1.59-.47-.54-.15-1.09-.3-1.66-.44-.28-.07-.56-.14-.84-.2.56-1.14,1.13-2.25,1.7-3.31,1.03-1.93,2.06-3.75,3.04-5.41.22-.37.44-.74.65-1.09.66.19,1.33.38,1.95.58.89.28,1.94.62,2.97,1,.77.28,1.55.57,2.38.91,1.03.4,2.02.83,2.94,1.25,12.97,5.91,23.73,15.49,31.1,27.69Z"/>
  <path class="cls-8" d="M129.36,209.48c-.07.1-2.27,2.99-5.28,7.81-.54.86-1.12,1.79-1.7,2.77-.21.35-.42.72-.65,1.09-.98,1.66-2.01,3.48-3.04,5.41-.57,1.06-1.14,2.17-1.7,3.31-1.46,2.91-2.91,6.05-4.23,9.33-4.25,10.49-7.35,22.55-6.28,34.08,1.47,15.86,8.29,20.58,14.32,24.75,5.39,3.74,10.48,7.26,9.25,17.52-1.08,9.07-8.44,10.32-14.93,11.43-7.58,1.29-14.16,2.4-14.71,13.33-.12,2.5.67,4.93,2.15,7.26-.51,0-1.04-.02-1.57-.04-.82-.04-1.66-.08-2.47-.15-.49-1.03-.87-2.08-1.14-3.14-.34-1.33-.46-2.7-.39-4.1.69-13.69,10.03-15.27,17.56-16.55,7.01-1.18,11.34-2.24,12.09-8.44.98-8.21-2.53-10.63-7.81-14.31-6.29-4.36-14.13-9.8-15.77-27.24-.71-7.61,0-19.54,6.4-35.51,1.12-2.85,2.45-5.82,3.99-8.93.1-.2.2-.42.31-.62.47-.95.94-1.85,1.41-2.74,1.15-2.2,2.29-4.24,3.39-6.1.1-.18.21-.35.3-.52.68-1.17,1.33-2.27,1.98-3.28,2.6-4.16,4.65-7,5.45-8.06.19-.25.3-.41.34-.46l.33.27,2.39,1.84Z"/>
  <path class="cls-8" d="M134.79,203.8l-2.79,5.14c-1.05,1.93-3.45,2.65-5.38,1.6-1.93-1.05-2.64-3.46-1.59-5.39l2.54-4.66c.48.35,1.01.64,1.56.9l3.64,1.7c.66.3,1.34.54,2.03.7Z"/>
  <path class="cls-6" d="M151.55,172.89l5.91-12.21c.46-.96,1.62-1.36,2.57-.89h0c.96.46,1.36,1.62.89,2.57l-5.91,12.21-3.47-1.68Z"/>
  <path class="cls-6" d="M136.95,166.36l5.91-12.21c.46-.96,1.62-1.36,2.57-.89h0c.96.46,1.36,1.62.89,2.57l-5.91,12.21-3.47-1.68Z"/>
  <path class="cls-5" d="M151.55,172.89l5.91-12.21c.46-.96,1.62-1.36,2.57-.89h0c.96.46,1.36,1.62.89,2.57l-5.91,12.21-3.47-1.68Z"/>
  <path class="cls-5" d="M136.95,166.36l5.91-12.21c.46-.96,1.62-1.36,2.57-.89h0c.96.46,1.36,1.62.89,2.57l-5.91,12.21-3.47-1.68Z"/>
  <path class="cls-8" d="M150.85,192.52c1.35,1.04,1.83,2.92,1.05,4.52-.88,1.84-3.1,2.6-4.93,1.71l-.38-.19c-2.33,4.25-7.2,6.35-11.8,5.24-.69-.16-1.37-.4-2.03-.7l-3.64-1.7c-.55-.26-1.08-.56-1.56-.9-4.11-2.82-5.75-8.24-3.73-12.95-.63-.32-1.13-.8-1.47-1.36-.63-1.04-.72-2.36-.16-3.53.82-1.69,2.78-2.48,4.53-1.88l8.36-18.17,24.51,12.02-8.74,17.89Z"/>
  <path class="cls-6" d="M146.58,198.56s-.34-.11-.93-.36c-.59-.25-1.44-.64-2.48-1.12-2.09-.96-4.95-2.35-8.1-3.9-3.12-1.54-5.94-2.94-8.05-3.99-.99-.49-1.81-.9-2.44-1.22-.57-.29-.89-.46-.88-.48,0-.02.34.11.93.36.59.25,1.44.64,2.48,1.12,2.09.96,4.95,2.35,8.1,3.9,3.12,1.54,5.93,2.94,8.05,3.99.99.49,1.81.9,2.44,1.22.57.29.89.46.88.48Z"/>
  <path class="cls-6" d="M150.85,192.52s-.36-.12-.98-.4c-.62-.28-1.52-.7-2.62-1.22-2.2-1.05-5.23-2.54-8.55-4.22-3.3-1.67-6.28-3.18-8.51-4.31-1.05-.54-1.91-.98-2.57-1.32-.61-.32-.93-.5-.92-.52s.36.12.98.4c.62.28,1.52.7,2.62,1.22,2.2,1.05,5.23,2.54,8.56,4.22,3.3,1.67,6.28,3.18,8.51,4.31,1.05.54,1.91.98,2.57,1.32.61.32.93.5.92.52Z"/>
  <path class="cls-8" d="M280.44,159.94c-.87-.3-1.72-.59-2.55-.88-5.58-1.95-23.61-3.95-35.91-5.16-3.03-.29-5.72-.54-7.78-.73-1.68-.15-2.95-.27-3.64-.34-.36-.04-.57-.05-.62-.06l-.79,2.81s.6.06,1.62.17c.91.08,2.16.22,3.68.38,1.83.19,4.06.43,6.52.71,12.24,1.35,30.35,3.57,35.77,5.47.82.29,1.69.58,2.58.89,7.88,2.67,17.67,5.99,19.21,13.74,1.89,9.39-3.04,22.99-14.1,31.52h-.01c-1.34,1.04-2.77,2.01-4.31,2.87-.43.26-.89.51-1.35.75-3.2,1.65-6.45,2.8-9.68,3.54-2.31.54-4.63.87-6.9,1.03-8.41.62-16.36-1.04-22.52-3-.9-.3-1.79-.59-2.68-.92-15.05-5.45-26.88-15.05-33.5-27.26-2.37-4.37-4.06-9.12-5.05-14.04-.61-2.99-.95-6.05-1.04-9.13l-3.46-1.21c.02,3.67.4,7.35,1.11,10.93,1.06,5.29,2.86,10.39,5.4,15.09,7.44,13.71,21,24.29,38.16,29.81.77.24,1.54.49,2.35.72,7.68,2.19,17.5,3.66,27.59,1.63,2.13-.41,4.26-.99,6.37-1.75,1.82-.65,3.63-1.43,5.43-2.36,1.61-.83,3.19-1.82,4.72-2.92,1.35-.97,2.67-2.05,3.93-3.21h.01c3.24-2.99,6.1-6.49,8.32-10.3,4.36-7.44,5.98-15.42,4.58-22.45-1.95-9.7-12.78-13.38-21.49-16.33ZM326.31,134.24c-.61-.35-1.22-.67-1.84-.97-4.1-2.06-8.04-3.31-11.62-4-1.79-4.2-4.9-8.32-9.46-12.57-2.18-2.05-4.59-3.85-7.18-5.39-2.41-1.42-4.96-2.59-7.66-3.54-.39-.14-.77-.28-1.17-.4-10.3-3.52-20.15-5.37-29.42-5.53-1.98-.04-3.95,0-5.88.12-1.5.09-2.96.23-4.43.41-.51.07-1.02.14-1.51.21-2.03.3-4.01.69-5.98,1.18-2.06.5-4.08,1.12-6.07,1.84-4.9,1.74-9.54,4.09-13.88,7.02-4.41,2.99-8.02,6.25-10.89,9.32-2.87,3.06-5.01,5.92-6.48,8.14l3.32,1.26c1.43-2.09,3.43-4.69,6.04-7.43,2.66-2.8,5.96-5.74,9.95-8.44,2.73-1.85,5.58-3.44,8.53-4.79,1.91-.87,3.87-1.63,5.88-2.3,3.69-1.21,7.53-2.07,11.51-2.57h.01c1.86-.24,3.74-.39,5.66-.47,7.84-.32,16.18.69,24.9,3.01,2.9.74,5.81,1.65,8.78,2.69,5.15,1.8,9.74,4.56,13.64,8.2,3.43,3.18,5.98,6.31,7.68,9.42-2.51-.26-4.76-.29-6.65-.18-1.11.03-2.09.13-2.93.23-4.37.55-8.25,3.03-10.41,6.65-2.68,4.49-2.63,10.12.13,15.06,2.49,4.48,6.69,7.3,10.96,7.36,2.99.04,7.38-1.22,11.14-7.52,3.41-5.75,4.46-11.52,3.14-17.2,2.67.67,5.55,1.67,8.51,3.14.67.32,1.34.68,2.01,1.05,9.9,5.49,19,16.17,26.09,29.91.11-.39.23-.79.33-1.17.15-.5.28-1,.41-1.5.24-.89.44-1.79.62-2.68-6.82-13.34-15.09-21.62-25.79-27.56ZM308.02,148.5c-2.31,3.86-5.12,5.88-8.13,5.84-1.3-.01-2.59-.42-3.81-1.13-1.65-.98-3.11-2.5-4.21-4.47-2.15-3.87-2.22-8.2-.18-11.62,1.63-2.71,4.57-4.59,7.89-5,.81-.1,1.76-.19,2.81-.24,2.2-.12,4.9-.04,7.95.42,1.76,5.34.97,10.66-2.33,16.2Z"/>
  <path class="cls-5" d="M171.67,165.78c-.32,0-.32.25-.33.89l.14,7.91.38,12.18.36,11.11-8.66-1.46,2.23,12.7.64,3.38c.27,1.37.3,1.48.62,1.43.06-.01.12-.02.15-.05.16-.1.12-.39-.03-1.51l-2.27-14.6,8.51,1.49-.94-24.69-.3-6.21-.11-1.69c-.05-.64-.07-.88-.38-.86Z"/>
  <path class="cls-5" d="M218.8,38.43l-.1.03c-.13.04-.19.15-.29.37l-5.52,12.6-13.29,31.09-10.91-2.79-11.05,31.62-3.18,9.27-.61,1.84-.43,1.33c-.06.22-.15.51.14.6.1.03.18.02.24-.02.11-.07.18-.23.24-.37l4.51-12.33,10.87-30.57,10.85,2.77,13.51-32.07,3.93-9.47,1.3-3.25c.09-.24.12-.34.06-.47l-.06-.11-.22-.07Z"/>
  <path class="cls-5" d="M149.66,128.4l-1.41-1.22h0c-1.4-1.2-3.11-2.68-5.17-4.51-3.81-3.38-9.65-8.79-15.98-15.46l3.3-3.15-16.03-16.25-4.71-4.7-1.3-1.25c-.5-.47-.66-.62-.89-.41-.23.22-.08.38.39.9l5.82,6.14,15.09,15.53-3.29,3.14.39.42c7.04,7.44,13.4,13.11,16.57,15.82,1.92,1.65,3.8,3.21,5.3,4.4l1.47,1.14c.49.37.68.51.85.41.03-.02.07-.05.1-.09.2-.24.05-.38-.51-.87Z"/>
  <path class="cls-5" d="M136.38,131.07c-8.29-6.98-12.66-10.5-12.99-10.47h-.13s-.08.11-.08.11c-.23.28-.37.44,12.46,11.24,3.37,2.84,6.55,5.48,8.96,7.44,3.42,2.78,3.91,3.15,4.14,3.02.04-.02.07-.06.1-.1.23-.28.37-.44-12.46-11.24Z"/>
  <path class="cls-5" d="M193.59,102.44l-.12.02s-.02,0-.03.01c-.56.34-4.74,6.49-8.19,11.65-7.98,11.94-7.79,12.06-7.5,12.26h0c.06.04.12.08.24,0,.47-.28,1.9-2.17,8.22-11.62,3.53-5.28,7.71-11.65,7.63-12.06l-.03-.13-.21-.14Z"/>
  <path class="cls-5" d="M167.06,109.15l-.26-.04-.1.07c-.33.24-1.04,4.44-1.57,7.91-1.23,8.06-.98,8.1-.66,8.15.05,0,.11.02.16-.02.27-.16.62-1.29,1.64-7.96.53-3.48,1.11-7.69.87-8.02l-.08-.11Z"/>
  <path class="cls-5" d="M135.11,83.75l-.12-.04-.23.11-.04.12c-.11.32,3.32,7.82,10.19,22.3,2.78,5.86,5.43,11.36,7.45,15.49q3.26,6.66,3.63,6.49s.05-.02.07-.04c.28-.17.09-.6-2.8-6.88-1.92-4.17-4.52-9.7-7.3-15.56-6.88-14.48-10.52-21.88-10.84-21.99Z"/>
  <path class="cls-5" d="M180.77,168.84c-2.86-1.8-4.46-2.68-4.76-2.61l-.12.03-.14.21.02.13c.02.13.09.46,4.39,3.22,2.86,1.8,4.46,2.68,4.76,2.61l.14-.04.13-.21-.02-.13c-.06-.32-1.54-1.4-4.39-3.22Z"/>
  <path class="cls-3" d="M229.16,155.58l.8-2.82c.21.05,5.24.46,12.03,1.13l-1,2.94c-6.8-.76-11.77-1.24-11.83-1.25Z"/>
  <path class="cls-8" d="M218.48,155.46l2.23-7.43,7.4,2.24c1.35.41,2.31,1.47,2.63,2.75.18.67.18,1.39-.03,2.08-.06.2-.14.39-.22.57-.81,1.68-2.76,2.59-4.61,2.03l-7.4-2.24Z"/>
  <polygon class="cls-9" points="134.68 264.31 134.14 262.21 135.6 260.61 133.5 261.15 131.89 259.69 132.44 261.79 130.98 263.4 133.08 262.85 134.68 264.31"/>
  <polygon class="cls-1" points="91.52 324.83 90.42 320.62 93.35 317.4 89.14 318.5 85.92 315.56 87.02 319.78 84.08 323 88.3 321.9 91.52 324.83"/>
  <path class="cls-2" d="M111.56,249.99c-.46.28-.89-.43-.43-.71s.89.43.43.71Z"/>
  <path class="cls-2" d="M106.99,311.38c-.12.25-.28.41-.56.47-.33.06-.54-.28-.33-.55.17-.22.4-.29.67-.28.19,0,.3.19.22.36Z"/>
  <path class="cls-2" d="M146.16,319.4c-.43.26-.82-.4-.4-.66s.82.4.4.66Z"/>
  <path class="cls-2" d="M159.31,296.49c-.46.28-.89-.43-.43-.71s.89.43.43.71Z"/>
  <path class="cls-2" d="M128.85,281.56c-.47.29-.92-.45-.44-.74s.92.45.44.74Z"/>
  <path class="cls-2" d="M123.22,276.64c-.43.26-.84-.41-.41-.67s.84.41.41.67Z"/>
  <path class="cls-2" d="M132.58,243.24c-.62.38-1.2-.59-.58-.96s1.2.59.58.96Z"/>
  <path class="cls-2" d="M100.05,266.35c-.24-.04-.4-.18-.59-.32-.21-.16.04-.43.25-.35.2.08.38.16.52.33.13.15.02.38-.19.34Z"/>
  <path class="cls-2" d="M107.16,271.81c-.11-.04-.22-.09-.34-.13-.13-.05-.09-.23.05-.22.12.01.24.03.36.04.2.02.11.37-.07.3Z"/>
  <path class="cls-2" d="M89.51,280.65c-.07,0-.15,0-.22.01-.27.02-.47-.31-.33-.55.04-.06.07-.13.11-.19.19-.31.65-.35.85-.02s-.05.72-.41.74Z"/>
  <path class="cls-2" d="M72.13,295.29c-.83.5-1.6-.78-.77-1.28.83-.5,1.6.78.77,1.28Z"/>
  <path class="cls-2" d="M102.08,291.43c.02.06.04.12.05.18.08.29-.28.5-.5.3-.05-.04-.09-.08-.13-.13-.16-.16-.14-.43.06-.55s.45-.01.52.2Z"/>
  <path class="cls-2" d="M109.11,302.25c-.37.22-.71-.35-.35-.57s.71.35.35.57Z"/>
  <path class="cls-2" d="M74.96,267.09c-.56.34-1.08-.53-.52-.86s1.08.53.52.86Z"/>
  <path class="cls-2" d="M78.59,264.62c.04.13.02.27-.04.39-.11.21-.35.31-.58.26-.34-.08-.45-.46-.34-.73-.07-.12-.06-.29.09-.39.28-.18.65,0,.77.29.05.05.08.12.1.19Z"/>
  <path class="cls-2" d="M90.68,237.87c-.1.42-.77.58-.98.15,0,0,0,0,0,0-.02-.01-.05-.02-.07-.04-.33-.17-.2-.7.17-.7.03,0,.05,0,.08,0h0c.39-.29.9.16.79.58Z"/>
  <path class="cls-2" d="M75.61,311.91c-.07,0-.15,0-.22.01-.27.02-.47-.31-.33-.55.04-.06.07-.13.11-.19.19-.31.65-.35.85-.02s-.05.72-.41.74Z"/>
  <path class="cls-2" d="M54.14,277.89c-.07,0-.15,0-.22.01-.27.02-.47-.31-.33-.55.04-.06.07-.13.11-.19.19-.31.65-.35.85-.02s-.05.72-.41.74Z"/>
  <polygon class="cls-2" points="280.37 190.01 281.57 192.38 280.23 194.69 282.61 193.49 284.91 194.82 283.71 192.45 285.05 190.15 282.67 191.35 280.37 190.01"/>
  <polygon class="cls-1" points="269.83 121.73 271.98 126 269.58 130.13 273.85 127.98 277.98 130.38 275.83 126.11 278.23 121.98 273.96 124.13 269.83 121.73"/>
  <path class="cls-2" d="M304.34,202.61c.48-.45,1.18.29.7.74s-1.18-.29-.7-.74Z"/>
  <path class="cls-2" d="M282.45,138.43c.08-.33.23-.57.55-.7.38-.16.72.2.54.57-.15.31-.4.44-.73.51-.23.04-.41-.15-.36-.38Z"/>
  <path class="cls-2" d="M249.66,141.01c.44-.42,1.09.27.65.69s-1.09-.27-.65-.69Z"/>
  <path class="cls-2" d="M247.71,169.5c.48-.45,1.18.29.7.74-.48.45-1.18-.29-.7-.74Z"/>
  <path class="cls-2" d="M263.97,179.79c.49-.47,1.22.3.72.77-.49.47-1.22-.3-.72-.77Z"/>
  <path class="cls-2" d="M271.99,184.23c.45-.43,1.11.27.66.7s-1.11-.27-.66-.7Z"/>
  <path class="cls-2" d="M286.04,96.63c.53-.5,1.3.32.77.82s-1.3-.32-.77-.82Z"/>
  <path class="cls-2" d="M302.39,190.57c.29-.01.53.11.79.24.29.14.06.53-.21.48-.26-.05-.5-.09-.71-.26-.19-.15-.13-.45.13-.45Z"/>
  <path class="cls-2" d="M292.46,185.86c.15.02.29.05.44.07.17.03.17.26,0,.27-.15.01-.29.03-.44.04-.25.02-.23-.42.01-.38Z"/>
  <path class="cls-2" d="M332.61,123.71c.09-.02.17-.05.26-.07.32-.09.65.25.54.57-.03.08-.06.17-.09.25-.14.43-.69.58-1.01.24s-.13-.88.3-1Z"/>
  <path class="cls-2" d="M328.36,148.7c.86-.81,2.12.52,1.26,1.34-.86.81-2.12-.52-1.26-1.34Z"/>
  <path class="cls-2" d="M293.48,161.06c-.04-.07-.07-.13-.11-.2-.17-.33.2-.67.52-.49.06.04.13.08.19.12.23.15.28.48.07.68s-.53.13-.67-.11Z"/>
  <path class="cls-2" d="M282.27,149.92c.38-.36.94.23.56.6s-.94-.23-.56-.6Z"/>
  <path class="cls-2" d="M332.25,183.21c.58-.55,1.43.35.85.9s-1.43-.35-.85-.9Z"/>
  <path class="cls-2" d="M328.54,187.1c-.08-.15-.09-.32-.05-.48.08-.27.34-.46.63-.46.43.01.65.44.6.79.11.13.15.33,0,.49-.29.29-.77.17-1-.14-.07-.05-.13-.12-.17-.2Z"/>
  <path class="cls-2" d="M257.12,125.94c.02-.53.77-.9,1.13-.43,0,0,0,0,0,0,.03,0,.06.02.09.03.44.12.42.78-.03.88-.03,0-.06.01-.09.02h0c-.39.45-1.12.03-1.1-.5Z"/>
  <path class="cls-2" d="M318.93,121.66c.09-.02.17-.05.26-.07.32-.09.65.25.54.57-.03.08-.06.17-.09.25-.14.43-.69.58-1.01.24-.32-.34-.13-.88.3-1Z"/>
  <path class="cls-2" d="M340.29,169.77c.09-.02.17-.05.26-.07.32-.09.65.25.54.57-.03.08-.06.17-.09.25-.14.43-.69.58-1.01.24s-.13-.88.3-1Z"/>
  <path class="cls-6" d="M183.72,155.7s.08-.37.28-1.02c.2-.65.51-1.59.9-2.75.78-2.31,1.9-5.49,3.17-8.99,1.26-3.47,2.41-6.61,3.26-8.96.41-1.1.75-2.01,1-2.71.24-.64.39-.99.41-.98s-.08.37-.28,1.02c-.2.65-.51,1.59-.9,2.75-.78,2.31-1.9,5.49-3.17,9-1.26,3.47-2.41,6.61-3.26,8.96-.41,1.1-.75,2.01-1,2.71-.24.64-.39.99-.41.98Z"/>
  <path class="cls-8" d="M221.36,145.91l-.65,2.12-2.24,7.43-.83,2.75c-.78,2.62-3.55,4.1-6.16,3.32l-7.56-2.29c-1.59,1.28-3.6,1.98-5.7,1.88-.27,0-.55-.03-.83-.07-.43-.05-.85-.15-1.27-.28l-2.17-.65-2.03-.62-8.31-2.51-.49,1.38c-.44,1.23-1.79,1.87-3.01,1.44-1.23-.44-1.87-1.8-1.45-3.02l10.77-30.28c.44-1.22,1.8-1.87,3.02-1.43,1.23.44,1.87,1.8,1.45,3.02l-.25.64,8.4,2.53,2.72.82c.24.07.47.15.69.24,2.36.94,4.09,2.86,4.88,5.13l.03-.07,7.68,2.33c2.62.78,4.09,3.54,3.3,6.17Z"/>
  <path class="cls-7" d="M134.79,203.8l-2.79,5.14c-1.05,1.93-3.45,2.65-5.38,1.6-1.93-1.05-2.64-3.46-1.59-5.39l2.54-4.66c.48.35,1.01.64,1.56.9l3.64,1.7c.66.3,1.34.54,2.03.7Z"/>
  <path class="cls-7" d="M218.48,155.46l2.23-7.43,7.4,2.24c1.35.41,2.31,1.47,2.63,2.75.18.67.18,1.39-.03,2.08-.06.2-.14.39-.22.57-.81,1.68-2.76,2.59-4.61,2.03l-7.4-2.24Z"/>
  <path class="cls-6" d="M210.32,137.81s-.05.3-.18.83c-.13.53-.34,1.29-.61,2.23-.53,1.88-1.31,4.46-2.2,7.3-.88,2.82-1.68,5.36-2.28,7.27-.28.89-.52,1.63-.7,2.2-.17.52-.27.8-.29.8-.02,0,.05-.3.18-.83.13-.53.34-1.29.61-2.23.53-1.88,1.31-4.46,2.2-7.3.88-2.82,1.68-5.36,2.28-7.27.28-.89.52-1.63.7-2.2.17-.52.27-.8.29-.8Z"/>
</svg>