<svg width="639" height="400" viewBox="0 0 639 400" fill="none" xmlns="http://www.w3.org/2000/svg">
  <g clip-path="url(#clip0_1388_31418)">
    <path
      d="M608.508 400H69.3782C64.5838 400 59.9858 398.1 56.5956 394.717C53.2055 391.334 51.3009 386.747 51.3009 381.963C246.735 359.3 438.497 359.3 626.585 381.963C626.585 386.747 624.681 391.334 621.291 394.717C617.901 398.1 613.302 400 608.508 400Z"
      fill="#CCCCCC"/>
    <path
      d="M626.585 383.024L51.3009 381.963L117.974 270.027L118.293 269.496V22.8011C118.293 19.8067 118.884 16.8416 120.032 14.0752C121.181 11.3087 122.864 8.79505 124.986 6.67772C127.108 4.5604 129.627 2.88089 132.4 1.73512C135.173 0.589352 138.144 -0.000250133 141.145 7.96048e-08H533.551C536.552 -0.000250133 539.524 0.589352 542.296 1.73512C545.069 2.88089 547.588 4.5604 549.71 6.67772C551.832 8.79505 553.515 11.3087 554.664 14.0752C555.812 16.8416 556.403 19.8067 556.403 22.8011V271.194L626.585 383.024Z"
      fill="#E6E6E6"/>
    <path
      d="M140.624 15.9151C138.651 15.9173 136.759 16.7005 135.363 18.0929C133.968 19.4853 133.183 21.3731 133.181 23.3422V248.276C133.183 250.245 133.968 252.133 135.363 253.525C136.759 254.917 138.651 255.701 140.624 255.703H537.262C539.236 255.701 541.128 254.917 542.523 253.525C543.918 252.133 544.703 250.245 544.706 248.276V23.3422C544.703 21.3731 543.918 19.4853 542.523 18.093C541.128 16.7006 539.236 15.9174 537.262 15.9151H140.624Z"
      fill="white"/>
    <path
      d="M143.231 285.411C142.621 285.412 142.024 285.587 141.511 285.915C140.997 286.244 140.588 286.711 140.333 287.264L119.788 331.826C119.565 332.311 119.467 332.844 119.504 333.377C119.541 333.909 119.712 334.424 120 334.874C120.289 335.323 120.686 335.693 121.155 335.949C121.625 336.205 122.151 336.34 122.686 336.34H554.719C555.263 336.34 555.798 336.201 556.273 335.937C556.748 335.672 557.147 335.291 557.433 334.83C557.719 334.368 557.881 333.841 557.906 333.299C557.93 332.757 557.815 332.218 557.572 331.733L535.241 287.171C534.978 286.641 534.571 286.195 534.067 285.884C533.562 285.573 532.981 285.409 532.388 285.411L143.231 285.411Z"
      fill="#CCCCCC"/>
    <path
      d="M337.348 12.2016C339.991 12.2016 342.133 10.064 342.133 7.42706C342.133 4.79016 339.991 2.65253 337.348 2.65253C334.705 2.65253 332.563 4.79016 332.563 7.42706C332.563 10.064 334.705 12.2016 337.348 12.2016Z"
      fill="white"/>
    <path
      d="M294.883 344.828C294.182 344.829 293.5 345.06 292.943 345.485C292.387 345.911 291.986 346.507 291.803 347.183L286.65 366.281C286.522 366.753 286.505 367.247 286.6 367.727C286.695 368.206 286.9 368.657 287.197 369.045C287.495 369.433 287.879 369.747 288.318 369.963C288.757 370.179 289.24 370.292 289.73 370.292H387.734C388.242 370.292 388.744 370.17 389.196 369.938C389.648 369.705 390.037 369.368 390.332 368.955C390.627 368.542 390.819 368.064 390.891 367.561C390.963 367.059 390.914 366.547 390.747 366.067L384.122 346.969C383.905 346.344 383.498 345.802 382.958 345.418C382.417 345.034 381.771 344.828 381.107 344.828H294.883Z"
      fill="#CCCCCC"/>
    <path d="M556.403 265.782V270.027H117.974L118.304 269.496V265.782H556.403Z" fill="#CCCCCC"/>
    <path
      d="M502.287 275.504C502.117 275.505 501.951 275.561 501.815 275.665C501.679 275.768 501.582 275.913 501.537 276.078L500.282 280.729C500.251 280.844 500.247 280.964 500.27 281.081C500.294 281.197 500.343 281.307 500.416 281.402C500.488 281.496 500.582 281.573 500.689 281.625C500.796 281.678 500.913 281.705 501.032 281.705H524.898C525.022 281.705 525.144 281.676 525.254 281.619C525.364 281.562 525.459 281.48 525.531 281.38C525.602 281.279 525.649 281.163 525.667 281.04C525.684 280.918 525.672 280.793 525.632 280.677L524.018 276.026C523.965 275.874 523.866 275.742 523.735 275.648C523.603 275.555 523.446 275.504 523.284 275.504H502.287Z"
      fill="#CCCCCC"/>
    <path
      d="M467.441 275.504C467.27 275.505 467.104 275.561 466.968 275.665C466.833 275.768 466.735 275.913 466.691 276.078L465.436 280.729C465.405 280.844 465.401 280.964 465.424 281.081C465.447 281.197 465.497 281.307 465.569 281.402C465.642 281.496 465.735 281.573 465.842 281.625C465.949 281.678 466.067 281.705 466.186 281.705H490.051C490.175 281.705 490.297 281.676 490.407 281.619C490.517 281.562 490.612 281.48 490.684 281.38C490.756 281.279 490.803 281.163 490.82 281.04C490.838 280.918 490.826 280.793 490.785 280.677L489.172 276.026C489.119 275.874 489.02 275.742 488.888 275.648C488.757 275.555 488.599 275.504 488.438 275.504H467.441Z"
      fill="#CCCCCC"/>
    <path
      d="M366.483 305.055H368.354L364.613 55.5953H362.742L362.817 60.5721H320.894L320.969 55.5953H319.099L315.358 305.055H317.228L317.471 288.88H366.24L366.483 305.055ZM363.787 125.27H319.924L320.381 94.7872H363.33L363.787 125.27ZM363.815 127.136L364.272 157.619H319.439L319.896 127.136H363.815ZM364.3 159.485L364.757 189.968H318.954L319.411 159.485H364.3ZM364.785 191.834L365.242 222.316H318.469L318.926 191.834H364.785ZM365.27 224.183L365.727 254.665H317.984L318.441 224.183H365.27ZM362.845 62.4384L363.302 92.9209H320.409L320.866 62.4384H362.845ZM317.499 287.014L317.956 256.532H365.755L366.213 287.014H317.499Z"
      fill="#3F3D56"/>
    <path
      d="M332.59 141.517C349.434 141.517 363.089 127.893 363.089 111.086C363.089 94.2784 349.434 80.6536 332.59 80.6536C315.745 80.6536 302.09 94.2784 302.09 111.086C302.09 127.893 315.745 141.517 332.59 141.517Z"
      fill="#2F2E41"/>
    <path d="M350.53 132.116L341.412 133.763L344.37 150.063L353.487 148.416L350.53 132.116Z" fill="#2F2E41"/>
    <path d="M332.295 135.41L323.177 137.057L326.134 153.356L335.252 151.709L332.295 135.41Z" fill="#2F2E41"/>
    <path
      d="M330.975 156.787C334.229 154.037 336.029 150.82 334.996 149.603C333.962 148.385 330.486 149.627 327.232 152.377C323.978 155.127 322.177 158.343 323.211 159.561C324.244 160.778 327.72 159.536 330.975 156.787Z"
      fill="#2F2E41"/>
    <path
      d="M348.83 153.561C352.084 150.811 353.884 147.595 352.851 146.378C351.817 145.16 348.341 146.402 345.087 149.152C341.833 151.902 340.033 155.118 341.066 156.336C342.1 157.553 345.576 156.311 348.83 153.561Z"
      fill="#2F2E41"/>
    <path
      d="M330.454 114.042C336.211 114.042 340.878 109.386 340.878 103.642C340.878 97.8975 336.211 93.2409 330.454 93.2409C324.697 93.2409 320.031 97.8975 320.031 103.642C320.031 109.386 324.697 114.042 330.454 114.042Z"
      fill="white"/>
    <path
      d="M326.17 103.381C328.089 103.381 329.645 101.828 329.645 99.9136C329.645 97.9988 328.089 96.4467 326.17 96.4467C324.251 96.4467 322.696 97.9988 322.696 99.9136C322.696 101.828 324.251 103.381 326.17 103.381Z"
      fill="#3F3D56"/>
    <path
      d="M356.65 77.9789C357.108 66.7125 347.377 57.1698 334.914 56.6647C322.45 56.1596 311.975 64.8833 311.517 76.1496C311.058 87.416 319.721 89.9757 332.185 90.4809C344.648 90.9861 356.191 89.2452 356.65 77.9789Z"
      fill="#8F84FF"/>
    <path
      d="M319.292 108.941C319.882 106.369 313.706 102.763 305.497 100.885C297.288 99.0078 290.154 99.5703 289.563 102.142C288.972 104.713 295.148 108.32 303.358 110.197C311.567 112.075 318.701 111.512 319.292 108.941Z"
      fill="#2F2E41"/>
    <path
      d="M379.161 118.875C379.752 116.304 373.576 112.697 365.367 110.819C357.157 108.942 350.023 109.504 349.433 112.076C348.842 114.647 355.018 118.254 363.228 120.131C371.437 122.009 378.571 121.446 379.161 118.875Z"
      fill="#2F2E41"/>
    <path
      d="M340.966 123.078C341.131 123.975 341.116 124.894 340.924 125.785C340.732 126.676 340.366 127.52 339.847 128.269C339.328 129.019 338.665 129.658 337.898 130.152C337.131 130.646 336.274 130.985 335.375 131.148C334.477 131.311 333.555 131.296 332.663 131.103C331.77 130.911 330.924 130.545 330.174 130.026C329.423 129.507 328.782 128.846 328.288 128.08C327.794 127.314 327.455 126.458 327.293 125.562L327.29 125.549C326.607 121.78 329.526 120.447 333.303 119.765C337.08 119.083 340.283 119.31 340.966 123.078Z"
      fill="white"/>
    <path
      d="M229.289 214.444C232.371 206.397 232.817 199.091 230.286 198.125C227.754 197.16 223.203 202.9 220.12 210.947C217.038 218.994 216.591 226.3 219.123 227.265C221.655 228.231 226.206 222.49 229.289 214.444Z"
      fill="#2F2E41"/>
    <path
      d="M226.668 241.25C229.434 224.243 217.858 208.219 200.814 205.46C183.769 202.7 167.71 214.249 164.944 231.256C162.178 248.262 173.753 264.286 190.797 267.046C207.842 269.806 223.902 258.257 226.668 241.25Z"
      fill="#2F2E41"/>
    <path d="M191.056 260.736H181.558V277.716H191.056V260.736Z" fill="#2F2E41"/>
    <path d="M210.053 260.736H200.555V277.716H210.053V260.736Z" fill="#2F2E41"/>
    <path
      d="M189.473 280.875C193.845 280.875 197.389 279.549 197.389 277.913C197.389 276.278 193.845 274.952 189.473 274.952C185.102 274.952 181.558 276.278 181.558 277.913C181.558 279.549 185.102 280.875 189.473 280.875Z"
      fill="#2F2E41"/>
    <path
      d="M208.47 280.48C212.842 280.48 216.386 279.154 216.386 277.519C216.386 275.883 212.842 274.557 208.47 274.557C204.099 274.557 200.555 275.883 200.555 277.519C200.555 279.154 204.099 280.48 208.47 280.48Z"
      fill="#2F2E41"/>
    <path
      d="M165.477 207.241C162.952 195.96 171.022 184.561 183.502 181.781C195.981 179.001 208.144 185.892 210.669 197.173C213.193 208.454 204.923 212.614 192.443 215.395C179.964 218.175 168.001 218.522 165.477 207.241Z"
      fill="#8F84FF"/>
    <path
      d="M174.715 228.462C175.876 226.019 170.494 221.045 162.693 217.353C154.892 213.662 147.627 212.65 146.465 215.094C145.304 217.537 150.686 222.51 158.487 226.202C166.288 229.894 173.553 230.905 174.715 228.462Z"
      fill="#2F2E41"/>
    <path
      d="M60.4281 299.036C77.6956 299.036 91.6937 285.069 91.6937 267.84C91.6937 250.611 77.6956 236.644 60.4281 236.644C43.1606 236.644 29.1625 250.611 29.1625 267.84C29.1625 285.069 43.1606 299.036 60.4281 299.036Z"
      fill="#2F2E41"/>
    <path d="M55.6788 292.323H46.1804V309.303H55.6788V292.323Z" fill="#2F2E41"/>
    <path d="M74.6757 292.323H65.1772V309.303H74.6757V292.323Z" fill="#2F2E41"/>
    <path
      d="M54.0959 312.462C58.4674 312.462 62.0113 311.136 62.0113 309.501C62.0113 307.865 58.4674 306.539 54.0959 306.539C49.7244 306.539 46.1805 307.865 46.1805 309.501C46.1805 311.136 49.7244 312.462 54.0959 312.462Z"
      fill="#2F2E41"/>
    <path
      d="M73.0926 312.068C77.4641 312.068 81.0079 310.742 81.0079 309.106C81.0079 307.47 77.4641 306.144 73.0926 306.144C68.7211 306.144 65.1772 307.47 65.1772 309.106C65.1772 310.742 68.7211 312.068 73.0926 312.068Z"
      fill="#2F2E41"/>
    <path
      d="M61.2196 270.604C67.1212 270.604 71.9054 265.831 71.9054 259.942C71.9054 254.054 67.1212 249.281 61.2196 249.281C55.3181 249.281 50.5339 254.054 50.5339 259.942C50.5339 265.831 55.3181 270.604 61.2196 270.604Z"
      fill="white"/>
    <path
      d="M61.2198 263.496C63.1869 263.496 64.7817 261.905 64.7817 259.942C64.7817 257.98 63.1869 256.388 61.2198 256.388C59.2526 256.388 57.6578 257.98 57.6578 259.942C57.6578 261.905 59.2526 263.496 61.2198 263.496Z"
      fill="#3F3D56"/>
    <path
      d="M30.0994 238.829C27.5749 227.548 35.6449 216.149 48.1243 213.369C60.6036 210.588 72.7667 217.479 75.2913 228.76C77.8158 240.041 69.5453 244.202 57.0659 246.982C44.5865 249.762 32.624 250.11 30.0994 238.829Z"
      fill="#E6E6E6"/>
    <path
      d="M83.2255 156.392C86.308 148.345 86.7545 141.039 84.2227 140.073C81.691 139.108 77.1397 144.848 74.0572 152.895C70.9747 160.942 70.5282 168.248 73.06 169.213C75.5918 170.179 80.143 164.438 83.2255 156.392Z"
      fill="#2F2E41"/>
    <path
      d="M80.6044 183.198C83.3704 166.191 71.7953 150.167 54.7507 147.408C37.7062 144.648 21.6466 156.197 18.8806 173.204C16.1147 190.21 27.6898 206.234 44.7343 208.994C61.7789 211.754 77.8385 200.205 80.6044 183.198Z"
      fill="#2F2E41"/>
    <path d="M44.9932 202.684H35.4948V219.664H44.9932V202.684Z" fill="#2F2E41"/>
    <path d="M63.99 202.684H54.4916V219.664H63.99V202.684Z" fill="#2F2E41"/>
    <path
      d="M43.4101 222.823C47.7816 222.823 51.3255 221.497 51.3255 219.861C51.3255 218.226 47.7816 216.9 43.4101 216.9C39.0386 216.9 35.4948 218.226 35.4948 219.861C35.4948 221.497 39.0386 222.823 43.4101 222.823Z"
      fill="#2F2E41"/>
    <path
      d="M62.4069 222.428C66.7785 222.428 70.3223 221.102 70.3223 219.467C70.3223 217.831 66.7785 216.505 62.4069 216.505C58.0354 216.505 54.4916 217.831 54.4916 219.467C54.4916 221.102 58.0354 222.428 62.4069 222.428Z"
      fill="#2F2E41"/>
    <path
      d="M50.534 180.965C56.4355 180.965 61.2197 176.192 61.2197 170.303C61.2197 164.415 56.4355 159.641 50.534 159.641C44.6324 159.641 39.8483 164.415 39.8483 170.303C39.8483 176.192 44.6324 180.965 50.534 180.965Z"
      fill="white"/>
    <path
      d="M50.5341 173.857C52.5013 173.857 54.096 172.266 54.096 170.303C54.096 168.34 52.5013 166.749 50.5341 166.749C48.5669 166.749 46.9722 168.34 46.9722 170.303C46.9722 172.266 48.5669 173.857 50.5341 173.857Z"
      fill="#3F3D56"/>
    <path
      d="M19.4138 149.189C16.8892 137.908 24.9592 126.509 37.4386 123.729C49.918 120.949 62.0811 127.84 64.6056 139.121C67.1302 150.402 58.8596 154.562 46.3802 157.343C33.9009 160.123 21.9383 160.47 19.4138 149.189Z"
      fill="#8F84FF"/>
    <path
      d="M28.6516 170.41C29.8131 167.966 24.4308 162.993 16.63 159.301C8.82914 155.61 1.56373 154.598 0.402249 157.042C-0.759236 159.485 4.62304 164.458 12.4239 168.15C20.2247 171.842 27.4901 172.853 28.6516 170.41Z"
      fill="#2F2E41"/>
    <path
      d="M34.3849 189.455C34.3849 192.508 42.264 198.537 51.0071 198.537C59.7502 198.537 67.9477 189.942 67.9477 186.888C67.9477 183.835 59.7501 187.481 51.0071 187.481C42.2641 187.481 34.3849 186.402 34.3849 189.455Z"
      fill="white"/>
    <path
      d="M80.4815 59.0848C79.9041 59.0854 79.3505 59.3146 78.9422 59.722C78.5339 60.1294 78.3042 60.6817 78.3036 61.2579V151.078C78.3042 151.654 78.5339 152.206 78.9422 152.614C79.3505 153.021 79.9041 153.25 80.4815 153.251H288.835C289.412 153.25 289.966 153.021 290.374 152.614C290.783 152.206 291.012 151.654 291.013 151.078V61.2579C291.012 60.6817 290.783 60.1294 290.374 59.722C289.966 59.3146 289.412 59.0854 288.835 59.0848H80.4815Z"
      fill="#8F84FF"/>
    <path
      d="M136.74 127.262C148.416 127.262 157.881 117.818 157.881 106.168C157.881 94.518 148.416 85.0739 136.74 85.0739C125.064 85.0739 115.599 94.518 115.599 106.168C115.599 117.818 125.064 127.262 136.74 127.262Z"
      fill="white"/>
    <path
      d="M184.455 103.361C183.806 103.372 183.188 103.637 182.733 104.098C182.278 104.559 182.023 105.181 182.023 105.828C182.023 106.475 182.278 107.096 182.733 107.557C183.188 108.019 183.806 108.283 184.455 108.294H251.205C251.53 108.3 251.852 108.241 252.154 108.122C252.457 108.003 252.732 107.826 252.966 107.601C253.199 107.376 253.386 107.107 253.515 106.809C253.645 106.512 253.714 106.192 253.719 105.868C253.724 105.544 253.666 105.222 253.546 104.921C253.427 104.619 253.249 104.345 253.023 104.112C252.797 103.879 252.527 103.693 252.229 103.564C251.931 103.435 251.611 103.366 251.286 103.361C251.259 103.361 251.232 103.361 251.205 103.361H184.455Z"
      fill="white"/>
    <path
      d="M184.455 89.0718C183.806 89.0825 183.188 89.347 182.733 89.8084C182.278 90.2698 182.023 90.891 182.023 91.5382C182.023 92.1853 182.278 92.8066 182.733 93.268C183.188 93.7293 183.806 93.9938 184.455 94.0045H217.788C218.113 94.0101 218.436 93.9517 218.738 93.8328C219.04 93.7139 219.316 93.5368 219.549 93.3115C219.783 93.0862 219.97 92.8172 220.099 92.5199C220.228 92.2226 220.297 91.9027 220.303 91.5787C220.308 91.2546 220.249 90.9327 220.13 90.6313C220.01 90.3299 219.833 90.055 219.607 89.8222C219.381 89.5893 219.111 89.4033 218.813 89.2745C218.515 89.1458 218.194 89.0769 217.869 89.0718C217.842 89.0714 217.815 89.0714 217.788 89.0718H184.455Z"
      fill="white"/>
    <path
      d="M184.455 118.331C183.806 118.342 183.188 118.607 182.733 119.068C182.278 119.529 182.023 120.151 182.023 120.798C182.023 121.445 182.278 122.066 182.733 122.527C183.188 122.989 183.806 123.253 184.455 123.264H251.205C251.53 123.27 251.852 123.211 252.154 123.092C252.457 122.973 252.732 122.796 252.966 122.571C253.199 122.346 253.386 122.077 253.515 121.779C253.645 121.482 253.714 121.162 253.719 120.838C253.724 120.514 253.666 120.192 253.546 119.891C253.427 119.589 253.249 119.314 253.023 119.082C252.797 118.849 252.527 118.663 252.229 118.534C251.931 118.405 251.611 118.336 251.286 118.331C251.259 118.331 251.232 118.331 251.205 118.331H184.455Z"
      fill="white"/>
    <path
      d="M508.635 284.472C511.167 283.507 510.72 276.201 507.638 268.154C504.555 260.107 500.004 254.367 497.472 255.332C494.94 256.298 495.387 263.604 498.469 271.651C501.552 279.697 506.103 285.438 508.635 284.472Z"
      fill="#2F2E41"/>
    <path
      d="M530.427 330.772C547.471 328.013 559.046 311.989 556.28 294.982C553.515 277.975 537.455 266.426 520.41 269.186C503.366 271.946 491.791 287.969 494.557 304.976C497.323 321.983 513.382 333.532 530.427 330.772Z"
      fill="#2F2E41"/>
    <path d="M539.666 324.462H530.168L532.026 344.797L539.683 342.722L539.666 324.462Z" fill="#2F2E41"/>
    <path d="M518.959 324.515H509.46L511.319 344.85L518.629 342.722L518.959 324.515Z" fill="#2F2E41"/>
    <path
      d="M511.049 345.805C515.409 345.487 518.846 343.907 518.727 342.276C518.607 340.644 514.976 339.58 510.616 339.898C506.256 340.216 502.819 341.796 502.938 343.427C503.058 345.059 506.689 346.123 511.049 345.805Z"
      fill="#2F2E41"/>
    <path
      d="M524.627 302.743C530.529 302.743 535.313 297.97 535.313 292.081C535.313 286.193 530.529 281.419 524.627 281.419C518.726 281.419 513.941 286.193 513.941 292.081C513.941 297.97 518.726 302.743 524.627 302.743Z"
      fill="white"/>
    <path
      d="M524.627 295.635C526.594 295.635 528.189 294.044 528.189 292.081C528.189 290.119 526.594 288.527 524.627 288.527C522.66 288.527 521.065 290.119 521.065 292.081C521.065 294.044 522.66 295.635 524.627 295.635Z"
      fill="#3F3D56"/>
    <path
      d="M562.404 281.17C567.533 274.24 569.924 267.321 567.744 265.714C565.564 264.107 559.638 268.422 554.509 275.351C549.379 282.281 546.988 289.2 549.168 290.807C551.349 292.414 557.274 288.099 562.404 281.17Z"
      fill="#2F2E41"/>
    <path
      d="M510.164 316.065C510.164 313.548 516.658 308.579 523.864 308.579C531.069 308.579 537.826 315.664 537.826 318.18C537.826 320.696 531.069 317.692 523.864 317.692C516.658 317.692 510.164 318.581 510.164 316.065Z"
      fill="white"/>
    <path
      d="M613.092 274.199L441.947 250.526C440.613 250.34 439.407 249.633 438.595 248.561C437.782 247.489 437.428 246.139 437.612 244.807L456.851 106.331C457.038 105 457.746 103.797 458.82 102.986C459.895 102.175 461.248 101.822 462.583 102.005L633.727 125.678C635.061 125.864 636.267 126.57 637.08 127.642C637.893 128.715 638.246 130.065 638.063 131.396L618.823 269.873C618.636 271.204 617.928 272.407 616.854 273.218C615.779 274.029 614.426 274.382 613.092 274.199Z"
      fill="#8F84FF"/>
    <path
      d="M551.78 230.982L464.407 218.897C464.297 218.883 464.189 218.859 464.084 218.826L515.33 153.122C515.644 152.712 516.062 152.393 516.54 152.197C517.018 152 517.54 151.934 518.052 152.005C518.564 152.076 519.049 152.281 519.455 152.6C519.862 152.918 520.177 153.339 520.367 153.819L541.441 205.583L542.451 208.06L551.78 230.982Z"
      fill="white"/>
    <path opacity="0.2"
          d="M551.78 230.982L521.948 226.856L539.542 207.658L540.808 206.275L541.442 205.583L542.451 208.06L551.78 230.982Z"
          fill="black"/>
    <path
      d="M600.429 237.712L524.858 227.258L542.451 208.06L543.717 206.677L566.643 181.658C567.039 181.282 567.51 180.993 568.025 180.811C568.54 180.628 569.088 180.556 569.633 180.599C570.178 180.641 570.708 180.797 571.189 181.058C571.669 181.318 572.089 181.676 572.422 182.109C572.506 182.23 572.582 182.357 572.649 182.488L600.429 237.712Z"
      fill="white"/>
    <path
      d="M552.843 175.427C560.06 175.427 565.91 169.59 565.91 162.389C565.91 155.188 560.06 149.35 552.843 149.35C545.626 149.35 539.775 155.188 539.775 162.389C539.775 169.59 545.626 175.427 552.843 175.427Z"
      fill="white"/>
    <path d="M481.322 114.838L465.502 112.65L463.309 128.435L479.129 130.623L481.322 114.838Z" fill="#3F3D56"/>
    <path
      d="M555.747 270.968C558.272 259.687 550.202 248.288 537.722 245.507C525.243 242.727 513.08 249.618 510.555 260.899C508.031 272.18 516.301 276.341 528.781 279.121C541.26 281.901 553.223 282.249 555.747 270.968Z"
      fill="#F2F2F2"/>
    <path
      d="M531.879 345.755C536.239 345.437 539.676 343.857 539.557 342.226C539.437 340.594 535.806 339.53 531.446 339.848C527.086 340.166 523.649 341.746 523.768 343.377C523.888 345.009 527.519 346.073 531.879 345.755Z"
      fill="#2F2E41"/>
  </g>
  <defs>
    <clipPath id="clip0_1388_31418">
      <rect width="637.867" height="400" fill="white" transform="translate(0.244629)"/>
    </clipPath>
  </defs>
</svg>
