<svg xmlns="http://www.w3.org/2000/svg" viewBox="180.02 53.07 564.26 488.24"><defs><style>.cls-1{mix-blend-mode:hard-light;opacity:.87;}.cls-2{fill:#fff;}.cls-3{fill:#5945b8;}.cls-4{isolation:isolate;}.cls-5{fill:#4b2880;}.cls-6{fill:#28246c;}.cls-7{fill:#eaea92;}.cls-8{fill:#282484;}.cls-9{fill:#edf1ca;}.cls-10{fill:#d91118;}.cls-11{fill:none;stroke:#593f91;stroke-linecap:round;stroke-linejoin:round;stroke-width:0px;}.cls-12{fill:#bda3ce;}.cls-13{fill:#f8433d;}.cls-14{fill:#8f84ff;}.cls-15{fill:#8478ff;}.cls-16{fill:#7455e7;}</style></defs><g class="cls-4"><g id="Calque_1"><path class="cls-12" d="M563.86,286.67l-.28,.18c.25-.36,.5-.72,.74-1.08,.05,.17,.09,.34,.14,.51l-.6,.39h0Z"/><line class="cls-11" x1="552.3" y1="294.21" x2="551.34" y2="294.84"/><path class="cls-10" d="M404.15,407.81l-.11-.15s.05-.03,.07-.05c.02,.06,.03,.13,.04,.2Z"/><polygon class="cls-2" points="403.97 407.72 404.04 407.67 404.52 407.87 404.19 408.2 403.97 407.72"/><rect class="cls-8" x="533.37" y="337.09" width="6.58" height="35.5" transform="translate(-76.66 549.13) rotate(-51.05)"/><path class="cls-5" d="M418.79,236.97c1.29-1.6,3.64-1.85,5.24-.56h-.01c-1.6-1.3-3.95-1.05-5.24,.55l-9.25,11.45h.01s9.25-11.44,9.25-11.44Z"/><path class="cls-8" d="M524.92,341.12l10.74-13.29c1.4-1.73,1.13-4.26-.6-5.66l-4.68-3.78-34.82,43.08,4.88,3.95c1.61,1.3,3.98,1.05,5.29-.56l10.91-13.5,4.14-5.12,4.14-5.12Z"/><path class="cls-16" d="M582.48,326.38l-29.95,37.05-4.14,5.12-27.61-22.31-4.14,5.12,27.61,22.31-29.95,37.05,84.34,68.17,68.17-84.34-84.34-68.17Zm33.59,116.1l-18.81,23.27-23.27-18.81-23.27-18.81-23.27-18.81,18.81-23.27,18.81-23.27,18.81-23.27,23.27,18.81,23.27,18.81,23.27,18.81-18.81,23.27-18.81,23.27Z"/><polygon class="cls-9" points="573.99 446.95 616.06 442.49 592.79 423.68 573.99 446.95"/><polygon class="cls-7" points="597.26 465.76 616.06 442.49 573.99 446.95 597.26 465.76"/><polygon class="cls-9" points="569.52 404.87 550.72 428.14 592.79 423.68 569.52 404.87"/><polygon class="cls-7" points="550.72 428.14 573.99 446.95 592.79 423.68 550.72 428.14"/><polygon class="cls-9" points="546.25 386.06 527.45 409.33 569.52 404.87 546.25 386.06"/><polygon class="cls-7" points="527.45 409.33 550.72 428.14 569.52 404.87 527.45 409.33"/><polygon class="cls-9" points="592.79 423.68 634.87 419.22 611.6 400.41 592.79 423.68"/><polygon class="cls-7" points="616.06 442.49 634.87 419.22 592.79 423.68 616.06 442.49"/><polygon class="cls-9" points="569.52 404.87 611.6 400.41 588.33 381.6 569.52 404.87"/><polygon class="cls-7" points="592.79 423.68 611.6 400.41 569.52 404.87 592.79 423.68"/><polygon class="cls-9" points="588.33 381.6 565.06 362.79 546.25 386.06 588.33 381.6"/><polygon class="cls-7" points="588.33 381.6 546.25 386.06 569.52 404.87 588.33 381.6"/><polygon class="cls-9" points="653.68 395.95 630.41 377.14 611.6 400.41 653.68 395.95"/><polygon class="cls-7" points="611.6 400.41 634.87 419.22 653.68 395.95 611.6 400.41"/><polygon class="cls-9" points="630.41 377.14 607.14 358.33 588.33 381.6 630.41 377.14"/><polygon class="cls-7" points="611.6 400.41 630.41 377.14 588.33 381.6 611.6 400.41"/><polygon class="cls-9" points="583.87 339.52 565.06 362.79 607.14 358.33 583.87 339.52"/><polygon class="cls-7" points="607.14 358.33 565.06 362.79 588.33 381.6 607.14 358.33"/><path class="cls-16" d="M375.76,230.75l4.14-5.12,29.95-37.05-84.34-68.17-68.17,84.34,84.34,68.17,29.95-37.05,27.61,22.31,4.14-5.12-27.61-22.31Zm-16.67,5.76l-18.81,23.27-23.27-18.81-23.27-18.81-23.27-18.81,18.81-23.27,18.81-23.27,18.81-23.27,23.27,18.81,23.27,18.81,23.27,18.81-18.81,23.27-18.81,23.27Z"/><path class="cls-8" d="M428.58,237.83h0s-4.68-3.78-4.68-3.78c-1.73-1.4-4.26-1.13-5.66,.6l-10.74,13.29-27.61-22.31-4.14,5.12,27.61,22.31-4.14,5.12-10.91,13.5c-1.3,1.61-1.05,3.98,.56,5.29l4.88,3.95h0s34.82-43.07,34.82-43.07Z"/><polygon class="cls-7" points="289.28 180.08 293.74 222.16 312.55 198.89 289.28 180.08"/><polygon class="cls-9" points="270.47 203.35 293.74 222.16 289.28 180.08 270.47 203.35"/><polygon class="cls-7" points="312.55 198.89 317.01 240.97 335.82 217.7 312.55 198.89"/><polygon class="cls-9" points="293.74 222.16 317.01 240.97 312.55 198.89 293.74 222.16"/><polygon class="cls-7" points="340.28 259.78 359.09 236.51 335.82 217.7 340.28 259.78"/><polygon class="cls-9" points="317.01 240.97 340.28 259.78 335.82 217.7 317.01 240.97"/><polygon class="cls-7" points="331.36 175.62 308.09 156.81 312.55 198.89 331.36 175.62"/><polygon class="cls-9" points="308.09 156.81 289.28 180.08 312.55 198.89 308.09 156.81"/><polygon class="cls-7" points="335.82 217.7 354.63 194.43 331.36 175.62 335.82 217.7"/><polygon class="cls-9" points="312.55 198.89 335.82 217.7 331.36 175.62 312.55 198.89"/><polygon class="cls-7" points="377.9 213.24 354.63 194.43 359.09 236.51 377.9 213.24"/><polygon class="cls-9" points="354.63 194.43 335.82 217.7 359.09 236.51 354.63 194.43"/><polygon class="cls-7" points="350.17 152.35 326.9 133.54 331.36 175.62 350.17 152.35"/><polygon class="cls-9" points="326.9 133.54 308.09 156.81 331.36 175.62 326.9 133.54"/><polygon class="cls-7" points="373.44 171.16 350.17 152.35 354.63 194.43 373.44 171.16"/><polygon class="cls-9" points="354.63 194.43 350.17 152.35 331.36 175.62 354.63 194.43"/><polygon class="cls-7" points="396.71 189.97 373.44 171.16 377.9 213.24 396.71 189.97"/><polygon class="cls-9" points="377.9 213.24 373.44 171.16 354.63 194.43 377.9 213.24"/><g><path class="cls-16" d="M591.77,473.14l37.05,29.95,10.24,8.28,37.05,29.94,68.17-84.34-84.34-68.17-68.17,84.34Zm116.1-33.58l23.27,18.8-18.81,23.27-18.8,23.27-18.81,23.27-23.27-18.8-23.27-18.81-23.27-18.81,18.8-23.27,18.81-23.27,18.81-23.27,23.27,18.81,23.27,18.81Z"/><polygon class="cls-9" points="712.34 481.63 707.87 439.55 689.07 462.82 712.34 481.63"/><polygon class="cls-7" points="731.14 458.36 707.87 439.55 712.34 481.63 731.14 458.36"/><polygon class="cls-9" points="670.26 486.09 693.53 504.9 689.07 462.82 670.26 486.09"/><polygon class="cls-7" points="693.53 504.9 712.34 481.63 689.07 462.82 693.53 504.9"/><polygon class="cls-9" points="651.45 509.36 674.72 528.17 670.26 486.09 651.45 509.36"/><polygon class="cls-7" points="674.72 528.17 693.53 504.9 670.26 486.09 674.72 528.17"/><polygon class="cls-9" points="689.07 462.82 684.6 420.74 665.79 444.01 689.07 462.82"/><polygon class="cls-7" points="707.87 439.55 684.6 420.74 689.07 462.82 707.87 439.55"/><polygon class="cls-9" points="670.26 486.09 665.79 444.01 646.99 467.28 670.26 486.09"/><polygon class="cls-7" points="689.07 462.82 665.79 444.01 670.26 486.09 689.07 462.82"/><polygon class="cls-9" points="646.99 467.28 628.18 490.56 651.45 509.36 646.99 467.28"/><polygon class="cls-7" points="646.99 467.28 651.45 509.36 670.26 486.09 646.99 467.28"/><polygon class="cls-9" points="661.33 401.94 642.52 425.21 665.79 444.01 661.33 401.94"/><polygon class="cls-7" points="665.79 444.01 684.6 420.74 661.33 401.94 665.79 444.01"/><polygon class="cls-9" points="642.52 425.21 623.72 448.48 646.99 467.28 642.52 425.21"/><polygon class="cls-7" points="665.79 444.01 642.52 425.21 646.99 467.28 665.79 444.01"/><polygon class="cls-9" points="604.91 471.75 628.18 490.56 623.72 448.48 604.91 471.75"/><polygon class="cls-7" points="623.72 448.48 628.18 490.56 646.99 467.28 623.72 448.48"/></g><g><path class="cls-16" d="M248.19,57.73l-29.95,37.05-8.28,10.24-29.94,37.05,84.34,68.17,68.17-84.34L248.19,57.73Zm33.58,116.1l-18.8,23.27-23.27-18.81-23.27-18.8-23.27-18.81,18.8-23.27,18.81-23.27,18.81-23.27,23.27,18.8,23.27,18.81,23.27,18.81-18.81,23.27-18.81,23.27Z"/><polygon class="cls-9" points="239.7 178.3 281.78 173.83 258.51 155.03 239.7 178.3"/><polygon class="cls-7" points="262.97 197.1 281.78 173.83 239.7 178.3 262.97 197.1"/><polygon class="cls-9" points="235.24 136.22 216.43 159.49 258.51 155.03 235.24 136.22"/><polygon class="cls-7" points="216.43 159.49 239.7 178.3 258.51 155.03 216.43 159.49"/><polygon class="cls-9" points="211.97 117.41 193.16 140.68 235.24 136.22 211.97 117.41"/><polygon class="cls-7" points="193.16 140.68 216.43 159.49 235.24 136.22 193.16 140.68"/><polygon class="cls-9" points="258.51 155.03 300.59 150.56 277.32 131.76 258.51 155.03"/><polygon class="cls-7" points="281.78 173.83 300.59 150.56 258.51 155.03 281.78 173.83"/><polygon class="cls-9" points="235.24 136.22 277.32 131.76 254.05 112.95 235.24 136.22"/><polygon class="cls-7" points="258.51 155.03 277.32 131.76 235.24 136.22 258.51 155.03"/><polygon class="cls-9" points="254.05 112.95 230.78 94.14 211.97 117.41 254.05 112.95"/><polygon class="cls-7" points="254.05 112.95 211.97 117.41 235.24 136.22 254.05 112.95"/><polygon class="cls-9" points="319.4 127.29 296.12 108.49 277.32 131.76 319.4 127.29"/><polygon class="cls-7" points="277.32 131.76 300.59 150.56 319.4 127.29 277.32 131.76"/><polygon class="cls-9" points="296.12 108.49 272.85 89.68 254.05 112.95 296.12 108.49"/><polygon class="cls-7" points="277.32 131.76 296.12 108.49 254.05 112.95 277.32 131.76"/><polygon class="cls-9" points="249.58 70.87 230.78 94.14 272.85 89.68 249.58 70.87"/><polygon class="cls-7" points="272.85 89.68 230.78 94.14 254.05 112.95 272.85 89.68"/></g><rect class="cls-6" x="395.24" y="321.66" width="27.46" height="88.07" transform="translate(-132.72 452.67) rotate(-50.92)"/><polygon class="cls-8" points="562.87 168.26 570.59 174.53 547.24 203.31 539.51 197.03 562.87 168.26"/><rect class="cls-8" x="513.4" y="206.57" width="41.48" height="9.95" transform="translate(33.36 493.11) rotate(-50.95)"/><polygon class="cls-14" points="453.6 207.64 382.84 294.77 383.17 327.05 454.31 384.81 483.77 376.71 554.5 289.57 453.6 207.64"/><polygon class="cls-14" points="523.61 327.62 554.5 289.57 453.6 207.64 422.69 245.69 523.61 327.62"/><rect class="cls-14" x="488.12" y="191.2" width="19.54" height="129.98" transform="translate(-14.86 481.17) rotate(-50.92)"/><rect class="cls-6" x="515.38" y="175.44" width="11.37" height="104.43" transform="translate(15.9 488.7) rotate(-50.93)"/><path class="cls-8" d="M365.5,324.6c.49-.61,1.37-.7,1.99-.21l90.44,73.43c.6,.49,.7,1.39,.21,2l-5.37,6.62c-.5,.61-1.39,.7-2.01,.21l-90.43-73.43c-.61-.5-.7-1.39-.2-2l5.37-6.62Z"/><polygon class="cls-16" points="454.31 384.81 558.02 264.97 554.5 289.57 483.77 376.71 454.31 384.81"/><polygon class="cls-15" points="476.94 199.15 558.02 264.97 554.5 289.57 453.6 207.64 476.94 199.15"/><g><path class="cls-3" d="M635.33,160.9c.3,.11,.57,.23,.8,.35-.24-.12-.51-.24-.8-.35Z"/><path class="cls-3" d="M637.21,162.04c.17,.22,.3,.44,.35,.68-.05-.24-.17-.47-.35-.68Z"/><path class="cls-3" d="M672,163.31c.88,.93,1.72,1.84,2.54,2.73-.81-.89-1.66-1.79-2.54-2.73Z"/><path class="cls-3" d="M662.73,153.85c3.39,3.35,6.49,6.51,9.26,9.45-2.77-2.94-5.88-6.11-9.26-9.45Z"/><path class="cls-6" d="M618.52,93.79l6.73,5.62,22.55-27.03c-1.16-.97-2.02-2.15-2.61-3.43l-40.93,38.14h0l14.27-13.3Z"/><path class="cls-8" d="M625.25,99.41l6.73,5.62-10.52,16.43h0l30.18-47.13c-1.37-.35-2.69-.99-3.84-1.96l-22.55,27.03Z"/><path class="cls-6" d="M618.52,93.79l-14.27,13.3c2.85,2.3,5.74,4.68,8.66,7.12l12.34-14.79-6.73-5.62Z"/><path class="cls-8" d="M625.25,99.41l-12.34,14.79c2.92,2.44,5.78,4.87,8.55,7.26l10.52-16.43-6.73-5.62Z"/><path class="cls-13" d="M651.64,74.33c3.55,.91,7.46-.21,9.97-3.22,3.47-4.17,2.93-10.35-1.23-13.82-4.15-3.47-10.33-2.9-13.81,1.26-2.51,3.01-2.91,7.06-1.38,10.39,.59,1.29,1.45,2.47,2.61,3.43s2.47,1.61,3.84,1.96Z"/><path class="cls-14" d="M659.16,150.37c-37.66,35.06-92.32,43.72-138.4,23.66-.78-1.25-1.53-2.49-2.24-3.76-20.42-36.21-17.59-82.76,10.62-116.57l.03,.02s.03-.08,.06-.11c.26-.31,.66-.48,1.2-.53,7-.63,37.32,19.51,73.2,48.52,3.83,3.1,7.71,6.29,11.65,9.57,3.93,3.28,7.76,6.53,11.5,9.75,12.19,10.51,23.21,20.55,32.38,29.45Z"/><path class="cls-16" d="M520.76,174.03c.68,1.08,1.37,2.16,2.09,3.22,.08,.12,.16,.24,.24,.36,2.04,3,4.26,5.9,6.64,8.7,.24,.28,.47,.57,.72,.86,.55,.63,1.12,1.25,1.68,1.87,.53,.58,1.06,1.15,1.6,1.72,.5,.52,1,1.03,1.51,1.54,.69,.7,1.4,1.38,2.12,2.06,.42,.39,.83,.79,1.25,1.18,1.17,1.07,2.37,2.13,3.6,3.16,9.84,8.22,20.77,14.26,32.21,18.23,39.27,13.62,84.57,2.51,112.79-31.29l-.02-.02s.07-.04,.1-.08c.14-.16,.22-.37,.26-.61,.01-.07,.01-.16,.02-.24,.01-.18,.01-.37-.02-.58-.01-.11-.04-.22-.06-.33-.05-.23-.12-.47-.21-.73-.04-.12-.08-.23-.13-.36-.13-.34-.3-.7-.49-1.09-.03-.06-.05-.11-.08-.18-.24-.47-.53-.97-.86-1.5-.06-.1-.13-.2-.2-.31-.28-.44-.58-.9-.91-1.38-.11-.16-.22-.32-.33-.48-.33-.46-.68-.94-1.05-1.44-.12-.16-.23-.31-.35-.47-.46-.6-.95-1.23-1.47-1.88-.04-.05-.08-.11-.13-.16-1.2-1.49-2.57-3.1-4.08-4.81-.08-.09-.17-.19-.25-.28-.68-.77-1.39-1.56-2.13-2.37-.1-.11-.2-.21-.3-.32-.81-.89-1.66-1.79-2.54-2.73,0,0,0,0,0,0-2.77-2.94-5.88-6.11-9.26-9.45-.05-.04-.09-.09-.14-.13-1.11-1.1-2.26-2.22-3.43-3.36-37.66,35.06-92.33,43.72-138.4,23.67Z"/></g><g><polygon class="cls-14" points="381.04 485.66 430.87 424.47 347.3 356.43 297.48 417.63 381.04 485.66"/><rect class="cls-14" x="355.94" y="352.32" width="40.63" height="107.77" transform="translate(-176.3 441.52) rotate(-50.85)"/><rect class="cls-14" x="375.88" y="342.84" width="16.19" height="107.77" transform="translate(-166.11 443.97) rotate(-50.84)"/><polygon class="cls-14" points="366.67 349.42 433.81 404.07 430.87 424.47 347.3 356.43 366.67 349.42"/><polygon class="cls-15" points="305.62 424.26 372.91 479.03 353.6 492.18 296.67 445.83 305.62 424.26"/><polygon class="cls-6" points="300.18 448.68 350.1 489.33 342.17 499.07 292.23 458.42 300.18 448.68"/><polygon class="cls-16" points="433.81 404.07 372.91 479.03 381.04 485.66 432.3 424.57 433.81 404.07"/></g><g class="cls-1"><path class="cls-2" d="M490.4,301.66c.27-2.78-4.55-5.18-8.88-6.75-.46-7.01-3.5-13.5-8.61-18.35-6.08-5.76-14.34-8.46-22.66-7.4-.82,.1-1.62,.24-2.4,.41-4.14,.9-7.98,2.71-11.27,5.31-5.79-3.36-9.86-4.29-11.48-2.61-1.67,1.74-.36,6.08,3.69,12.23-.4,.81-.75,1.63-1.07,2.48-.3,.79-.55,1.6-.77,2.41-6.7,.95-10.52,2.75-10.74,5.09-.23,2.37,3.39,4.92,10.2,7.21,.14,.81,.32,1.61,.54,2.41,1.33,4.9,4,9.34,7.7,12.85,4.06,3.85,9.02,6.32,14.47,7.24,.69,.12,1.4,.21,2.11,.27,3.63,.33,7.25-.04,10.73-1.11,1.81-.55,3.56-1.3,5.22-2.22,0,0,0,0,0,0,2.63,1.54,5.74,3.08,8.21,3.5,1.47,.25,2.7,.09,3.47-.71,1.91-1.99-.3-6.76-2.69-10.65,1.51-2.03,2.72-4.25,3.61-6.59,4.76-.69,10.35-2.12,10.63-5.02Zm-9.01-1.55c.13-1.07,.19-2.15,.2-3.23,4.06,1.55,6.3,3.19,6.17,4.53-.13,1.39-2.8,2.59-7.33,3.33,.45-1.5,.77-3.04,.96-4.62Zm-6.44,14.67c2.19,3.69,2.91,6.33,1.98,7.3-.98,1.02-3.88,.27-7.99-2.03,1.82-1.19,3.51-2.58,5.02-4.17,.34-.36,.67-.73,.99-1.1Zm-45.17-32.11c-2.79-4.37-3.81-7.48-2.77-8.56,1.02-1.06,3.94-.31,8.07,2.03-.52,.47-1.02,.96-1.5,1.47-1.47,1.55-2.74,3.25-3.8,5.06Zm-.54,4.87c.19-.5,.4-1,.62-1.49,3.84,5.51,9.33,11.79,15.64,17.91-6.75-.95-12.96-2.26-17.68-3.74-.56-4.26-.08-8.66,1.42-12.68Zm-10.39,7.19c.14-1.46,2.92-2.7,7.65-3.42-.54,2.74-.67,5.56-.38,8.35-4.77-1.68-7.41-3.46-7.27-4.93Zm53.94,20.03c-1.61,1.7-3.43,3.16-5.41,4.36-4.68-2.85-10.35-7.23-16.19-12.51,.42,.04,.85,.09,1.27,.13,9.51,.92,18.47,.97,25.47,.16-1.21,2.88-2.94,5.53-5.14,7.85Zm-24.59-43.62c.73-.16,1.49-.29,2.26-.39,2.59-.33,5.18-.27,7.68,.15,5.07,.85,9.82,3.19,13.66,6.82,4.98,4.72,7.88,11.1,8.15,17.96,.06,1.4,0,2.82-.17,4.23-.21,1.74-.59,3.44-1.13,5.07-6.71,.84-16.09,.79-26-.17-1.3-.13-2.6-.27-3.88-.42-.5-.47-.99-.94-1.49-1.41-6.78-6.51-12.72-13.29-16.5-18.8,1.08-1.97,2.4-3.8,3.98-5.46,3.64-3.84,8.29-6.46,13.44-7.58Zm13.28,50.64c-3.28,1.01-6.69,1.36-10.11,1.04-5.9-.54-11.3-2.99-15.61-7.07-3.49-3.31-6-7.49-7.25-12.1-.13-.47-.24-.94-.34-1.41,3.91,1.2,8.57,2.26,13.61,3.1,1.99,.33,4.04,.63,6.12,.89,6.13,5.7,12.32,10.57,17.65,13.89-1.31,.66-2.67,1.22-4.07,1.65Z"/></g></g></g></svg>