<svg version="1.1" id="Layer_1" xmlns="http://www.w3.org/2000/svg" xmlns:xlink="http://www.w3.org/1999/xlink" x="0px" y="0px"
	 width="100%" viewBox="0 0 355 355" enable-background="new 0 0 355 355" xml:space="preserve">
<path fill="#FFFFFF" opacity="1.000000" stroke="none" 
	d="
M1.000002,296.000000 
	C1.000000,217.645767 1.000000,139.291550 1.375257,60.455681 
	C2.135579,59.480358 2.725260,59.042171 2.876375,58.485031 
	C10.701343,29.635414 28.984608,11.159668 57.729008,2.968102 
	C58.602058,2.719302 59.248116,1.673971 60.000000,1.000000 
	C138.687561,1.000000 217.375122,1.000000 296.582123,1.370128 
	C299.062653,2.455671 301.009644,3.212771 302.986938,3.880187 
	C328.518646,12.498172 345.412537,29.589546 353.603027,55.297642 
	C354.033630,56.649132 355.184479,57.771145 356.000000,58.999996 
	C356.000000,138.354233 356.000000,217.708450 355.626831,297.535400 
	C353.838348,301.643250 352.542999,305.330597 350.988190,308.905060 
	C340.815277,332.291779 323.706299,347.654846 298.766815,353.973724 
	C297.739380,354.234070 296.917603,355.306122 296.000000,356.000000 
	C217.979111,356.000000 139.958206,356.000000 61.450546,355.621704 
	C58.862610,354.482574 56.799919,353.584290 54.653923,352.983643 
	C42.234596,349.507507 31.505136,342.963104 22.598455,333.875671 
	C12.969519,324.051361 6.128604,312.388275 3.034008,298.757416 
	C2.802331,297.736969 1.698433,296.914490 1.000002,296.000000 
M144.976868,254.469086 
	C153.909698,256.630035 162.800262,258.992828 171.791458,260.875000 
	C177.045319,261.974823 182.924744,264.000702 187.719910,262.684692 
	C206.276474,257.591919 224.510544,251.324005 242.999802,245.450867 
	C242.999802,243.028580 243.254410,240.671890 242.947495,238.390747 
	C242.281113,233.437714 243.948685,231.622238 249.184601,231.858551 
	C255.227020,232.131287 261.498322,232.143570 267.355591,230.847260 
	C289.034729,226.049347 301.620575,202.758774 295.472565,181.909607 
	C290.982788,166.683670 279.906464,158.642166 265.601898,154.040756 
	C263.463806,153.352982 262.412872,152.583145 261.773315,150.002518 
	C260.473145,144.756348 258.875671,139.285843 256.024689,134.778030 
	C247.513763,121.320961 231.513382,114.105682 213.900208,120.142105 
	C209.860428,121.526627 207.053268,121.145180 204.354706,117.900711 
	C201.516418,114.488243 198.814178,110.806305 195.394730,108.061584 
	C182.998932,98.111763 169.340668,92.464340 152.801636,94.870628 
	C133.541473,97.672829 119.502296,107.274185 109.919792,124.073860 
	C105.836205,131.233047 105.139198,139.065979 104.019676,146.873917 
	C103.396957,151.217041 101.769989,153.906998 96.687439,154.077393 
	C74.650551,154.816193 56.129208,177.310791 60.958847,199.844238 
	C64.077736,214.395920 72.036667,225.121414 86.311310,229.402557 
	C93.985840,231.704239 102.483284,231.399612 110.631798,231.921921 
	C114.371178,232.161591 116.522972,233.054367 116.053520,237.332367 
	C115.764549,239.965729 115.790924,242.681107 116.097488,245.310501 
	C116.231773,246.462341 117.243362,248.245728 118.156281,248.458923 
	C126.807907,250.479279 135.524094,252.223160 144.976868,254.469086 
z"/>
<path fill="none" opacity="1.000000" stroke="none" 
	d="
M1.000002,296.468658 
	C1.698433,296.914490 2.802331,297.736969 3.034008,298.757416 
	C6.128604,312.388275 12.969519,324.051361 22.598455,333.875671 
	C31.505136,342.963104 42.234596,349.507507 54.653923,352.983643 
	C56.799919,353.584290 58.862610,354.482574 60.981888,355.621704 
	C41.073189,356.000000 21.146378,356.000000 1.000000,356.000000 
	C1.000000,336.312988 1.000000,316.625153 1.000002,296.468658 
z"/>
<path fill="none" opacity="1.000000" stroke="none" 
	d="
M59.531342,1.000000 
	C59.248116,1.673971 58.602058,2.719302 57.729008,2.968102 
	C28.984608,11.159668 10.701343,29.635414 2.876375,58.485031 
	C2.725260,59.042171 2.135579,59.480358 1.375257,59.987022 
	C1.000000,40.406528 1.000000,20.813059 1.000000,1.000000 
	C20.353674,1.000000 39.708179,1.000000 59.531342,1.000000 
z"/>
<path fill="none" opacity="1.000000" stroke="none" 
	d="
M296.468658,356.000000 
	C296.917603,355.306122 297.739380,354.234070 298.766815,353.973724 
	C323.706299,347.654846 340.815277,332.291779 350.988190,308.905060 
	C352.542999,305.330597 353.838348,301.643250 355.626831,298.004059 
	C356.000000,317.261383 356.000000,336.522736 356.000000,356.000000 
	C336.312958,356.000000 316.625153,356.000000 296.468658,356.000000 
z"/>
<path fill="none" opacity="1.000000" stroke="none" 
	d="
M356.000000,58.531338 
	C355.184479,57.771145 354.033630,56.649132 353.603027,55.297642 
	C345.412537,29.589546 328.518646,12.498172 302.986938,3.880187 
	C301.009644,3.212771 299.062653,2.455671 297.050781,1.370128 
	C316.592834,1.000000 336.185699,1.000000 356.000000,1.000000 
	C356.000000,20.020321 356.000000,39.041504 356.000000,58.531338 
z"/>
<path fill="none" opacity="1.000000" stroke="none" 
	d="
M144.599274,254.257874 
	C135.524094,252.223160 126.807907,250.479279 118.156281,248.458923 
	C117.243362,248.245728 116.231773,246.462341 116.097488,245.310501 
	C115.790924,242.681107 115.764549,239.965729 116.053520,237.332367 
	C116.522972,233.054367 114.371178,232.161591 110.631798,231.921921 
	C102.483284,231.399612 93.985840,231.704239 86.311310,229.402557 
	C72.036667,225.121414 64.077736,214.395920 60.958847,199.844238 
	C56.129208,177.310791 74.650551,154.816193 96.687439,154.077393 
	C101.769989,153.906998 103.396957,151.217041 104.019676,146.873917 
	C105.139198,139.065979 105.836205,131.233047 109.919792,124.073860 
	C119.502296,107.274185 133.541473,97.672829 152.801636,94.870628 
	C169.340668,92.464340 182.998932,98.111763 195.394730,108.061584 
	C198.814178,110.806305 201.516418,114.488243 204.354706,117.900711 
	C207.053268,121.145180 209.860428,121.526627 213.900208,120.142105 
	C231.513382,114.105682 247.513763,121.320961 256.024689,134.778030 
	C258.875671,139.285843 260.473145,144.756348 261.773315,150.002518 
	C262.412872,152.583145 263.463806,153.352982 265.601898,154.040756 
	C279.906464,158.642166 290.982788,166.683670 295.472565,181.909607 
	C301.620575,202.758774 289.034729,226.049347 267.355591,230.847260 
	C261.498322,232.143570 255.227020,232.131287 249.184601,231.858551 
	C243.948685,231.622238 242.281113,233.437714 242.947495,238.390747 
	C243.254410,240.671890 242.999802,243.028580 242.999802,245.450867 
	C224.510544,251.324005 206.276474,257.591919 187.719910,262.684692 
	C182.924744,264.000702 177.045319,261.974823 171.791458,260.875000 
	C162.800262,258.992828 153.909698,256.630035 144.599274,254.257874 
M216.312057,175.053864 
	C206.542633,172.865723 196.797516,170.559540 186.993469,168.539459 
	C182.118713,167.535034 176.714157,165.458603 172.278763,166.629761 
	C157.367310,170.567108 142.751343,175.647812 128.084763,180.480545 
	C116.431610,184.320328 116.593040,184.440536 116.910110,196.908401 
	C116.983513,199.794678 118.402122,200.508575 120.611008,200.995667 
	C138.114059,204.855148 155.586258,208.863480 173.136642,212.493805 
	C178.219681,213.545258 183.905807,214.965683 188.660126,213.718582 
	C204.212997,209.638885 219.460678,204.397629 234.832306,199.624237 
	C241.992905,197.400635 241.999771,197.422775 241.999786,189.601547 
	C241.999786,186.793060 241.999786,183.984573 241.999786,181.149887 
	C233.428452,179.222687 225.227798,177.378845 216.312057,175.053864 
M182.289688,241.003128 
	C168.738327,238.008148 155.223846,234.830139 141.621368,232.088837 
	C133.828812,230.518402 125.814804,227.055206 118.157135,233.116776 
	C118.157135,237.363724 118.157135,241.999741 118.157135,246.651169 
	C119.831741,247.125641 121.353584,247.645554 122.914604,247.985657 
	C141.371353,252.006775 159.857162,255.898712 178.277710,260.078583 
	C182.565491,261.051544 186.517822,261.493439 190.822891,260.050415 
	C201.801834,256.370361 212.916351,253.096878 223.934250,249.529877 
	C229.586411,247.699997 236.090698,246.718231 240.365570,243.146072 
	C242.613708,241.267471 240.898727,234.637527 240.945938,230.152771 
	C240.949127,229.849655 240.721497,229.544098 240.170486,228.149460 
	C236.239105,228.149460 231.624771,227.215820 227.574112,228.330521 
	C216.889297,231.270844 206.493790,235.245651 195.889114,238.502518 
	C191.763718,239.769485 187.386169,240.215515 182.289688,241.003128 
M133.976120,226.467468 
	C146.897995,229.318802 159.832230,232.115677 172.736465,235.044708 
	C179.090927,236.487045 185.149765,238.498489 191.943909,236.093277 
	C204.826096,231.532837 217.949753,227.651871 230.988037,223.535934 
	C241.703949,220.153122 242.223206,219.443008 240.950668,208.219971 
	C240.835129,207.200974 240.144424,205.462219 239.583130,205.404846 
	C235.626755,205.000504 231.380295,203.989853 227.700836,204.964188 
	C216.516876,207.925797 205.563019,211.748627 194.485886,215.125595 
	C190.802048,216.248672 186.782318,218.356628 183.319138,217.742325 
	C170.781982,215.518509 158.429276,212.269165 145.979843,209.530167 
	C139.987228,208.211761 133.967819,206.468063 127.899902,206.175735 
	C120.081604,205.799057 118.000412,208.426865 118.000587,216.049301 
	C118.000626,217.547882 117.704018,219.129822 118.093399,220.519424 
	C118.421951,221.691956 119.375099,223.326385 120.349312,223.570877 
	C124.580078,224.632675 128.919785,225.260422 133.976120,226.467468 
M128.365967,131.118042 
	C132.854309,126.950775 137.310791,122.748421 141.844498,118.631111 
	C144.097549,116.584991 146.158020,114.578606 144.013077,110.119751 
	C140.631058,111.302475 136.729797,111.794273 133.932419,113.814575 
	C126.602249,119.108498 121.405586,126.470749 118.232666,134.830002 
	C116.442123,139.547302 113.451996,144.637695 116.141960,150.024353 
	C116.806107,151.354309 118.703979,152.501404 120.214111,152.788330 
	C120.941902,152.926620 122.574463,151.023224 122.959305,149.784088 
	C124.804611,143.842422 126.363411,137.811768 128.365967,131.118042 
M275.117950,201.397415 
	C272.578613,204.219574 270.141541,207.143448 267.467712,209.831772 
	C265.320312,211.990753 262.885986,213.864334 260.578979,215.864563 
	C260.859222,216.657150 261.139496,217.449722 261.419739,218.242294 
	C264.036530,218.242294 266.815033,218.819672 269.241455,218.140030 
	C278.583679,215.523270 288.413361,197.331055 285.017426,186.815918 
	C283.997528,183.657944 281.981110,181.120529 278.770996,182.282043 
	C277.296417,182.815567 276.390350,186.257843 276.119446,188.489502 
	C275.625519,192.558563 275.796967,196.708374 275.117950,201.397415 
M157.975082,113.469711 
	C160.936615,114.361092 162.255676,112.669624 162.199188,110.171379 
	C162.167740,108.780449 161.033539,106.403404 160.136292,106.274017 
	C158.699158,106.066780 156.006897,107.076881 155.734802,108.083336 
	C155.354523,109.489845 156.711975,111.366180 157.975082,113.469711 
z"/>
<path fill="#FFFFFF" opacity="1.000000" stroke="none" 
	d="
M216.669617,175.294434 
	C225.227798,177.378845 233.428452,179.222687 241.999786,181.149887 
	C241.999786,183.984573 241.999786,186.793060 241.999786,189.601547 
	C241.999771,197.422775 241.992905,197.400635 234.832306,199.624237 
	C219.460678,204.397629 204.212997,209.638885 188.660126,213.718582 
	C183.905807,214.965683 178.219681,213.545258 173.136642,212.493805 
	C155.586258,208.863480 138.114059,204.855148 120.611008,200.995667 
	C118.402122,200.508575 116.983513,199.794678 116.910110,196.908401 
	C116.593040,184.440536 116.431610,184.320328 128.084763,180.480545 
	C142.751343,175.647812 157.367310,170.567108 172.278763,166.629761 
	C176.714157,165.458603 182.118713,167.535034 186.993469,168.539459 
	C196.797516,170.559540 206.542633,172.865723 216.669617,175.294434 
z"/>
<path fill="#FFFFFF" opacity="1.000000" stroke="none" 
	d="
M182.706589,241.019318 
	C187.386169,240.215515 191.763718,239.769485 195.889114,238.502518 
	C206.493790,235.245651 216.889297,231.270844 227.574112,228.330521 
	C231.624771,227.215820 236.239105,228.149460 240.170486,228.149460 
	C240.721497,229.544098 240.949127,229.849655 240.945938,230.152771 
	C240.898727,234.637527 242.613708,241.267471 240.365570,243.146072 
	C236.090698,246.718231 229.586411,247.699997 223.934250,249.529877 
	C212.916351,253.096878 201.801834,256.370361 190.822891,260.050415 
	C186.517822,261.493439 182.565491,261.051544 178.277710,260.078583 
	C159.857162,255.898712 141.371353,252.006775 122.914604,247.985657 
	C121.353584,247.645554 119.831741,247.125641 118.157135,246.651169 
	C118.157135,241.999741 118.157135,237.363724 118.157135,233.116776 
	C125.814804,227.055206 133.828812,230.518402 141.621368,232.088837 
	C155.223846,234.830139 168.738327,238.008148 182.706589,241.019318 
z"/>
<path fill="#FFFFFF" opacity="1.000000" stroke="none" 
	d="
M133.598007,226.256699 
	C128.919785,225.260422 124.580078,224.632675 120.349312,223.570877 
	C119.375099,223.326385 118.421951,221.691956 118.093399,220.519424 
	C117.704018,219.129822 118.000626,217.547882 118.000587,216.049301 
	C118.000412,208.426865 120.081604,205.799057 127.899902,206.175735 
	C133.967819,206.468063 139.987228,208.211761 145.979843,209.530167 
	C158.429276,212.269165 170.781982,215.518509 183.319138,217.742325 
	C186.782318,218.356628 190.802048,216.248672 194.485886,215.125595 
	C205.563019,211.748627 216.516876,207.925797 227.700836,204.964188 
	C231.380295,203.989853 235.626755,205.000504 239.583130,205.404846 
	C240.144424,205.462219 240.835129,207.200974 240.950668,208.219971 
	C242.223206,219.443008 241.703949,220.153122 230.988037,223.535934 
	C217.949753,227.651871 204.826096,231.532837 191.943909,236.093277 
	C185.149765,238.498489 179.090927,236.487045 172.736465,235.044708 
	C159.832230,232.115677 146.897995,229.318802 133.598007,226.256699 
z"/>
<path fill="#FFFFFF" opacity="1.000000" stroke="none" 
	d="
M128.194977,131.465393 
	C126.363411,137.811768 124.804611,143.842422 122.959305,149.784088 
	C122.574463,151.023224 120.941902,152.926620 120.214111,152.788330 
	C118.703979,152.501404 116.806107,151.354309 116.141960,150.024353 
	C113.451996,144.637695 116.442123,139.547302 118.232666,134.830002 
	C121.405586,126.470749 126.602249,119.108498 133.932419,113.814575 
	C136.729797,111.794273 140.631058,111.302475 144.013077,110.119751 
	C146.158020,114.578606 144.097549,116.584991 141.844498,118.631111 
	C137.310791,122.748421 132.854309,126.950775 128.194977,131.465393 
z"/>
<path fill="#FFFFFF" opacity="1.000000" stroke="none" 
	d="
M275.404388,201.110962 
	C275.796967,196.708374 275.625519,192.558563 276.119446,188.489502 
	C276.390350,186.257843 277.296417,182.815567 278.770996,182.282043 
	C281.981110,181.120529 283.997528,183.657944 285.017426,186.815918 
	C288.413361,197.331055 278.583679,215.523270 269.241455,218.140030 
	C266.815033,218.819672 264.036530,218.242294 261.419739,218.242294 
	C261.139496,217.449722 260.859222,216.657150 260.578979,215.864563 
	C262.885986,213.864334 265.320312,211.990753 267.467712,209.831772 
	C270.141541,207.143448 272.578613,204.219574 275.404388,201.110962 
z"/>
<path fill="#FFFFFF" opacity="1.000000" stroke="none" 
	d="
M157.650513,113.255600 
	C156.711975,111.366180 155.354523,109.489845 155.734802,108.083336 
	C156.006897,107.076881 158.699158,106.066780 160.136292,106.274017 
	C161.033539,106.403404 162.167740,108.780449 162.199188,110.171379 
	C162.255676,112.669624 160.936615,114.361092 157.650513,113.255600 
z"/>
</svg>