<svg version="1.1" id="Layer_1" xmlns="http://www.w3.org/2000/svg" xmlns:xlink="http://www.w3.org/1999/xlink" x="0px" y="0px"
	 width="100%" viewBox="0 0 1598 355" enable-background="new 0 0 1598 355" xml:space="preserve">
<path fill="none" opacity="1.000000" stroke="none" 
	d="
M1599.000000,284.000000 
	C1599.000000,307.992737 1599.000000,331.985474 1599.000000,356.000000 
	C1164.971924,356.000000 730.943909,356.000000 296.463196,355.619263 
	C297.311310,354.668640 298.563660,353.915314 299.920319,353.556702 
	C316.516998,349.169250 330.385132,340.503967 340.667938,326.714294 
	C350.290466,313.810150 356.116211,299.543854 356.074982,282.983429 
	C355.898865,212.227142 356.035156,141.470108 355.918610,70.713593 
	C355.911072,66.139534 355.240601,61.427299 354.019501,57.017204 
	C346.364319,29.370138 328.405396,11.656334 301.233765,2.977173 
	C300.367096,2.700337 299.739227,1.675913 299.000000,0.999997 
	C732.219055,1.000000 1165.438110,1.000000 1599.000000,1.000000 
	C1599.000000,93.361084 1599.000000,185.722595 1598.596924,278.513153 
	C1597.802368,278.100494 1597.107544,277.273224 1597.066650,276.414795 
	C1596.648438,267.632812 1596.207886,258.848602 1596.018433,250.059708 
	C1595.406250,221.659042 1597.709595,193.168152 1593.925293,164.872025 
	C1591.501221,146.747604 1583.104492,131.692734 1567.668701,121.530144 
	C1555.473755,113.501198 1541.375244,110.435516 1526.973267,110.172455 
	C1516.414307,109.979584 1505.604004,110.246124 1495.309082,112.315079 
	C1482.892822,114.810371 1470.887207,119.377197 1458.738525,123.158630 
	C1455.188232,124.263710 1454.420410,126.572838 1455.829834,130.163712 
	C1457.273193,133.840942 1457.978638,137.802948 1459.092896,141.615234 
	C1460.873291,147.705460 1462.724121,153.775024 1464.638672,160.164948 
	C1478.327637,152.902786 1492.067505,148.753937 1506.930054,147.603149 
	C1515.845825,146.912811 1524.022827,148.211517 1531.991577,151.673035 
	C1538.304321,154.415237 1544.055542,165.187210 1540.986206,170.759277 
	C1539.951782,170.833572 1538.804932,171.003326 1537.661377,170.984970 
	C1519.930298,170.700409 1502.609497,173.262299 1485.874023,179.083664 
	C1474.812256,182.931488 1464.836548,188.734436 1456.763062,197.477341 
	C1445.818237,209.329559 1442.033569,223.505630 1443.006348,239.248978 
	C1444.238037,259.183441 1453.650391,274.363831 1471.686279,282.516815 
	C1492.626709,291.982605 1513.754395,290.163391 1533.691895,278.551422 
	C1538.321899,275.854736 1542.313599,272.062012 1546.911743,268.533600 
	C1547.629395,272.169983 1548.657471,275.539490 1548.876831,278.960815 
	C1549.147461,283.181000 1551.204956,284.109100 1555.032349,284.066254 
	C1569.686646,283.902252 1584.343872,283.999969 1599.000000,284.000000 
M923.020386,256.505402 
	C935.163269,239.513321 939.023621,219.964233 939.882202,199.709503 
	C940.432007,186.738739 938.414612,173.916458 934.239868,161.567978 
	C928.382568,144.242508 918.670105,129.760544 902.691284,120.091164 
	C890.582397,112.763634 877.657349,109.848267 863.370117,110.828865 
	C843.819397,112.170731 827.408386,118.970642 814.968445,134.444565 
	C814.352600,135.210632 813.335876,135.654373 812.308411,136.389389 
	C811.399658,128.707642 810.552185,121.544197 809.708496,114.412422 
	C793.900085,114.412422 778.678772,114.412422 763.256592,114.412422 
	C763.172424,116.120453 763.005249,117.434570 763.058960,118.739586 
	C763.686768,133.986893 764.856445,149.231003 764.910583,164.479416 
	C765.127258,225.442108 765.037781,286.406097 764.917358,347.369354 
	C764.909058,351.555176 765.723938,353.214264 770.358215,353.112579 
	C784.509583,352.802063 798.674805,352.844299 812.828613,353.094208 
	C817.090576,353.169464 818.111084,351.736298 818.083130,347.682709 
	C817.915283,323.365112 817.999939,299.045746 818.000000,274.726990 
	C818.000000,273.169861 818.000000,271.612762 818.000000,269.367065 
	C843.792236,299.265747 899.482300,292.116577 923.020386,256.505402 
M1012.979492,40.811863 
	C1012.981567,37.299137 1010.338196,38.029099 1008.321838,38.023224 
	C993.824890,37.980995 979.324951,38.158707 964.832458,37.901974 
	C960.609741,37.827168 959.936096,39.486748 959.939819,43.159225 
	C960.019470,121.643295 960.040588,200.127548 959.896667,278.611450 
	C959.888245,283.188019 961.357361,284.165497 965.602905,284.091675 
	C979.595886,283.848236 993.599792,283.807739 1007.590454,284.109772 
	C1012.152527,284.208221 1013.114563,282.686035 1013.090576,278.416992 
	C1012.920288,248.090744 1012.961121,217.762985 1013.047302,187.436020 
	C1013.058533,183.481750 1013.418091,179.475708 1014.125244,175.586182 
	C1016.114380,164.644836 1026.755981,154.961792 1037.479126,154.020554 
	C1049.958496,152.925140 1060.314209,158.377930 1064.011597,169.658554 
	C1066.444702,177.081970 1067.708374,185.189880 1067.827393,193.016663 
	C1068.263306,221.670914 1068.069336,250.336166 1067.919678,278.996246 
	C1067.899048,282.926849 1069.022095,284.145752 1072.987793,284.084778 
	C1087.148193,283.867065 1101.317261,283.832184 1115.476074,284.099731 
	C1119.850098,284.182434 1121.130005,282.992310 1121.102173,278.533142 
	C1120.908691,247.540604 1121.346191,216.540359 1120.814331,185.555740 
	C1120.625488,174.555832 1119.217163,163.379730 1116.726929,152.664932 
	C1113.391113,138.312347 1105.275757,126.626793 1092.437622,118.706261 
	C1081.643188,112.046555 1069.967773,109.967979 1057.328613,110.843468 
	C1044.400879,111.738953 1033.055786,115.915787 1023.211182,124.192757 
	C1019.870667,127.001328 1016.847473,130.187363 1012.996216,133.850693 
	C1012.996216,102.600243 1012.996216,72.177498 1012.979492,40.811863 
M1200.209595,114.719040 
	C1176.941162,121.614815 1159.671875,135.793427 1149.705078,157.950424 
	C1139.857300,179.842667 1138.237671,202.783417 1144.070190,226.035019 
	C1150.546631,251.852676 1166.111572,270.353149 1190.655396,280.782806 
	C1212.048096,289.873444 1234.238403,290.446106 1256.484375,284.594513 
	C1276.605591,279.301819 1292.958252,268.215393 1304.559082,250.617203 
	C1314.670288,235.278488 1318.138428,217.998566 1318.920166,200.078918 
	C1319.519409,186.344223 1317.061523,172.944550 1311.858643,160.218872 
	C1304.191406,141.465790 1291.246460,127.486015 1272.791748,118.857239 
	C1249.447388,107.942154 1225.413208,107.657532 1200.209595,114.719040 
M565.000061,267.497864 
	C565.000061,239.834229 565.148743,212.169281 564.907532,184.507751 
	C564.837036,176.423920 564.303711,168.231064 562.848572,160.296158 
	C559.915527,144.302948 553.023376,130.344879 539.184509,120.753067 
	C527.263611,112.490509 514.042725,109.946838 499.637939,110.848755 
	C480.532288,112.045013 465.227875,119.767159 453.580536,134.893570 
	C452.981262,135.671860 452.147125,136.269287 451.329041,137.038635 
	C450.438812,129.267166 449.596039,121.910034 448.729279,114.343277 
	C433.077759,114.343277 417.850769,114.343277 402.366821,114.343277 
	C402.240906,115.947495 402.002991,117.245674 402.058990,118.531059 
	C402.679749,132.787323 403.814514,147.038467 403.910034,161.297043 
	C404.171295,200.291031 404.078613,239.288284 403.896149,278.283173 
	C403.874390,282.929779 405.221466,284.192627 409.776215,284.101685 
	C423.769104,283.822357 437.773651,283.850769 451.768005,284.090851 
	C455.950165,284.162537 457.110016,282.874298 457.086334,278.739319 
	C456.922241,250.076721 456.957520,221.412613 457.042938,192.749329 
	C457.056732,188.125488 457.425201,183.476562 457.999451,178.885468 
	C459.645172,165.728058 471.078125,154.564270 483.245972,154.005508 
	C497.668304,153.343185 506.956543,160.307831 509.908051,175.838303 
	C511.687073,185.199295 511.814850,194.953430 511.913940,204.538864 
	C512.170593,229.366852 511.999023,254.199219 512.002380,279.029846 
	C512.002686,281.505768 511.467682,284.080078 515.521179,284.045135 
	C530.851624,283.912811 546.184143,283.957001 561.515442,284.025360 
	C564.100220,284.036865 565.099304,283.059662 565.023987,280.493805 
	C564.906677,276.497803 564.997437,272.495636 565.000061,267.497864 
M688.311218,112.007530 
	C676.812561,110.189522 665.303894,109.974373 653.811462,111.981590 
	C635.205505,115.231224 619.389832,123.452522 607.221497,138.198212 
	C586.538635,163.262009 581.437012,192.077271 587.100037,223.272125 
	C590.682373,243.004974 600.449097,259.214874 616.729431,271.225647 
	C632.564331,282.907837 650.951660,287.049530 670.033325,287.790405 
	C681.566345,288.238159 693.291077,287.413544 704.723145,285.745239 
	C715.752502,284.135681 726.516602,280.708344 737.807312,277.980499 
	C735.274841,264.906219 732.969849,253.006332 730.587158,240.705292 
	C727.878784,241.398560 725.983093,241.879257 724.089722,242.369171 
	C702.840942,247.867157 681.590149,250.685730 659.940735,244.084885 
	C647.555847,240.308746 637.344788,229.096878 636.737061,216.997498 
	C638.724487,216.997498 640.699402,216.997513 642.674316,216.997513 
	C674.987549,216.997482 707.301453,216.903366 739.613403,217.102570 
	C744.262573,217.131226 745.544006,215.286652 746.062317,211.146378 
	C747.599792,198.864288 747.111877,186.706467 745.050354,174.525543 
	C742.180847,157.570343 735.656555,142.415359 723.490173,130.046494 
	C714.011719,120.410248 702.202515,115.014297 688.311218,112.007530 
M1438.879639,110.182983 
	C1412.804932,108.379524 1396.077271,121.326019 1385.483643,145.385468 
	C1384.593994,134.090607 1383.812012,124.162720 1383.012695,114.014687 
	C1368.008301,114.014687 1354.025757,113.944908 1340.047729,114.161545 
	C1339.046753,114.177048 1337.193237,116.317192 1337.229492,117.420372 
	C1337.654053,130.348282 1338.836914,143.264023 1338.912476,156.188293 
	C1339.150024,196.845093 1339.062134,237.504364 1338.911133,278.161987 
	C1338.894653,282.588104 1339.876221,284.228516 1344.653931,284.115631 
	C1358.476685,283.789001 1372.318115,283.767975 1386.139404,284.122223 
	C1391.180176,284.251373 1392.137573,282.502930 1392.101685,277.867706 
	C1391.893433,251.041580 1391.924561,224.212677 1392.048584,197.385513 
	C1392.083374,189.847397 1393.668091,182.549408 1397.612549,175.970490 
	C1405.616943,162.619751 1421.969360,158.983734 1434.542603,160.314285 
	C1437.435425,160.620422 1440.317139,161.030838 1443.132080,161.384247 
	C1443.509766,160.361893 1443.823120,159.907593 1443.824707,159.452194 
	C1443.876221,144.623093 1444.020264,129.791565 1443.738647,114.968246 
	C1443.709595,113.441063 1441.114380,111.962654 1438.879639,110.182983 
z"/>
<path fill="#FFFFFF" opacity="1.000000" stroke="none" 
	d="
M298.531342,0.999997 
	C299.739227,1.675913 300.367096,2.700337 301.233765,2.977173 
	C328.405396,11.656334 346.364319,29.370138 354.019501,57.017204 
	C355.240601,61.427299 355.911072,66.139534 355.918610,70.713593 
	C356.035156,141.470108 355.898865,212.227142 356.074982,282.983429 
	C356.116211,299.543854 350.290466,313.810150 340.667938,326.714294 
	C330.385132,340.503967 316.516998,349.169250 299.920319,353.556702 
	C298.563660,353.915314 297.311310,354.668640 296.005249,355.619263 
	C294.285645,356.000000 292.571289,356.000000 290.337463,355.852509 
	C289.545319,355.803345 289.272675,355.901672 289.000000,356.000000 
	C213.645767,356.000000 138.291550,356.000000 62.453484,355.620911 
	C60.823570,354.738312 59.719296,354.083679 58.525307,353.753387 
	C29.754541,345.794220 11.300371,327.531952 3.314334,298.709564 
	C2.941150,297.362671 1.789238,296.231598 0.999999,295.000000 
	C1.000000,219.645767 1.000000,144.291550 1.135566,68.356552 
	C1.323496,67.672150 1.447137,67.524391 1.415265,67.472923 
	C1.306334,67.297020 1.142742,67.154968 1.000000,67.000000 
	C1.000000,65.285645 1.000000,63.571285 1.378801,61.412857 
	C2.140856,60.473026 2.738333,60.030502 2.876665,59.473869 
	C10.153230,30.193644 28.381062,11.474855 57.223553,2.903302 
	C57.940891,2.690119 58.413338,1.652897 59.000000,1.000000 
	C138.687561,1.000000 218.375122,1.000000 298.531342,0.999997 
M68.417099,169.056625 
	C62.556953,176.599304 60.725571,185.147095 60.876999,194.634064 
	C61.113476,209.449265 71.419930,225.295792 86.318138,228.953186 
	C92.736954,230.528946 99.396698,231.556259 105.993195,231.874268 
	C115.982330,232.355804 115.999496,232.000031 115.999954,241.688400 
	C116.000053,243.665802 115.999977,245.643188 115.999977,247.629761 
	C120.549812,248.633331 124.797997,249.533066 129.028336,250.510056 
	C145.541107,254.323715 162.007187,258.356750 178.587677,261.847290 
	C182.502106,262.671356 187.007675,262.476471 190.873978,261.413849 
	C203.905273,257.832336 216.791183,253.712692 229.689774,249.662201 
	C234.438217,248.171097 239.908997,247.268814 243.419083,244.219955 
	C245.367615,242.527481 243.942917,236.961349 244.070358,233.142197 
	C244.079712,232.862167 244.347321,232.590759 244.663818,232.000015 
	C246.806061,232.000015 249.116318,232.137115 251.405014,231.973236 
	C257.283936,231.552307 263.479553,232.030380 268.963531,230.297531 
	C283.723267,225.633713 292.882202,215.800171 296.223877,200.006882 
	C300.378479,180.371628 288.372986,161.577484 271.428101,156.187851 
	C264.511993,153.988068 261.332306,150.126633 259.932892,143.400406 
	C256.023804,124.611328 234.928009,114.138031 217.581772,119.046486 
	C208.149200,121.715614 205.474335,120.984764 199.987503,112.991592 
	C199.343033,112.052727 198.625305,111.139511 197.815475,110.342476 
	C184.520081,97.257271 168.908386,91.929184 150.189209,94.891464 
	C127.215401,98.527023 105.434715,119.747650 104.901901,142.743271 
	C104.687210,152.009109 102.813889,153.356445 93.562759,154.009415 
	C92.749191,154.066818 91.942955,154.240448 91.135864,154.375351 
	C81.723106,155.948654 75.035355,161.782852 68.417099,169.056625 
z"/>
<path fill="#FFFFFF" opacity="1.000000" stroke="none" 
	d="
M1599.000000,283.583344 
	C1584.343872,283.999969 1569.686646,283.902252 1555.032349,284.066254 
	C1551.204956,284.109100 1549.147461,283.181000 1548.876831,278.960815 
	C1548.657471,275.539490 1547.629395,272.169983 1546.911743,268.533600 
	C1542.313599,272.062012 1538.321899,275.854736 1533.691895,278.551422 
	C1513.754395,290.163391 1492.626709,291.982605 1471.686279,282.516815 
	C1453.650391,274.363831 1444.238037,259.183441 1443.006348,239.248978 
	C1442.033569,223.505630 1445.818237,209.329559 1456.763062,197.477341 
	C1464.836548,188.734436 1474.812256,182.931488 1485.874023,179.083664 
	C1502.609497,173.262299 1519.930298,170.700409 1537.661377,170.984970 
	C1538.804932,171.003326 1539.951782,170.833572 1540.986206,170.759277 
	C1544.055542,165.187210 1538.304321,154.415237 1531.991577,151.673035 
	C1524.022827,148.211517 1515.845825,146.912811 1506.930054,147.603149 
	C1492.067505,148.753937 1478.327637,152.902786 1464.638672,160.164948 
	C1462.724121,153.775024 1460.873291,147.705460 1459.092896,141.615234 
	C1457.978638,137.802948 1457.273193,133.840942 1455.829834,130.163712 
	C1454.420410,126.572838 1455.188232,124.263710 1458.738525,123.158630 
	C1470.887207,119.377197 1482.892822,114.810371 1495.309082,112.315079 
	C1505.604004,110.246124 1516.414307,109.979584 1526.973267,110.172455 
	C1541.375244,110.435516 1555.473755,113.501198 1567.668701,121.530144 
	C1583.104492,131.692734 1591.501221,146.747604 1593.925293,164.872025 
	C1597.709595,193.168152 1595.406250,221.659042 1596.018433,250.059708 
	C1596.207886,258.848602 1596.648438,267.632812 1597.066650,276.414795 
	C1597.107544,277.273224 1597.802368,278.100494 1598.596924,278.971100 
	C1599.000000,280.388885 1599.000000,281.777802 1599.000000,283.583344 
M1496.045654,235.274460 
	C1497.394531,238.063843 1498.244263,241.276291 1500.184082,243.564804 
	C1506.463867,250.973557 1514.846558,251.347168 1523.389160,248.942047 
	C1533.714844,246.034882 1540.955322,239.451279 1542.846313,228.599747 
	C1543.946533,222.286118 1543.591187,215.726257 1544.028076,209.286499 
	C1544.242310,206.129257 1543.229248,204.604996 1539.839844,204.972702 
	C1532.621704,205.755753 1525.134644,205.464401 1518.217163,207.323044 
	C1503.897705,211.170563 1493.824219,218.333908 1496.045654,235.274460 
z"/>
<path fill="none" opacity="1.000000" stroke="none" 
	d="
M0.999999,295.468658 
	C1.789238,296.231598 2.941150,297.362671 3.314334,298.709564 
	C11.300371,327.531952 29.754541,345.794220 58.525307,353.753387 
	C59.719296,354.083679 60.823570,354.738312 61.984825,355.620911 
	C41.739849,356.000000 21.479700,356.000000 1.000000,356.000000 
	C1.000000,335.979645 1.000000,315.958466 0.999999,295.468658 
z"/>
<path fill="none" opacity="1.000000" stroke="none" 
	d="
M58.531342,1.000000 
	C58.413338,1.652897 57.940891,2.690119 57.223553,2.903302 
	C28.381062,11.474855 10.153230,30.193644 2.876665,59.473869 
	C2.738333,60.030502 2.140856,60.473026 1.378801,60.984398 
	C1.000000,41.074436 1.000000,21.148872 1.000000,1.000000 
	C20.020311,1.000000 39.041496,1.000000 58.531342,1.000000 
z"/>
<path fill="none" opacity="1.000000" stroke="none" 
	d="
M1.000000,67.250000 
	C1.142742,67.154968 1.306334,67.297020 1.415265,67.472923 
	C1.447137,67.524391 1.323496,67.672150 1.135566,67.887894 
	C1.000000,68.000000 1.000000,67.500000 1.000000,67.250000 
z"/>
<path fill="#001555" opacity="1.000000" stroke="none" 
	d="
M289.250000,356.000000 
	C289.272675,355.901672 289.545319,355.803345 289.908997,355.852509 
	C290.000000,356.000000 289.500000,356.000000 289.250000,356.000000 
z"/>
<path fill="#FFFFFF" opacity="1.000000" stroke="none" 
	d="
M922.786377,256.778931 
	C899.482300,292.116577 843.792236,299.265747 818.000000,269.367065 
	C818.000000,271.612762 818.000000,273.169861 818.000000,274.726990 
	C817.999939,299.045746 817.915283,323.365112 818.083130,347.682709 
	C818.111084,351.736298 817.090576,353.169464 812.828613,353.094208 
	C798.674805,352.844299 784.509583,352.802063 770.358215,353.112579 
	C765.723938,353.214264 764.909058,351.555176 764.917358,347.369354 
	C765.037781,286.406097 765.127258,225.442108 764.910583,164.479416 
	C764.856445,149.231003 763.686768,133.986893 763.058960,118.739586 
	C763.005249,117.434570 763.172424,116.120453 763.256592,114.412422 
	C778.678772,114.412422 793.900085,114.412422 809.708496,114.412422 
	C810.552185,121.544197 811.399658,128.707642 812.308411,136.389389 
	C813.335876,135.654373 814.352600,135.210632 814.968445,134.444565 
	C827.408386,118.970642 843.819397,112.170731 863.370117,110.828865 
	C877.657349,109.848267 890.582397,112.763634 902.691284,120.091164 
	C918.670105,129.760544 928.382568,144.242508 934.239868,161.567978 
	C938.414612,173.916458 940.432007,186.738739 939.882202,199.709503 
	C939.023621,219.964233 935.163269,239.513321 922.786377,256.778931 
M844.489624,246.074982 
	C846.776672,246.378860 849.105652,247.126205 851.343933,246.914581 
	C865.781250,245.549515 875.581360,237.703110 880.945496,224.481979 
	C886.361023,211.134216 886.117981,197.157349 883.761719,183.292297 
	C882.266479,174.494461 878.233643,166.364075 871.515137,160.425446 
	C854.634644,145.504440 827.862305,152.962051 820.827026,174.474731 
	C816.021057,189.170837 817.500427,204.335724 819.036865,219.351761 
	C820.380066,232.479538 830.605835,243.255524 844.489624,246.074982 
z"/>
<path fill="#FFFFFF" opacity="1.000000" stroke="none" 
	d="
M1012.987854,41.283310 
	C1012.996216,72.177498 1012.996216,102.600243 1012.996216,133.850693 
	C1016.847473,130.187363 1019.870667,127.001328 1023.211182,124.192757 
	C1033.055786,115.915787 1044.400879,111.738953 1057.328613,110.843468 
	C1069.967773,109.967979 1081.643188,112.046555 1092.437622,118.706261 
	C1105.275757,126.626793 1113.391113,138.312347 1116.726929,152.664932 
	C1119.217163,163.379730 1120.625488,174.555832 1120.814331,185.555740 
	C1121.346191,216.540359 1120.908691,247.540604 1121.102173,278.533142 
	C1121.130005,282.992310 1119.850098,284.182434 1115.476074,284.099731 
	C1101.317261,283.832184 1087.148193,283.867065 1072.987793,284.084778 
	C1069.022095,284.145752 1067.899048,282.926849 1067.919678,278.996246 
	C1068.069336,250.336166 1068.263306,221.670914 1067.827393,193.016663 
	C1067.708374,185.189880 1066.444702,177.081970 1064.011597,169.658554 
	C1060.314209,158.377930 1049.958496,152.925140 1037.479126,154.020554 
	C1026.755981,154.961792 1016.114380,164.644836 1014.125244,175.586182 
	C1013.418091,179.475708 1013.058533,183.481750 1013.047302,187.436020 
	C1012.961121,217.762985 1012.920288,248.090744 1013.090576,278.416992 
	C1013.114563,282.686035 1012.152527,284.208221 1007.590454,284.109772 
	C993.599792,283.807739 979.595886,283.848236 965.602905,284.091675 
	C961.357361,284.165497 959.888245,283.188019 959.896667,278.611450 
	C960.040588,200.127548 960.019470,121.643295 959.939819,43.159225 
	C959.936096,39.486748 960.609741,37.827168 964.832458,37.901974 
	C979.324951,38.158707 993.824890,37.980995 1008.321838,38.023224 
	C1010.338196,38.029099 1012.981567,37.299137 1012.987854,41.283310 
z"/>
<path fill="#FFFFFF" opacity="1.000000" stroke="none" 
	d="
M1200.584351,114.565338 
	C1225.413208,107.657532 1249.447388,107.942154 1272.791748,118.857239 
	C1291.246460,127.486015 1304.191406,141.465790 1311.858643,160.218872 
	C1317.061523,172.944550 1319.519409,186.344223 1318.920166,200.078918 
	C1318.138428,217.998566 1314.670288,235.278488 1304.559082,250.617203 
	C1292.958252,268.215393 1276.605591,279.301819 1256.484375,284.594513 
	C1234.238403,290.446106 1212.048096,289.873444 1190.655396,280.782806 
	C1166.111572,270.353149 1150.546631,251.852676 1144.070190,226.035019 
	C1138.237671,202.783417 1139.857300,179.842667 1149.705078,157.950424 
	C1159.671875,135.793427 1176.941162,121.614815 1200.584351,114.565338 
M1197.780151,213.713516 
	C1198.906250,224.267990 1202.831055,233.784958 1210.135742,241.357178 
	C1215.950073,247.384369 1223.708252,250.022507 1232.239990,249.379593 
	C1246.870850,248.277130 1254.378540,238.711136 1259.036499,226.163559 
	C1264.490723,211.470596 1264.378174,196.230820 1261.691162,181.136902 
	C1260.006958,171.675507 1256.481567,162.495834 1248.824707,155.930817 
	C1233.160889,142.500549 1210.932373,148.272263 1202.104614,169.089935 
	C1196.124634,183.192062 1195.233643,197.890594 1197.780151,213.713516 
z"/>
<path fill="#FFFFFF" opacity="1.000000" stroke="none" 
	d="
M565.000061,267.996979 
	C564.997437,272.495636 564.906677,276.497803 565.023987,280.493805 
	C565.099304,283.059662 564.100220,284.036865 561.515442,284.025360 
	C546.184143,283.957001 530.851624,283.912811 515.521179,284.045135 
	C511.467682,284.080078 512.002686,281.505768 512.002380,279.029846 
	C511.999023,254.199219 512.170593,229.366852 511.913940,204.538864 
	C511.814850,194.953430 511.687073,185.199295 509.908051,175.838303 
	C506.956543,160.307831 497.668304,153.343185 483.245972,154.005508 
	C471.078125,154.564270 459.645172,165.728058 457.999451,178.885468 
	C457.425201,183.476562 457.056732,188.125488 457.042938,192.749329 
	C456.957520,221.412613 456.922241,250.076721 457.086334,278.739319 
	C457.110016,282.874298 455.950165,284.162537 451.768005,284.090851 
	C437.773651,283.850769 423.769104,283.822357 409.776215,284.101685 
	C405.221466,284.192627 403.874390,282.929779 403.896149,278.283173 
	C404.078613,239.288284 404.171295,200.291031 403.910034,161.297043 
	C403.814514,147.038467 402.679749,132.787323 402.058990,118.531059 
	C402.002991,117.245674 402.240906,115.947495 402.366821,114.343277 
	C417.850769,114.343277 433.077759,114.343277 448.729279,114.343277 
	C449.596039,121.910034 450.438812,129.267166 451.329041,137.038635 
	C452.147125,136.269287 452.981262,135.671860 453.580536,134.893570 
	C465.227875,119.767159 480.532288,112.045013 499.637939,110.848755 
	C514.042725,109.946838 527.263611,112.490509 539.184509,120.753067 
	C553.023376,130.344879 559.915527,144.302948 562.848572,160.296158 
	C564.303711,168.231064 564.837036,176.423920 564.907532,184.507751 
	C565.148743,212.169281 565.000061,239.834229 565.000061,267.996979 
z"/>
<path fill="#FFFFFF" opacity="1.000000" stroke="none" 
	d="
M688.741089,112.028442 
	C702.202515,115.014297 714.011719,120.410248 723.490173,130.046494 
	C735.656555,142.415359 742.180847,157.570343 745.050354,174.525543 
	C747.111877,186.706467 747.599792,198.864288 746.062317,211.146378 
	C745.544006,215.286652 744.262573,217.131226 739.613403,217.102570 
	C707.301453,216.903366 674.987549,216.997482 642.674316,216.997513 
	C640.699402,216.997513 638.724487,216.997498 636.737061,216.997498 
	C637.344788,229.096878 647.555847,240.308746 659.940735,244.084885 
	C681.590149,250.685730 702.840942,247.867157 724.089722,242.369171 
	C725.983093,241.879257 727.878784,241.398560 730.587158,240.705292 
	C732.969849,253.006332 735.274841,264.906219 737.807312,277.980499 
	C726.516602,280.708344 715.752502,284.135681 704.723145,285.745239 
	C693.291077,287.413544 681.566345,288.238159 670.033325,287.790405 
	C650.951660,287.049530 632.564331,282.907837 616.729431,271.225647 
	C600.449097,259.214874 590.682373,243.004974 587.100037,223.272125 
	C581.437012,192.077271 586.538635,163.262009 607.221497,138.198212 
	C619.389832,123.452522 635.205505,115.231224 653.811462,111.981590 
	C665.303894,109.974373 676.812561,110.189522 688.741089,112.028442 
M668.444702,146.017609 
	C646.765564,146.936996 636.584167,166.085541 636.686523,179.661926 
	C656.585266,179.661926 676.484558,179.661926 696.817383,179.661926 
	C697.154480,170.353821 694.455994,162.445190 688.935913,155.459335 
	C683.946716,149.145309 676.904114,146.994080 668.444702,146.017609 
z"/>
<path fill="#FFFFFF" opacity="1.000000" stroke="none" 
	d="
M1439.294800,110.322296 
	C1441.114380,111.962654 1443.709595,113.441063 1443.738647,114.968246 
	C1444.020264,129.791565 1443.876221,144.623093 1443.824707,159.452194 
	C1443.823120,159.907593 1443.509766,160.361893 1443.132080,161.384247 
	C1440.317139,161.030838 1437.435425,160.620422 1434.542603,160.314285 
	C1421.969360,158.983734 1405.616943,162.619751 1397.612549,175.970490 
	C1393.668091,182.549408 1392.083374,189.847397 1392.048584,197.385513 
	C1391.924561,224.212677 1391.893433,251.041580 1392.101685,277.867706 
	C1392.137573,282.502930 1391.180176,284.251373 1386.139404,284.122223 
	C1372.318115,283.767975 1358.476685,283.789001 1344.653931,284.115631 
	C1339.876221,284.228516 1338.894653,282.588104 1338.911133,278.161987 
	C1339.062134,237.504364 1339.150024,196.845093 1338.912476,156.188293 
	C1338.836914,143.264023 1337.654053,130.348282 1337.229492,117.420372 
	C1337.193237,116.317192 1339.046753,114.177048 1340.047729,114.161545 
	C1354.025757,113.944908 1368.008301,114.014687 1383.012695,114.014687 
	C1383.812012,124.162720 1384.593994,134.090607 1385.483643,145.385468 
	C1396.077271,121.326019 1412.804932,108.379524 1439.294800,110.322296 
z"/>
<path fill="none" opacity="1.000000" stroke="none" 
	d="
M68.686264,168.811493 
	C75.035355,161.782852 81.723106,155.948654 91.135864,154.375351 
	C91.942955,154.240448 92.749191,154.066818 93.562759,154.009415 
	C102.813889,153.356445 104.687210,152.009109 104.901901,142.743271 
	C105.434715,119.747650 127.215401,98.527023 150.189209,94.891464 
	C168.908386,91.929184 184.520081,97.257271 197.815475,110.342476 
	C198.625305,111.139511 199.343033,112.052727 199.987503,112.991592 
	C205.474335,120.984764 208.149200,121.715614 217.581772,119.046486 
	C234.928009,114.138031 256.023804,124.611328 259.932892,143.400406 
	C261.332306,150.126633 264.511993,153.988068 271.428101,156.187851 
	C288.372986,161.577484 300.378479,180.371628 296.223877,200.006882 
	C292.882202,215.800171 283.723267,225.633713 268.963531,230.297531 
	C263.479553,232.030380 257.283936,231.552307 251.405014,231.973236 
	C249.116318,232.137115 246.806061,232.000015 244.663818,232.000015 
	C244.347321,232.590759 244.079712,232.862167 244.070358,233.142197 
	C243.942917,236.961349 245.367615,242.527481 243.419083,244.219955 
	C239.908997,247.268814 234.438217,248.171097 229.689774,249.662201 
	C216.791183,253.712692 203.905273,257.832336 190.873978,261.413849 
	C187.007675,262.476471 182.502106,262.671356 178.587677,261.847290 
	C162.007187,258.356750 145.541107,254.323715 129.028336,250.510056 
	C124.797997,249.533066 120.549812,248.633331 115.999977,247.629761 
	C115.999977,245.643188 116.000053,243.665802 115.999954,241.688400 
	C115.999496,232.000031 115.982330,232.355804 105.993195,231.874268 
	C99.396698,231.556259 92.736954,230.528946 86.318138,228.953186 
	C71.419930,225.295792 61.113476,209.449265 60.876999,194.634064 
	C60.725571,185.147095 62.556953,176.599304 68.686264,168.811493 
M224.035263,202.455643 
	C226.360474,201.804016 228.721191,201.257111 231.004883,200.483002 
	C242.129578,196.712067 241.998871,196.689743 242.078568,185.029037 
	C242.100922,181.755264 241.047852,180.615158 237.860840,179.908249 
	C220.711945,176.104370 203.649185,171.913223 186.508301,168.071671 
	C181.772217,167.010239 176.414352,165.085892 172.124649,166.307220 
	C154.680405,171.273773 137.521866,177.254044 120.323639,183.055145 
	C118.959206,183.515381 117.281586,185.385971 117.152161,186.735641 
	C116.743202,191.000259 117.001221,195.328873 117.001221,199.551315 
	C134.926514,203.611145 152.518036,207.596619 170.110184,211.579254 
	C178.980392,213.587341 187.480606,215.630829 196.719376,211.346649 
	C205.098083,207.461288 214.444656,205.663101 224.035263,202.455643 
M149.224365,253.045609 
	C159.446609,255.364090 169.635162,257.851410 179.911072,259.900818 
	C183.100037,260.536804 186.748474,260.743988 189.806000,259.848358 
	C205.232208,255.329697 220.501587,250.278229 235.899353,245.658157 
	C239.727890,244.509399 241.699051,242.907501 241.079361,238.600403 
	C240.658539,235.675476 240.998978,232.641037 240.998978,228.520309 
	C236.751785,228.345367 232.327484,227.150131 228.512054,228.189651 
	C215.338211,231.778961 202.396545,236.213470 189.315491,240.156998 
	C187.028198,240.846527 184.367325,241.338028 182.095093,240.870575 
	C164.866196,237.326126 147.682236,233.560287 130.503281,229.777176 
	C122.740677,228.067719 118.031807,231.633240 118.002449,239.459900 
	C117.993759,241.775681 118.001106,244.091522 118.001106,246.692474 
	C128.220993,248.816925 138.290924,250.910202 149.224365,253.045609 
M188.465973,217.002197 
	C187.224075,217.317780 185.878937,218.115463 184.756073,217.875076 
	C172.139877,215.173981 159.599640,212.105347 146.952927,209.563797 
	C137.487549,207.661606 128.032761,202.399948 118.118607,208.856766 
	C118.118607,213.148941 118.118607,217.783340 118.118607,222.392319 
	C136.092850,226.596786 153.922806,230.936920 171.844376,234.858322 
	C177.349411,236.062851 183.545135,237.769104 188.665161,236.401840 
	C205.262054,231.969757 221.519669,226.257980 237.860580,220.894745 
	C239.096603,220.489075 240.764725,219.013992 240.854294,217.922913 
	C241.203171,213.673508 240.996552,209.378479 240.996552,205.118515 
	C237.038986,204.693985 233.320679,203.270462 230.255493,204.142532 
	C216.499146,208.056381 202.928513,212.622971 188.465973,217.002197 
M130.936630,127.595261 
	C134.347214,124.514328 137.393661,120.816971 141.271133,118.526367 
	C145.125076,116.249657 145.461227,113.693497 144.534485,109.651657 
	C142.743347,110.078522 140.897186,110.027328 139.712265,110.887268 
	C134.980911,114.320938 129.711502,117.412109 126.024132,121.793793 
	C120.189583,128.727005 115.803978,136.691391 115.948280,146.352966 
	C115.996979,149.613922 116.713524,152.691528 120.183952,152.660385 
	C121.471725,152.648804 123.122345,149.198654 123.922966,147.060349 
	C126.264252,140.807251 128.260773,134.425095 130.936630,127.595261 
M262.000732,215.623993 
	C262.417664,219.427658 265.033417,219.406860 267.715790,218.661819 
	C280.244202,215.181961 286.941711,197.935196 285.797729,187.706696 
	C285.269989,182.988220 282.263153,180.945129 277.000000,182.355347 
	C277.000000,186.020676 276.905121,189.823624 277.021057,193.620148 
	C277.222290,200.211090 274.642029,205.113113 268.975647,208.660080 
	C266.383636,210.282608 264.310638,212.734314 262.000732,215.623993 
M155.585480,111.072037 
	C157.931412,113.687141 161.182999,113.903030 162.167099,111.318207 
	C162.645004,110.062927 162.449478,108.223167 161.840469,107.008034 
	C161.488144,106.305054 159.232422,105.695877 158.661896,106.130974 
	C157.212601,107.236267 156.229950,108.953453 155.585480,111.072037 
z"/>
<path fill="none" opacity="1.000000" stroke="none" 
	d="
M1496.027100,234.871643 
	C1493.824219,218.333908 1503.897705,211.170563 1518.217163,207.323044 
	C1525.134644,205.464401 1532.621704,205.755753 1539.839844,204.972702 
	C1543.229248,204.604996 1544.242310,206.129257 1544.028076,209.286499 
	C1543.591187,215.726257 1543.946533,222.286118 1542.846313,228.599747 
	C1540.955322,239.451279 1533.714844,246.034882 1523.389160,248.942047 
	C1514.846558,251.347168 1506.463867,250.973557 1500.184082,243.564804 
	C1498.244263,241.276291 1497.394531,238.063843 1496.027100,234.871643 
z"/>
<path fill="none" opacity="1.000000" stroke="none" 
	d="
M844.067871,246.043152 
	C830.605835,243.255524 820.380066,232.479538 819.036865,219.351761 
	C817.500427,204.335724 816.021057,189.170837 820.827026,174.474731 
	C827.862305,152.962051 854.634644,145.504440 871.515137,160.425446 
	C878.233643,166.364075 882.266479,174.494461 883.761719,183.292297 
	C886.117981,197.157349 886.361023,211.134216 880.945496,224.481979 
	C875.581360,237.703110 865.781250,245.549515 851.343933,246.914581 
	C849.105652,247.126205 846.776672,246.378860 844.067871,246.043152 
z"/>
<path fill="none" opacity="1.000000" stroke="none" 
	d="
M1197.615479,213.302734 
	C1195.233643,197.890594 1196.124634,183.192062 1202.104614,169.089935 
	C1210.932373,148.272263 1233.160889,142.500549 1248.824707,155.930817 
	C1256.481567,162.495834 1260.006958,171.675507 1261.691162,181.136902 
	C1264.378174,196.230820 1264.490723,211.470596 1259.036499,226.163559 
	C1254.378540,238.711136 1246.870850,248.277130 1232.239990,249.379593 
	C1223.708252,250.022507 1215.950073,247.384369 1210.135742,241.357178 
	C1202.831055,233.784958 1198.906250,224.267990 1197.615479,213.302734 
z"/>
<path fill="none" opacity="1.000000" stroke="none" 
	d="
M668.876465,146.037643 
	C676.904114,146.994080 683.946716,149.145309 688.935913,155.459335 
	C694.455994,162.445190 697.154480,170.353821 696.817383,179.661926 
	C676.484558,179.661926 656.585266,179.661926 636.686523,179.661926 
	C636.584167,166.085541 646.765564,146.936996 668.876465,146.037643 
z"/>
<path fill="#FFFFFF" opacity="1.000000" stroke="none" 
	d="
M223.699890,202.700180 
	C214.444656,205.663101 205.098083,207.461288 196.719376,211.346649 
	C187.480606,215.630829 178.980392,213.587341 170.110184,211.579254 
	C152.518036,207.596619 134.926514,203.611145 117.001221,199.551315 
	C117.001221,195.328873 116.743202,191.000259 117.152161,186.735641 
	C117.281586,185.385971 118.959206,183.515381 120.323639,183.055145 
	C137.521866,177.254044 154.680405,171.273773 172.124649,166.307220 
	C176.414352,165.085892 181.772217,167.010239 186.508301,168.071671 
	C203.649185,171.913223 220.711945,176.104370 237.860840,179.908249 
	C241.047852,180.615158 242.100922,181.755264 242.078568,185.029037 
	C241.998871,196.689743 242.129578,196.712067 231.004883,200.483002 
	C228.721191,201.257111 226.360474,201.804016 223.699890,202.700180 
z"/>
<path fill="#FFFFFF" opacity="1.000000" stroke="none" 
	d="
M148.792603,253.024536 
	C138.290924,250.910202 128.220993,248.816925 118.001106,246.692474 
	C118.001106,244.091522 117.993759,241.775681 118.002449,239.459900 
	C118.031807,231.633240 122.740677,228.067719 130.503281,229.777176 
	C147.682236,233.560287 164.866196,237.326126 182.095093,240.870575 
	C184.367325,241.338028 187.028198,240.846527 189.315491,240.156998 
	C202.396545,236.213470 215.338211,231.778961 228.512054,228.189651 
	C232.327484,227.150131 236.751785,228.345367 240.998978,228.520309 
	C240.998978,232.641037 240.658539,235.675476 241.079361,238.600403 
	C241.699051,242.907501 239.727890,244.509399 235.899353,245.658157 
	C220.501587,250.278229 205.232208,255.329697 189.806000,259.848358 
	C186.748474,260.743988 183.100037,260.536804 179.911072,259.900818 
	C169.635162,257.851410 159.446609,255.364090 148.792603,253.024536 
z"/>
<path fill="#FFFFFF" opacity="1.000000" stroke="none" 
	d="
M188.878418,216.978134 
	C202.928513,212.622971 216.499146,208.056381 230.255493,204.142532 
	C233.320679,203.270462 237.038986,204.693985 240.996552,205.118515 
	C240.996552,209.378479 241.203171,213.673508 240.854294,217.922913 
	C240.764725,219.013992 239.096603,220.489075 237.860580,220.894745 
	C221.519669,226.257980 205.262054,231.969757 188.665161,236.401840 
	C183.545135,237.769104 177.349411,236.062851 171.844376,234.858322 
	C153.922806,230.936920 136.092850,226.596786 118.118607,222.392319 
	C118.118607,217.783340 118.118607,213.148941 118.118607,208.856766 
	C128.032761,202.399948 137.487549,207.661606 146.952927,209.563797 
	C159.599640,212.105347 172.139877,215.173981 184.756073,217.875076 
	C185.878937,218.115463 187.224075,217.317780 188.878418,216.978134 
z"/>
<path fill="#FFFFFF" opacity="1.000000" stroke="none" 
	d="
M130.664520,127.844383 
	C128.260773,134.425095 126.264252,140.807251 123.922966,147.060349 
	C123.122345,149.198654 121.471725,152.648804 120.183952,152.660385 
	C116.713524,152.691528 115.996979,149.613922 115.948280,146.352966 
	C115.803978,136.691391 120.189583,128.727005 126.024132,121.793793 
	C129.711502,117.412109 134.980911,114.320938 139.712265,110.887268 
	C140.897186,110.027328 142.743347,110.078522 144.534485,109.651657 
	C145.461227,113.693497 145.125076,116.249657 141.271133,118.526367 
	C137.393661,120.816971 134.347214,124.514328 130.664520,127.844383 
z"/>
<path fill="#FFFFFF" opacity="1.000000" stroke="none" 
	d="
M262.001526,215.216980 
	C264.310638,212.734314 266.383636,210.282608 268.975647,208.660080 
	C274.642029,205.113113 277.222290,200.211090 277.021057,193.620148 
	C276.905121,189.823624 277.000000,186.020676 277.000000,182.355347 
	C282.263153,180.945129 285.269989,182.988220 285.797729,187.706696 
	C286.941711,197.935196 280.244202,215.181961 267.715790,218.661819 
	C265.033417,219.406860 262.417664,219.427658 262.001526,215.216980 
z"/>
<path fill="#FFFFFF" opacity="1.000000" stroke="none" 
	d="
M155.322983,110.748856 
	C156.229950,108.953453 157.212601,107.236267 158.661896,106.130974 
	C159.232422,105.695877 161.488144,106.305054 161.840469,107.008034 
	C162.449478,108.223167 162.645004,110.062927 162.167099,111.318207 
	C161.182999,113.903030 157.931412,113.687141 155.322983,110.748856 
z"/>
</svg>