<?xml version="1.0" encoding="UTF-8"?><svg xmlns="http://www.w3.org/2000/svg" xmlns:xlink="http://www.w3.org/1999/xlink" viewBox="0 0 911.24 685.59"><defs><style>.cls-1{fill:url(#Dégradé_sans_nom_12-15);}.cls-2{mix-blend-mode:hard-light;opacity:.87;}.cls-3{fill:url(#Dégradé_sans_nom_12-22);}.cls-4,.cls-5,.cls-6{fill:#fff;}.cls-7{fill:url(#Dégradé_sans_nom_12-47);}.cls-8{fill:url(#Dégradé_sans_nom_12-25);}.cls-9{fill:url(#Dégradé_sans_nom_12-68);}.cls-10{fill:url(#Dégradé_sans_nom_12-65);}.cls-11{fill:url(#Dégradé_sans_nom_12-6);}.cls-12{fill:#5945b8;}.cls-13{fill:url(#Dégradé_sans_nom_12-46);}.cls-14{fill:url(#Dégradé_sans_nom_12-9);}.cls-15{fill:url(#Dégradé_sans_nom_12-18);}.cls-16{opacity:.5;}.cls-17{fill:url(#Dégradé_sans_nom_12-58);}.cls-18{fill:url(#Dégradé_sans_nom_12-2);}.cls-19{fill:url(#Dégradé_sans_nom_12-17);}.cls-20{fill:url(#Dégradé_sans_nom_12-79);}.cls-21{fill:url(#Dégradé_sans_nom_12-8);}.cls-22{fill:url(#Dégradé_sans_nom_12);}.cls-23{fill:url(#Dégradé_sans_nom_12-49);}.cls-24{fill:url(#Dégradé_sans_nom_12-63);}.cls-25{fill:url(#Dégradé_sans_nom_12-10);}.cls-26{fill:url(#Dégradé_sans_nom_12-20);}.cls-27{fill:url(#Dégradé_sans_nom_12-26);}.cls-28{isolation:isolate;}.cls-29{fill:url(#Dégradé_sans_nom_12-57);}.cls-30{fill:url(#Dégradé_sans_nom_12-24);}.cls-31{fill:url(#Dégradé_sans_nom_12-55);}.cls-32{fill:#4b2880;}.cls-33{fill:url(#Dégradé_sans_nom_12-23);}.cls-5,.cls-34{mix-blend-mode:overlay;}.cls-35{fill:url(#Dégradé_sans_nom_12-62);}.cls-36{fill:url(#Dégradé_sans_nom_12-56);}.cls-37{fill:url(#Dégradé_sans_nom_12-81);}.cls-38{fill:url(#Dégradé_sans_nom_12-76);}.cls-39{fill:url(#Dégradé_sans_nom_12-73);}.cls-40{fill:url(#Dégradé_sans_nom_12-70);}.cls-41{fill:url(#Dégradé_sans_nom_12-60);}.cls-42{fill:url(#Dégradé_sans_nom_12-86);}.cls-43{fill:url(#Dégradé_sans_nom_12-5);}.cls-44{fill:#28246c;}.cls-45{fill:url(#Dégradé_sans_nom_12-43);}.cls-46{fill:url(#Dégradé_sans_nom_12-28);}.cls-47{fill:url(#Dégradé_sans_nom_12-16);}.cls-48{fill:url(#Dégradé_sans_nom_12-3);}.cls-49{fill:url(#Dégradé_sans_nom_12-64);}.cls-50{fill:#eaea92;}.cls-51{fill:url(#Dégradé_sans_nom_12-80);}.cls-52{fill:url(#Dégradé_sans_nom_12-33);}.cls-53{fill:#282484;}.cls-54{fill:#593f91;}.cls-55{fill:url(#Dégradé_sans_nom_12-52);}.cls-56{fill:url(#Dégradé_sans_nom_12-61);}.cls-57{fill:url(#Dégradé_sans_nom_12-11);}.cls-58{fill:url(#Dégradé_sans_nom_12-35);}.cls-59{fill:url(#Dégradé_sans_nom_12-13);}.cls-60{fill:url(#Dégradé_sans_nom_12-66);}.cls-6{filter:url(#drop-shadow-1);}.cls-61{fill:url(#Dégradé_sans_nom_12-69);}.cls-62{fill:url(#Dégradé_sans_nom_12-21);}.cls-63{fill:#edf1ca;}.cls-64{fill:url(#Dégradé_sans_nom_12-84);}.cls-65{fill:url(#Dégradé_sans_nom_12-30);}.cls-66{fill:url(#Dégradé_sans_nom_12-41);}.cls-67{fill:#d91118;}.cls-68{fill:url(#Dégradé_sans_nom_12-54);}.cls-69{fill:#191732;}.cls-70{fill:url(#Dégradé_sans_nom_12-29);}.cls-71{fill:url(#Dégradé_sans_nom_12-75);}.cls-72{fill:url(#Dégradé_sans_nom_12-40);}.cls-73{fill:url(#Dégradé_sans_nom_12-45);}.cls-74{fill:none;stroke:#593f91;stroke-linecap:round;stroke-linejoin:round;stroke-width:0px;}.cls-75{fill:url(#Dégradé_sans_nom_12-85);}.cls-76{fill:url(#Dégradé_sans_nom_12-7);}.cls-77{fill:url(#Dégradé_sans_nom_12-82);}.cls-78{fill:url(#Dégradé_sans_nom_12-36);}.cls-79{fill:url(#Dégradé_sans_nom_12-37);}.cls-80{fill:#bda3ce;}.cls-81{fill:url(#Dégradé_sans_nom_12-34);}.cls-34{fill:url(#Dégradé_sans_nom_22);}.cls-82{fill:url(#Dégradé_sans_nom_12-39);}.cls-83{fill:#f8433d;}.cls-84{fill:url(#Dégradé_sans_nom_12-44);}.cls-85{fill:url(#Dégradé_sans_nom_12-27);}.cls-86{fill:url(#Dégradé_sans_nom_12-71);}.cls-87{fill:#8f84ff;}.cls-88{fill:url(#Dégradé_sans_nom_12-77);}.cls-89{fill:url(#Dégradé_sans_nom_12-83);}.cls-90{fill:url(#Dégradé_sans_nom_12-67);}.cls-91{fill:url(#Dégradé_sans_nom_12-51);}.cls-92{fill:#8478ff;}.cls-93{fill:url(#Dégradé_sans_nom_12-48);}.cls-94{fill:url(#Dégradé_sans_nom_12-12);}.cls-95{fill:url(#Dégradé_sans_nom_12-31);}.cls-96{fill:url(#Dégradé_sans_nom_12-72);}.cls-97{fill:url(#Dégradé_sans_nom_12-38);}.cls-98{fill:url(#Dégradé_sans_nom_12-53);}.cls-99{fill:url(#Dégradé_sans_nom_12-32);}.cls-100{fill:#7455e7;}.cls-101{fill:url(#Dégradé_sans_nom_12-74);}.cls-102{fill:url(#Dégradé_sans_nom_12-42);}.cls-103{fill:url(#Dégradé_sans_nom_12-59);}.cls-104{fill:url(#Dégradé_sans_nom_12-50);}.cls-105{fill:url(#Dégradé_sans_nom_12-19);}.cls-106{fill:url(#Dégradé_sans_nom_12-78);}.cls-107{fill:url(#Dégradé_sans_nom_12-4);}.cls-108{fill:url(#Dégradé_sans_nom_12-14);}</style><filter id="drop-shadow-1" filterUnits="userSpaceOnUse"><feOffset dx="11.34" dy="14.17"/><feGaussianBlur result="blur" stdDeviation="22.68"/><feFlood flood-color="#000" flood-opacity=".3"/><feComposite in2="blur" operator="in"/><feComposite in="SourceGraphic"/></filter><radialGradient id="Dégradé_sans_nom_22" cx="-7486.85" cy="7677.04" fx="-7486.85" fy="7677.04" r="495.91" gradientTransform="translate(3049.02 -2386.85) scale(.35)" gradientUnits="userSpaceOnUse"><stop offset="0" stop-color="#fff"/><stop offset=".09" stop-color="#fff" stop-opacity=".98"/><stop offset=".22" stop-color="#fff" stop-opacity=".91"/><stop offset=".36" stop-color="#fff" stop-opacity=".79"/><stop offset=".52" stop-color="#fff" stop-opacity=".63"/><stop offset=".7" stop-color="#fff" stop-opacity=".43"/><stop offset=".88" stop-color="#fff" stop-opacity=".18"/><stop offset="1" stop-color="#fff" stop-opacity="0"/></radialGradient><radialGradient id="Dégradé_sans_nom_12" cx="370.56" cy="102.56" fx="370.56" fy="102.56" r="1.2" gradientUnits="userSpaceOnUse"><stop offset="0" stop-color="#fff"/><stop offset="1" stop-color="#fff" stop-opacity="0"/></radialGradient><radialGradient id="Dégradé_sans_nom_12-2" cx="335.77" cy="149.99" fx="335.77" fy="149.99" r="1.2" xlink:href="#Dégradé_sans_nom_12"/><radialGradient id="Dégradé_sans_nom_12-3" cx="328.92" cy="187.94" fx="328.92" fy="187.94" r="1.2" xlink:href="#Dégradé_sans_nom_12"/><radialGradient id="Dégradé_sans_nom_12-4" cx="257.24" cy="220.09" fx="257.24" fy="220.09" r="1.2" xlink:href="#Dégradé_sans_nom_12"/><radialGradient id="Dégradé_sans_nom_12-5" cx="267.26" cy="234.84" fx="267.26" fy="234.84" r="1.2" xlink:href="#Dégradé_sans_nom_12"/><radialGradient id="Dégradé_sans_nom_12-6" cx="390.06" cy="239.92" fx="390.06" fy="239.92" r="1.2" xlink:href="#Dégradé_sans_nom_12"/><radialGradient id="Dégradé_sans_nom_12-7" cx="387.96" cy="270.73" fx="387.96" fy="270.73" r="1.2" xlink:href="#Dégradé_sans_nom_12"/><radialGradient id="Dégradé_sans_nom_12-8" cx="436.97" cy="252.53" fx="436.97" fy="252.53" r="1.2" xlink:href="#Dégradé_sans_nom_12"/><radialGradient id="Dégradé_sans_nom_12-9" cx="439.08" cy="268.63" fx="439.08" fy="268.63" r="1.2" xlink:href="#Dégradé_sans_nom_12"/><radialGradient id="Dégradé_sans_nom_12-10" cx="499.3" cy="293.84" fx="499.3" fy="293.84" r="1.2" xlink:href="#Dégradé_sans_nom_12"/><radialGradient id="Dégradé_sans_nom_12-11" cx="516.8" cy="97.07" fx="516.8" fy="97.07" r="1.2" xlink:href="#Dégradé_sans_nom_12"/><radialGradient id="Dégradé_sans_nom_12-12" cx="539.21" cy="239.22" fx="539.21" fy="239.22" r="1.2" xlink:href="#Dégradé_sans_nom_12"/><radialGradient id="Dégradé_sans_nom_12-13" cx="452.4" cy="248.75" fx="452.4" fy="248.75" r="2.4" xlink:href="#Dégradé_sans_nom_12"/><radialGradient id="Dégradé_sans_nom_12-14" cx="427.46" cy="265.75" fx="427.46" fy="265.75" r="2.4" xlink:href="#Dégradé_sans_nom_12"/><radialGradient id="Dégradé_sans_nom_12-15" cx="534.02" cy="182.99" fx="534.02" fy="182.99" r="2.4" xlink:href="#Dégradé_sans_nom_12"/><radialGradient id="Dégradé_sans_nom_12-16" cx="530.05" cy="236.84" fx="530.05" fy="236.84" r="2.4" xlink:href="#Dégradé_sans_nom_12"/><radialGradient id="Dégradé_sans_nom_12-17" cx="505.68" cy="286.16" fx="505.68" fy="286.16" r="2.4" xlink:href="#Dégradé_sans_nom_12"/><radialGradient id="Dégradé_sans_nom_12-18" cx="519.28" cy="303.73" fx="519.28" fy="303.73" r="2.4" xlink:href="#Dégradé_sans_nom_12"/><radialGradient id="Dégradé_sans_nom_12-19" cx="323.72" cy="179.02" fx="323.72" fy="179.02" r="2.4" xlink:href="#Dégradé_sans_nom_12"/><radialGradient id="Dégradé_sans_nom_12-20" cx="377.01" cy="223.8" fx="377.01" fy="223.8" r="2.4" xlink:href="#Dégradé_sans_nom_12"/><radialGradient id="Dégradé_sans_nom_12-21" cx="374.17" cy="243.64" fx="374.17" fy="243.64" r="2.4" xlink:href="#Dégradé_sans_nom_12"/><radialGradient id="Dégradé_sans_nom_12-22" cx="329.39" cy="142.18" fx="329.39" fy="142.18" r="2.4" xlink:href="#Dégradé_sans_nom_12"/><radialGradient id="Dégradé_sans_nom_12-23" cx="631.97" cy="211.22" fx="631.97" fy="211.22" r="1.2" xlink:href="#Dégradé_sans_nom_12"/><radialGradient id="Dégradé_sans_nom_12-24" cx="625.12" cy="249.17" fx="625.12" fy="249.17" r="1.2" xlink:href="#Dégradé_sans_nom_12"/><radialGradient id="Dégradé_sans_nom_12-25" cx="553.45" cy="281.32" fx="553.45" fy="281.32" r="1.2" xlink:href="#Dégradé_sans_nom_12"/><radialGradient id="Dégradé_sans_nom_12-26" cx="563.46" cy="296.07" fx="563.46" fy="296.07" r="1.2" xlink:href="#Dégradé_sans_nom_12"/><radialGradient id="Dégradé_sans_nom_12-27" cx="417.36" cy="95.97" fx="417.36" fy="95.97" r="1.2" xlink:href="#Dégradé_sans_nom_12"/><radialGradient id="Dégradé_sans_nom_12-28" cx="412.46" cy="116.28" fx="412.46" fy="116.28" r="1.2" xlink:href="#Dégradé_sans_nom_12"/><radialGradient id="Dégradé_sans_nom_12-29" cx="433.47" cy="105.78" fx="433.47" fy="105.78" r="1.2" xlink:href="#Dégradé_sans_nom_12"/><radialGradient id="Dégradé_sans_nom_12-30" cx="425.06" cy="168.1" fx="425.06" fy="168.1" r="1.2" xlink:href="#Dégradé_sans_nom_12"/><radialGradient id="Dégradé_sans_nom_12-31" cx="477.58" cy="236.03" fx="477.58" fy="236.03" r="1.2" xlink:href="#Dégradé_sans_nom_12"/><radialGradient id="Dégradé_sans_nom_12-32" cx="499.29" cy="233.22" fx="499.29" fy="233.22" r="1.2" xlink:href="#Dégradé_sans_nom_12"/><radialGradient id="Dégradé_sans_nom_12-33" cx="494.39" cy="250.03" fx="494.39" fy="250.03" r="1.2" xlink:href="#Dégradé_sans_nom_12"/><radialGradient id="Dégradé_sans_nom_12-34" cx="619.93" cy="240.25" fx="619.93" fy="240.25" r="2.4" xlink:href="#Dégradé_sans_nom_12"/><radialGradient id="Dégradé_sans_nom_12-35" cx="436.84" cy="179.6" fx="436.84" fy="179.6" r="2.4" xlink:href="#Dégradé_sans_nom_12"/><radialGradient id="Dégradé_sans_nom_12-36" cx="431.74" cy="93.44" fx="431.74" fy="93.44" r="2.4" xlink:href="#Dégradé_sans_nom_12"/><radialGradient id="Dégradé_sans_nom_12-37" cx="506.56" cy="240.82" fx="506.56" fy="240.82" r="2.4" xlink:href="#Dégradé_sans_nom_12"/><radialGradient id="Dégradé_sans_nom_12-38" cx="625.59" cy="203.41" fx="625.59" fy="203.41" r="2.4" xlink:href="#Dégradé_sans_nom_12"/><radialGradient id="Dégradé_sans_nom_12-39" cx="635.16" cy="277.81" fx="635.16" fy="277.81" r="1.2" xlink:href="#Dégradé_sans_nom_12"/><radialGradient id="Dégradé_sans_nom_12-40" cx="597.86" cy="268" fx="597.86" fy="268" r="1.2" xlink:href="#Dégradé_sans_nom_12"/><radialGradient id="Dégradé_sans_nom_12-41" cx="571.43" cy="194.03" fx="571.43" fy="194.03" r="1.2" xlink:href="#Dégradé_sans_nom_12"/><radialGradient id="Dégradé_sans_nom_12-42" cx="555.94" cy="202.85" fx="555.94" fy="202.85" r="1.2" xlink:href="#Dégradé_sans_nom_12"/><radialGradient id="Dégradé_sans_nom_12-43" cx="541.25" cy="324.88" fx="541.25" fy="324.88" r="1.2" xlink:href="#Dégradé_sans_nom_12"/><radialGradient id="Dégradé_sans_nom_12-44" cx="510.7" cy="320.37" fx="510.7" fy="320.37" r="1.2" xlink:href="#Dégradé_sans_nom_12"/><radialGradient id="Dégradé_sans_nom_12-45" cx="525.01" cy="370.66" fx="525.01" fy="370.66" r="1.2" xlink:href="#Dégradé_sans_nom_12"/><radialGradient id="Dégradé_sans_nom_12-46" cx="508.79" cy="371.49" fx="508.79" fy="371.49" r="1.2" xlink:href="#Dégradé_sans_nom_12"/><radialGradient id="Dégradé_sans_nom_12-47" cx="478.94" cy="429.56" fx="478.94" fy="429.56" r="1.2" xlink:href="#Dégradé_sans_nom_12"/><radialGradient id="Dégradé_sans_nom_12-48" cx="530.26" cy="473.63" fx="530.26" fy="473.63" r="1.2" xlink:href="#Dégradé_sans_nom_12"/><radialGradient id="Dégradé_sans_nom_12-49" cx="527.57" cy="386.33" fx="527.57" fy="386.33" r="2.4" xlink:href="#Dégradé_sans_nom_12"/><radialGradient id="Dégradé_sans_nom_12-50" cx="512.57" cy="360.14" fx="512.57" fy="360.14" r="2.4" xlink:href="#Dégradé_sans_nom_12"/><radialGradient id="Dégradé_sans_nom_12-51" cx="486.1" cy="436.52" fx="486.1" fy="436.52" r="2.4" xlink:href="#Dégradé_sans_nom_12"/><radialGradient id="Dégradé_sans_nom_12-52" cx="467.51" cy="448.7" fx="467.51" fy="448.7" r="2.4" xlink:href="#Dégradé_sans_nom_12"/><radialGradient id="Dégradé_sans_nom_12-53" cx="607.16" cy="263.52" fx="607.16" fy="263.52" r="2.4" xlink:href="#Dégradé_sans_nom_12"/><radialGradient id="Dégradé_sans_nom_12-54" cx="558.34" cy="313.13" fx="558.34" fy="313.13" r="2.4" xlink:href="#Dégradé_sans_nom_12"/><radialGradient id="Dégradé_sans_nom_12-55" cx="538.78" cy="308.75" fx="538.78" fy="308.75" r="2.4" xlink:href="#Dégradé_sans_nom_12"/><radialGradient id="Dégradé_sans_nom_12-56" cx="643.45" cy="272.06" fx="643.45" fy="272.06" r="2.4" xlink:href="#Dégradé_sans_nom_12"/><radialGradient id="Dégradé_sans_nom_12-57" cx="242.6" cy="301.21" fx="242.6" fy="301.21" r="1.2" xlink:href="#Dégradé_sans_nom_12"/><radialGradient id="Dégradé_sans_nom_12-58" cx="337.25" cy="404.02" fx="337.25" fy="404.02" r="1.2" xlink:href="#Dégradé_sans_nom_12"/><radialGradient id="Dégradé_sans_nom_12-59" cx="303.51" cy="403.59" fx="303.51" fy="403.59" r="1.2" xlink:href="#Dégradé_sans_nom_12"/><radialGradient id="Dégradé_sans_nom_12-60" cx="279.43" cy="255.35" fx="279.43" fy="255.35" r="1.2" xlink:href="#Dégradé_sans_nom_12"/><radialGradient id="Dégradé_sans_nom_12-61" cx="287.95" cy="217.74" fx="287.95" fy="217.74" r="1.2" xlink:href="#Dégradé_sans_nom_12"/><radialGradient id="Dégradé_sans_nom_12-62" cx="360.97" cy="188.77" fx="360.97" fy="188.77" r="1.2" xlink:href="#Dégradé_sans_nom_12"/><radialGradient id="Dégradé_sans_nom_12-63" cx="351.61" cy="173.59" fx="351.61" fy="173.59" r="1.2" xlink:href="#Dégradé_sans_nom_12"/><radialGradient id="Dégradé_sans_nom_12-64" cx="229.15" cy="163.12" fx="229.15" fy="163.12" r="1.2" xlink:href="#Dégradé_sans_nom_12"/><radialGradient id="Dégradé_sans_nom_12-65" cx="268.39" cy="466.25" fx="268.39" fy="466.25" r="1.2" xlink:href="#Dégradé_sans_nom_12"/><radialGradient id="Dégradé_sans_nom_12-66" cx="271.38" cy="446.05" fx="271.38" fy="446.05" r="1.2" xlink:href="#Dégradé_sans_nom_12"/><radialGradient id="Dégradé_sans_nom_12-67" cx="488.78" cy="379.91" fx="488.78" fy="379.91" r="1.2" xlink:href="#Dégradé_sans_nom_12"/><radialGradient id="Dégradé_sans_nom_12-68" cx="494.57" cy="359.84" fx="494.57" fy="359.84" r="1.2" xlink:href="#Dégradé_sans_nom_12"/><radialGradient id="Dégradé_sans_nom_12-69" cx="473.12" cy="369.41" fx="473.12" fy="369.41" r="1.2" xlink:href="#Dégradé_sans_nom_12"/><radialGradient id="Dégradé_sans_nom_12-70" cx="484.25" cy="307.52" fx="484.25" fy="307.52" r="1.2" xlink:href="#Dégradé_sans_nom_12"/><radialGradient id="Dégradé_sans_nom_12-71" cx="434.77" cy="237.35" fx="434.77" fy="237.35" r="1.2" xlink:href="#Dégradé_sans_nom_12"/><radialGradient id="Dégradé_sans_nom_12-72" cx="412.96" cy="239.2" fx="412.96" fy="239.2" r="1.2" xlink:href="#Dégradé_sans_nom_12"/><radialGradient id="Dégradé_sans_nom_12-73" cx="418.59" cy="222.62" fx="418.59" fy="222.62" r="1.2" xlink:href="#Dégradé_sans_nom_12"/><radialGradient id="Dégradé_sans_nom_12-74" cx="347.37" cy="423.46" fx="347.37" fy="423.46" r="1.2" xlink:href="#Dégradé_sans_nom_12"/><radialGradient id="Dégradé_sans_nom_12-75" cx="201.63" cy="354.96" fx="201.63" fy="354.96" r="2.4" xlink:href="#Dégradé_sans_nom_12"/><radialGradient id="Dégradé_sans_nom_12-76" cx="292.75" cy="226.87" fx="292.75" fy="226.87" r="2.4" xlink:href="#Dégradé_sans_nom_12"/><radialGradient id="Dégradé_sans_nom_12-77" cx="241.48" cy="179.79" fx="241.48" fy="179.79" r="2.4" xlink:href="#Dégradé_sans_nom_12"/><radialGradient id="Dégradé_sans_nom_12-78" cx="245.19" cy="160.1" fx="245.19" fy="160.1" r="2.4" xlink:href="#Dégradé_sans_nom_12"/><radialGradient id="Dégradé_sans_nom_12-79" cx="472.99" cy="295.51" fx="472.99" fy="295.51" r="2.4" xlink:href="#Dégradé_sans_nom_12"/><radialGradient id="Dégradé_sans_nom_12-80" cx="474.3" cy="381.81" fx="474.3" fy="381.81" r="2.4" xlink:href="#Dégradé_sans_nom_12"/><radialGradient id="Dégradé_sans_nom_12-81" cx="347.46" cy="414.82" fx="347.46" fy="414.82" r="2.4" xlink:href="#Dégradé_sans_nom_12"/><radialGradient id="Dégradé_sans_nom_12-82" cx="283.3" cy="454.55" fx="283.3" fy="454.55" r="2.4" xlink:href="#Dégradé_sans_nom_12"/><radialGradient id="Dégradé_sans_nom_12-83" cx="406.03" cy="231.29" fx="406.03" fy="231.29" r="2.4" xlink:href="#Dégradé_sans_nom_12"/><radialGradient id="Dégradé_sans_nom_12-84" cx="225.62" cy="424.21" fx="225.62" fy="424.21" r="2.4" xlink:href="#Dégradé_sans_nom_12"/><radialGradient id="Dégradé_sans_nom_12-85" cx="237.41" cy="349.83" fx="237.41" fy="349.83" r="2.4" xlink:href="#Dégradé_sans_nom_12"/><radialGradient id="Dégradé_sans_nom_12-86" cx="285.46" cy="263.43" fx="285.46" fy="263.43" r="2.4" xlink:href="#Dégradé_sans_nom_12"/></defs><g class="cls-28"><g id="Calque_1"><circle class="cls-6" cx="421.86" cy="313.13" r="266.84" transform="translate(-97.86 390.01) rotate(-45)"/><path class="cls-69" d="M668.31,314.03c0,48.63-14.08,93.97-38.38,132.18-1.26,2-2.55,3.97-3.88,5.93-3.7,5.46-7.6,10.76-11.71,15.89h0s-.01,0-.01,0c-.7,.88-1.41,1.75-2.13,2.62-5.01,6.11-10.33,11.97-15.92,17.57-2.39,2.4-4.83,4.75-7.32,7.05-1.66,1.53-3.34,3.04-5.04,4.53-5.1,4.46-10.39,8.71-15.85,12.75-1.82,1.35-3.66,2.67-5.52,3.96-2.79,1.94-5.62,3.83-8.48,5.66-11.48,7.31-23.61,13.71-36.27,19.08-1.06,.45-2.12,.89-3.18,1.32-2.12,.86-4.26,1.7-6.42,2.51-1.08,.41-2.16,.8-3.24,1.19-3.26,1.16-6.54,2.26-9.86,3.3-1.1,.35-2.21,.68-3.32,1.01-4.45,1.31-8.95,2.51-13.5,3.58-3.41,.8-6.85,1.53-10.31,2.19-2.31,.43-4.63,.84-6.96,1.22-3.5,.56-7.02,1.04-10.56,1.46-3.55,.41-7.12,.75-10.71,1.01-5.98,.43-12.02,.65-18.11,.65s-12.13-.22-18.11-.65c-3.59-.26-7.16-.6-10.7-1.01-3.54-.42-7.07-.9-10.56-1.46-2.33-.38-4.65-.79-6.96-1.22-3.47-.66-6.9-1.39-10.31-2.19-4.55-1.07-9.05-2.27-13.5-3.58-1.11-.33-2.22-.66-3.32-1.01-3.32-1.04-6.6-2.14-9.86-3.3-1.08-.39-2.16-.78-3.24-1.19-2.16-.81-4.3-1.65-6.42-2.51-1.06-.43-2.12-.87-3.18-1.32-12.66-5.37-24.79-11.77-36.27-19.08-2.86-1.83-5.69-3.72-8.48-5.66-1.86-1.29-3.7-2.61-5.52-3.96-5.46-4.04-10.75-8.29-15.85-12.75-1.7-1.49-3.38-3-5.04-4.53-2.49-2.3-4.93-4.65-7.32-7.05-5.59-5.6-10.91-11.46-15.92-17.57-.72-.87-1.43-1.74-2.13-2.62h-.01c-5.58-6.98-10.78-14.27-15.59-21.83-24.3-38.21-38.38-83.55-38.38-132.18s13.55-92.29,37.02-130.04c29.36-47.23,74.22-83.8,127.48-102.61,25.7-9.08,53.36-14.02,82.17-14.02,42.02,0,81.58,10.5,116.21,29.03,3.87,2.07,7.68,4.24,11.42,6.51,5.25,3.18,10.37,6.55,15.35,10.1,21.91,15.6,41.15,34.7,56.93,56.47,29.42,40.62,46.77,90.56,46.77,144.56Z"/><circle class="cls-34" cx="413.64" cy="315.49" r="174.56"/><g><g><path class="cls-22" d="M370.56,103.78c1.57,0,1.57-2.44,0-2.44s-1.57,2.44,0,2.44h0Z"/><path class="cls-18" d="M335.77,151.21c1.57,0,1.57-2.44,0-2.44s-1.57,2.44,0,2.44h0Z"/><path class="cls-48" d="M328.92,189.16c1.57,0,1.57-2.44,0-2.44s-1.57,2.44,0,2.44h0Z"/><path class="cls-107" d="M257.24,221.31c1.57,0,1.57-2.44,0-2.44s-1.57,2.44,0,2.44h0Z"/><path class="cls-43" d="M267.26,236.06c1.57,0,1.57-2.44,0-2.44s-1.57,2.44,0,2.44h0Z"/><path class="cls-11" d="M390.06,241.14c1.57,0,1.57-2.44,0-2.44s-1.57,2.44,0,2.44h0Z"/><path class="cls-76" d="M387.96,271.95c1.57,0,1.57-2.44,0-2.44s-1.57,2.44,0,2.44h0Z"/><path class="cls-21" d="M436.97,253.74c1.57,0,1.57-2.44,0-2.44s-1.57,2.44,0,2.44h0Z"/><path class="cls-14" d="M439.08,269.85c1.57,0,1.57-2.44,0-2.44s-1.57,2.44,0,2.44h0Z"/><path class="cls-25" d="M499.3,295.06c1.57,0,1.57-2.44,0-2.44s-1.57,2.44,0,2.44h0Z"/><path class="cls-57" d="M516.8,98.29c1.57,0,1.57-2.44,0-2.44s-1.57,2.44,0,2.44h0Z"/><path class="cls-94" d="M539.21,240.44c1.57,0,1.57-2.44,0-2.44s-1.57,2.44,0,2.44h0Z"/></g><g class="cls-16"><path class="cls-59" d="M452.4,251.18c3.14,0,3.14-4.88,0-4.88s-3.14,4.88,0,4.88h0Z"/><path class="cls-108" d="M427.46,268.19c3.14,0,3.14-4.88,0-4.88s-3.14,4.88,0,4.88h0Z"/><path class="cls-1" d="M534.02,185.43c3.14,0,3.14-4.88,0-4.88s-3.14,4.88,0,4.88h0Z"/><path class="cls-47" d="M530.05,239.28c3.14,0,3.14-4.88,0-4.88s-3.14,4.88,0,4.88h0Z"/><path class="cls-19" d="M505.68,288.59c3.14,0,3.14-4.88,0-4.88s-3.14,4.88,0,4.88h0Z"/><path class="cls-15" d="M519.28,306.17c3.14,0,3.14-4.88,0-4.88s-3.14,4.88,0,4.88h0Z"/><path class="cls-105" d="M323.72,181.46c3.14,0,3.14-4.88,0-4.88s-3.14,4.88,0,4.88h0Z"/><path class="cls-26" d="M377.01,226.24c3.14,0,3.14-4.88,0-4.88s-3.14,4.88,0,4.88h0Z"/><path class="cls-62" d="M374.17,246.08c3.14,0,3.14-4.88,0-4.88s-3.14,4.88,0,4.88h0Z"/><path class="cls-3" d="M329.39,144.62c3.14,0,3.14-4.88,0-4.88s-3.14,4.88,0,4.88h0Z"/></g></g><g><g><path class="cls-33" d="M631.97,212.44c1.57,0,1.57-2.44,0-2.44s-1.57,2.44,0,2.44h0Z"/><path class="cls-30" d="M625.12,250.39c1.57,0,1.57-2.44,0-2.44s-1.57,2.44,0,2.44h0Z"/><path class="cls-8" d="M553.45,282.54c1.57,0,1.57-2.44,0-2.44s-1.57,2.44,0,2.44h0Z"/><path class="cls-27" d="M563.46,297.29c1.57,0,1.57-2.44,0-2.44s-1.57,2.44,0,2.44h0Z"/><path class="cls-85" d="M417.36,97.19c1.57,0,1.57-2.44,0-2.44s-1.57,2.44,0,2.44h0Z"/><path class="cls-46" d="M412.46,117.5c1.57,0,1.57-2.44,0-2.44s-1.57,2.44,0,2.44h0Z"/><path class="cls-70" d="M433.47,107c1.57,0,1.57-2.44,0-2.44s-1.57,2.44,0,2.44h0Z"/><path class="cls-65" d="M425.06,169.32c1.57,0,1.57-2.44,0-2.44s-1.57,2.44,0,2.44h0Z"/><path class="cls-95" d="M477.58,237.24c1.57,0,1.57-2.44,0-2.44s-1.57,2.44,0,2.44h0Z"/><path class="cls-99" d="M499.29,234.44c1.57,0,1.57-2.44,0-2.44s-1.57,2.44,0,2.44h0Z"/><path class="cls-52" d="M494.39,251.25c1.57,0,1.57-2.44,0-2.44s-1.57,2.44,0,2.44h0Z"/></g><g class="cls-16"><path class="cls-81" d="M619.93,242.69c3.14,0,3.14-4.88,0-4.88s-3.14,4.88,0,4.88h0Z"/><path class="cls-58" d="M436.84,182.04c3.14,0,3.14-4.88,0-4.88s-3.14,4.88,0,4.88h0Z"/><path class="cls-78" d="M431.74,95.88c3.14,0,3.14-4.88,0-4.88s-3.14,4.88,0,4.88h0Z"/><path class="cls-79" d="M506.56,243.26c3.14,0,3.14-4.88,0-4.88s-3.14,4.88,0,4.88h0Z"/><path class="cls-97" d="M625.59,205.85c3.14,0,3.14-4.88,0-4.88s-3.14,4.88,0,4.88h0Z"/></g></g><g><g><path class="cls-82" d="M633.94,277.71c-.12,1.56,2.31,1.76,2.43,.19,.12-1.56-2.31-1.76-2.43-.19h0Z"/><path class="cls-72" d="M596.65,267.91c-.12,1.56,2.31,1.76,2.43,.19,.12-1.56-2.31-1.76-2.43-.19h0Z"/><path class="cls-66" d="M570.22,193.93c-.12,1.56,2.31,1.76,2.43,.19,.12-1.56-2.31-1.76-2.43-.19h0Z"/><path class="cls-102" d="M554.72,202.76c-.12,1.56,2.31,1.76,2.43,.19,.12-1.56-2.31-1.76-2.43-.19h0Z"/><path class="cls-45" d="M540.04,324.78c-.12,1.56,2.31,1.76,2.43,.19,.12-1.56-2.31-1.76-2.43-.19h0Z"/><path class="cls-84" d="M509.48,320.27c-.12,1.56,2.31,1.76,2.43,.19,.12-1.56-2.31-1.76-2.43-.19h0Z"/><path class="cls-73" d="M523.79,370.57c-.12,1.56,2.31,1.76,2.43,.19,.12-1.56-2.31-1.76-2.43-.19h0Z"/><path class="cls-13" d="M507.57,371.4c-.12,1.56,2.31,1.76,2.43,.19,.12-1.56-2.31-1.76-2.43-.19h0Z"/><path class="cls-7" d="M477.72,429.46c-.12,1.56,2.31,1.76,2.43,.19,.12-1.56-2.31-1.76-2.43-.19h0Z"/><path class="cls-93" d="M529.05,473.53c-.12,1.56,2.31,1.76,2.43,.19,.12-1.56-2.31-1.76-2.43-.19h0Z"/></g><g class="cls-16"><path class="cls-23" d="M525.14,386.14c-.25,3.13,4.62,3.52,4.86,.38,.25-3.13-4.62-3.52-4.86-.38h0Z"/><path class="cls-104" d="M510.14,359.94c-.25,3.13,4.62,3.52,4.86,.38,.25-3.13-4.62-3.52-4.86-.38h0Z"/><path class="cls-91" d="M483.67,436.33c-.25,3.13,4.62,3.52,4.86,.38,.25-3.13-4.62-3.52-4.86-.38h0Z"/><path class="cls-55" d="M465.08,448.51c-.25,3.13,4.62,3.52,4.86,.38,.25-3.13-4.62-3.52-4.86-.38h0Z"/><path class="cls-98" d="M604.73,263.33c-.25,3.13,4.62,3.52,4.86,.38,.25-3.13-4.62-3.52-4.86-.38h0Z"/><path class="cls-68" d="M555.91,312.94c-.25,3.13,4.62,3.52,4.86,.38,.25-3.13-4.62-3.52-4.86-.38h0Z"/><path class="cls-31" d="M536.35,308.56c-.25,3.13,4.62,3.52,4.86,.38,.25-3.13-4.62-3.52-4.86-.38h0Z"/><path class="cls-36" d="M641.02,271.87c-.25,3.13,4.62,3.52,4.86,.38,.25-3.13-4.62-3.52-4.86-.38h0Z"/></g></g><g><g><path class="cls-29" d="M242.65,299.99c-1.57-.07-1.68,2.37-.11,2.44,1.57,.07,1.68-2.37,.11-2.44h0Z"/><path class="cls-17" d="M337.31,402.8c-1.57-.07-1.68,2.37-.11,2.44,1.57,.07,1.68-2.37,.11-2.44h0Z"/><path class="cls-103" d="M303.56,402.37c-1.57-.07-1.68,2.37-.11,2.44,1.57,.07,1.68-2.37,.11-2.44h0Z"/><path class="cls-41" d="M279.49,254.13c-1.57-.07-1.68,2.37-.11,2.44,1.57,.07,1.68-2.37,.11-2.44h0Z"/><path class="cls-56" d="M288,216.52c-1.57-.07-1.68,2.37-.11,2.44,1.57,.07,1.68-2.37,.11-2.44h0Z"/><path class="cls-35" d="M361.02,187.55c-1.57-.07-1.68,2.37-.11,2.44,1.57,.07,1.68-2.37,.11-2.44h0Z"/><path class="cls-24" d="M351.66,172.37c-1.57-.07-1.68,2.37-.11,2.44,1.57,.07,1.68-2.37,.11-2.44h0Z"/><path class="cls-49" d="M229.21,161.9c-1.57-.07-1.68,2.37-.11,2.44,1.57,.07,1.68-2.37,.11-2.44h0Z"/><path class="cls-10" d="M268.44,465.03c-1.57-.07-1.68,2.37-.11,2.44,1.57,.07,1.68-2.37,.11-2.44h0Z"/><path class="cls-60" d="M271.43,444.83c-1.57-.07-1.68,2.37-.11,2.44,1.57,.07,1.68-2.37,.11-2.44h0Z"/><path class="cls-90" d="M488.83,378.7c-1.57-.07-1.68,2.37-.11,2.44,1.57,.07,1.68-2.37,.11-2.44h0Z"/><path class="cls-9" d="M494.62,358.62c-1.57-.07-1.68,2.37-.11,2.44,1.57,.07,1.68-2.37,.11-2.44h0Z"/><path class="cls-61" d="M473.17,368.19c-1.57-.07-1.68,2.37-.11,2.44,1.57,.07,1.68-2.37,.11-2.44h0Z"/><path class="cls-40" d="M484.3,306.3c-1.57-.07-1.68,2.37-.11,2.44,1.57,.07,1.68-2.37,.11-2.44h0Z"/><path class="cls-86" d="M434.82,236.13c-1.57-.07-1.68,2.37-.11,2.44,1.57,.07,1.68-2.37,.11-2.44h0Z"/><path class="cls-96" d="M413.01,237.98c-1.57-.07-1.68,2.37-.11,2.44,1.57,.07,1.68-2.37,.11-2.44h0Z"/><path class="cls-39" d="M418.65,221.4c-1.57-.07-1.68,2.37-.11,2.44,1.57,.07,1.68-2.37,.11-2.44h0Z"/><path class="cls-101" d="M347.43,422.24c-1.57-.07-1.68,2.37-.11,2.44,1.57,.07,1.68-2.37,.11-2.44h0Z"/></g><g class="cls-16"><path class="cls-71" d="M201.74,352.52c-3.13-.14-3.35,4.73-.21,4.87,3.13,.14,3.35-4.73,.21-4.87h0Z"/><path class="cls-38" d="M292.85,224.44c-3.13-.14-3.35,4.73-.21,4.87,3.13,.14,3.35-4.73,.21-4.87h0Z"/><path class="cls-88" d="M241.59,177.36c-3.13-.14-3.35,4.73-.21,4.87,3.13,.14,3.35-4.73,.21-4.87h0Z"/><path class="cls-106" d="M245.29,157.66c-3.13-.14-3.35,4.73-.21,4.87,3.13,.14,3.35-4.73,.21-4.87h0Z"/><path class="cls-20" d="M473.1,293.08c-3.13-.14-3.35,4.73-.21,4.87,3.13,.14,3.35-4.73,.21-4.87h0Z"/><path class="cls-51" d="M474.41,379.38c-3.13-.14-3.35,4.73-.21,4.87,3.13,.14,3.35-4.73,.21-4.87h0Z"/><path class="cls-37" d="M347.57,412.38c-3.13-.14-3.35,4.73-.21,4.87,3.13,.14,3.35-4.73,.21-4.87h0Z"/><path class="cls-77" d="M283.41,452.11c-3.13-.14-3.35,4.73-.21,4.87,3.13,.14,3.35-4.73,.21-4.87h0Z"/><path class="cls-89" d="M406.14,228.85c-3.13-.14-3.35,4.73-.21,4.87,3.13,.14,3.35-4.73,.21-4.87h0Z"/><path class="cls-64" d="M225.73,421.77c-3.13-.14-3.35,4.73-.21,4.87,3.14,.14,3.35-4.73,.21-4.87h0Z"/><path class="cls-75" d="M237.51,347.39c-3.13-.14-3.35,4.73-.21,4.87,3.13,.14,3.35-4.73,.21-4.87h0Z"/><path class="cls-42" d="M285.57,261c-3.13-.14-3.35,4.73-.21,4.87,3.13,.14,3.35-4.73,.21-4.87h0Z"/></g></g><path class="cls-5" d="M491.33,75.45c-24.89,21.55-55.73,37.19-88.61,44.48-2.66,.59-5.35,1.13-8.05,1.66-21.19,4.09-43.35,6.79-60.16,19.33-31.86,23.76-36.04,76.56-75.32,86.09-23.51,5.71-46.05-8.4-68.52-16.17-1.24-.43-2.49-.83-3.75-1.21,21.54-50.42,59.77-92.78,108.85-119.09,23.68-12.7,49.9-21.66,77.97-25.97,40.95-6.29,81.07-1.99,117.59,10.88Z"/><path class="cls-5" d="M503.43,80.08c-22.36,21.88-37.97,53.25-69.49,54.64-14.37,.63-27.04-5.53-39.29-13.14-8.35-5.19-16.49-11.07-24.83-15.91-21.81-12.68-48.54-17.61-74.07-15.13,23.68-12.7,49.9-21.66,77.97-25.97,40.95-6.29,81.07-1.99,117.59,10.88,4.08,1.44,8.12,2.98,12.1,4.63Z"/><path class="cls-80" d="M563.86,286.67l-.28,.18c.25-.36,.5-.72,.74-1.08,.05,.17,.09,.34,.14,.51l-.6,.39h0Z"/><polygon class="cls-54" points="563.86 286.67 563.86 286.67 563.86 286.67 563.86 286.67"/><line class="cls-74" x1="552.3" y1="294.21" x2="551.34" y2="294.84"/><path class="cls-67" d="M404.15,407.81l-.11-.15s.05-.03,.07-.05c.02,.06,.03,.13,.04,.2Z"/><polygon class="cls-4" points="403.97 407.72 404.04 407.67 404.52 407.87 404.19 408.2 403.97 407.72"/><rect class="cls-53" x="533.37" y="337.09" width="6.58" height="35.5" transform="translate(-76.66 549.13) rotate(-51.05)"/><path class="cls-32" d="M418.79,236.97c1.29-1.6,3.64-1.85,5.24-.56h-.01c-1.6-1.3-3.95-1.05-5.24,.55l-9.25,11.45h.01s9.25-11.44,9.25-11.44Z"/><path class="cls-53" d="M524.92,341.12l10.74-13.29c1.4-1.73,1.13-4.26-.6-5.66l-4.68-3.78-34.82,43.08,4.88,3.95c1.61,1.3,3.98,1.05,5.29-.56l10.91-13.5,4.14-5.12,4.14-5.12Z"/><path class="cls-100" d="M582.48,326.38l-29.95,37.05-4.14,5.12-27.61-22.31-4.14,5.12,27.61,22.31-29.95,37.05,84.34,68.17,68.17-84.34-84.34-68.17Zm33.59,116.1l-18.81,23.27-23.27-18.81-23.27-18.81-23.27-18.81,18.81-23.27,18.81-23.27,18.81-23.27,23.27,18.81,23.27,18.81,23.27,18.81-18.81,23.27-18.81,23.27Z"/><polygon class="cls-63" points="573.99 446.95 616.06 442.49 592.79 423.68 573.99 446.95"/><polygon class="cls-50" points="597.26 465.76 616.06 442.49 573.99 446.95 597.26 465.76"/><polygon class="cls-63" points="569.52 404.87 550.72 428.14 592.79 423.68 569.52 404.87"/><polygon class="cls-50" points="550.72 428.14 573.99 446.95 592.79 423.68 550.72 428.14"/><polygon class="cls-63" points="546.25 386.06 527.45 409.33 569.52 404.87 546.25 386.06"/><polygon class="cls-50" points="527.45 409.33 550.72 428.14 569.52 404.87 527.45 409.33"/><polygon class="cls-63" points="592.79 423.68 634.87 419.22 611.6 400.41 592.79 423.68"/><polygon class="cls-50" points="616.06 442.49 634.87 419.22 592.79 423.68 616.06 442.49"/><polygon class="cls-63" points="569.52 404.87 611.6 400.41 588.33 381.6 569.52 404.87"/><polygon class="cls-50" points="592.79 423.68 611.6 400.41 569.52 404.87 592.79 423.68"/><polygon class="cls-63" points="588.33 381.6 565.06 362.79 546.25 386.06 588.33 381.6"/><polygon class="cls-50" points="588.33 381.6 546.25 386.06 569.52 404.87 588.33 381.6"/><polygon class="cls-63" points="653.68 395.95 630.41 377.14 611.6 400.41 653.68 395.95"/><polygon class="cls-50" points="611.6 400.41 634.87 419.22 653.68 395.95 611.6 400.41"/><polygon class="cls-63" points="630.41 377.14 607.14 358.33 588.33 381.6 630.41 377.14"/><polygon class="cls-50" points="611.6 400.41 630.41 377.14 588.33 381.6 611.6 400.41"/><polygon class="cls-63" points="583.87 339.52 565.06 362.79 607.14 358.33 583.87 339.52"/><polygon class="cls-50" points="607.14 358.33 565.06 362.79 588.33 381.6 607.14 358.33"/><path class="cls-100" d="M375.76,230.75l4.14-5.12,29.95-37.05-84.34-68.17-68.17,84.34,84.34,68.17,29.95-37.05,27.61,22.31,4.14-5.12-27.61-22.31Zm-16.67,5.76l-18.81,23.27-23.27-18.81-23.27-18.81-23.27-18.81,18.81-23.27,18.81-23.27,18.81-23.27,23.27,18.81,23.27,18.81,23.27,18.81-18.81,23.27-18.81,23.27Z"/><path class="cls-53" d="M428.58,237.83h0s-4.68-3.78-4.68-3.78c-1.73-1.4-4.26-1.13-5.66,.6l-10.74,13.29-27.61-22.31-4.14,5.12,27.61,22.31-4.14,5.12-10.91,13.5c-1.3,1.61-1.05,3.98,.56,5.29l4.88,3.95h0s34.82-43.07,34.82-43.07Z"/><polygon class="cls-50" points="289.28 180.08 293.74 222.16 312.55 198.89 289.28 180.08"/><polygon class="cls-63" points="270.47 203.35 293.74 222.16 289.28 180.08 270.47 203.35"/><polygon class="cls-50" points="312.55 198.89 317.01 240.97 335.82 217.7 312.55 198.89"/><polygon class="cls-63" points="293.74 222.16 317.01 240.97 312.55 198.89 293.74 222.16"/><polygon class="cls-50" points="340.28 259.78 359.09 236.51 335.82 217.7 340.28 259.78"/><polygon class="cls-63" points="317.01 240.97 340.28 259.78 335.82 217.7 317.01 240.97"/><polygon class="cls-50" points="331.36 175.62 308.09 156.81 312.55 198.89 331.36 175.62"/><polygon class="cls-63" points="308.09 156.81 289.28 180.08 312.55 198.89 308.09 156.81"/><polygon class="cls-50" points="335.82 217.7 354.63 194.43 331.36 175.62 335.82 217.7"/><polygon class="cls-63" points="312.55 198.89 335.82 217.7 331.36 175.62 312.55 198.89"/><polygon class="cls-50" points="377.9 213.24 354.63 194.43 359.09 236.51 377.9 213.24"/><polygon class="cls-63" points="354.63 194.43 335.82 217.7 359.09 236.51 354.63 194.43"/><polygon class="cls-50" points="350.17 152.35 326.9 133.54 331.36 175.62 350.17 152.35"/><polygon class="cls-63" points="326.9 133.54 308.09 156.81 331.36 175.62 326.9 133.54"/><polygon class="cls-50" points="373.44 171.16 350.17 152.35 354.63 194.43 373.44 171.16"/><polygon class="cls-63" points="354.63 194.43 350.17 152.35 331.36 175.62 354.63 194.43"/><polygon class="cls-50" points="396.71 189.97 373.44 171.16 377.9 213.24 396.71 189.97"/><polygon class="cls-63" points="377.9 213.24 373.44 171.16 354.63 194.43 377.9 213.24"/><g><path class="cls-100" d="M591.77,473.14l37.05,29.95,10.24,8.28,37.05,29.94,68.17-84.34-84.34-68.17-68.17,84.34Zm116.1-33.58l23.27,18.8-18.81,23.27-18.8,23.27-18.81,23.27-23.27-18.8-23.27-18.81-23.27-18.81,18.8-23.27,18.81-23.27,18.81-23.27,23.27,18.81,23.27,18.81Z"/><polygon class="cls-63" points="712.34 481.63 707.87 439.55 689.07 462.82 712.34 481.63"/><polygon class="cls-50" points="731.14 458.36 707.87 439.55 712.34 481.63 731.14 458.36"/><polygon class="cls-63" points="670.26 486.09 693.53 504.9 689.07 462.82 670.26 486.09"/><polygon class="cls-50" points="693.53 504.9 712.34 481.63 689.07 462.82 693.53 504.9"/><polygon class="cls-63" points="651.45 509.36 674.72 528.17 670.26 486.09 651.45 509.36"/><polygon class="cls-50" points="674.72 528.17 693.53 504.9 670.26 486.09 674.72 528.17"/><polygon class="cls-63" points="689.07 462.82 684.6 420.74 665.79 444.01 689.07 462.82"/><polygon class="cls-50" points="707.87 439.55 684.6 420.74 689.07 462.82 707.87 439.55"/><polygon class="cls-63" points="670.26 486.09 665.79 444.01 646.99 467.28 670.26 486.09"/><polygon class="cls-50" points="689.07 462.82 665.79 444.01 670.26 486.09 689.07 462.82"/><polygon class="cls-63" points="646.99 467.28 628.18 490.56 651.45 509.36 646.99 467.28"/><polygon class="cls-50" points="646.99 467.28 651.45 509.36 670.26 486.09 646.99 467.28"/><polygon class="cls-63" points="661.33 401.94 642.52 425.21 665.79 444.01 661.33 401.94"/><polygon class="cls-50" points="665.79 444.01 684.6 420.74 661.33 401.94 665.79 444.01"/><polygon class="cls-63" points="642.52 425.21 623.72 448.48 646.99 467.28 642.52 425.21"/><polygon class="cls-50" points="665.79 444.01 642.52 425.21 646.99 467.28 665.79 444.01"/><polygon class="cls-63" points="604.91 471.75 628.18 490.56 623.72 448.48 604.91 471.75"/><polygon class="cls-50" points="623.72 448.48 628.18 490.56 646.99 467.28 623.72 448.48"/></g><g><path class="cls-100" d="M248.19,57.73l-29.95,37.05-8.28,10.24-29.94,37.05,84.34,68.17,68.17-84.34L248.19,57.73Zm33.58,116.1l-18.8,23.27-23.27-18.81-23.27-18.8-23.27-18.81,18.8-23.27,18.81-23.27,18.81-23.27,23.27,18.8,23.27,18.81,23.27,18.81-18.81,23.27-18.81,23.27Z"/><polygon class="cls-63" points="239.7 178.3 281.78 173.83 258.51 155.03 239.7 178.3"/><polygon class="cls-50" points="262.97 197.1 281.78 173.83 239.7 178.3 262.97 197.1"/><polygon class="cls-63" points="235.24 136.22 216.43 159.49 258.51 155.03 235.24 136.22"/><polygon class="cls-50" points="216.43 159.49 239.7 178.3 258.51 155.03 216.43 159.49"/><polygon class="cls-63" points="211.97 117.41 193.16 140.68 235.24 136.22 211.97 117.41"/><polygon class="cls-50" points="193.16 140.68 216.43 159.49 235.24 136.22 193.16 140.68"/><polygon class="cls-63" points="258.51 155.03 300.59 150.56 277.32 131.76 258.51 155.03"/><polygon class="cls-50" points="281.78 173.83 300.59 150.56 258.51 155.03 281.78 173.83"/><polygon class="cls-63" points="235.24 136.22 277.32 131.76 254.05 112.95 235.24 136.22"/><polygon class="cls-50" points="258.51 155.03 277.32 131.76 235.24 136.22 258.51 155.03"/><polygon class="cls-63" points="254.05 112.95 230.78 94.14 211.97 117.41 254.05 112.95"/><polygon class="cls-50" points="254.05 112.95 211.97 117.41 235.24 136.22 254.05 112.95"/><polygon class="cls-63" points="319.4 127.29 296.12 108.49 277.32 131.76 319.4 127.29"/><polygon class="cls-50" points="277.32 131.76 300.59 150.56 319.4 127.29 277.32 131.76"/><polygon class="cls-63" points="296.12 108.49 272.85 89.68 254.05 112.95 296.12 108.49"/><polygon class="cls-50" points="277.32 131.76 296.12 108.49 254.05 112.95 277.32 131.76"/><polygon class="cls-63" points="249.58 70.87 230.78 94.14 272.85 89.68 249.58 70.87"/><polygon class="cls-50" points="272.85 89.68 230.78 94.14 254.05 112.95 272.85 89.68"/></g><rect class="cls-44" x="395.24" y="321.66" width="27.46" height="88.07" transform="translate(-132.72 452.67) rotate(-50.92)"/><polygon class="cls-53" points="562.87 168.26 570.59 174.53 547.24 203.31 539.51 197.03 562.87 168.26"/><rect class="cls-53" x="513.4" y="206.57" width="41.48" height="9.95" transform="translate(33.36 493.11) rotate(-50.95)"/><polygon class="cls-87" points="453.6 207.64 382.84 294.77 383.17 327.05 454.31 384.81 483.77 376.71 554.5 289.57 453.6 207.64"/><polygon class="cls-87" points="523.61 327.62 554.5 289.57 453.6 207.64 422.69 245.69 523.61 327.62"/><rect class="cls-87" x="488.12" y="191.2" width="19.54" height="129.98" transform="translate(-14.86 481.17) rotate(-50.92)"/><rect class="cls-44" x="515.38" y="175.44" width="11.37" height="104.43" transform="translate(15.9 488.7) rotate(-50.93)"/><path class="cls-53" d="M365.5,324.6c.49-.61,1.37-.7,1.99-.21l90.44,73.43c.6,.49,.7,1.39,.21,2l-5.37,6.62c-.5,.61-1.39,.7-2.01,.21l-90.43-73.43c-.61-.5-.7-1.39-.2-2l5.37-6.62Z"/><polygon class="cls-100" points="454.31 384.81 558.02 264.97 554.5 289.57 483.77 376.71 454.31 384.81"/><polygon class="cls-92" points="476.94 199.15 558.02 264.97 554.5 289.57 453.6 207.64 476.94 199.15"/><g><path class="cls-12" d="M633.58,160.39c.49,.11,.93,.23,1.34,.36-.4-.13-.85-.25-1.34-.36Z"/><path class="cls-12" d="M635.33,160.9c.3,.11,.57,.23,.8,.35-.24-.12-.51-.24-.8-.35Z"/><path class="cls-12" d="M637.21,162.04c.17,.22,.3,.44,.35,.68-.05-.24-.17-.47-.35-.68Z"/><path class="cls-12" d="M636.47,161.44c.21,.13,.38,.27,.53,.41-.15-.14-.32-.28-.53-.41Z"/><path class="cls-12" d="M672,163.31c.88,.93,1.72,1.84,2.54,2.73-.81-.89-1.66-1.79-2.54-2.73Z"/><path class="cls-12" d="M647.6,183.88c1.25,.22,2.46,.44,3.63,.66-1.17-.22-2.38-.44-3.63-.66Z"/><path class="cls-12" d="M615.39,159.59c2.64-.09,5.08-.13,7.29-.11-2.21-.02-4.65,.02-7.29,.11Z"/><path class="cls-12" d="M662.73,153.85c3.39,3.35,6.49,6.51,9.26,9.45-2.77-2.94-5.88-6.11-9.26-9.45Z"/><path class="cls-12" d="M622.92,159.48c.96,.01,1.88,.03,2.75,.07-.88-.03-1.79-.05-2.75-.07Z"/><path class="cls-12" d="M626.35,159.58c.72,.03,1.4,.07,2.06,.12-.65-.05-1.34-.09-2.06-.12Z"/><path class="cls-12" d="M629.08,159.75c.67,.06,1.3,.12,1.9,.2-.6-.08-1.23-.14-1.9-.2Z"/><path class="cls-12" d="M631.39,160c.71,.1,1.37,.21,1.97,.33-.6-.13-1.26-.24-1.97-.33Z"/><path class="cls-44" d="M618.52,93.79l6.73,5.62,22.55-27.03c-1.16-.97-2.02-2.15-2.61-3.43l-40.93,38.14h0l14.27-13.3Z"/><path class="cls-53" d="M625.25,99.41l6.73,5.62-10.52,16.43h0l30.18-47.13c-1.37-.35-2.69-.99-3.84-1.96l-22.55,27.03Z"/><path class="cls-44" d="M618.52,93.79l-14.27,13.3c2.85,2.3,5.74,4.68,8.66,7.12l12.34-14.79-6.73-5.62Z"/><path class="cls-53" d="M625.25,99.41l-12.34,14.79c2.92,2.44,5.78,4.87,8.55,7.26l10.52-16.43-6.73-5.62Z"/><path class="cls-83" d="M651.64,74.33c3.55,.91,7.46-.21,9.97-3.22,3.47-4.17,2.93-10.35-1.23-13.82-4.15-3.47-10.33-2.9-13.81,1.26-2.51,3.01-2.91,7.06-1.38,10.39,.59,1.29,1.45,2.47,2.61,3.43s2.47,1.61,3.84,1.96Z"/><path class="cls-87" d="M659.16,150.37c-37.66,35.06-92.32,43.72-138.4,23.66-.78-1.25-1.53-2.49-2.24-3.76-20.42-36.21-17.59-82.76,10.62-116.57l.03,.02s.03-.08,.06-.11c.26-.31,.66-.48,1.2-.53,7-.63,37.32,19.51,73.2,48.52,3.83,3.1,7.71,6.29,11.65,9.57,3.93,3.28,7.76,6.53,11.5,9.75,12.19,10.51,23.21,20.55,32.38,29.45Z"/><path class="cls-100" d="M520.76,174.03c.68,1.08,1.37,2.16,2.09,3.22,.08,.12,.16,.24,.24,.36,2.04,3,4.26,5.9,6.64,8.7,.24,.28,.47,.57,.72,.86,.55,.63,1.12,1.25,1.68,1.87,.53,.58,1.06,1.15,1.6,1.72,.5,.52,1,1.03,1.51,1.54,.69,.7,1.4,1.38,2.12,2.06,.42,.39,.83,.79,1.25,1.18,1.17,1.07,2.37,2.13,3.6,3.16,9.84,8.22,20.77,14.26,32.21,18.23,39.27,13.62,84.57,2.51,112.79-31.29l-.02-.02s.07-.04,.1-.08c.14-.16,.22-.37,.26-.61,.01-.07,.01-.16,.02-.24,.01-.18,.01-.37-.02-.58-.01-.11-.04-.22-.06-.33-.05-.23-.12-.47-.21-.73-.04-.12-.08-.23-.13-.36-.13-.34-.3-.7-.49-1.09-.03-.06-.05-.11-.08-.18-.24-.47-.53-.97-.86-1.5-.06-.1-.13-.2-.2-.31-.28-.44-.58-.9-.91-1.38-.11-.16-.22-.32-.33-.48-.33-.46-.68-.94-1.05-1.44-.12-.16-.23-.31-.35-.47-.46-.6-.95-1.23-1.47-1.88-.04-.05-.08-.11-.13-.16-1.2-1.49-2.57-3.1-4.08-4.81-.08-.09-.17-.19-.25-.28-.68-.77-1.39-1.56-2.13-2.37-.1-.11-.2-.21-.3-.32-.81-.89-1.66-1.79-2.54-2.73,0,0,0,0,0,0-2.77-2.94-5.88-6.11-9.26-9.45-.05-.04-.09-.09-.14-.13-1.11-1.1-2.26-2.22-3.43-3.36-37.66,35.06-92.33,43.72-138.4,23.67Z"/></g><g><polygon class="cls-87" points="381.04 485.66 430.87 424.47 347.3 356.43 297.48 417.63 381.04 485.66"/><rect class="cls-87" x="355.94" y="352.32" width="40.63" height="107.77" transform="translate(-176.3 441.52) rotate(-50.85)"/><rect class="cls-87" x="375.88" y="342.84" width="16.19" height="107.77" transform="translate(-166.11 443.97) rotate(-50.84)"/><polygon class="cls-87" points="366.67 349.42 433.81 404.07 430.87 424.47 347.3 356.43 366.67 349.42"/><polygon class="cls-92" points="305.62 424.26 372.91 479.03 353.6 492.18 296.67 445.83 305.62 424.26"/><polygon class="cls-44" points="300.18 448.68 350.1 489.33 342.17 499.07 292.23 458.42 300.18 448.68"/><polygon class="cls-100" points="433.81 404.07 372.91 479.03 381.04 485.66 432.3 424.57 433.81 404.07"/></g><g class="cls-2"><path class="cls-4" d="M490.4,301.66c.27-2.78-4.55-5.18-8.88-6.75-.46-7.01-3.5-13.5-8.61-18.35-6.08-5.76-14.34-8.46-22.66-7.4-.82,.1-1.62,.24-2.4,.41-4.14,.9-7.98,2.71-11.27,5.31-5.79-3.36-9.86-4.29-11.48-2.61-1.67,1.74-.36,6.08,3.69,12.23-.4,.81-.75,1.63-1.07,2.48-.3,.79-.55,1.6-.77,2.41-6.7,.95-10.52,2.75-10.74,5.09-.23,2.37,3.39,4.92,10.2,7.21,.14,.81,.32,1.61,.54,2.41,1.33,4.9,4,9.34,7.7,12.85,4.06,3.85,9.02,6.32,14.47,7.24,.69,.12,1.4,.21,2.11,.27,3.63,.33,7.25-.04,10.73-1.11,1.81-.55,3.56-1.3,5.22-2.22,0,0,0,0,0,0,2.63,1.54,5.74,3.08,8.21,3.5,1.47,.25,2.7,.09,3.47-.71,1.91-1.99-.3-6.76-2.69-10.65,1.51-2.03,2.72-4.25,3.61-6.59,4.76-.69,10.35-2.12,10.63-5.02Zm-9.01-1.55c.13-1.07,.19-2.15,.2-3.23,4.06,1.55,6.3,3.19,6.17,4.53-.13,1.39-2.8,2.59-7.33,3.33,.45-1.5,.77-3.04,.96-4.62Zm-6.44,14.67c2.19,3.69,2.91,6.33,1.98,7.3-.98,1.02-3.88,.27-7.99-2.03,1.82-1.19,3.51-2.58,5.02-4.17,.34-.36,.67-.73,.99-1.1Zm-45.17-32.11c-2.79-4.37-3.81-7.48-2.77-8.56,1.02-1.06,3.94-.31,8.07,2.03-.52,.47-1.02,.96-1.5,1.47-1.47,1.55-2.74,3.25-3.8,5.06Zm-.54,4.87c.19-.5,.4-1,.62-1.49,3.84,5.51,9.33,11.79,15.64,17.91-6.75-.95-12.96-2.26-17.68-3.74-.56-4.26-.08-8.66,1.42-12.68Zm-10.39,7.19c.14-1.46,2.92-2.7,7.65-3.42-.54,2.74-.67,5.56-.38,8.35-4.77-1.68-7.41-3.46-7.27-4.93Zm53.94,20.03c-1.61,1.7-3.43,3.16-5.41,4.36-4.68-2.85-10.35-7.23-16.19-12.51,.42,.04,.85,.09,1.27,.13,9.51,.92,18.47,.97,25.47,.16-1.21,2.88-2.94,5.53-5.14,7.85Zm-24.59-43.62c.73-.16,1.49-.29,2.26-.39,2.59-.33,5.18-.27,7.68,.15,5.07,.85,9.82,3.19,13.66,6.82,4.98,4.72,7.88,11.1,8.15,17.96,.06,1.4,0,2.82-.17,4.23-.21,1.74-.59,3.44-1.13,5.07-6.71,.84-16.09,.79-26-.17-1.3-.13-2.6-.27-3.88-.42-.5-.47-.99-.94-1.49-1.41-6.78-6.51-12.72-13.29-16.5-18.8,1.08-1.97,2.4-3.8,3.98-5.46,3.64-3.84,8.29-6.46,13.44-7.58Zm13.28,50.64c-3.28,1.01-6.69,1.36-10.11,1.04-5.9-.54-11.3-2.99-15.61-7.07-3.49-3.31-6-7.49-7.25-12.1-.13-.47-.24-.94-.34-1.41,3.91,1.2,8.57,2.26,13.61,3.1,1.99,.33,4.04,.63,6.12,.89,6.13,5.7,12.32,10.57,17.65,13.89-1.31,.66-2.67,1.22-4.07,1.65Z"/></g></g></g></svg>