<?xml version="1.0" encoding="UTF-8"?><svg xmlns="http://www.w3.org/2000/svg" xmlns:xlink="http://www.w3.org/1999/xlink" viewBox="0 0 911.24 720"><defs><style>.cls-1{fill:url(#Dégradé_sans_nom_12-15);}.cls-2{fill:#5d57ba;}.cls-3{fill:url(#Dégradé_sans_nom_12-22);}.cls-4,.cls-5,.cls-6{fill:#fff;}.cls-7{fill:url(#Dégradé_sans_nom_12-47);}.cls-8{fill:url(#Dégradé_sans_nom_12-25);}.cls-9{fill:url(#Dégradé_sans_nom_12-68);}.cls-10{fill:url(#Dégradé_sans_nom_12-65);}.cls-11{fill:url(#Dégradé_sans_nom_12-6);}.cls-12{fill:#5945b8;}.cls-13{fill:url(#Dégradé_sans_nom_12-46);}.cls-14{fill:url(#Dégradé_sans_nom_12-9);}.cls-15{fill:url(#Dégradé_sans_nom_12-18);}.cls-16{opacity:.5;}.cls-17{fill:url(#Dégradé_sans_nom_12-58);}.cls-18{fill:url(#Dégradé_sans_nom_12-2);}.cls-19{fill:url(#Dégradé_sans_nom_12-17);}.cls-20{fill:url(#Dégradé_sans_nom_12-79);}.cls-21{fill:url(#Dégradé_sans_nom_12-8);}.cls-22{fill:url(#Dégradé_sans_nom_12);}.cls-23{fill:url(#Dégradé_sans_nom_12-49);}.cls-24{fill:url(#Dégradé_sans_nom_12-63);}.cls-25{fill:url(#Dégradé_sans_nom_12-10);}.cls-26{fill:url(#Dégradé_sans_nom_12-20);}.cls-27{fill:url(#Dégradé_sans_nom_12-26);}.cls-28{isolation:isolate;}.cls-29{fill:url(#Dégradé_sans_nom_12-57);}.cls-30{fill:url(#Dégradé_sans_nom_12-24);}.cls-31{fill:url(#Dégradé_sans_nom_12-55);}.cls-32{fill:url(#Dégradé_sans_nom_12-23);}.cls-5,.cls-33,.cls-34,.cls-35,.cls-36{mix-blend-mode:overlay;}.cls-37{fill:url(#Dégradé_sans_nom_12-62);}.cls-38{fill:url(#Dégradé_sans_nom_12-56);}.cls-39{fill:url(#Dégradé_sans_nom_12-81);}.cls-40{fill:url(#Dégradé_sans_nom_12-76);}.cls-41{fill:url(#Dégradé_sans_nom_12-73);}.cls-42{fill:url(#Dégradé_sans_nom_12-70);}.cls-43{fill:#282465;}.xo-lite{fill:#8f84ff;}.cls-44{fill:url(#Dégradé_sans_nom_12-60);}.cls-45{fill:url(#Dégradé_sans_nom_12-86);}.cls-46{fill:url(#Dégradé_sans_nom_12-5);}.cls-47{fill:url(#Dégradé_sans_nom_12-43);}.cls-48{fill:url(#Dégradé_sans_nom_12-28);}.cls-49{fill:url(#Dégradé_sans_nom_12-16);}.cls-50{fill:#b1a2fd;}.cls-51{fill:url(#Dégradé_sans_nom_12-3);}.cls-52{fill:url(#Dégradé_sans_nom_12-64);}.cls-53{fill:url(#Dégradé_sans_nom_12-80);}.cls-54{fill:url(#Dégradé_sans_nom_12-33);}.cls-55{fill:#e7756e;}.cls-6{filter:url(#drop-shadow-8);}.cls-56{fill:#593f91;}.cls-57{fill:url(#Dégradé_sans_nom_12-52);}.cls-58{fill:url(#Dégradé_sans_nom_12-61);}.cls-59{fill:url(#Dégradé_sans_nom_12-11);}.cls-60{fill:url(#Dégradé_sans_nom_12-35);}.cls-61{fill:url(#Dégradé_sans_nom_12-13);}.cls-62{fill:url(#Dégradé_sans_nom_12-66);}.cls-63{fill:url(#Dégradé_sans_nom_12-69);}.cls-64{fill:url(#Dégradé_sans_nom_12-21);}.cls-65{fill:url(#Dégradé_sans_nom_12-84);}.cls-66{fill:url(#Dégradé_sans_nom_12-30);}.cls-67{fill:url(#Dégradé_sans_nom_12-41);}.cls-68{fill:#d91118;}.cls-69{fill:#ec4a52;}.cls-70{fill:url(#Dégradé_sans_nom_12-54);}.cls-71{fill:#191732;}.cls-72{fill:url(#Dégradé_sans_nom_12-29);}.cls-73{fill:url(#Dégradé_sans_nom_12-75);}.cls-74{fill:url(#Dégradé_sans_nom_12-40);}.cls-75{fill:url(#Dégradé_sans_nom_12-45);}.cls-76{fill:none;stroke:#593f91;stroke-linecap:round;stroke-linejoin:round;stroke-width:0px;}.cls-77{fill:url(#Dégradé_sans_nom_12-85);}.cls-78{fill:url(#Dégradé_sans_nom_12-7);}.cls-33{fill:url(#Dégradé_sans_nom_18-2);}.cls-33,.cls-35,.cls-36{opacity:.4;}.cls-79{fill:url(#Dégradé_sans_nom_12-82);}.cls-80{fill:url(#Dégradé_sans_nom_12-36);}.cls-81{fill:url(#Dégradé_sans_nom_12-37);}.cls-82{fill:#bda3ce;}.cls-83{fill:url(#Dégradé_sans_nom_12-34);}.cls-34{fill:url(#Dégradé_sans_nom_22);}.cls-84{fill:url(#Dégradé_sans_nom_12-39);}.cls-85{fill:url(#Dégradé_sans_nom_12-44);}.cls-86{fill:url(#Dégradé_sans_nom_12-27);}.cls-87{fill:url(#Dégradé_sans_nom_12-71);}.cls-88{fill:url(#Dégradé_sans_nom_12-77);}.cls-89{fill:url(#Dégradé_sans_nom_12-83);}.cls-90{fill:#5d69ce;}.cls-91{fill:url(#Dégradé_sans_nom_12-67);}.cls-92{fill:url(#Dégradé_sans_nom_12-51);}.cls-93{fill:#8478ff;}.cls-94{fill:#e9706f;}.cls-35{fill:url(#Dégradé_sans_nom_18);}.cls-95{fill:url(#Dégradé_sans_nom_6);}.cls-96{fill:url(#Dégradé_sans_nom_12-48);}.cls-97{fill:#7e56fc;}.cls-98{fill:url(#Dégradé_sans_nom_12-12);}.cls-99{fill:url(#Dégradé_sans_nom_12-31);}.cls-100{fill:url(#Dégradé_sans_nom_12-72);}.cls-101{fill:url(#Dégradé_sans_nom_12-38);}.cls-102{fill:url(#Dégradé_sans_nom_12-53);}.cls-103{fill:url(#Dégradé_sans_nom_12-32);}.cls-36{fill:url(#Dégradé_sans_nom_18-3);}.cls-104{fill:#7455e7;}.cls-105{fill:url(#Dégradé_sans_nom_12-74);}.cls-106{fill:url(#Dégradé_sans_nom_12-42);}.cls-107{fill:url(#Dégradé_sans_nom_12-59);}.cls-108{fill:url(#Dégradé_sans_nom_12-50);}.cls-109{fill:url(#Dégradé_sans_nom_12-19);}.cls-110{fill:url(#Dégradé_sans_nom_12-78);}.cls-111{fill:url(#Dégradé_sans_nom_12-4);}.cls-112{fill:url(#Dégradé_sans_nom_12-14);}</style><filter id="drop-shadow-8" filterUnits="userSpaceOnUse"><feOffset dx="11.34" dy="14.17"/><feGaussianBlur result="blur" stdDeviation="22.68"/><feFlood flood-color="#000" flood-opacity=".3"/><feComposite in2="blur" operator="in"/><feComposite in="SourceGraphic"/></filter><radialGradient id="Dégradé_sans_nom_22" cx="-1359.72" cy="9904.67" fx="-1359.72" fy="9904.67" r="495.91" gradientTransform="translate(1022.97 -3235.28) scale(.35)" gradientUnits="userSpaceOnUse"><stop offset="0" stop-color="#fff"/><stop offset=".09" stop-color="#fff" stop-opacity=".98"/><stop offset=".22" stop-color="#fff" stop-opacity=".91"/><stop offset=".36" stop-color="#fff" stop-opacity=".79"/><stop offset=".52" stop-color="#fff" stop-opacity=".63"/><stop offset=".7" stop-color="#fff" stop-opacity=".43"/><stop offset=".88" stop-color="#fff" stop-opacity=".18"/><stop offset="1" stop-color="#fff" stop-opacity="0"/></radialGradient><radialGradient id="Dégradé_sans_nom_12" cx="396.92" cy="102.56" fx="396.92" fy="102.56" r="1.2" gradientUnits="userSpaceOnUse"><stop offset="0" stop-color="#fff"/><stop offset="1" stop-color="#fff" stop-opacity="0"/></radialGradient><radialGradient id="Dégradé_sans_nom_12-2" cx="362.13" cy="149.99" fx="362.13" fy="149.99" r="1.2" xlink:href="#Dégradé_sans_nom_12"/><radialGradient id="Dégradé_sans_nom_12-3" cx="355.28" cy="187.94" fx="355.28" fy="187.94" r="1.2" xlink:href="#Dégradé_sans_nom_12"/><radialGradient id="Dégradé_sans_nom_12-4" cx="283.61" cy="220.09" fx="283.61" fy="220.09" r="1.2" xlink:href="#Dégradé_sans_nom_12"/><radialGradient id="Dégradé_sans_nom_12-5" cx="293.62" cy="234.84" fx="293.62" fy="234.84" r="1.2" xlink:href="#Dégradé_sans_nom_12"/><radialGradient id="Dégradé_sans_nom_12-6" cx="416.42" cy="239.92" fx="416.42" fy="239.92" r="1.2" xlink:href="#Dégradé_sans_nom_12"/><radialGradient id="Dégradé_sans_nom_12-7" cx="414.32" cy="270.73" fx="414.32" fy="270.73" r="1.2" xlink:href="#Dégradé_sans_nom_12"/><radialGradient id="Dégradé_sans_nom_12-8" cx="463.34" cy="252.53" fx="463.34" fy="252.53" r="1.2" xlink:href="#Dégradé_sans_nom_12"/><radialGradient id="Dégradé_sans_nom_12-9" cx="465.44" cy="268.63" fx="465.44" fy="268.63" r="1.2" xlink:href="#Dégradé_sans_nom_12"/><radialGradient id="Dégradé_sans_nom_12-10" cx="525.66" cy="293.84" fx="525.66" fy="293.84" r="1.2" xlink:href="#Dégradé_sans_nom_12"/><radialGradient id="Dégradé_sans_nom_12-11" cx="543.17" cy="97.07" fx="543.17" fy="97.07" r="1.2" xlink:href="#Dégradé_sans_nom_12"/><radialGradient id="Dégradé_sans_nom_12-12" cx="565.58" cy="239.22" fx="565.58" fy="239.22" r="1.2" xlink:href="#Dégradé_sans_nom_12"/><radialGradient id="Dégradé_sans_nom_12-13" cx="478.76" cy="248.75" fx="478.76" fy="248.75" r="2.4" xlink:href="#Dégradé_sans_nom_12"/><radialGradient id="Dégradé_sans_nom_12-14" cx="453.82" cy="265.75" fx="453.82" fy="265.75" r="2.4" xlink:href="#Dégradé_sans_nom_12"/><radialGradient id="Dégradé_sans_nom_12-15" cx="560.38" cy="182.99" fx="560.38" fy="182.99" r="2.4" xlink:href="#Dégradé_sans_nom_12"/><radialGradient id="Dégradé_sans_nom_12-16" cx="556.42" cy="236.84" fx="556.42" fy="236.84" r="2.4" xlink:href="#Dégradé_sans_nom_12"/><radialGradient id="Dégradé_sans_nom_12-17" cx="532.04" cy="286.16" fx="532.04" fy="286.16" r="2.4" xlink:href="#Dégradé_sans_nom_12"/><radialGradient id="Dégradé_sans_nom_12-18" cx="545.65" cy="303.73" fx="545.65" fy="303.73" r="2.4" xlink:href="#Dégradé_sans_nom_12"/><radialGradient id="Dégradé_sans_nom_12-19" cx="350.09" cy="179.02" fx="350.09" fy="179.02" r="2.4" xlink:href="#Dégradé_sans_nom_12"/><radialGradient id="Dégradé_sans_nom_12-20" cx="403.37" cy="223.8" fx="403.37" fy="223.8" r="2.4" xlink:href="#Dégradé_sans_nom_12"/><radialGradient id="Dégradé_sans_nom_12-21" cx="400.53" cy="243.64" fx="400.53" fy="243.64" r="2.4" xlink:href="#Dégradé_sans_nom_12"/><radialGradient id="Dégradé_sans_nom_12-22" cx="355.75" cy="142.18" fx="355.75" fy="142.18" r="2.4" xlink:href="#Dégradé_sans_nom_12"/><radialGradient id="Dégradé_sans_nom_12-23" cx="658.34" cy="211.22" fx="658.34" fy="211.22" r="1.2" xlink:href="#Dégradé_sans_nom_12"/><radialGradient id="Dégradé_sans_nom_12-24" cx="651.48" cy="249.17" fx="651.48" fy="249.17" r="1.2" xlink:href="#Dégradé_sans_nom_12"/><radialGradient id="Dégradé_sans_nom_12-25" cx="579.81" cy="281.32" fx="579.81" fy="281.32" r="1.2" xlink:href="#Dégradé_sans_nom_12"/><radialGradient id="Dégradé_sans_nom_12-26" cx="589.82" cy="296.07" fx="589.82" fy="296.07" r="1.2" xlink:href="#Dégradé_sans_nom_12"/><radialGradient id="Dégradé_sans_nom_12-27" cx="443.72" cy="95.97" fx="443.72" fy="95.97" r="1.2" xlink:href="#Dégradé_sans_nom_12"/><radialGradient id="Dégradé_sans_nom_12-28" cx="438.82" cy="116.28" fx="438.82" fy="116.28" r="1.2" xlink:href="#Dégradé_sans_nom_12"/><radialGradient id="Dégradé_sans_nom_12-29" cx="459.83" cy="105.78" fx="459.83" fy="105.78" r="1.2" xlink:href="#Dégradé_sans_nom_12"/><radialGradient id="Dégradé_sans_nom_12-30" cx="451.43" cy="168.1" fx="451.43" fy="168.1" r="1.2" xlink:href="#Dégradé_sans_nom_12"/><radialGradient id="Dégradé_sans_nom_12-31" cx="503.94" cy="236.03" fx="503.94" fy="236.03" r="1.2" xlink:href="#Dégradé_sans_nom_12"/><radialGradient id="Dégradé_sans_nom_12-32" cx="525.65" cy="233.22" fx="525.65" fy="233.22" r="1.2" xlink:href="#Dégradé_sans_nom_12"/><radialGradient id="Dégradé_sans_nom_12-33" cx="520.75" cy="250.03" fx="520.75" fy="250.03" r="1.2" xlink:href="#Dégradé_sans_nom_12"/><radialGradient id="Dégradé_sans_nom_12-34" cx="646.29" cy="240.25" fx="646.29" fy="240.25" r="2.4" xlink:href="#Dégradé_sans_nom_12"/><radialGradient id="Dégradé_sans_nom_12-35" cx="463.2" cy="179.6" fx="463.2" fy="179.6" r="2.4" xlink:href="#Dégradé_sans_nom_12"/><radialGradient id="Dégradé_sans_nom_12-36" cx="458.1" cy="93.44" fx="458.1" fy="93.44" r="2.4" xlink:href="#Dégradé_sans_nom_12"/><radialGradient id="Dégradé_sans_nom_12-37" cx="532.92" cy="240.82" fx="532.92" fy="240.82" r="2.4" xlink:href="#Dégradé_sans_nom_12"/><radialGradient id="Dégradé_sans_nom_12-38" cx="651.96" cy="203.41" fx="651.96" fy="203.41" r="2.4" xlink:href="#Dégradé_sans_nom_12"/><radialGradient id="Dégradé_sans_nom_12-39" cx="661.52" cy="277.81" fx="661.52" fy="277.81" r="1.2" xlink:href="#Dégradé_sans_nom_12"/><radialGradient id="Dégradé_sans_nom_12-40" cx="624.23" cy="268" fx="624.23" fy="268" r="1.2" xlink:href="#Dégradé_sans_nom_12"/><radialGradient id="Dégradé_sans_nom_12-41" cx="597.79" cy="194.03" fx="597.79" fy="194.03" r="1.2" xlink:href="#Dégradé_sans_nom_12"/><radialGradient id="Dégradé_sans_nom_12-42" cx="582.3" cy="202.85" fx="582.3" fy="202.85" r="1.2" xlink:href="#Dégradé_sans_nom_12"/><radialGradient id="Dégradé_sans_nom_12-43" cx="567.61" cy="324.88" fx="567.61" fy="324.88" r="1.2" xlink:href="#Dégradé_sans_nom_12"/><radialGradient id="Dégradé_sans_nom_12-44" cx="537.06" cy="320.37" fx="537.06" fy="320.37" r="1.2" xlink:href="#Dégradé_sans_nom_12"/><radialGradient id="Dégradé_sans_nom_12-45" cx="551.37" cy="370.66" fx="551.37" fy="370.66" r="1.2" xlink:href="#Dégradé_sans_nom_12"/><radialGradient id="Dégradé_sans_nom_12-46" cx="535.15" cy="371.49" fx="535.15" fy="371.49" r="1.2" xlink:href="#Dégradé_sans_nom_12"/><radialGradient id="Dégradé_sans_nom_12-47" cx="505.3" cy="429.56" fx="505.3" fy="429.56" r="1.2" xlink:href="#Dégradé_sans_nom_12"/><radialGradient id="Dégradé_sans_nom_12-48" cx="556.62" cy="473.63" fx="556.62" fy="473.63" r="1.2" xlink:href="#Dégradé_sans_nom_12"/><radialGradient id="Dégradé_sans_nom_12-49" cx="553.93" cy="386.33" fx="553.93" fy="386.33" r="2.4" xlink:href="#Dégradé_sans_nom_12"/><radialGradient id="Dégradé_sans_nom_12-50" cx="538.93" cy="360.14" fx="538.93" fy="360.14" r="2.4" xlink:href="#Dégradé_sans_nom_12"/><radialGradient id="Dégradé_sans_nom_12-51" cx="512.46" cy="436.52" fx="512.46" fy="436.52" r="2.4" xlink:href="#Dégradé_sans_nom_12"/><radialGradient id="Dégradé_sans_nom_12-52" cx="493.87" cy="448.7" fx="493.87" fy="448.7" r="2.4" xlink:href="#Dégradé_sans_nom_12"/><radialGradient id="Dégradé_sans_nom_12-53" cx="633.52" cy="263.52" fx="633.52" fy="263.52" r="2.4" xlink:href="#Dégradé_sans_nom_12"/><radialGradient id="Dégradé_sans_nom_12-54" cx="584.7" cy="313.13" fx="584.7" fy="313.13" r="2.4" xlink:href="#Dégradé_sans_nom_12"/><radialGradient id="Dégradé_sans_nom_12-55" cx="565.15" cy="308.75" fx="565.15" fy="308.75" r="2.4" xlink:href="#Dégradé_sans_nom_12"/><radialGradient id="Dégradé_sans_nom_12-56" cx="669.81" cy="272.06" fx="669.81" fy="272.06" r="2.4" xlink:href="#Dégradé_sans_nom_12"/><radialGradient id="Dégradé_sans_nom_12-57" cx="268.96" cy="301.21" fx="268.96" fy="301.21" r="1.2" xlink:href="#Dégradé_sans_nom_12"/><radialGradient id="Dégradé_sans_nom_12-58" cx="363.62" cy="404.02" fx="363.62" fy="404.02" r="1.2" xlink:href="#Dégradé_sans_nom_12"/><radialGradient id="Dégradé_sans_nom_12-59" cx="329.87" cy="403.59" fx="329.87" fy="403.59" r="1.2" xlink:href="#Dégradé_sans_nom_12"/><radialGradient id="Dégradé_sans_nom_12-60" cx="305.8" cy="255.35" fx="305.8" fy="255.35" r="1.2" xlink:href="#Dégradé_sans_nom_12"/><radialGradient id="Dégradé_sans_nom_12-61" cx="314.31" cy="217.74" fx="314.31" fy="217.74" r="1.2" xlink:href="#Dégradé_sans_nom_12"/><radialGradient id="Dégradé_sans_nom_12-62" cx="387.33" cy="188.77" fx="387.33" fy="188.77" r="1.2" xlink:href="#Dégradé_sans_nom_12"/><radialGradient id="Dégradé_sans_nom_12-63" cx="377.97" cy="173.59" fx="377.97" fy="173.59" r="1.2" xlink:href="#Dégradé_sans_nom_12"/><radialGradient id="Dégradé_sans_nom_12-64" cx="255.51" cy="163.12" fx="255.51" fy="163.12" r="1.2" xlink:href="#Dégradé_sans_nom_12"/><radialGradient id="Dégradé_sans_nom_12-65" cx="294.75" cy="466.25" fx="294.75" fy="466.25" r="1.2" xlink:href="#Dégradé_sans_nom_12"/><radialGradient id="Dégradé_sans_nom_12-66" cx="297.74" cy="446.05" fx="297.74" fy="446.05" r="1.2" xlink:href="#Dégradé_sans_nom_12"/><radialGradient id="Dégradé_sans_nom_12-67" cx="515.14" cy="379.91" fx="515.14" fy="379.91" r="1.2" xlink:href="#Dégradé_sans_nom_12"/><radialGradient id="Dégradé_sans_nom_12-68" cx="520.93" cy="359.84" fx="520.93" fy="359.84" r="1.2" xlink:href="#Dégradé_sans_nom_12"/><radialGradient id="Dégradé_sans_nom_12-69" cx="499.48" cy="369.41" fx="499.48" fy="369.41" r="1.2" xlink:href="#Dégradé_sans_nom_12"/><radialGradient id="Dégradé_sans_nom_12-70" cx="510.61" cy="307.52" fx="510.61" fy="307.52" r="1.2" xlink:href="#Dégradé_sans_nom_12"/><radialGradient id="Dégradé_sans_nom_12-71" cx="461.13" cy="237.35" fx="461.13" fy="237.35" r="1.2" xlink:href="#Dégradé_sans_nom_12"/><radialGradient id="Dégradé_sans_nom_12-72" cx="439.32" cy="239.2" fx="439.32" fy="239.2" r="1.2" xlink:href="#Dégradé_sans_nom_12"/><radialGradient id="Dégradé_sans_nom_12-73" cx="444.95" cy="222.62" fx="444.95" fy="222.62" r="1.2" xlink:href="#Dégradé_sans_nom_12"/><radialGradient id="Dégradé_sans_nom_12-74" cx="373.74" cy="423.46" fx="373.74" fy="423.46" r="1.2" xlink:href="#Dégradé_sans_nom_12"/><radialGradient id="Dégradé_sans_nom_12-75" cx="227.99" cy="354.96" fx="227.99" fy="354.96" r="2.4" xlink:href="#Dégradé_sans_nom_12"/><radialGradient id="Dégradé_sans_nom_12-76" cx="319.11" cy="226.87" fx="319.11" fy="226.87" r="2.4" xlink:href="#Dégradé_sans_nom_12"/><radialGradient id="Dégradé_sans_nom_12-77" cx="267.85" cy="179.79" fx="267.85" fy="179.79" r="2.4" xlink:href="#Dégradé_sans_nom_12"/><radialGradient id="Dégradé_sans_nom_12-78" cx="271.55" cy="160.1" fx="271.55" fy="160.1" r="2.4" xlink:href="#Dégradé_sans_nom_12"/><radialGradient id="Dégradé_sans_nom_12-79" cx="499.36" cy="295.51" fx="499.36" fy="295.51" r="2.4" xlink:href="#Dégradé_sans_nom_12"/><radialGradient id="Dégradé_sans_nom_12-80" cx="500.67" cy="381.81" fx="500.67" fy="381.81" r="2.4" xlink:href="#Dégradé_sans_nom_12"/><radialGradient id="Dégradé_sans_nom_12-81" cx="373.82" cy="414.82" fx="373.82" fy="414.82" r="2.4" xlink:href="#Dégradé_sans_nom_12"/><radialGradient id="Dégradé_sans_nom_12-82" cx="309.66" cy="454.55" fx="309.66" fy="454.55" r="2.4" xlink:href="#Dégradé_sans_nom_12"/><radialGradient id="Dégradé_sans_nom_12-83" cx="432.39" cy="231.29" fx="432.39" fy="231.29" r="2.4" xlink:href="#Dégradé_sans_nom_12"/><radialGradient id="Dégradé_sans_nom_12-84" cx="251.99" cy="424.21" fx="251.99" fy="424.21" r="2.4" xlink:href="#Dégradé_sans_nom_12"/><radialGradient id="Dégradé_sans_nom_12-85" cx="263.77" cy="349.83" fx="263.77" fy="349.83" r="2.4" xlink:href="#Dégradé_sans_nom_12"/><radialGradient id="Dégradé_sans_nom_12-86" cx="311.83" cy="263.43" fx="311.83" fy="263.43" r="2.4" xlink:href="#Dégradé_sans_nom_12"/><linearGradient id="Dégradé_sans_nom_18" x1="448.55" y1="258.86" x2="556.37" y2="258.86" gradientUnits="userSpaceOnUse"><stop offset="0" stop-color="#8478ff" stop-opacity=".9"/><stop offset=".28" stop-color="#ada5ff" stop-opacity=".6"/><stop offset=".53" stop-color="#d0cbff" stop-opacity=".34"/><stop offset=".74" stop-color="#e9e7ff" stop-opacity=".16"/><stop offset=".91" stop-color="#f9f8ff" stop-opacity=".04"/><stop offset="1" stop-color="#fff" stop-opacity="0"/></linearGradient><linearGradient id="Dégradé_sans_nom_18-2" x1="511.78" y1="225.56" x2="673.14" y2="225.56" xlink:href="#Dégradé_sans_nom_18"/><linearGradient id="Dégradé_sans_nom_18-3" x1="382.25" y1="291.35" x2="465.64" y2="291.35" xlink:href="#Dégradé_sans_nom_18"/><linearGradient id="Dégradé_sans_nom_6" x1="641.58" y1="155.41" x2="681.02" y2="136.34" gradientUnits="userSpaceOnUse"><stop offset="0" stop-color="#8478ff"/><stop offset=".17" stop-color="#877bff"/><stop offset=".35" stop-color="#9287ff"/><stop offset=".52" stop-color="#a49bff"/><stop offset=".69" stop-color="#bdb7ff"/><stop offset=".86" stop-color="#dedaff"/><stop offset="1" stop-color="#fff"/></linearGradient></defs><g class="cls-28"><g id="Calque_1"><g><circle class="cls-6" cx="448.22" cy="313.13" r="266.84" transform="translate(-90.13 408.65) rotate(-45)"/><path class="cls-71" d="M694.67,314.03c0,48.63-14.08,93.97-38.38,132.18-1.26,2-2.55,3.97-3.88,5.93-3.7,5.46-7.6,10.76-11.71,15.89h0s-.01,0-.01,0c-.7,.88-1.41,1.75-2.13,2.62-5.01,6.11-10.33,11.97-15.92,17.57-2.39,2.4-4.83,4.75-7.32,7.05-1.66,1.53-3.34,3.04-5.04,4.53-5.1,4.46-10.39,8.71-15.85,12.75-1.82,1.35-3.66,2.67-5.52,3.96-2.79,1.94-5.62,3.83-8.48,5.66-11.48,7.31-23.61,13.71-36.27,19.08-1.06,.45-2.12,.89-3.18,1.32-2.12,.86-4.26,1.7-6.42,2.51-1.08,.41-2.16,.8-3.24,1.19-3.26,1.16-6.54,2.26-9.86,3.3-1.1,.35-2.21,.68-3.32,1.01-4.45,1.31-8.95,2.51-13.5,3.58-3.41,.8-6.85,1.53-10.31,2.19-2.31,.43-4.63,.84-6.96,1.22-3.5,.56-7.02,1.04-10.56,1.46-3.55,.41-7.12,.75-10.71,1.01-5.98,.43-12.02,.65-18.11,.65s-12.13-.22-18.11-.65c-3.59-.26-7.16-.6-10.7-1.01-3.54-.42-7.07-.9-10.56-1.46-2.33-.38-4.65-.79-6.96-1.22-3.47-.66-6.9-1.39-10.31-2.19-4.55-1.07-9.05-2.27-13.5-3.58-1.11-.33-2.22-.66-3.32-1.01-3.32-1.04-6.6-2.14-9.86-3.3-1.08-.39-2.16-.78-3.24-1.19-2.16-.81-4.3-1.65-6.42-2.51-1.06-.43-2.12-.87-3.18-1.32-12.66-5.37-24.79-11.77-36.27-19.08-2.86-1.83-5.69-3.72-8.48-5.66-1.86-1.29-3.7-2.61-5.52-3.96-5.46-4.04-10.75-8.29-15.85-12.75-1.7-1.49-3.38-3-5.04-4.53-2.49-2.3-4.93-4.65-7.32-7.05-5.59-5.6-10.91-11.46-15.92-17.57-.72-.87-1.43-1.74-2.13-2.62h-.01c-5.58-6.98-10.78-14.27-15.59-21.83-24.3-38.21-38.38-83.55-38.38-132.18s13.55-92.29,37.02-130.04c29.36-47.23,74.22-83.8,127.48-102.61,25.7-9.08,53.36-14.02,82.17-14.02,42.02,0,81.58,10.5,116.21,29.03,3.87,2.07,7.68,4.24,11.42,6.51,5.25,3.18,10.37,6.55,15.35,10.1,21.91,15.6,41.15,34.7,56.93,56.47,29.42,40.62,46.77,90.56,46.77,144.56Z"/><path class="cls-43" d="M239.48,446.05c4.93,7.56,10.27,14.85,15.99,21.82h0s-.4,0-.4,0c45.2,56.49,114.73,92.67,192.7,92.67s147.51-36.18,192.71-92.67h0c4.11-5.14,8.01-10.44,11.71-15.9,1.33-1.96,2.62-3.93,3.88-5.93H239.48Z"/><circle class="cls-34" cx="544.34" cy="251.18" r="174.56"/><g><g><path class="cls-22" d="M396.92,103.78c1.57,0,1.57-2.44,0-2.44s-1.57,2.44,0,2.44h0Z"/><path class="cls-18" d="M362.13,151.21c1.57,0,1.57-2.44,0-2.44s-1.57,2.44,0,2.44h0Z"/><path class="cls-51" d="M355.28,189.16c1.57,0,1.57-2.44,0-2.44s-1.57,2.44,0,2.44h0Z"/><path class="cls-111" d="M283.61,221.31c1.57,0,1.57-2.44,0-2.44s-1.57,2.44,0,2.44h0Z"/><path class="cls-46" d="M293.62,236.06c1.57,0,1.57-2.44,0-2.44s-1.57,2.44,0,2.44h0Z"/><path class="cls-11" d="M416.42,241.14c1.57,0,1.57-2.44,0-2.44s-1.57,2.44,0,2.44h0Z"/><path class="cls-78" d="M414.32,271.95c1.57,0,1.57-2.44,0-2.44s-1.57,2.44,0,2.44h0Z"/><path class="cls-21" d="M463.34,253.74c1.57,0,1.57-2.44,0-2.44s-1.57,2.44,0,2.44h0Z"/><path class="cls-14" d="M465.44,269.85c1.57,0,1.57-2.44,0-2.44s-1.57,2.44,0,2.44h0Z"/><path class="cls-25" d="M525.66,295.06c1.57,0,1.57-2.44,0-2.44s-1.57,2.44,0,2.44h0Z"/><path class="cls-59" d="M543.17,98.29c1.57,0,1.57-2.44,0-2.44s-1.57,2.44,0,2.44h0Z"/><path class="cls-98" d="M565.58,240.44c1.57,0,1.57-2.44,0-2.44s-1.57,2.44,0,2.44h0Z"/></g><g class="cls-16"><path class="cls-61" d="M478.76,251.18c3.14,0,3.14-4.88,0-4.88s-3.14,4.88,0,4.88h0Z"/><path class="cls-112" d="M453.82,268.19c3.14,0,3.14-4.88,0-4.88s-3.14,4.88,0,4.88h0Z"/><path class="cls-1" d="M560.38,185.43c3.14,0,3.14-4.88,0-4.88s-3.14,4.88,0,4.88h0Z"/><path class="cls-49" d="M556.42,239.28c3.14,0,3.14-4.88,0-4.88s-3.14,4.88,0,4.88h0Z"/><path class="cls-19" d="M532.04,288.59c3.14,0,3.14-4.88,0-4.88s-3.14,4.88,0,4.88h0Z"/><path class="cls-15" d="M545.65,306.17c3.14,0,3.14-4.88,0-4.88s-3.14,4.88,0,4.88h0Z"/><path class="cls-109" d="M350.09,181.46c3.14,0,3.14-4.88,0-4.88s-3.14,4.88,0,4.88h0Z"/><path class="cls-26" d="M403.37,226.24c3.14,0,3.14-4.88,0-4.88s-3.14,4.88,0,4.88h0Z"/><path class="cls-64" d="M400.53,246.08c3.14,0,3.14-4.88,0-4.88s-3.14,4.88,0,4.88h0Z"/><path class="cls-3" d="M355.75,144.62c3.14,0,3.14-4.88,0-4.88s-3.14,4.88,0,4.88h0Z"/></g></g><g><g><path class="cls-32" d="M658.34,212.44c1.57,0,1.57-2.44,0-2.44s-1.57,2.44,0,2.44h0Z"/><path class="cls-30" d="M651.48,250.39c1.57,0,1.57-2.44,0-2.44s-1.57,2.44,0,2.44h0Z"/><path class="cls-8" d="M579.81,282.54c1.57,0,1.57-2.44,0-2.44s-1.57,2.44,0,2.44h0Z"/><path class="cls-27" d="M589.82,297.29c1.57,0,1.57-2.44,0-2.44s-1.57,2.44,0,2.44h0Z"/><path class="cls-86" d="M443.72,97.19c1.57,0,1.57-2.44,0-2.44s-1.57,2.44,0,2.44h0Z"/><path class="cls-48" d="M438.82,117.5c1.57,0,1.57-2.44,0-2.44s-1.57,2.44,0,2.44h0Z"/><path class="cls-72" d="M459.83,107c1.57,0,1.57-2.44,0-2.44s-1.57,2.44,0,2.44h0Z"/><path class="cls-66" d="M451.43,169.32c1.57,0,1.57-2.44,0-2.44s-1.57,2.44,0,2.44h0Z"/><path class="cls-99" d="M503.94,237.24c1.57,0,1.57-2.44,0-2.44s-1.57,2.44,0,2.44h0Z"/><path class="cls-103" d="M525.65,234.44c1.57,0,1.57-2.44,0-2.44s-1.57,2.44,0,2.44h0Z"/><path class="cls-54" d="M520.75,251.25c1.57,0,1.57-2.44,0-2.44s-1.57,2.44,0,2.44h0Z"/></g><g class="cls-16"><path class="cls-83" d="M646.29,242.69c3.14,0,3.14-4.88,0-4.88s-3.14,4.88,0,4.88h0Z"/><path class="cls-60" d="M463.2,182.04c3.14,0,3.14-4.88,0-4.88s-3.14,4.88,0,4.88h0Z"/><path class="cls-80" d="M458.1,95.88c3.14,0,3.14-4.88,0-4.88s-3.14,4.88,0,4.88h0Z"/><path class="cls-81" d="M532.92,243.26c3.14,0,3.14-4.88,0-4.88s-3.14,4.88,0,4.88h0Z"/><path class="cls-101" d="M651.96,205.85c3.14,0,3.14-4.88,0-4.88s-3.14,4.88,0,4.88h0Z"/></g></g><g><g><path class="cls-84" d="M660.3,277.71c-.12,1.56,2.31,1.76,2.43,.19,.12-1.56-2.31-1.76-2.43-.19h0Z"/><path class="cls-74" d="M623.01,267.91c-.12,1.56,2.31,1.76,2.43,.19,.12-1.56-2.31-1.76-2.43-.19h0Z"/><path class="cls-67" d="M596.58,193.93c-.12,1.56,2.31,1.76,2.43,.19,.12-1.56-2.31-1.76-2.43-.19h0Z"/><path class="cls-106" d="M581.08,202.76c-.12,1.56,2.31,1.76,2.43,.19,.12-1.56-2.31-1.76-2.43-.19h0Z"/><path class="cls-47" d="M566.4,324.78c-.12,1.56,2.31,1.76,2.43,.19,.12-1.56-2.31-1.76-2.43-.19h0Z"/><path class="cls-85" d="M535.85,320.27c-.12,1.56,2.31,1.76,2.43,.19,.12-1.56-2.31-1.76-2.43-.19h0Z"/><path class="cls-75" d="M550.16,370.57c-.12,1.56,2.31,1.76,2.43,.19,.12-1.56-2.31-1.76-2.43-.19h0Z"/><path class="cls-13" d="M533.93,371.4c-.12,1.56,2.31,1.76,2.43,.19,.12-1.56-2.31-1.76-2.43-.19h0Z"/><path class="cls-7" d="M504.08,429.46c-.12,1.56,2.31,1.76,2.43,.19,.12-1.56-2.31-1.76-2.43-.19h0Z"/><path class="cls-96" d="M555.41,473.53c-.12,1.56,2.31,1.76,2.43,.19,.12-1.56-2.31-1.76-2.43-.19h0Z"/></g><g class="cls-16"><path class="cls-23" d="M551.5,386.14c-.25,3.13,4.62,3.52,4.86,.38,.25-3.13-4.62-3.52-4.86-.38h0Z"/><path class="cls-108" d="M536.5,359.94c-.25,3.13,4.62,3.52,4.86,.38,.25-3.13-4.62-3.52-4.86-.38h0Z"/><path class="cls-92" d="M510.03,436.33c-.25,3.13,4.62,3.52,4.86,.38,.25-3.13-4.62-3.52-4.86-.38h0Z"/><path class="cls-57" d="M491.44,448.51c-.25,3.13,4.62,3.52,4.86,.38,.25-3.13-4.62-3.52-4.86-.38h0Z"/><path class="cls-102" d="M631.09,263.33c-.25,3.13,4.62,3.52,4.86,.38,.25-3.13-4.62-3.52-4.86-.38h0Z"/><path class="cls-70" d="M582.27,312.94c-.25,3.13,4.62,3.52,4.86,.38,.25-3.13-4.62-3.52-4.86-.38h0Z"/><path class="cls-31" d="M562.72,308.56c-.25,3.13,4.62,3.52,4.86,.38,.25-3.13-4.62-3.52-4.86-.38h0Z"/><path class="cls-38" d="M667.38,271.87c-.25,3.13,4.62,3.52,4.86,.38,.25-3.13-4.62-3.52-4.86-.38h0Z"/></g></g><g><g><path class="cls-29" d="M269.01,299.99c-1.57-.07-1.68,2.37-.11,2.44,1.57,.07,1.68-2.37,.11-2.44h0Z"/><path class="cls-17" d="M363.67,402.8c-1.57-.07-1.68,2.37-.11,2.44,1.57,.07,1.68-2.37,.11-2.44h0Z"/><path class="cls-107" d="M329.93,402.37c-1.57-.07-1.68,2.37-.11,2.44,1.57,.07,1.68-2.37,.11-2.44h0Z"/><path class="cls-44" d="M305.85,254.13c-1.57-.07-1.68,2.37-.11,2.44,1.57,.07,1.68-2.37,.11-2.44h0Z"/><path class="cls-58" d="M314.36,216.52c-1.57-.07-1.68,2.37-.11,2.44,1.57,.07,1.68-2.37,.11-2.44h0Z"/><path class="cls-37" d="M387.38,187.55c-1.57-.07-1.68,2.37-.11,2.44,1.57,.07,1.68-2.37,.11-2.44h0Z"/><path class="cls-24" d="M378.03,172.37c-1.57-.07-1.68,2.37-.11,2.44,1.57,.07,1.68-2.37,.11-2.44h0Z"/><path class="cls-52" d="M255.57,161.9c-1.57-.07-1.68,2.37-.11,2.44,1.57,.07,1.68-2.37,.11-2.44h0Z"/><path class="cls-10" d="M294.8,465.03c-1.57-.07-1.68,2.37-.11,2.44,1.57,.07,1.68-2.37,.11-2.44h0Z"/><path class="cls-62" d="M297.8,444.83c-1.57-.07-1.68,2.37-.11,2.44,1.57,.07,1.68-2.37,.11-2.44h0Z"/><path class="cls-91" d="M515.19,378.7c-1.57-.07-1.68,2.37-.11,2.44,1.57,.07,1.68-2.37,.11-2.44h0Z"/><path class="cls-9" d="M520.98,358.62c-1.57-.07-1.68,2.37-.11,2.44,1.57,.07,1.68-2.37,.11-2.44h0Z"/><path class="cls-63" d="M499.53,368.19c-1.57-.07-1.68,2.37-.11,2.44,1.57,.07,1.68-2.37,.11-2.44h0Z"/><path class="cls-42" d="M510.67,306.3c-1.57-.07-1.68,2.37-.11,2.44,1.57,.07,1.68-2.37,.11-2.44h0Z"/><path class="cls-87" d="M461.18,236.13c-1.57-.07-1.68,2.37-.11,2.44,1.57,.07,1.68-2.37,.11-2.44h0Z"/><path class="cls-100" d="M439.37,237.98c-1.57-.07-1.68,2.37-.11,2.44,1.57,.07,1.68-2.37,.11-2.44h0Z"/><path class="cls-41" d="M445.01,221.4c-1.57-.07-1.68,2.37-.11,2.44,1.57,.07,1.68-2.37,.11-2.44h0Z"/><path class="cls-105" d="M373.79,422.24c-1.57-.07-1.68,2.37-.11,2.44,1.57,.07,1.68-2.37,.11-2.44h0Z"/></g><g class="cls-16"><path class="cls-73" d="M228.1,352.52c-3.13-.14-3.35,4.73-.21,4.87,3.13,.14,3.35-4.73,.21-4.87h0Z"/><path class="cls-40" d="M319.22,224.44c-3.13-.14-3.35,4.73-.21,4.87,3.13,.14,3.35-4.73,.21-4.87h0Z"/><path class="cls-88" d="M267.95,177.36c-3.13-.14-3.35,4.73-.21,4.87,3.13,.14,3.35-4.73,.21-4.87h0Z"/><path class="cls-110" d="M271.66,157.66c-3.13-.14-3.35,4.73-.21,4.87,3.13,.14,3.35-4.73,.21-4.87h0Z"/><path class="cls-20" d="M499.46,293.08c-3.13-.14-3.35,4.73-.21,4.87,3.13,.14,3.35-4.73,.21-4.87h0Z"/><path class="cls-53" d="M500.77,379.38c-3.13-.14-3.35,4.73-.21,4.87,3.13,.14,3.35-4.73,.21-4.87h0Z"/><path class="cls-39" d="M373.93,412.38c-3.13-.14-3.35,4.73-.21,4.87,3.13,.14,3.35-4.73,.21-4.87h0Z"/><path class="cls-79" d="M309.77,452.11c-3.13-.14-3.35,4.73-.21,4.87,3.13,.14,3.35-4.73,.21-4.87h0Z"/><path class="cls-89" d="M432.5,228.85c-3.13-.14-3.35,4.73-.21,4.87,3.13,.14,3.35-4.73,.21-4.87h0Z"/><path class="cls-65" d="M252.09,421.77c-3.13-.14-3.35,4.73-.21,4.87,3.14,.14,3.35-4.73,.21-4.87h0Z"/><path class="cls-77" d="M263.88,347.39c-3.13-.14-3.35,4.73-.21,4.87,3.13,.14,3.35-4.73,.21-4.87h0Z"/><path class="cls-45" d="M311.93,261c-3.13-.14-3.35,4.73-.21,4.87,3.13,.14,3.35-4.73,.21-4.87h0Z"/></g></g><path class="cls-5" d="M517.69,75.45c-24.89,21.55-55.73,37.19-88.61,44.48-2.66,.59-5.35,1.13-8.05,1.66-21.19,4.09-43.35,6.79-60.16,19.33-31.86,23.76-36.04,76.56-75.32,86.09-23.51,5.71-46.05-8.4-68.52-16.17-1.24-.43-2.49-.83-3.75-1.21,21.54-50.42,59.77-92.78,108.85-119.09,23.68-12.7,49.9-21.66,77.97-25.97,40.95-6.29,81.07-1.99,117.59,10.88Z"/><path class="cls-5" d="M529.79,80.08c-22.36,21.88-37.97,53.25-69.49,54.64-14.37,.63-27.04-5.53-39.29-13.14-8.35-5.19-16.49-11.07-24.83-15.91-21.81-12.68-48.54-17.61-74.07-15.13,23.68-12.7,49.9-21.66,77.97-25.97,40.95-6.29,81.07-1.99,117.59,10.88,4.08,1.44,8.12,2.98,12.1,4.63Z"/><path class="cls-82" d="M681.1,185.89l-.3,.15c.29-.33,.57-.66,.85-1,.03,.18,.05,.35,.08,.52l-.63,.32h0Z"/><polygon class="cls-56" points="681.1 185.89 681.1 185.89 681.1 185.89 681.1 185.89"/><line class="cls-76" x1="668.83" y1="192.15" x2="667.81" y2="192.67"/><path class="cls-90" d="M434.78,384.75c-1.74-.94-3.33-2.14-4.73-3.58-1.57-1.62-2.82-3.47-3.72-5.51l-1.25-2.82-69.66,140.66c-1.86,3.8-.29,8.41,3.51,10.29,1.09,.53,2.24,.78,3.37,.78,2.84,0,5.57-1.58,6.91-4.29l66.8-134.87-1.23-.66Z"/><path class="cls-90" d="M532.14,513.49l-69.64-140.64-1.26,2.8c-.93,2.07-2.18,3.92-3.73,5.52-1.37,1.42-2.95,2.63-4.72,3.58l-1.23,.66,66.78,134.86c1.33,2.72,4.07,4.3,6.91,4.3,1.13,0,2.29-.25,3.37-.78h0c3.8-1.88,5.37-6.5,3.51-10.3Z"/><path class="cls-12" d="M556.37,248.57c-6.76,3.14-39.45,20.12-47.2,23.61-1.88,.85-3.79,1.7-5.68,2.56-1.9,.85-3.8,1.68-5.68,2.52-5.63,2.49-11.17,4.89-16.38,7.08-4.11,2.1-9.85,.05-15.8-4.95-.03-.03-.07-.06-.11-.09l.06-.03c-3.54-2.97-7.15-7-10.55-11.82-2.29-3.25-4.48-6.87-6.48-10.78-1.36-2.67-2.56-5.32-3.59-7.94-1.69-4.27-2.95-8.43-3.75-12.31-.5-2.37-.83-4.65-.99-6.78-.56-7.75,1.14-13.59,5.26-15.7,0,0,48.67-27.95,72.27-41.19,.46,5.91,1.77,12.52,3.91,19.5,1.46,4.76,3.31,9.71,5.52,14.71,1.06,2.36,2.18,4.76,3.39,7.14,4.57,8.95,9.81,16.91,15.22,23.52,3.49,4.25,7.05,7.93,10.57,10.95Z"/><path class="cls-35" d="M556.37,248.57c-6.76,3.14-39.45,20.12-47.2,23.61-1.88,.85-3.79,1.7-5.68,2.56-1.9,.85-3.8,1.68-5.68,2.52-5.63,2.49-11.17,4.89-16.38,7.08-4.11,2.1-9.85,.05-15.8-4.95-.03-.03-.07-.06-.11-.09l.06-.03c-3.54-2.97-7.15-7-10.55-11.82-2.29-3.25-4.48-6.87-6.48-10.78,0,0,58.23-8.37,93.34-24.1,1.29,1.76,2.6,3.45,3.91,5.05,3.49,4.25,7.05,7.93,10.57,10.95Z"/><path class="cls-97" d="M673.14,209.89c-6.3,3.01-65.04,31.04-107.99,49.12-2.41,1.23-5.23,1.4-8.3,.7-4.56-.94-9.69-3.84-14.92-8.33-3.27-2.81-6.58-6.23-9.82-10.18-5.04-6.15-9.9-13.54-14.15-21.86-1.13-2.21-2.17-4.44-3.15-6.63-2.06-4.65-3.78-9.24-5.13-13.67-1.99-6.49-3.2-12.63-3.63-18.12-.9-11.32,1.54-19.87,7.51-22.92,0,0,63.47-38.97,103.64-58.99-11.8,6.02-8.72,35.64,6.86,66.15,6.9,13.5,15.09,24.91,23.09,32.91l-.03,.02c9.85,9.88,19.44,14.64,26.03,11.8Z"/><path class="cls-2" d="M676.68,175.19c2.29,14.16,3.61,31.07-2.99,34.43-6.6,3.37-16.45-1.37-26.58-11.53l13.59-6.95-13.56,6.92c-8-8-16.19-19.41-23.09-32.91-15.58-30.51-18.66-60.12-6.86-66.15,6.62-3.38,16.33,2.09,23.46,14.35-5.28,.29-7.35-1.09-12.31,1.44-5.68,2.9-1.57,22.31,9.18,43.36,8.29,16.21,18.09,28.65,24.75,32.19l-.08,.04c2.05,1.12,3.81,1.43,5.15,.75,4.69-2.4,5.22-10.07,8.45-13.89"/><path class="cls-33" d="M673.14,209.89c-6.3,3.01-65.04,31.04-107.99,49.12-2.41,1.23-5.23,1.4-8.3,.7-4.56-.94-9.69-3.84-14.92-8.33-3.27-2.81-6.58-6.23-9.82-10.18-5.04-6.15-9.9-13.54-14.15-21.86-1.13-2.21-2.17-4.44-3.15-6.63-1.11-2.51-2.12-4.99-3.02-7.45,0,0,53.82,22.82,128.24-14.26l1.07,.41c2.01,2.42,4.04,4.65,6.05,6.67l-.03,.02c9.85,9.88,19.44,14.64,26.03,11.8Z"/><path class="cls-68" d="M464.51,362.44l-.13-.22s.07-.04,.1-.06c.02,.09,.03,.18,.03,.28Z"/><polygon class="cls-4" points="464.28 362.28 464.38 362.22 465.03 362.57 464.51 362.98 464.28 362.28"/><g><path class="cls-69" d="M463.96,359.69l-.28-.22c-4.26,3.25-11.06,6.99-18.66,10.24-.92,.4-1.82,.77-2.72,1.13-.3-.07-.6-.15-.9-.23l-.57-.16c-7.55-2.06-14.58-4.68-19.29-7.19l-.69-.38s-.01,0-.02,0c.21-1.9,.66-3.72,1.33-5.45,.04-.12,.09-.22,.14-.34h0c.08-.23,.18-.46,.28-.69,.2-.45,.41-.89,.65-1.33,2.16-4.1,5.59-7.46,9.84-9.52,.46-.22,.94-.43,1.42-.62,.47-.19,.95-.37,1.44-.53,1.22-.39,2.49-.68,3.8-.86,2.07-.28,4.11-.26,6.09,.02,.51,.07,1.02,.16,1.53,.27,.51,.11,1.01,.24,1.51,.39,4.54,1.32,8.54,4.09,11.37,7.85,.31,.4,.59,.82,.87,1.24,.13,.19,.25,.39,.37,.6,.07,.1,.13,.22,.2,.33,.93,1.56,1.66,3.27,2.17,5.08-.03,.02-.06,.05-.09,.07l.16,.2h.01s.02,.07,.02,.1Z"/><path class="cls-94" d="M438.53,372.28c-4.86,1.79-9.44,3.12-13.04,3.77-.42,.08-.83,.14-1.25,.21l-.59,.08c-.87-1.49-1.56-3.09-2.06-4.79l-.06-.23c-.08-.28-.15-.57-.22-.85-.1-.44-.2-.9-.27-1.36-.05-.27-.09-.54-.13-.81-.14-1.01-.2-2.02-.2-3.02,.22,.13,.45,.25,.68,.37,4.34,2.29,10.33,4.65,17.15,6.62Z"/><path class="cls-94" d="M464.51,362.41c.19,1.44,.25,2.86,.16,4.27-.02,.44-.06,.87-.12,1.3-.04,.3-.08,.61-.13,.91,0,.06-.02,.11-.03,.18-.29,1.73-.79,3.42-1.47,4.99-.24,0-.5,0-.78,0-.11,0-.21,0-.32,0-4.12-.09-9.57-.88-15.54-2.25,7.41-3.21,13.78-6.81,18.03-10.01,.03-.02,.06-.04,.08-.06,.05,.22,.08,.44,.11,.67Z"/><path class="cls-55" d="M445.78,372.03c-.51,.22-1.01,.43-1.52,.64,6.95,1.7,13.22,2.63,17.66,2.73,.12,0,.24,0,.36,0-.18,.35-.35,.67-.55,1-3.29,5.67-9.09,9.83-16.09,10.77-8.21,1.11-15.96-2.46-20.6-8.66-.22-.29-.43-.6-.64-.91,.41-.06,.83-.13,1.27-.21,4.01-.72,9.27-2.27,15.01-4.49-.05-.01-.11-.02-.17-.05-7.66-2.08-14.4-4.67-19.16-7.19-.23-.12-.46-.24-.68-.37,0-.37,0-.76,.03-1.12,.23,.12,.46,.25,.7,.38,4.55,2.43,11.46,5.08,19.38,7.24,.55,.15,1.09,.3,1.63,.43,.96-.39,1.92-.78,2.89-1.21,7.92-3.39,14.65-7.17,18.76-10.31,.03-.02,.06-.05,.09-.07,.09,.36,.16,.74,.21,1.11-.03,.02-.06,.04-.08,.06-4.35,3.27-10.92,6.96-18.54,10.23Z"/><path class="cls-4" d="M464.53,361.34l.07-.05c3.1-2.34,6.56-5.59,5.57-7.87-.76-1.81-3.86-2.3-9.23-1.44l-.69,.09c.31,.4,.59,.82,.87,1.24,.13,.19,.25,.39,.37,.6l.16-.02c5.1-.75,5.94,.24,6.07,.57,.15,.33,.28,1.65-3.86,4.85-.03,.02-.06,.05-.09,.07l.16,.2h.01s.14,.19,.14,.19l-.11-.1-.28-.22c-4.26,3.25-11.06,6.99-18.66,10.24-.92,.4-1.82,.77-2.72,1.13-.3-.07-.6-.15-.9-.23l-.57-.16c-7.55-2.06-14.58-4.68-19.29-7.19l-.69-.38s-.01,0-.02,0c-4.7-2.65-4.75-4.01-4.66-4.37,.09-.35,.81-1.49,5.87-1.43h.25s0,0,0,0c.08-.23,.18-.46,.28-.68,.2-.45,.41-.89,.65-1.33h-.75c-3.69-.09-8.23,.34-8.88,2.75-.66,2.43,3.29,5.19,6.72,7.05,.23,.14,.46,.26,.7,.39,4.73,2.5,11.09,4.92,17.96,6.85-.15,.06-.31,.11-.46,.16-4.86,1.79-9.44,3.12-13.04,3.77-.42,.08-.83,.14-1.25,.21l-.59,.08c-4.41,.56-5.15-.38-5.28-.68-.34-.83,.83-2.43,3.16-4.34-.08-.28-.15-.57-.22-.85-.1-.44-.2-.9-.27-1.36l-.15,.12c-2.79,2.17-5.92,5.24-4.96,7.47,.9,2.07,4.84,2.04,8.29,1.57,.28-.04,.54-.07,.8-.12,.4-.05,.8-.13,1.32-.22,4.6-.86,10.31-2.59,16.11-4.89,7.03,1.78,13.72,2.85,18.84,2.99,.12,0,.25,.02,.33,0,1.44,.04,2.99,0,4.4-.19,2.31-.31,4.24-1.04,4.65-2.51h0c.49-1.84-1.52-4.08-5.96-6.66l-.02-.02c-.02,.44-.06,.87-.12,1.3-.04,.3-.08,.61-.13,.91,3.72,2.25,3.76,3.45,3.67,3.77-.09,.31-.71,1.34-5.17,1.4-.24,0-.5,0-.78,0-.11,0-.21,0-.32,0-4.12-.09-9.57-.88-15.54-2.25-.18-.04-.35-.07-.53-.12,.04-.02,.08-.03,.1-.04,7.46-3.2,14.08-6.85,18.67-10.3Z"/></g><g><path class="cls-93" d="M450.24,280.53v63.45c0,.21-.01,.42-.03,.63-.49-.17-.98-.33-1.48-.47-1.92-.55-3.94-.84-6.03-.84-1.32,0-2.62,.12-3.88,.34-.51,.09-1.01,.2-1.5,.33v-57.03c2.14-1.06,4.3-2.12,6.46-3.2,2.16-1.07,4.32-2.14,6.46-3.21Z"/><path class="cls-93" d="M449.57,279.19c-1.89,.94-3.79,1.89-5.69,2.83l-8.06,3.98v57.98c0,.14,0,.27,.01,.41,.49-.16,.99-.3,1.49-.42,.49-.13,.99-.24,1.5-.33v-55.77l6.4-3.16c1.17-.59,2.35-1.17,3.52-1.76v61.03s0,.11-.01,.16c.5,.14,.99,.3,1.48,.47,.49,.18,.97,.37,1.44,.59,.06-.4,.09-.8,.09-1.22v-65.88l-2.17,1.09Z"/></g><path class="cls-93" d="M435.83,344.39s5.41,4.47,15.82,.81l-4.12-2.8h-9.32l-2.39,2Z"/><path class="cls-50" d="M368.73,306.29c-.47,.24-2.78,1.42-6.7-6.29-3.92-7.7-2.09-8.63-1.14-9.12,9.01-4.58,18.02-9.17,27.04-13.75l7.84,15.41-27.04,13.75Z"/><path class="cls-104" d="M465.64,279.39c-15.97,7.71-52.77,26.19-62.84,30.32-3.29,1.68-8.65-1.72-13.78-8.13l.03-.02s-.02-.03-.03-.03c-2.37-2.95-4.7-6.54-6.77-10.58-2.02-3.94-3.53-7.84-4.54-11.42-2.23-8-1.87-14.4,1.45-16.1,0,0,40.72-22.58,61.06-33.79,.16,2.13,.49,4.41,.99,6.78,.8,3.88,2.06,8.04,3.75,12.31,1.04,2.62,2.23,5.27,3.59,7.94,2,3.91,4.19,7.52,6.48,10.78,3.39,4.82,7.01,8.86,10.55,11.82l-.06,.03s.08,.06,.11,.09Z"/><path class="cls-36" d="M465.64,279.39c-15.97,7.71-52.77,26.19-62.84,30.32-3.29,1.68-8.65-1.72-13.78-8.13l.03-.02s-.02-.03-.03-.03c-2.37-2.95-4.7-6.54-6.77-10.58,0,0,48.41-2.91,76.71-18.39,2.19,2.61,4.41,4.86,6.62,6.71l-.06,.03s.08,.06,.11,.09Z"/><path class="cls-97" d="M348,323.48c-.47,.24-2.77,1.41-9.37-11.56-6.6-12.97-4.78-13.9-3.83-14.38,8.97-4.56,17.94-9.13,26.92-13.69l13.2,25.94-26.92,13.69Z"/><path class="cls-93" d="M443.78,379.23c-4.39,0-7.97,3.58-7.97,7.97v144.71c0,4.39,3.57,7.96,7.97,7.96s7.96-3.57,7.96-7.96v-144.71c0-4.39-3.57-7.97-7.96-7.97Z"/><path class="cls-95" d="M628.34,114.79s15.94-21.38,39.98,28.58c20.45,42.5-.99,47.76-.99,47.76"/><path class="cls-43" d="M669.75,186.53c-.28,2.17-.99,3.72-2.18,4.47-.08,.04-.16,.09-.24,.13-.53,.27-1.11,.39-1.75,.36-1-.04-2.14-.42-3.39-1.1l.08-.04c-6.66-3.53-16.46-15.98-24.75-32.19-10.75-21.05-14.86-40.46-9.18-43.36,5.69-2.91,19,11.8,29.75,32.85,.3,.59,.6,1.19,.89,1.78,.29,.58,.57,1.18,.86,1.76,.29,.59,.56,1.18,.83,1.76,.28,.59,.55,1.18,.81,1.76,.16,.36,.32,.73,.48,1.09,.17,.36,.32,.72,.47,1.08,.32,.72,.61,1.43,.91,2.14-.04,.06,.04-.06,0,0l3.3,8.97c2.52,7.82,3.61,14.41,3.02,18.57l.09-.03Z"/></g><g><g></g><g><polygon class="xo-lite" points="355.94 684.92 341.54 684.92 327.84 664.14 315.68 684.92 301.81 684.92 317.59 659.25 338.96 659.25 355.94 684.92"/><path class="xo-lite" d="M406.2,627.17c4.62,2.64,8.27,6.33,10.94,11.07,2.67,4.74,4.01,10.1,4.01,16.07s-1.34,11.35-4.01,16.12c-2.67,4.77-6.32,8.48-10.94,11.12-4.63,2.64-9.78,3.97-15.47,3.97s-10.85-1.32-15.47-3.97c-4.63-2.64-8.27-6.35-10.95-11.12-2.67-4.77-4.01-10.14-4.01-16.12s1.34-11.33,4.01-16.07c2.67-4.74,6.32-8.43,10.95-11.07,4.62-2.64,9.78-3.97,15.47-3.97s10.84,1.32,15.47,3.97Zm-24.86,9.65c-2.7,1.61-4.81,3.92-6.33,6.94-1.52,3.02-2.28,6.54-2.28,10.56s.76,7.54,2.28,10.56c1.52,3.02,3.63,5.33,6.33,6.94,2.7,1.61,5.83,2.41,9.39,2.41s6.69-.8,9.39-2.41c2.7-1.61,4.81-3.92,6.33-6.94,1.52-3.02,2.28-6.53,2.28-10.56s-.76-7.54-2.28-10.56-3.63-5.33-6.33-6.94c-2.7-1.61-5.83-2.41-9.39-2.41s-6.69,.8-9.39,2.41Z"/><polygon class="xo-lite" points="354.99 624.06 339.53 649.22 317.49 649.22 300.86 624.06 315.26 624.06 328.96 644.84 341.12 624.06 354.99 624.06"/><g><path class="xo-lite" d="M476.32,675.94h20.81v10.04h-33.47v-63.14h12.66v53.1Z"/><path class="xo-lite" d="M517.84,622.84v63.14h-12.66v-63.14h12.66Z"/><path class="xo-lite" d="M573.29,622.84v10.22h-16.82v52.92h-12.66v-52.92h-16.83v-10.22h46.31Z"/><path class="xo-lite" d="M595.18,633.06v15.83h21.26v10.04h-21.26v16.73h23.97v10.31h-36.64v-63.23h36.64v10.31h-23.97Z"/></g></g></g></g></g></svg>
