<svg xmlns="http://www.w3.org/2000/svg" xmlns:xlink="http://www.w3.org/1999/xlink" viewBox="71.02 47.7 347.95 441.88"><defs><style>.cls-1{fill:#5d57ba;}.cls-2{fill:#fff;}.cls-3{fill:#5945b8;}.cls-4{isolation:isolate;}.cls-5{fill:#282465;}.cls-6{fill:#b1a2fd;}.cls-7{fill:#eaea92;}.cls-8{fill:#e7756e;}.cls-9{fill:#593f91;}.cls-10{fill:#d91118;}.cls-11{fill:#ec4a52;}.cls-12{fill:none;stroke:#593f91;stroke-linecap:round;stroke-linejoin:round;stroke-width:0px;}.cls-13{fill:url(#Dégradé_sans_nom_18-2);}.cls-13,.cls-14,.cls-15{mix-blend-mode:overlay;opacity:.4;}.cls-16{fill:#bda3ce;}.cls-17{fill:#5d69ce;}.cls-18{fill:#8478ff;}.cls-19{fill:#e9706f;}.cls-14{fill:url(#Dégradé_sans_nom_18);}.cls-20{fill:url(#Dégradé_sans_nom_6);}.cls-21{fill:#7e56fc;}.cls-15{fill:url(#Dégradé_sans_nom_18-3);}.cls-22{fill:#7455e7;}</style><style class="darkreader darkreader--sync" media="screen"/><linearGradient id="Dégradé_sans_nom_18" x1="185.77" y1="208.56" x2="293.58" y2="208.56" gradientUnits="userSpaceOnUse"><stop offset="0" stop-color="#8478ff" stop-opacity=".9" style="--darkreader-inline-stopcolor: #0c0084;" data-darkreader-inline-stopcolor=""/><stop offset=".28" stop-color="#ada5ff" stop-opacity=".6" style="--darkreader-inline-stopcolor: #313638;" data-darkreader-inline-stopcolor=""/><stop offset=".53" stop-color="#d0cbff" stop-opacity=".34" style="--darkreader-inline-stopcolor: #272a2c;" data-darkreader-inline-stopcolor=""/><stop offset=".74" stop-color="#e9e7ff" stop-opacity=".16" style="--darkreader-inline-stopcolor: #1f2123;" data-darkreader-inline-stopcolor=""/><stop offset=".91" stop-color="#f9f8ff" stop-opacity=".04" style="--darkreader-inline-stopcolor: #1a1c1d;" data-darkreader-inline-stopcolor=""/><stop offset="1" stop-color="#fff" stop-opacity="0" style="--darkreader-inline-stopcolor: #181a1b;" data-darkreader-inline-stopcolor=""/></linearGradient><linearGradient id="Dégradé_sans_nom_18-2" x1="249" y1="175.25" x2="410.35" y2="175.25" xlink:href="#Dégradé_sans_nom_18"/><linearGradient id="Dégradé_sans_nom_18-3" x1="119.47" y1="241.04" x2="202.85" y2="241.04" xlink:href="#Dégradé_sans_nom_18"/><linearGradient id="Dégradé_sans_nom_6" x1="378.79" y1="105.1" x2="418.24" y2="86.04" gradientUnits="userSpaceOnUse"><stop offset="0" stop-color="#8478ff" style="--darkreader-inline-stopcolor: #0c0084;" data-darkreader-inline-stopcolor=""/><stop offset=".17" stop-color="#877bff" style="--darkreader-inline-stopcolor: #0c0082;" data-darkreader-inline-stopcolor=""/><stop offset=".35" stop-color="#9287ff" style="--darkreader-inline-stopcolor: #0b007b;" data-darkreader-inline-stopcolor=""/><stop offset=".52" stop-color="#a49bff" style="--darkreader-inline-stopcolor: #34393b;" data-darkreader-inline-stopcolor=""/><stop offset=".69" stop-color="#bdb7ff" style="--darkreader-inline-stopcolor: #2c3032;" data-darkreader-inline-stopcolor=""/><stop offset=".86" stop-color="#dedaff" style="--darkreader-inline-stopcolor: #222527;" data-darkreader-inline-stopcolor=""/><stop offset="1" stop-color="#fff" style="--darkreader-inline-stopcolor: #181a1b;" data-darkreader-inline-stopcolor=""/></linearGradient></defs><g class="cls-4"><g id="Calque_1"><path class="cls-16" d="M418.31,135.58l-.3,.15c.29-.33,.57-.66,.85-1,.03,.18,.05,.35,.08,.52l-.63,.32h0Z"/><polygon class="cls-9" points="418.31 135.58 418.31 135.58 418.31 135.58 418.31 135.58"/><line class="cls-12" x1="406.04" y1="141.84" x2="405.02" y2="142.36"/><path class="cls-17" d="M171.99,334.44c-1.74-.94-3.33-2.14-4.73-3.58-1.57-1.62-2.82-3.47-3.72-5.51l-1.25-2.82-69.66,140.66c-1.86,3.8-.29,8.41,3.51,10.29,1.09,.53,2.24,.78,3.37,.78,2.84,0,5.57-1.58,6.91-4.29l66.8-134.87-1.23-.66Z"/><path class="cls-17" d="M269.36,463.18l-69.64-140.64-1.26,2.8c-.93,2.07-2.18,3.92-3.73,5.52-1.37,1.42-2.95,2.63-4.72,3.58l-1.23,.66,66.78,134.86c1.33,2.72,4.07,4.3,6.91,4.3,1.13,0,2.29-.25,3.37-.78h0c3.8-1.88,5.37-6.5,3.51-10.3Z"/><path class="cls-3" d="M293.58,198.26c-6.76,3.14-39.45,20.12-47.2,23.61-1.88,.85-3.79,1.7-5.68,2.56-1.9,.85-3.8,1.68-5.68,2.52-5.63,2.49-11.17,4.89-16.38,7.08-4.11,2.1-9.85,.05-15.8-4.95-.03-.03-.07-.06-.11-.09l.06-.03c-3.54-2.97-7.15-7-10.55-11.82-2.29-3.25-4.48-6.87-6.48-10.78-1.36-2.67-2.56-5.32-3.59-7.94-1.69-4.27-2.95-8.43-3.75-12.31-.5-2.37-.83-4.65-.99-6.78-.56-7.75,1.14-13.59,5.26-15.7,0,0,48.67-27.95,72.27-41.19,.46,5.91,1.77,12.52,3.91,19.5,1.46,4.76,3.31,9.71,5.52,14.71,1.06,2.36,2.18,4.76,3.39,7.14,4.57,8.95,9.81,16.91,15.22,23.52,3.49,4.25,7.05,7.93,10.57,10.95Z"/><path class="cls-14" d="M293.58,198.27c-6.76,3.14-39.45,20.12-47.2,23.61-1.88,.85-3.79,1.7-5.68,2.56-1.9,.85-3.8,1.68-5.68,2.52-5.63,2.49-11.17,4.89-16.38,7.08-4.11,2.1-9.85,.05-15.8-4.95-.03-.03-.07-.06-.11-.09l.06-.03c-3.54-2.97-7.15-7-10.55-11.82-2.29-3.25-4.48-6.87-6.48-10.78,0,0,58.23-8.37,93.34-24.1,1.29,1.76,2.6,3.45,3.91,5.05,3.49,4.25,7.05,7.93,10.57,10.95Z"/><path class="cls-21" d="M410.35,159.58c-6.3,3.01-65.04,31.04-107.99,49.12-2.41,1.23-5.23,1.4-8.3,.7-4.56-.94-9.69-3.84-14.92-8.33-3.27-2.81-6.58-6.23-9.82-10.18-5.04-6.15-9.9-13.54-14.15-21.86-1.13-2.21-2.17-4.44-3.15-6.63-2.06-4.65-3.78-9.24-5.13-13.67-1.99-6.49-3.2-12.63-3.63-18.12-.9-11.32,1.54-19.87,7.51-22.92,0,0,63.47-38.97,103.64-58.99-11.8,6.02-8.72,35.64,6.86,66.15,6.9,13.5,15.09,24.91,23.09,32.91l-.03,.02c9.85,9.88,19.44,14.64,26.03,11.8Z"/><path class="cls-1" d="M413.9,124.88c2.29,14.16,3.61,31.07-2.99,34.43-6.6,3.37-16.45-1.37-26.58-11.53l13.59-6.95-13.56,6.92c-8-8-16.19-19.41-23.09-32.91-15.58-30.51-18.66-60.12-6.86-66.15,6.62-3.38,16.33,2.09,23.46,14.35-5.28,.29-7.35-1.09-12.31,1.44-5.68,2.9-1.57,22.31,9.18,43.36,8.29,16.21,18.09,28.65,24.75,32.19l-.08,.04c2.05,1.12,3.81,1.43,5.15,.75,4.69-2.4,5.22-10.07,8.45-13.89"/><path class="cls-13" d="M410.35,159.58c-6.3,3.01-65.04,31.04-107.99,49.12-2.41,1.23-5.23,1.4-8.3,.7-4.56-.94-9.69-3.84-14.92-8.33-3.27-2.81-6.58-6.23-9.82-10.18-5.04-6.15-9.9-13.54-14.15-21.86-1.13-2.21-2.17-4.44-3.15-6.63-1.11-2.51-2.12-4.99-3.02-7.45,0,0,53.82,22.82,128.24-14.26l1.07,.41c2.01,2.42,4.04,4.65,6.05,6.67l-.03,.02c9.85,9.88,19.44,14.64,26.03,11.8Z"/><path class="cls-10" d="M201.72,312.13l-.13-.22s.07-.04,.1-.06c.02,.09,.03,.18,.03,.28Z"/><polygon class="cls-2" points="201.49 311.97 201.59 311.91 202.24 312.26 201.72 312.68 201.49 311.97"/><path class="cls-11" d="M201.18,309.38l-.28-.22c-4.26,3.25-11.06,6.99-18.66,10.24-.92,.4-1.82,.77-2.72,1.13-.3-.07-.6-.15-.9-.23l-.57-.16c-7.55-2.06-14.58-4.68-19.29-7.19l-.69-.38s-.01,0-.02,0c.21-1.9,.66-3.72,1.33-5.45,.04-.12,.09-.22,.14-.34h0c.08-.23,.18-.46,.28-.69,.2-.45,.41-.89,.65-1.33,2.16-4.1,5.59-7.46,9.84-9.52,.46-.22,.94-.43,1.42-.62,.47-.19,.95-.37,1.44-.53,1.22-.39,2.49-.68,3.8-.86,2.07-.28,4.11-.26,6.09,.02,.51,.07,1.02,.16,1.53,.27,.51,.11,1.01,.24,1.51,.39,4.54,1.32,8.54,4.09,11.37,7.85,.31,.4,.59,.82,.87,1.24,.13,.19,.25,.39,.37,.6,.07,.1,.13,.22,.2,.33,.93,1.56,1.66,3.27,2.17,5.08-.03,.02-.06,.05-.09,.07l.16,.2h.01s.02,.07,.02,.1Z"/><path class="cls-19" d="M175.74,321.97c-4.86,1.79-9.44,3.12-13.04,3.77-.42,.08-.83,.14-1.25,.21l-.59,.08c-.87-1.49-1.56-3.09-2.06-4.79l-.06-.23c-.08-.28-.15-.57-.22-.85-.1-.44-.2-.9-.27-1.36-.05-.27-.09-.54-.13-.81-.14-1.01-.2-2.02-.2-3.02,.22,.13,.45,.25,.68,.37,4.34,2.29,10.33,4.65,17.15,6.62Z"/><path class="cls-19" d="M201.72,312.1c.19,1.44,.25,2.86,.16,4.27-.02,.44-.06,.87-.12,1.3-.04,.3-.08,.61-.13,.91,0,.06-.02,.11-.03,.18-.29,1.73-.79,3.42-1.47,4.99-.24,0-.5,0-.78,0-.11,0-.21,0-.32,0-4.12-.09-9.57-.88-15.54-2.25,7.41-3.21,13.78-6.81,18.03-10.01,.03-.02,.06-.04,.08-.06,.05,.22,.08,.44,.11,.67Z"/><path class="cls-8" d="M182.99,321.72c-.51,.22-1.01,.43-1.52,.64,6.95,1.7,13.22,2.63,17.66,2.73,.12,0,.24,0,.36,0-.18,.35-.35,.67-.55,1-3.29,5.67-9.09,9.83-16.09,10.77-8.21,1.11-15.96-2.46-20.6-8.66-.22-.29-.43-.6-.64-.91,.41-.06,.83-.13,1.27-.21,4.01-.72,9.27-2.27,15.01-4.49-.05-.01-.11-.02-.17-.05-7.66-2.08-14.4-4.67-19.16-7.19-.23-.12-.46-.24-.68-.37,0-.37,0-.76,.03-1.12,.23,.12,.46,.25,.7,.38,4.55,2.43,11.46,5.08,19.38,7.24,.55,.15,1.09,.3,1.63,.43,.96-.39,1.92-.78,2.89-1.21,7.92-3.39,14.65-7.17,18.76-10.31,.03-.02,.06-.05,.09-.07,.09,.36,.16,.74,.21,1.11-.03,.02-.06,.04-.08,.06-4.35,3.27-10.92,6.96-18.54,10.23Z"/><path class="cls-7" d="M201.74,311.03l.07-.05c3.1-2.34,6.56-5.59,5.57-7.87-.76-1.81-3.86-2.3-9.23-1.44l-.69,.09c.31,.4,.59,.82,.87,1.24,.13,.19,.25,.39,.37,.6l.16-.02c5.1-.75,5.94,.24,6.07,.57,.15,.33,.28,1.65-3.86,4.85-.03,.02-.06,.05-.09,.07l.16,.2h.01s.14,.19,.14,.19l-.11-.1-.28-.22c-4.26,3.25-11.06,6.99-18.66,10.24-.92,.4-1.82,.77-2.72,1.13-.3-.07-.6-.15-.9-.23l-.57-.16c-7.55-2.06-14.58-4.68-19.29-7.19l-.69-.38s-.01,0-.02,0c-4.7-2.65-4.75-4.01-4.66-4.37,.09-.35,.81-1.49,5.87-1.43h.25s0,0,0,0c.08-.23,.18-.46,.28-.68,.2-.45,.41-.89,.65-1.33h-.75c-3.69-.09-8.23,.34-8.88,2.75-.66,2.43,3.29,5.19,6.72,7.05,.23,.14,.46,.26,.7,.39,4.73,2.5,11.09,4.92,17.96,6.85-.15,.06-.31,.11-.46,.16-4.86,1.79-9.44,3.12-13.04,3.77-.42,.08-.83,.14-1.25,.21l-.59,.08c-4.41,.56-5.15-.38-5.28-.68-.34-.83,.83-2.43,3.16-4.34-.08-.28-.15-.57-.22-.85-.1-.44-.2-.9-.27-1.36l-.15,.12c-2.79,2.17-5.92,5.24-4.96,7.47,.9,2.07,4.84,2.04,8.29,1.57,.28-.04,.54-.07,.8-.12,.4-.05,.8-.13,1.32-.22,4.6-.86,10.31-2.59,16.11-4.89,7.03,1.78,13.72,2.85,18.84,2.99,.12,0,.25,.02,.33,0,1.44,.04,2.99,0,4.4-.19,2.31-.31,4.24-1.04,4.65-2.51h0c.49-1.84-1.52-4.08-5.96-6.66l-.02-.02c-.02,.44-.06,.87-.12,1.3-.04,.3-.08,.61-.13,.91,3.72,2.25,3.76,3.45,3.67,3.77-.09,.31-.71,1.34-5.17,1.4-.24,0-.5,0-.78,0-.11,0-.21,0-.32,0-4.12-.09-9.57-.88-15.54-2.25-.18-.04-.35-.07-.53-.12,.04-.02,.08-.03,.1-.04,7.46-3.2,14.08-6.85,18.67-10.3Z"/><g><path class="cls-18" d="M187.45,230.22v63.45c0,.21-.01,.42-.03,.63-.49-.17-.98-.33-1.48-.47-1.92-.55-3.94-.84-6.03-.84-1.32,0-2.62,.12-3.88,.34-.51,.09-1.01,.2-1.5,.33v-57.03c2.14-1.06,4.3-2.12,6.46-3.2,2.16-1.07,4.32-2.14,6.46-3.21Z"/><path class="cls-18" d="M186.78,228.88c-1.89,.94-3.79,1.89-5.69,2.83l-8.06,3.98v57.98c0,.14,0,.27,.01,.41,.49-.16,.99-.3,1.49-.42,.49-.13,.99-.24,1.5-.33v-55.77l6.4-3.16c1.17-.59,2.35-1.17,3.52-1.76v61.03s0,.11-.01,.16c.5,.14,.99,.3,1.48,.47,.49,.18,.97,.37,1.44,.59,.06-.4,.09-.8,.09-1.22v-65.88l-2.17,1.09Z"/></g><path class="cls-18" d="M173.04,294.08s5.41,4.47,15.82,.81l-4.12-2.8h-9.32l-2.39,2Z"/><path class="cls-6" d="M105.94,255.98c-.47,.24-2.78,1.42-6.7-6.29-3.92-7.7-2.09-8.63-1.14-9.12,9.01-4.58,18.02-9.17,27.04-13.75l7.84,15.41-27.04,13.75Z"/><path class="cls-22" d="M202.85,229.08c-15.97,7.71-52.77,26.19-62.84,30.32-3.29,1.68-8.65-1.72-13.78-8.13l.03-.02s-.02-.03-.03-.03c-2.37-2.95-4.7-6.54-6.77-10.58-2.02-3.94-3.53-7.84-4.54-11.42-2.23-8-1.87-14.4,1.45-16.1,0,0,40.72-22.58,61.06-33.79,.16,2.13,.49,4.41,.99,6.78,.8,3.88,2.06,8.04,3.75,12.31,1.04,2.62,2.23,5.27,3.59,7.94,2,3.91,4.19,7.52,6.48,10.78,3.39,4.82,7.01,8.86,10.55,11.82l-.06,.03s.08,.06,.11,.09Z"/><path class="cls-15" d="M202.85,229.08c-15.97,7.71-52.77,26.19-62.84,30.32-3.29,1.68-8.65-1.72-13.78-8.13l.03-.02s-.02-.03-.03-.03c-2.37-2.95-4.7-6.54-6.77-10.58,0,0,48.41-2.91,76.71-18.39,2.19,2.61,4.41,4.86,6.62,6.71l-.06,.03s.08,.06,.11,.09Z"/><path class="cls-21" d="M85.21,273.17c-.47,.24-2.77,1.41-9.37-11.56-6.6-12.97-4.78-13.9-3.83-14.38,8.97-4.56,17.94-9.13,26.92-13.69l13.2,25.94-26.92,13.69Z"/><path class="cls-18" d="M180.99,328.93c-4.39,0-7.97,3.58-7.97,7.97v144.71c0,4.39,3.57,7.96,7.97,7.96s7.96-3.57,7.96-7.96v-144.71c0-4.39-3.57-7.97-7.96-7.97Z"/><path class="cls-20" d="M365.55,64.48s15.94-21.38,39.98,28.58c20.45,42.5-.99,47.76-.99,47.76"/><path class="cls-5" d="M406.96,136.22c-.28,2.17-.99,3.72-2.18,4.47-.08,.04-.16,.09-.24,.13-.53,.27-1.11,.39-1.75,.36-1-.04-2.14-.42-3.39-1.1l.08-.04c-6.66-3.53-16.46-15.98-24.75-32.19-10.75-21.05-14.86-40.46-9.18-43.36,5.69-2.91,19,11.8,29.75,32.85,.3,.59,.6,1.19,.89,1.78,.29,.58,.57,1.18,.86,1.76,.29,.59,.56,1.18,.83,1.76,.28,.59,.55,1.18,.81,1.76,.16,.36,.32,.73,.48,1.09,.17,.36,.32,.72,.47,1.08,.32,.72,.61,1.43,.91,2.14-.04,.06,.04-.06,0,0l3.3,8.97c2.52,7.82,3.61,14.41,3.02,18.57l.09-.03Z"/></g></g></svg>