<svg width="578" height="416" viewBox="0 0 578 416" fill="none" xmlns="http://www.w3.org/2000/svg">
  <g clip-path="url(#clip0_814_57510)">
    <g opacity="0.5">
      <path opacity="0.5" d="M570.058 193.941H514.314C510.204 193.941 506.872 197.276 506.872 201.389V257.173C506.872 261.286 510.204 264.621 514.314 264.621H570.058C574.168 264.621 577.5 261.286 577.5 257.173V201.389C577.5 197.276 574.168 193.941 570.058 193.941Z" fill="#D0D2D5"/>
      <path opacity="0.1" d="M532.172 214.254H552.201C552.201 214.254 569.067 229.023 552.201 244.319H532.172C532.172 244.319 515.305 230.605 532.172 214.254Z" fill="black"/>
      <path opacity="0.5" d="M536.915 222.688H534.28V230.599H536.915V222.688Z" fill="#3F3D56"/>
      <path opacity="0.5" d="M550.092 221.633H547.457V231.127H550.092V221.633Z" fill="#3F3D56"/>
      <path opacity="0.5" d="M542.186 235.348C543.025 235.348 543.829 235.681 544.422 236.275C545.015 236.868 545.349 237.673 545.349 238.512V241.15H539.024V238.512C539.024 237.673 539.357 236.868 539.95 236.275C540.543 235.681 541.347 235.348 542.186 235.348Z" fill="#3F3D56"/>
    </g>
    <path d="M328.22 125.779C329.89 125.742 331.556 125.868 333.222 125.779C334.745 125.705 336.258 125.457 337.781 125.304C340.385 125.046 343.009 125.067 345.624 124.956C347.342 124.882 349.155 124.713 350.547 123.701C351.854 122.757 352.581 121.216 353.746 120.098C358.49 115.536 361.742 109.433 365.958 104.369C367.012 103.082 368.114 101.801 369.068 100.424C370.897 97.7867 372.188 94.796 373.474 91.8422C373.981 90.7472 374.404 89.6152 374.739 88.456C374.977 87.5276 375.098 86.5677 375.414 85.6604C376.068 83.8038 377.638 82.1792 377.828 80.2224L377.607 80.254C379.525 77.8119 379.23 73.5553 380.179 70.4275C380.785 68.5697 381.52 66.7562 382.377 65L385.903 57.3149C386.509 55.9963 387.141 54.6354 388.19 53.6227C389.461 52.3937 391.232 51.7819 392.507 50.5582C393.266 49.8047 393.833 48.8806 394.162 47.8629L394.273 47.9684C394.947 48.6277 395.474 49.4347 396.133 50.1151C397.551 51.5815 399.517 52.4201 400.961 53.8601C401.699 54.5932 402.305 55.4846 403.196 56.0174C403.651 56.266 404.172 56.3656 404.687 56.3022C405.201 56.2388 405.682 56.0156 406.063 55.664C408.651 53.3854 412.51 53.1744 415.308 51.1648C416.083 50.6057 416.758 49.9252 417.485 49.3134C419.222 47.9286 421.108 46.7432 423.109 45.7794C424.283 45.7986 425.45 45.9651 426.582 46.2752C428.206 46.7236 429.792 47.4673 431.479 47.4356C432.985 47.3614 434.427 46.8069 435.595 45.8533C436.455 45.1887 437.24 44.2709 437.366 43.216C437.399 42.6745 437.301 42.1332 437.081 41.6375C436.861 41.1419 436.525 40.7064 436.101 40.3677C435.986 40.2675 435.864 40.1778 435.743 40.0882C435.707 39.6148 435.576 39.1535 435.358 38.7321C435.14 38.3106 434.839 37.9376 434.473 37.6355C433.618 36.9664 432.643 36.4685 431.6 36.1692C431.02 35.941 430.409 35.8023 429.787 35.7577C428.818 35.8106 427.865 36.0337 426.973 36.4171C425.178 36.9951 423.329 37.3841 421.454 37.5775C421.122 37.6091 420.447 37.5406 419.873 37.5353L419.678 36.9762C417.485 37.9889 414.934 37.1555 412.531 37.1608C411.361 37.1608 410.196 37.3665 409.031 37.4403C407.741 37.4914 406.449 37.4632 405.162 37.3559L401.267 37.108C399.604 37.0225 397.946 36.8464 396.302 36.5806C395.865 35.6892 395.427 34.7978 394.937 33.9433C394.111 32.507 393.142 31.1585 392.043 29.9188C392.485 29.5385 392.949 29.1862 393.435 28.8639L393.53 28.8059C393.651 28.7373 393.798 28.6635 393.962 28.5896C395.482 29.3131 397.16 29.6399 398.841 29.5396C400.521 29.4394 402.149 28.9153 403.572 28.0161C404.996 27.1169 406.169 25.8719 406.982 24.397C407.796 22.9221 408.223 21.2652 408.224 19.5806C408.513 19.4695 408.795 19.3409 409.068 19.1956C409.226 19.1112 409.384 19.0215 409.537 18.9213L409.763 18.7684C409.908 18.6591 410.045 18.5411 410.175 18.415C410.238 18.3517 410.301 18.2884 410.359 18.2198C410.475 18.0832 410.575 17.9347 410.66 17.7767C410.691 17.7134 410.723 17.6554 410.749 17.5921C410.775 17.5288 410.749 17.5447 410.775 17.5183C410.802 17.4919 410.812 17.4233 410.828 17.3811C410.844 17.339 410.828 17.3179 410.855 17.2862L410.886 17.1596C410.889 17.1263 410.889 17.0928 410.886 17.0594C410.886 17.0172 410.886 16.975 410.886 16.9381V16.8273C410.884 16.7887 410.884 16.7499 410.886 16.7113C410.889 16.6726 410.889 16.6339 410.886 16.5952C410.886 16.5583 410.886 16.5161 410.886 16.4792C410.889 16.4406 410.889 16.4018 410.886 16.3632V16.2207C410.889 16.1803 410.889 16.1398 410.886 16.0994C410.886 16.0625 410.886 16.0256 410.886 15.9887V15.8621V15.7566C410.886 15.7091 410.886 15.6616 410.886 15.6194C410.889 15.5878 410.889 15.5561 410.886 15.5245C410.889 15.4753 410.889 15.426 410.886 15.3768C410.886 15.3452 410.886 15.3188 410.886 15.2924C410.886 15.266 410.886 15.1869 410.849 15.1342V15.0603L410.802 14.8916V14.8283C410.802 14.7702 410.765 14.7122 410.749 14.6542V14.6015L410.686 14.4116V14.3799C410.686 14.2903 410.628 14.1953 410.596 14.1056C410.201 12.9663 409.774 11.8323 409.321 10.7141C408.99 9.77837 408.494 8.90998 407.855 8.15065C406.923 7.15904 405.584 6.66323 404.466 5.87204C403.149 4.94372 402.163 3.63035 401.046 2.4594C399.928 1.28844 398.574 0.228252 396.966 0.033093C395.689 -0.041422 394.413 0.191923 393.245 0.713513C383.563 4.28967 375.635 11.3365 366.954 16.9275C363.576 19.1059 359.791 21.1472 355.791 20.8676L359.322 26.4798C359.491 26.7541 359.665 27.0072 359.849 27.2921C360.034 27.5769 360.218 27.8195 360.413 28.0833C360.911 28.7667 361.54 29.3441 362.263 29.7817C362.446 29.8878 362.636 29.9795 362.833 30.0559C363.005 30.1208 363.181 30.1754 363.36 30.2195C364.619 30.5201 365.995 30.2669 367.271 30.0137C367.708 29.9293 368.146 29.8397 368.578 29.7395L369.105 29.5918H369.189C369.189 29.6234 369.189 29.6498 369.189 29.6762C368.894 30.2036 368.615 30.6836 368.367 31.2058C367.553 33.096 366.923 35.0601 366.485 37.0711C365.489 41.027 364.488 45.0674 364.751 49.1288C364.841 50.5002 365.073 51.9032 364.677 53.2218C364.488 53.8706 364.15 54.5352 364.33 55.1787C364.518 55.5503 364.68 55.9345 364.815 56.3286C364.899 56.9404 364.414 57.4679 364.066 57.9742C363.718 58.4806 363.539 59.2876 364.034 59.641C363.533 59.8169 363.09 60.1301 362.758 60.545C362.425 60.96 362.216 61.46 362.153 61.9882C362.164 62.2987 362.103 62.6075 361.974 62.8901C361.826 63.0811 361.648 63.2468 361.447 63.3807C360.911 63.8301 360.561 64.461 360.461 65.1529C359.444 65.1529 358.584 66.1445 357.657 66.7353C356.845 67.1465 355.987 67.4582 355.1 67.6636C352.555 68.4759 350.357 70.1479 348.37 71.9096C347.263 72.8749 346.146 73.9404 345.661 75.3223C345.502 75.7759 345.418 76.2506 345.281 76.7095C344.997 77.5981 344.586 78.4404 344.058 79.2097C343.048 80.7662 341.803 82.1574 340.369 83.3344C339.643 83.9193 339.004 84.6048 338.471 85.3703C337.665 86.536 336.026 86.8841 335.161 88.0076C334.85 88.5611 334.498 89.09 334.107 89.59C333.438 90.2229 332.426 90.2757 331.572 90.6449C329.574 91.473 328.652 93.8097 326.87 95.0439C326.772 95.127 326.646 95.1686 326.517 95.1599C326.364 95.1599 326.275 94.9753 326.143 94.8857C325.885 94.7116 325.542 94.8435 325.236 94.9226C324.931 95.0017 324.52 94.9701 324.441 94.6641C320.145 92.0585 315.923 89.2313 311.622 86.6257L309.661 85.4389L299.173 79.0778C299.048 79.0001 298.905 78.9589 298.759 78.9589C298.612 78.9589 298.469 79.0001 298.345 79.0778L298.018 79.3046C297.491 78.7455 296.906 78.2497 296.558 77.8383C296.416 77.6748 296.274 77.5112 296.126 77.353C296.222 77.3565 296.317 77.3385 296.405 77.3003C296.523 77.2363 296.612 77.1297 296.654 77.0023C296.696 76.8749 296.688 76.7363 296.632 76.6146C296.52 76.3742 296.354 76.163 296.147 75.9974C295.689 75.5527 295.267 75.0711 294.887 74.5575C294.478 73.914 294.014 73.307 293.501 72.743C293.242 72.4608 292.923 72.2407 292.567 72.0992C292.211 71.9576 291.828 71.8982 291.446 71.9255C291.021 72.0068 290.617 72.1698 290.254 72.4055C288.813 73.2436 287.484 74.2628 286.301 75.4383C286.249 75.4757 286.206 75.5247 286.176 75.5814C286.146 75.6382 286.129 75.7011 286.127 75.7654C286.127 75.8708 286.233 75.95 286.243 76.0502C286.246 76.1479 286.21 76.2427 286.143 76.3139C285.434 77.1951 284.593 77.9618 283.65 78.5872C282.311 79.5894 281.003 80.6303 279.723 81.7098C278.923 82.2794 278.289 83.0535 277.889 83.9515C277.61 84.9931 277.725 86.1011 278.211 87.0635C279.086 89.1258 280.619 90.8348 282.137 92.4857C282.386 92.8255 282.74 93.0739 283.144 93.1925C283.465 93.2368 283.791 93.1576 284.056 92.971C284.989 92.3592 285.142 91.0933 285.21 89.9856C285.237 89.4581 285.268 88.9729 285.3 88.4665C285.298 88.365 285.317 88.2642 285.358 88.1711C285.438 88.0562 285.55 87.9665 285.679 87.9127L287.129 87.1479C287.087 87.0793 287.039 87.0107 286.992 86.9422C288.085 86.5317 289.275 86.4546 290.413 86.7206C291.182 86.9474 291.888 87.4063 292.626 87.6912C292.509 88.6755 292.693 89.6723 293.153 90.55C295.857 90.8295 298.292 92.0321 300.712 93.2453C302.662 94.2125 304.559 95.2848 306.393 96.4575C307.883 97.428 309.342 98.4425 310.768 99.5009C312.792 100.999 314.748 102.587 316.682 104.19C317.939 105.3 319.292 106.298 320.725 107.17C324.53 109.306 329.632 109.38 333.127 106.717C337.533 103.357 343.141 101.611 347.885 98.7045C349.294 97.9157 350.581 96.926 351.706 95.7665C351.696 95.9034 351.675 96.0392 351.643 96.1727C351.358 97.486 350.225 98.4354 349.798 99.7646C349.466 100.82 349.587 102.038 348.944 102.929C348.454 103.61 347.537 104.095 347.511 104.934C347.511 105.166 347.579 105.398 347.579 105.63C347.552 105.924 347.466 106.209 347.326 106.469C346.799 107.655 346.209 108.9 345.128 109.633C344.707 109.923 344.169 110.187 344.074 110.688C344.068 110.834 344.03 110.976 343.963 111.105C343.784 111.353 343.389 111.221 343.104 111.326C342.709 111.474 342.646 111.986 342.488 112.381C342.343 112.71 342.099 112.985 341.789 113.166C341.48 113.348 341.121 113.428 340.764 113.394C337.164 112.956 333.627 114.586 330.001 114.491C328.752 114.454 327.508 114.328 326.254 114.317C322.406 114.286 318.637 115.372 314.932 116.427C314.519 117.157 314.264 117.966 314.184 118.801C312.918 119.126 311.597 119.176 310.31 118.948C309.989 118.885 309.665 118.841 309.34 118.816C309.433 118.578 309.462 118.32 309.424 118.067C307.91 118.548 306.455 119.197 305.086 120.003C304.185 120.531 303.231 121.269 303.147 122.308C303.134 122.709 303.191 123.109 303.315 123.49L303.806 125.352C303.866 125.696 304.017 126.019 304.243 126.285C304.406 126.443 304.622 126.538 304.77 126.707C304.913 126.907 305.011 127.135 305.055 127.377L305.466 128.991C305.619 129.528 305.728 130.077 305.793 130.631C305.84 131.159 305.793 131.644 305.83 132.15C305.885 132.985 306.007 133.814 306.193 134.63L306.778 137.552C306.909 138.368 307.141 139.166 307.469 139.925C307.716 140.453 308.049 140.906 308.249 141.434C308.407 141.84 308.481 142.272 308.67 142.657C309.012 143.283 309.549 143.779 310.199 144.071C310.425 144.205 310.68 144.284 310.942 144.303C311.691 144.303 312.228 143.607 312.576 142.942C313.269 141.734 313.645 140.369 313.667 138.976C313.667 138.417 313.556 137.863 313.509 137.304C313.382 135.721 313.836 134.181 313.836 132.604C313.853 132.393 313.797 132.182 313.677 132.007C313.557 131.832 313.38 131.704 313.177 131.644C313.224 130.304 313.219 128.886 313.925 127.741C314.276 127.208 314.71 126.736 315.211 126.343C315.406 126.966 315.623 127.583 315.865 128.184C319.876 127.013 324.019 125.884 328.22 125.779ZM413.917 44.7773C413.632 44.8827 413.342 44.9882 413.047 45.0832C410.591 45.9007 407.776 46.6972 405.236 46.1381C404.466 45.9157 403.741 45.5586 403.096 45.0832L402.912 44.9671C406.49 44.3395 410.227 44.4924 413.917 44.7773Z" fill="url(#paint0_linear_814_57510)"/>
    <path d="M428.179 39.348C429.067 38.9675 430.014 38.7478 430.978 38.6992C431.597 38.7462 432.204 38.8867 432.781 39.1159C433.822 39.42 434.796 39.9214 435.648 40.5928C436.07 40.9335 436.404 41.3692 436.625 41.8643C436.846 42.3593 436.946 42.8997 436.918 43.4411C436.797 44.496 436.017 45.4085 435.163 46.0783C434.005 47.0309 432.571 47.5856 431.073 47.6607C429.397 47.6871 427.816 46.9328 426.198 46.4845C425.021 46.1513 423.805 45.974 422.582 45.957C421.966 45.9902 421.349 45.9513 420.742 45.841C420.438 45.7836 420.152 45.6553 419.907 45.4665C419.661 45.2777 419.464 45.0338 419.33 44.7544C419.177 44.2381 419.177 43.6884 419.33 43.1721C419.451 42.518 419.43 40.9673 420.01 40.577C420.474 40.2605 422.118 40.5137 422.687 40.4662C424.553 40.2893 426.394 39.9145 428.179 39.348Z" fill="#FBBEBE"/>
    <path d="M390.552 28.7305C392.148 30.2931 393.523 32.0679 394.637 34.005C396.492 37.2436 397.673 41.0097 400.466 43.4993C401.208 44.1245 401.996 44.694 402.822 45.203C403.468 45.678 404.192 46.0352 404.962 46.2579C407.471 46.8222 410.285 46.0363 412.731 45.203C415.152 44.3334 417.501 43.2753 419.757 42.0382C419.773 43.0572 420.056 44.0542 420.579 44.9287C421.164 45.7568 422.361 46.242 423.215 45.7199C421.052 46.7368 419.013 47.9987 417.137 49.4806C416.415 50.0925 415.746 50.7676 414.976 51.3214C412.199 53.3205 408.356 53.5209 405.79 55.789C405.409 56.1362 404.93 56.3559 404.419 56.4173C403.907 56.4788 403.39 56.379 402.938 56.1319C402.047 55.6044 401.441 54.6972 400.709 53.964C399.264 52.5188 397.304 51.6748 395.886 50.2032C395.227 49.5228 394.7 48.7158 394.025 48.0512C393.061 47.1018 391.806 46.4688 390.921 45.4139C390.262 44.6386 389.867 43.6944 389.25 42.8663C388.723 42.149 388.101 41.5213 387.632 40.7565C386.483 38.9262 386.493 36.5368 387.152 34.485C387.811 32.4332 389.324 30.5185 390.552 28.7305Z" fill="#F86D70"/>
    <path opacity="0.1" d="M390.552 28.7305C392.148 30.2931 393.523 32.0679 394.637 34.005C396.492 37.2436 397.673 41.0097 400.466 43.4993C401.208 44.1245 401.996 44.694 402.822 45.203C403.468 45.678 404.192 46.0352 404.962 46.2579C407.471 46.8222 410.285 46.0363 412.731 45.203C415.152 44.3334 417.501 43.2753 419.757 42.0382C419.773 43.0572 420.056 44.0542 420.579 44.9287C421.164 45.7568 422.361 46.242 423.215 45.7199C421.052 46.7368 419.013 47.9987 417.137 49.4806C416.415 50.0925 415.746 50.7676 414.976 51.3214C412.199 53.3205 408.356 53.5209 405.79 55.789C405.409 56.1362 404.93 56.3559 404.419 56.4173C403.907 56.4788 403.39 56.379 402.938 56.1319C402.047 55.6044 401.441 54.6972 400.709 53.964C399.264 52.5188 397.304 51.6748 395.886 50.2032C395.227 49.5228 394.7 48.7158 394.025 48.0512C393.061 47.1018 391.806 46.4688 390.921 45.4139C390.262 44.6386 389.867 43.6944 389.25 42.8663C388.723 42.149 388.101 41.5213 387.632 40.7565C386.483 38.9262 386.493 36.5368 387.152 34.485C387.811 32.4332 389.324 30.5185 390.552 28.7305Z" fill="#1C1C1C"/>
    <path d="M296.874 77.4428C296.466 76.9066 295.962 76.4505 295.388 76.0978C294.516 75.7106 293.543 75.6109 292.61 75.813C290.26 76.1717 288.078 77.2477 286.011 78.4503C284.346 79.405 282.691 80.4651 281.5 81.9684C281.107 82.4216 280.834 82.9654 280.704 83.5508C280.636 84.0338 280.677 84.5259 280.825 84.9907C280.931 85.5141 281.156 86.0061 281.482 86.4287C281.808 86.8513 282.227 87.193 282.707 87.4276C283.808 87.8601 285.036 87.4012 286.143 86.9792C287.63 86.4043 289.264 85.8716 290.792 86.3252C291.925 86.6628 292.9 87.5225 294.097 87.5542C295.504 87.5964 296.643 86.4571 297.539 85.3705C298.313 84.4211 300.011 82.7068 299.9 81.3724C299.789 80.0379 297.707 78.3975 296.874 77.4428Z" fill="#FBBEBE"/>
    <path d="M314.637 118.494C313.347 118.838 311.998 118.894 310.684 118.658C309.883 118.51 308.902 118.32 308.391 118.948C308.226 119.18 308.116 119.447 308.07 119.728C306.757 125.103 307.959 130.805 310.178 135.895C310.206 135.981 310.257 136.058 310.325 136.117C310.468 136.222 310.663 136.148 310.826 136.08C311.363 135.864 311.866 135.57 312.318 135.209C313.33 134.292 313.546 132.799 313.593 131.433C313.641 130.067 313.62 128.621 314.326 127.45C315.211 126 317.061 125.293 317.789 123.758C318.374 122.508 318.068 121.026 317.552 119.75C317.378 119.306 317.309 118.167 316.898 117.951C316.487 117.735 315.106 118.368 314.637 118.494Z" fill="#FBBEBE"/>
    <path d="M296.722 76.9039C296.839 76.839 296.926 76.7321 296.968 76.6048C297.009 76.4775 297 76.3393 296.943 76.2182C296.83 75.9771 296.664 75.7644 296.458 75.5958C295.999 75.1518 295.579 74.6682 295.204 74.1506C294.79 73.5105 294.326 72.9038 293.817 72.3361C293.559 72.0543 293.241 71.834 292.886 71.6916C292.531 71.5492 292.149 71.4883 291.767 71.5133C291.344 71.5892 290.94 71.7507 290.581 71.988C289.147 72.8196 287.828 73.8337 286.655 75.0051C286.565 75.0947 286.465 75.2055 286.486 75.3321C286.507 75.4587 286.591 75.5114 286.602 75.6169C286.605 75.7122 286.571 75.805 286.507 75.8754C285.803 76.753 284.967 77.5163 284.03 78.1381C282.701 79.1368 281.401 80.1741 280.129 81.2501C279.334 81.8167 278.705 82.5875 278.311 83.4813C278.041 84.5229 278.159 85.627 278.643 86.588C279.523 88.6556 281.057 90.3646 282.57 92.0261C282.823 92.3649 283.177 92.6143 283.582 92.7382C283.901 92.7816 284.225 92.7024 284.488 92.5166C285.411 91.9101 285.542 90.6442 285.621 89.5418L285.706 88.0174C285.704 87.9176 285.723 87.8186 285.764 87.7273C285.843 87.6113 285.955 87.5214 286.085 87.4689L287.519 86.7093C287.08 85.9958 286.457 85.4148 285.714 85.0284C284.971 84.6419 284.138 84.4645 283.302 84.5151C282.92 84.606 282.518 84.5515 282.174 84.3621C282.008 84.1892 281.915 83.9586 281.915 83.7186C281.915 83.4787 282.008 83.2481 282.174 83.0751C282.524 82.7428 282.952 82.505 283.418 82.3842C287.197 80.997 290.613 78.7711 294.281 77.1096C294.683 76.9061 295.128 76.803 295.578 76.809C295.947 76.8353 296.379 77.0516 296.722 76.9039Z" fill="#F86D70"/>
    <path d="M311.612 132.137C311.443 132.454 311.385 132.823 311.2 133.134C311.016 133.446 310.615 133.662 310.304 133.504C310.141 133.389 310.019 133.224 309.956 133.034C308.358 129.376 307.908 125.318 308.665 121.398C308.77 120.757 308.96 120.133 309.229 119.542C309.508 118.972 309.914 118.392 309.798 117.77C308.293 118.245 306.847 118.889 305.487 119.689C304.591 120.217 303.647 120.95 303.563 121.984C303.555 122.385 303.614 122.784 303.737 123.165L304.232 125.027C304.292 125.373 304.445 125.696 304.675 125.961C304.833 126.119 305.049 126.219 305.202 126.388C305.347 126.585 305.445 126.812 305.487 127.053L305.903 128.667C306.058 129.205 306.169 129.756 306.235 130.312C306.283 130.84 306.235 131.325 306.277 131.832C306.337 132.664 306.461 133.491 306.646 134.305L307.242 137.227C307.376 138.044 307.61 138.841 307.938 139.601C308.185 140.128 308.518 140.582 308.723 141.115C308.876 141.521 308.955 141.953 309.145 142.338C309.487 142.963 310.021 143.46 310.668 143.757C310.895 143.89 311.149 143.971 311.411 143.995C312.154 144.021 312.687 143.298 313.035 142.634C313.714 141.425 314.077 140.065 314.089 138.678C314.089 138.119 313.973 137.565 313.925 137.006C313.794 135.424 314.236 133.889 314.231 132.312C314.242 130.835 312.154 131.114 311.612 132.137Z" fill="#F86D70"/>
    <path d="M388.944 40.2393C387.302 39.483 385.858 38.3543 384.727 36.9426C384.146 36.1983 383.618 35.414 383.146 34.5955C381.145 31.2146 379.426 27.6738 378.007 24.0094C380.253 24.4683 382.609 24.885 384.817 24.252C385.969 23.9007 387.042 23.3313 387.979 22.5747C389.18 21.5867 390.295 20.4979 391.311 19.3203C392.078 20.7931 392.96 22.2039 393.946 23.54C394.51 24.2995 396.418 25.845 396.276 26.8788C396.133 27.9126 394.025 28.4295 393.171 28.92L393.082 28.978C391.822 29.7746 390.723 30.7996 389.84 32.0004C388.185 34.3528 387.611 37.6336 388.944 40.2393Z" fill="#FBBEBE"/>
    <path opacity="0.1" d="M393.213 28.9003C391.946 28.2778 390.827 27.3907 389.932 26.2989C389.036 25.207 388.385 23.9358 388.022 22.5708C389.222 21.5828 390.337 20.494 391.353 19.3164C392.121 20.7892 393.002 22.2 393.988 23.5361C394.552 24.2956 396.46 25.841 396.318 26.8749C396.176 27.9087 394.067 28.4098 393.213 28.9003Z" fill="black"/>
    <path d="M397.957 29.6765C403.409 29.6765 407.829 25.2534 407.829 19.7972C407.829 14.3411 403.409 9.91797 397.957 9.91797C392.505 9.91797 388.085 14.3411 388.085 19.7972C388.085 25.2534 392.505 29.6765 397.957 29.6765Z" fill="#FBBEBE"/>
    <path d="M376.363 81.333C375.68 81.7429 374.902 81.9686 374.106 81.988C373.309 82.0075 372.522 81.8199 371.819 81.4437C371.088 80.9927 370.428 80.4365 369.859 79.7928C366.617 76.4645 363.534 72.9358 361.367 68.8059C360.864 67.9344 360.538 66.9717 360.408 65.9734C360.347 65.4745 360.408 64.9683 360.585 64.498C360.762 64.0277 361.051 63.6073 361.425 63.2728C361.627 63.1395 361.805 62.9737 361.952 62.7823C362.08 62.5011 362.139 62.194 362.126 61.8856C362.185 61.3595 362.391 60.8607 362.722 60.4472C363.052 60.0336 363.492 59.7222 363.992 59.549C363.465 59.1903 363.676 58.3938 364.019 57.8822C364.361 57.3706 364.841 56.8273 364.757 56.2366C364.622 55.8425 364.46 55.4583 364.272 55.0867C364.082 54.4432 364.424 53.7786 364.609 53.1351C364.994 51.8165 364.762 50.4134 364.667 49.042C364.388 44.9806 365.373 40.9509 366.348 37.0002C366.779 34.9941 367.401 33.0336 368.204 31.1454C368.451 30.618 368.731 30.0905 369.015 29.6211C370.011 28.0069 371.119 26.4647 372.331 25.0058C372.898 24.1476 373.677 23.45 374.592 22.9804C374.678 22.9433 374.766 22.9116 374.855 22.8855C375.512 22.7157 376.194 22.6639 376.869 22.7325C378.65 22.8433 380.521 23.2599 381.792 24.5153C383.062 25.7706 383.473 27.5323 384.047 29.2308C384.23 29.7992 384.452 30.3544 384.712 30.8922C385.55 32.559 386.915 33.8882 388.259 35.1805L389.719 36.5888C390.451 37.2956 391.722 37.1162 392.412 37.86C392.693 38.2095 392.903 38.6109 393.029 39.0415C393.809 40.9439 394.263 42.9642 394.373 45.0175C394.378 45.4742 394.352 45.9307 394.294 46.3837C394.115 47.9733 393.412 49.4581 392.296 50.6033C391.031 51.8217 389.271 52.423 388.011 53.6467C386.957 54.6595 386.346 56.015 385.745 57.3389C384.585 59.8918 383.424 62.4482 382.261 65.0082C381.419 66.7598 380.695 68.566 380.094 70.4146C378.998 74.1015 379.62 79.3022 376.363 81.333Z" fill="#BE1621"/>
    <path d="M376.363 81.333C375.68 81.7429 374.902 81.9686 374.106 81.988C373.309 82.0075 372.522 81.8199 371.819 81.4437C371.088 80.9927 370.428 80.4365 369.859 79.7928C366.617 76.4645 363.534 72.9358 361.367 68.8059C360.864 67.9344 360.538 66.9717 360.408 65.9734C360.347 65.4745 360.408 64.9683 360.585 64.498C360.762 64.0277 361.051 63.6073 361.425 63.2728C361.627 63.1395 361.805 62.9737 361.952 62.7823C362.08 62.5011 362.139 62.194 362.126 61.8856C362.185 61.3595 362.391 60.8607 362.722 60.4472C363.052 60.0336 363.492 59.7222 363.992 59.549C363.465 59.1903 363.676 58.3938 364.019 57.8822C364.361 57.3706 364.841 56.8273 364.757 56.2366C364.622 55.8425 364.46 55.4583 364.272 55.0867C364.082 54.4432 364.424 53.7786 364.609 53.1351C364.994 51.8165 364.762 50.4134 364.667 49.042C364.388 44.9806 365.373 40.9509 366.348 37.0002C366.779 34.9941 367.401 33.0336 368.204 31.1454C368.451 30.618 368.731 30.0905 369.015 29.6211C370.011 28.0069 371.119 26.4647 372.331 25.0058C372.898 24.1476 373.677 23.45 374.592 22.9804C374.678 22.9433 374.766 22.9116 374.855 22.8855C375.512 22.7157 376.194 22.6639 376.869 22.7325C378.65 22.8433 380.521 23.2599 381.792 24.5153C383.062 25.7706 383.473 27.5323 384.047 29.2308C384.23 29.7992 384.452 30.3544 384.712 30.8922C385.55 32.559 386.915 33.8882 388.259 35.1805L389.719 36.5888C390.451 37.2956 391.722 37.1162 392.412 37.86C392.693 38.2095 392.903 38.6109 393.029 39.0415C393.809 40.9439 394.263 42.9642 394.373 45.0175C394.378 45.4742 394.352 45.9307 394.294 46.3837C394.115 47.9733 393.412 49.4581 392.296 50.6033C391.031 51.8217 389.271 52.423 388.011 53.6467C386.957 54.6595 386.346 56.015 385.745 57.3389C384.585 59.8918 383.424 62.4482 382.261 65.0082C381.419 66.7598 380.695 68.566 380.094 70.4146C378.998 74.1015 379.62 79.3022 376.363 81.333Z" fill="white" fill-opacity="0.2"/>
    <path d="M345.924 124.797C343.321 124.902 340.711 124.871 338.118 125.118C336.606 125.266 335.098 125.514 333.58 125.577C331.925 125.651 330.265 125.519 328.605 125.551C324.425 125.641 320.303 126.754 316.282 127.903C315.146 125.129 314.554 122.162 314.537 119.163C314.526 118.965 314.526 118.766 314.537 118.567C314.61 117.718 314.864 116.895 315.28 116.152C318.97 115.097 322.712 114.042 326.544 114.095C327.793 114.095 329.031 114.242 330.275 114.279C333.886 114.39 337.396 112.771 340.98 113.224C341.336 113.259 341.693 113.181 342.001 113C342.309 112.819 342.551 112.545 342.693 112.217C342.846 111.827 342.909 111.315 343.305 111.162C343.589 111.056 343.979 111.188 344.159 110.946C344.222 110.815 344.26 110.674 344.269 110.529C344.375 110.002 344.907 109.764 345.323 109.474C346.378 108.746 346.973 107.501 347.5 106.309C347.639 106.051 347.723 105.768 347.748 105.476C347.748 105.244 347.674 105.012 347.679 104.774C347.679 103.941 348.612 103.461 349.097 102.781C349.735 101.884 349.624 100.671 349.935 99.6159C350.357 98.2867 351.48 97.3426 351.759 96.0345C351.791 95.901 351.812 95.7652 351.822 95.6283C350.704 96.7822 349.424 97.7666 348.022 98.5505C343.342 101.436 337.744 103.16 333.375 106.499C329.906 109.137 324.825 109.057 321.031 106.911C319.6 106.034 318.248 105.034 316.993 103.92C315.064 102.338 313.114 100.718 311.095 99.2098C309.69 98.1549 308.233 97.1369 306.726 96.1558C304.9 94.9477 303.011 93.8401 301.065 92.8381C298.651 91.6144 296.221 90.4012 293.533 90.1111C293.188 89.4052 292.996 88.634 292.97 87.8484C292.945 87.0628 293.086 86.2807 293.385 85.5539C293.999 84.1081 294.831 82.7651 295.852 81.5716C296.616 80.4504 297.573 79.4736 298.677 78.6864C298.8 78.6086 298.943 78.5673 299.088 78.5673C299.234 78.5673 299.376 78.6086 299.499 78.6864L309.946 85.1056L311.902 86.3029C316.187 88.9402 320.403 91.7621 324.688 94.3835C324.767 94.6842 325.184 94.7211 325.484 94.642C325.785 94.5629 326.127 94.4363 326.386 94.6103C326.512 94.6947 326.602 94.853 326.76 94.8846C326.886 94.8889 327.009 94.8477 327.108 94.7686C328.879 93.5502 329.785 91.2083 331.772 90.3907C332.621 90.0426 333.628 89.9898 334.292 89.3358C334.684 88.8371 335.037 88.308 335.346 87.7534C336.205 86.6299 337.834 86.2924 338.63 85.1161C339.157 84.3543 339.79 83.6722 340.511 83.0907C341.947 81.921 343.191 80.5348 344.201 78.9818C344.722 78.2151 345.129 77.3764 345.408 76.4922C345.545 76.0333 345.629 75.5586 345.782 75.105C346.262 73.7231 347.363 72.6629 348.465 71.7029C350.462 69.9517 352.618 68.2902 355.148 67.4832C356.031 67.2788 356.885 66.9689 357.694 66.5602C358.711 65.9378 359.644 64.7827 360.809 65.0517C361.251 65.1887 361.649 65.4397 361.963 65.7796C363.392 67.1701 364.705 68.6748 365.89 70.2788C367.77 72.6734 369.648 75.0698 371.524 77.468C372.116 78.3303 372.865 79.073 373.733 79.6569C374.991 80.3049 376.436 80.4916 377.818 80.1844C377.633 82.1413 376.078 83.7553 375.435 85.6119C375.124 86.5139 375.003 87.4739 374.771 88.3969C374.444 89.5551 374.027 90.6856 373.522 91.7779C372.257 94.7264 370.981 97.6907 369.168 100.339C368.23 101.715 367.15 102.976 366.09 104.268C361.91 109.316 358.711 115.403 353.967 119.944C352.818 121.057 352.091 122.581 350.805 123.536C349.408 124.57 347.606 124.728 345.924 124.797Z" fill="#434175"/>
    <path opacity="0.1" d="M365.784 57.8711C365.319 57.8938 364.867 58.0296 364.467 58.2667C365.431 57.9291 366.607 58.8311 367.497 58.4038C367.914 58.2034 367.85 58.1454 367.497 58.0241C366.965 57.8447 366.322 58.0082 365.784 57.8711Z" fill="black"/>
    <path d="M532.184 232.174L493.443 245.941L495.912 252.9L534.654 239.133L532.184 232.174Z" fill="#D0D2D5"/>
    <path d="M506.403 260.371L541.668 247.839C542.59 247.512 543.604 247.564 544.488 247.985C545.371 248.406 546.052 249.16 546.379 250.083C546.706 251.006 546.654 252.021 546.234 252.905C545.813 253.79 545.059 254.47 544.137 254.798L508.872 267.33L506.403 260.371Z" fill="#D0D2D5"/>
    <path d="M472.806 238.727L481.398 235.674C489.039 232.959 497.444 233.392 504.765 236.879C512.086 240.366 517.723 246.62 520.436 254.266L523.487 262.865C524.548 265.854 524.379 269.143 523.017 272.008C521.654 274.873 519.21 277.079 516.223 278.141L490.087 287.428C487.099 288.49 483.812 288.32 480.95 286.957C478.087 285.594 475.883 283.148 474.822 280.158L465.541 254.004C464.48 251.014 464.649 247.725 466.012 244.86C467.374 241.995 469.818 239.789 472.806 238.727Z" fill="#3F3D56"/>
    <path opacity="0.1" d="M365.31 63.0217C364.953 62.8962 364.568 62.8725 364.198 62.9531C363.646 63.0117 363.132 63.264 362.748 63.6652C362.85 63.711 362.961 63.7347 363.073 63.7347C363.184 63.7347 363.295 63.711 363.397 63.6652C363.741 63.5778 364.096 63.5387 364.451 63.5491C364.757 63.5491 365.668 63.8867 365.906 63.739C366.254 63.5122 365.547 63.1113 365.31 63.0217Z" fill="black"/>
    <path opacity="0.1" d="M394.294 46.3854C393.5 46.1169 392.743 45.752 392.038 45.2988C390.188 44.1226 388.633 42.5244 386.804 41.3218C385.88 40.7411 384.925 40.2128 383.942 39.7394L377.77 36.5747C377.3 36.3068 376.796 36.1011 376.273 35.9628C375.266 35.7413 374.133 36.4164 373.111 36.274C372.581 36.1765 372.078 35.9677 371.634 35.6613C371.191 35.3549 370.817 34.9579 370.539 34.4965C369.981 33.5746 369.589 32.5626 369.379 31.5058C369.222 30.8826 369.104 30.2502 369.026 29.6122C368.934 28.9497 368.922 28.2786 368.989 27.6132C369.094 26.2915 369.72 25.0659 370.728 24.2058C371.46 23.6857 372.294 23.3262 373.174 23.1509C373.729 23.0104 374.295 22.9169 374.866 22.8713C375.19 22.845 375.516 22.845 375.841 22.8713C378.171 23.0559 380.142 24.6383 381.697 26.3789C382.514 27.2967 383.278 28.283 384.058 29.2166C384.241 29.7851 384.463 30.3402 384.722 30.8781C385.56 32.5449 386.925 33.8741 388.269 35.1664L389.729 36.5747C390.462 37.2815 391.732 37.1021 392.423 37.8458C392.704 38.1954 392.913 38.5968 393.039 39.0273C393.817 40.9354 394.268 42.9611 394.373 45.0193C394.378 45.4759 394.352 45.9324 394.294 46.3854Z" fill="black"/>
    <path opacity="0.1" d="M346.293 113.89L314.532 118.568C314.605 117.719 314.858 116.896 315.275 116.152C318.964 115.098 322.707 114.043 326.538 114.095C327.788 114.095 329.026 114.243 330.27 114.28C333.881 114.391 337.391 112.771 340.975 113.225C341.33 113.26 341.688 113.182 341.995 113.001C342.303 112.82 342.546 112.545 342.688 112.218C342.841 111.827 342.904 111.316 343.299 111.163C343.584 111.057 343.974 111.189 344.153 110.946C344.217 110.816 344.255 110.675 344.264 110.53C344.369 110.002 344.902 109.765 345.318 109.475C346.372 108.747 346.968 107.502 347.495 106.31C347.633 106.052 347.718 105.769 347.743 105.477C347.743 105.245 347.669 105.013 347.674 104.775C347.674 103.942 348.607 103.462 349.092 102.781C349.73 101.885 349.619 100.672 349.93 99.6167C350.352 98.2875 351.474 97.3434 351.754 96.0353L351.891 95.8559L357.299 93.7461L346.293 113.89Z" fill="black"/>
    <path opacity="0.1" d="M224.507 370.101C348.223 370.101 448.514 362.308 448.514 352.695C448.514 343.082 348.223 335.289 224.507 335.289C100.791 335.289 0.5 343.082 0.5 352.695C0.5 362.308 100.791 370.101 224.507 370.101Z" fill="#8F84FF"/>
    <path opacity="0.1" d="M422.54 416C502.591 416 567.486 407.553 567.486 397.133C567.486 386.713 502.591 378.266 422.54 378.266C342.489 378.266 277.594 386.713 277.594 397.133C277.594 407.553 342.489 416 422.54 416Z" fill="#0085FF"/>
    <path d="M250.993 338.601L251.14 331.132C258.168 330.732 265.196 330.464 272.223 330.331C276.303 330.257 280.435 330.23 284.383 331.254C287.118 331.966 289.706 333.168 292.405 334.012C297.781 335.69 303.473 335.911 309.118 336.064C314.595 336.217 320.314 336.27 325.231 333.849C333.743 329.629 337.322 319.265 337.739 309.776C338.155 300.287 336.268 290.724 337.581 281.293" stroke="#3F3D56" stroke-width="12" stroke-miterlimit="10"/>
    <path d="M270.262 353.218L176.343 352.015L176.617 349.605L181.16 309.84H263.637L269.709 349.605L270.173 352.617L270.262 353.218Z" fill="#D0D2D5"/>
    <path opacity="0.1" d="M270.173 352.617H223.3L176.343 352.016L176.617 349.605H269.709L270.173 352.617Z" fill="black"/>
    <path d="M285.316 350.203H160.689V353.215H285.316V350.203Z" fill="#D0D2D5"/>
    <path d="M404.219 71.0056C404.228 69.973 404.033 68.9487 403.645 67.9916C403.258 67.0345 402.685 66.1634 401.96 65.4283C401.236 64.6931 400.373 64.1085 399.422 63.7079C398.471 63.3073 397.45 63.0986 396.418 63.0938H48.3795C47.3478 63.0993 46.3273 63.3084 45.3765 63.7093C44.4256 64.1102 43.5632 64.6948 42.8386 65.4298C42.1139 66.1648 41.5413 67.0356 41.1535 67.9924C40.7658 68.9492 40.5705 69.9731 40.5788 71.0056V282.126H404.219V71.0056Z" fill="#3F3D56"/>
    <path d="M40.5788 280.016V304.748C40.5788 306.818 41.4006 308.804 42.8636 310.268C44.3265 311.732 46.3106 312.554 48.3795 312.554H396.418C398.487 312.554 400.471 311.732 401.934 310.268C403.397 308.804 404.219 306.818 404.219 304.748V280.016H40.5788Z" fill="#D0D2D5"/>
    <path d="M390.973 76.375H55.632V266.159H390.973V76.375Z" fill="#2F2E41"/>
    <path d="M224.207 303.171C225.438 303.171 226.653 302.892 227.76 302.353C228.868 301.815 229.839 301.033 230.6 300.064C230.832 299.768 231.044 299.456 231.233 299.131L226.773 298.397L231.596 298.434C232.059 297.427 232.311 296.336 232.337 295.227C232.363 294.119 232.163 293.017 231.749 291.989L225.282 295.349L231.248 290.96C230.698 289.978 229.95 289.121 229.051 288.443C228.152 287.765 227.122 287.281 226.027 287.022C224.931 286.764 223.794 286.735 222.687 286.939C221.581 287.143 220.528 287.575 219.597 288.207C218.665 288.839 217.875 289.658 217.277 290.612C216.678 291.566 216.284 292.634 216.119 293.748C215.954 294.862 216.023 295.998 216.32 297.085C216.617 298.171 217.136 299.184 217.845 300.059C218.601 301.025 219.567 301.807 220.669 302.346C221.771 302.885 222.98 303.167 224.207 303.171Z" fill="#8F84FF"/>
    <path opacity="0.1" d="M232.334 312.551L269.804 350.206L264.053 312.551H232.334Z" fill="black"/>
    <path d="M393.266 74.8305L413.39 48.1464C414.591 46.564 415.83 44.9131 417.48 43.7738C422.224 40.493 429.176 42.4341 433.144 46.6379C437.113 50.8417 438.779 56.6912 439.996 62.3455C442.832 75.3601 444.099 88.6677 443.77 101.984C443.602 108.994 442.974 116.078 440.745 122.729C437.361 132.845 430.504 141.364 425.323 150.684C416.979 165.701 413.485 185.728 424.047 199.279C427.489 203.693 432.175 207.069 435.353 211.679C438.942 216.885 440.339 223.252 441.678 229.433C443.675 238.769 445.678 248.163 446.047 257.705C447.239 288.556 429.661 319.381 402.516 334.054C383.673 344.245 360.877 347.199 344.49 361.018C338.693 365.886 333.696 373.044 335.119 380.46C336.279 386.478 341.56 391.051 347.358 393.04C353.156 395.028 359.444 394.865 365.558 394.517C380.243 393.677 394.857 391.871 409.305 389.11C421.549 386.768 433.772 384.748 444.445 378.303C445.515 377.737 446.429 376.916 447.107 375.913C447.797 374.758 447.913 373.361 448.008 372.015C448.298 368.054 448.572 363.945 447.175 360.227C445.547 355.881 441.831 352.589 440.049 348.306C438.268 344.023 438.589 339.092 439.743 334.592C441.167 329.033 443.755 323.853 446.358 318.742C448.894 313.763 451.466 308.8 454.449 304.079C462.85 290.808 474.33 279.816 485.689 268.977" stroke="#3F3D56" stroke-width="12" stroke-miterlimit="10"/>
    <path d="M426.567 36.5785C427.452 36.193 428.401 35.9731 429.366 35.9297C429.983 35.9777 430.591 36.1163 431.168 36.3411C432.21 36.6471 433.183 37.1502 434.035 37.8233C434.457 38.1634 434.793 38.599 435.014 39.0942C435.234 39.5894 435.334 40.13 435.306 40.6715C435.184 41.7264 434.404 42.6337 433.55 43.3088C432.393 44.263 430.958 44.818 429.46 44.8912C427.784 44.8912 426.203 44.1633 424.585 43.7097C423.408 43.3765 422.192 43.1991 420.969 43.1822C420.353 43.2137 419.736 43.173 419.13 43.0609C418.826 43.0044 418.54 42.8771 418.294 42.6892C418.049 42.5014 417.851 42.2583 417.717 41.9796C417.572 41.4711 417.572 40.9322 417.717 40.4236C417.844 39.7696 417.823 38.2136 418.402 37.8233C418.866 37.5121 420.511 37.7652 421.08 37.7178C422.943 37.5286 424.782 37.1468 426.567 36.5785Z" fill="#FBBEBE"/>
    <path d="M419.256 37.1053C417.074 38.1075 414.513 37.2741 412.141 37.2688C410.976 37.2688 409.816 37.464 408.657 37.5325C407.372 37.5783 406.085 37.5448 404.804 37.4323L400.946 37.1686C398.673 37.0931 396.413 36.782 394.204 36.2403C392.317 34.0144 389.255 33.0333 386.978 31.2189C385.154 29.7631 383.847 27.7799 382.292 26.034C380.738 24.2881 378.766 22.711 376.442 22.5264C375.542 22.4814 374.64 22.5775 373.77 22.8112C372.89 22.9831 372.057 23.3429 371.329 23.8661C370.829 24.2912 370.418 24.8112 370.119 25.3959C369.821 25.9807 369.641 26.6188 369.59 27.2735C369.494 28.5835 369.624 29.9003 369.975 31.1661C370.184 32.2246 370.577 33.2384 371.134 34.1621C371.416 34.6217 371.791 35.0173 372.235 35.3234C372.679 35.6295 373.182 35.8394 373.712 35.9396C374.729 36.0768 375.857 35.4122 376.874 35.6231C377.397 35.7614 377.901 35.9671 378.371 36.235L384.548 39.3997C385.529 39.8743 386.483 40.4025 387.405 40.9821C389.239 42.1847 390.789 43.7829 392.639 44.9591C394.489 46.1354 396.824 46.8738 398.88 46.1037C405.204 43.746 412.33 44.8431 419.04 45.4286C418.998 45.302 419.272 45.1859 419.351 45.0804C420.181 43.9406 420.557 42.5321 420.405 41.1298C420.242 39.7426 419.715 38.4345 419.256 37.1053Z" fill="#BE1621"/>
    <path d="M419.256 37.1053C417.074 38.1075 414.513 37.2741 412.141 37.2688C410.976 37.2688 409.816 37.464 408.657 37.5325C407.372 37.5783 406.085 37.5448 404.804 37.4323L400.946 37.1686C398.673 37.0931 396.413 36.782 394.204 36.2403C392.317 34.0144 389.255 33.0333 386.978 31.2189C385.154 29.7631 383.847 27.7799 382.292 26.034C380.738 24.2881 378.766 22.711 376.442 22.5264C375.542 22.4814 374.64 22.5775 373.77 22.8112C372.89 22.9831 372.057 23.3429 371.329 23.8661C370.829 24.2912 370.418 24.8112 370.119 25.3959C369.821 25.9807 369.641 26.6188 369.59 27.2735C369.494 28.5835 369.624 29.9003 369.975 31.1661C370.184 32.2246 370.577 33.2384 371.134 34.1621C371.416 34.6217 371.791 35.0173 372.235 35.3234C372.679 35.6295 373.182 35.8394 373.712 35.9396C374.729 36.0768 375.857 35.4122 376.874 35.6231C377.397 35.7614 377.901 35.9671 378.371 36.235L384.548 39.3997C385.529 39.8743 386.483 40.4025 387.405 40.9821C389.239 42.1847 390.789 43.7829 392.639 44.9591C394.489 46.1354 396.824 46.8738 398.88 46.1037C405.204 43.746 412.33 44.8431 419.04 45.4286C418.998 45.302 419.272 45.1859 419.351 45.0804C420.181 43.9406 420.557 42.5321 420.405 41.1298C420.242 39.7426 419.715 38.4345 419.256 37.1053Z" fill="white" fill-opacity="0.2"/>
    <path d="M408.646 19.3385C409.303 19.0363 409.854 18.5438 410.227 17.9249C410.828 16.8119 410.459 15.4458 410.048 14.2327C409.637 13.0195 409.221 11.9593 408.762 10.8411C408.434 9.90281 407.937 9.03232 407.297 8.27242C406.364 7.27553 405.03 6.77444 403.918 5.98853C402.601 5.05493 401.615 3.73101 400.503 2.56533C399.391 1.39965 398.031 0.318368 396.429 0.123209C395.194 0.0611585 393.963 0.290635 392.834 0.79308C383.21 4.33232 375.34 11.3422 366.723 16.9016C363.37 19.0695 359.607 21.0896 355.654 20.7995L359.191 26.4222C360.092 27.8622 361.104 29.3865 362.685 30.0036C364.082 30.5311 365.642 30.2674 367.107 30.0036C368.274 29.8346 369.409 29.4933 370.475 28.9909C372.584 27.8463 373.938 25.4675 376.205 24.6394C377.897 24.0223 379.784 24.4021 381.475 24.9928C383.167 25.5836 384.828 26.3853 386.609 26.6279C389.772 27.0552 392.934 25.6258 395.569 23.7797C397.151 22.6825 398.59 21.4219 400.313 20.6149C401.61 19.9416 403.081 19.6821 404.53 19.8712C406.127 20.0927 407.065 20.1666 408.646 19.3385Z" fill="#2F2E41"/>
    <path opacity="0.1" d="M410.227 17.9242C410.818 16.8324 410.47 15.4926 410.069 14.3164C410.199 14.9903 410.107 15.6882 409.806 16.3049C409.428 16.9208 408.878 17.4123 408.224 17.7185C406.643 18.5519 405.684 18.478 404.06 18.209C402.612 18.0233 401.142 18.2827 399.844 18.9528C398.131 19.7809 396.681 21.0626 395.1 22.1175C392.465 23.9636 389.302 25.3877 386.14 24.9605C384.353 24.7231 382.703 23.9056 381.006 23.3254C379.309 22.7452 377.417 22.3548 375.735 22.972C373.474 23.8001 372.135 26.1842 370.011 27.3235C368.945 27.8252 367.81 28.1664 366.643 28.3362C365.173 28.621 363.613 28.9006 362.221 28.3362C360.64 27.7244 359.628 26.1947 358.721 24.7548L356.218 20.7725C356.018 20.7725 355.812 20.7725 355.612 20.7725L359.148 26.3952C360.05 27.8351 361.062 29.3595 362.643 29.9766C364.04 30.5041 365.6 30.2403 367.065 29.9766C368.232 29.8076 369.367 29.4663 370.433 28.9639C372.541 27.8193 373.896 25.4405 376.162 24.6124C377.854 23.9952 379.741 24.375 381.433 24.9658C383.125 25.5565 384.785 26.3582 386.567 26.6009C389.729 27.0281 392.892 25.5987 395.527 23.7526C397.108 22.6555 398.547 21.3949 400.271 20.5879C401.567 19.9146 403.039 19.655 404.487 19.8442C406.111 20.1079 407.07 20.1817 408.646 19.3536C409.305 19.0472 409.856 18.549 410.227 17.9242Z" fill="black"/>
    <path d="M437.477 378.718C437.788 378.232 438.176 377.801 438.626 377.441C440.929 375.268 441.999 372.072 442.569 368.939C443.138 365.806 443.301 362.609 444.213 359.545C444.706 357.972 445.326 356.443 446.068 354.972C446.596 353.843 447.254 351.628 448.224 350.842C448.413 350.677 448.642 350.566 448.888 350.52C449.341 349.549 449.991 348.684 450.796 347.978C452.304 346.612 454.143 345.525 455.15 343.758C455.425 343.144 455.766 342.563 456.167 342.023C456.847 341.268 457.922 340.968 458.55 340.171C459.367 339.148 459.182 337.687 459.077 336.379C458.971 335.071 459.077 333.515 460.205 332.834C460.879 332.418 461.749 332.455 462.45 332.091C463.504 331.563 463.921 330.229 463.899 329.042C463.878 327.855 463.509 326.7 463.415 325.519C463.119 321.742 465.607 317.986 464.643 314.326C464.279 312.939 463.451 311.731 462.835 310.444C462.624 310.012 462.448 309.564 462.308 309.104C460.665 309.757 458.939 310.174 457.179 310.344C460.083 303.824 459.345 296.245 460.7 289.245L460.526 289.003C459.155 287.2 458.378 285.016 458.302 282.752C458.302 280.115 459.519 277.705 460.068 275.157C460.531 272.984 460.516 270.721 461.122 268.59C461.546 267.267 462.106 265.99 462.793 264.782C463.451 263.558 464.142 262.361 464.864 261.179C465.539 258.943 466.215 256.706 466.893 254.47C467.842 251.305 468.817 248.141 470.662 245.429C471.336 244.433 471.542 242.423 472.58 241.822C473.423 241.382 474.38 241.215 475.321 241.342C476.786 240.519 478.072 239.332 478.257 237.707C478.275 237.353 478.24 236.997 478.152 236.653H477.972C475.648 236.436 474.478 234.39 473.271 232.602C471.315 229.695 472.064 225.771 473.271 222.475C473.57 221.432 474.112 220.476 474.852 219.684C476.544 218.102 479.222 218.45 481.404 217.685C482.111 217.376 482.834 217.103 483.57 216.868C485.019 216.525 486.537 217.005 487.866 217.669C489.194 218.334 490.432 219.21 491.824 219.737C493.215 220.264 494.934 220.681 495.276 222.111C495.373 222.592 495.331 223.092 495.155 223.551C494.835 224.465 494.274 225.276 493.532 225.898C494.124 227.121 494.445 228.457 494.471 229.816C494.497 231.175 494.229 232.523 493.684 233.768C493.14 235.013 492.332 236.125 491.316 237.027C490.301 237.929 489.102 238.601 487.802 238.994C487.402 239.633 487.028 240.292 486.685 240.962C486.073 242.143 485.557 243.536 485.763 244.802C486.145 245.204 486.497 245.634 486.817 246.089C488.329 248.199 489.189 250.678 489.979 253.146C491.046 256.297 491.898 259.517 492.53 262.783C493.816 265.515 495.387 268.131 496.32 271.006C497.99 271.01 499.653 270.788 501.264 270.347L505.712 269.334C507.257 268.986 508.875 268.606 510.087 267.583C510.73 267.055 511.231 266.354 511.884 265.826C512.538 265.299 513.85 264.692 514.567 265.125C514.698 265.204 514.82 265.298 514.931 265.404C515.579 264.086 519.727 269.481 516.892 270.014L517.076 270.542C517.45 271.634 518.246 272.963 518.046 274.102L498.249 280.901C496.979 281.416 495.632 281.714 494.264 281.782C493.73 281.777 493.199 281.706 492.683 281.571V282.584V282.62C492.63 289.578 493.737 296.493 493.943 303.444C493.98 304.71 493.943 306.082 493.142 307.073C492.246 308.16 490.654 308.371 489.268 308.128C488.937 308.075 488.61 308.003 488.287 307.912C487.819 309.66 487.481 311.441 487.275 313.239L485.963 322.607C485.792 323.571 485.723 324.551 485.757 325.529C485.91 327.734 487.075 329.717 487.918 331.758C488.762 333.8 489.262 336.242 488.15 338.146C487.808 338.737 487.328 339.243 487.017 339.855C486.622 340.8 486.442 341.822 486.49 342.845C486.409 345.694 486.332 348.538 486.258 351.38C486.489 351.346 486.724 351.395 486.922 351.517C488.018 352.366 487.897 356.438 487.976 357.699C488.061 359.808 487.976 361.961 488.092 364.091C488.235 366.972 488.709 369.827 489.505 372.599C489.695 373.499 490.11 374.336 490.712 375.031C491.328 375.565 492.061 375.947 492.852 376.144C495.48 376.967 498.227 377.341 500.979 377.251C502.091 377.215 503.251 377.109 504.284 377.531C505.317 377.953 506.15 379.113 505.776 380.168C505.454 381.054 504.479 381.476 503.599 381.809C501.587 382.515 499.646 383.409 497.801 384.478C497.089 384.963 496.338 385.388 495.556 385.749C494.808 386.019 494.034 386.21 493.247 386.318L483.907 387.901C481.994 388.233 479.691 388.428 478.473 386.846C477.814 385.991 477.719 384.831 477.751 383.75C477.804 381.64 478.225 379.493 477.946 377.383C477.742 376.134 477.416 374.908 476.971 373.723L474.167 365.431C473.229 362.651 472.28 359.851 471.916 356.939C471.784 355.884 471.795 354.687 472.601 354.028C472.805 353.86 473.043 353.738 473.297 353.669C473.329 351.127 473.661 348.579 473.519 346.037C473.482 345.404 473.418 344.765 473.366 344.132C472.873 344.594 472.434 345.111 472.059 345.673C471.163 347.081 470.83 348.948 469.455 349.892C468.285 350.694 466.551 350.652 465.728 351.812C465.464 352.258 465.265 352.739 465.138 353.242C464.657 354.484 463.942 355.621 463.03 356.591C462.712 357.748 462.276 358.868 461.728 359.935C460.951 361.57 460.178 363.205 459.409 364.84C458.581 366.592 457.748 368.343 456.773 369.999C456.034 371.05 455.44 372.196 455.008 373.406C454.264 376.012 455.471 378.871 457.395 380.791C459.319 382.711 461.844 383.813 464.332 384.842C464.597 384.929 464.84 385.073 465.043 385.264C465.258 385.52 465.37 385.847 465.359 386.181C465.359 387.4 464.363 388.444 463.214 388.819C462.04 389.134 460.809 389.179 459.614 388.95C452.878 388.133 446.163 386.487 440.207 383.212C439.317 382.787 438.526 382.177 437.888 381.424C437.588 381.049 437.392 380.601 437.32 380.126C437.248 379.651 437.302 379.165 437.477 378.718Z" fill="url(#paint1_linear_814_57510)"/>
    <path d="M465.95 260.437C464.829 262.16 463.775 263.929 462.787 265.743C462.099 266.939 461.539 268.205 461.117 269.52C460.5 271.629 460.521 273.887 460.062 276.039C459.535 278.571 458.302 280.987 458.302 283.576C458.379 285.827 459.157 287.997 460.526 289.784C461.891 291.553 463.451 293.163 465.175 294.584C469.155 284.266 471.379 273.353 471.753 262.299C471.806 260.769 471.811 259.187 471.257 257.763C470.91 256.866 469.27 254.408 468.211 255.373C467.826 255.727 467.726 257.319 467.489 257.847C467.045 258.749 466.53 259.615 465.95 260.437Z" fill="#F86D70"/>
    <g opacity="0.1">
      <path d="M465.95 260.437C464.829 262.16 463.775 263.929 462.787 265.743C462.099 266.939 461.539 268.205 461.117 269.52C460.5 271.629 460.521 273.887 460.062 276.039C459.535 278.571 458.302 280.987 458.302 283.576C458.379 285.827 459.157 287.997 460.526 289.784C461.891 291.553 463.451 293.163 465.175 294.584C469.155 284.266 471.379 273.353 471.753 262.299C471.806 260.769 471.811 259.187 471.257 257.763C470.91 256.866 469.27 254.408 468.211 255.373C467.826 255.727 467.726 257.319 467.489 257.847C467.045 258.749 466.53 259.615 465.95 260.437Z" fill="#BE1621"/>
      <path d="M465.95 260.437C464.829 262.16 463.775 263.929 462.787 265.743C462.099 266.939 461.539 268.205 461.117 269.52C460.5 271.629 460.521 273.887 460.062 276.039C459.535 278.571 458.302 280.987 458.302 283.576C458.379 285.827 459.157 287.997 460.526 289.784C461.891 291.553 463.451 293.163 465.175 294.584C469.155 284.266 471.379 273.353 471.753 262.299C471.806 260.769 471.811 259.187 471.257 257.763C470.91 256.866 469.27 254.408 468.211 255.373C467.826 255.727 467.726 257.319 467.489 257.847C467.045 258.749 466.53 259.615 465.95 260.437Z" fill="white" fill-opacity="0.4"/>
    </g>
    <path d="M522.531 266.204C524.592 265.861 526.88 266.03 528.482 267.364C529.449 268.186 530.061 269.351 530.19 270.614C530.327 272.08 529.478 273.81 528.013 273.926C527.66 273.93 527.308 273.907 526.959 273.857C526.033 273.852 525.109 273.928 524.197 274.084C522.401 274.253 520.591 273.988 518.918 273.313C517.246 272.637 515.759 271.571 514.583 270.202C513.329 268.651 514.984 267.939 516.475 267.623C518.51 267.19 520.497 266.552 522.531 266.204Z" fill="#FBBEBE"/>
    <path d="M487.281 313.843L485.973 323.137C485.804 324.094 485.737 325.066 485.773 326.038C485.926 328.227 487.086 330.194 487.929 332.219C488.772 334.245 489.278 336.666 488.166 338.549C487.823 339.14 487.339 339.635 487.033 340.242C486.638 341.182 486.458 342.198 486.506 343.217L486.147 356.403C482.079 356.678 477.995 356.656 473.93 356.335C473.77 356.348 473.61 356.307 473.476 356.219C473.37 356.082 473.316 355.912 473.324 355.739C473.144 352.653 473.682 349.562 473.508 346.477C473.445 345.348 473.281 344.224 473.266 343.09C473.197 338.496 475.469 333.997 474.784 329.45C474.568 328.306 474.286 327.176 473.94 326.064C471.774 318.152 472.233 309.834 472.707 301.669C472.702 301.538 472.739 301.409 472.812 301.3C472.894 301.223 472.994 301.168 473.102 301.142C475.409 300.451 477.847 300.326 480.212 300.777C482.577 301.228 484.799 302.241 486.69 303.731C487.265 304.196 488.714 304.644 489.094 305.192C489.621 305.968 488.925 306.733 488.625 307.555C487.953 309.597 487.502 311.705 487.281 313.843Z" fill="#3F3D56"/>
    <path opacity="0.1" d="M487.281 313.843L485.973 323.137C485.804 324.094 485.737 325.066 485.773 326.038C485.926 328.227 487.086 330.194 487.929 332.219C488.772 334.245 489.278 336.666 488.166 338.549C487.823 339.14 487.339 339.635 487.033 340.242C486.638 341.182 486.458 342.198 486.506 343.217L486.147 356.403C482.079 356.678 477.995 356.656 473.93 356.335C473.77 356.348 473.61 356.307 473.476 356.219C473.37 356.082 473.316 355.912 473.324 355.739C473.144 352.653 473.682 349.562 473.508 346.477C473.445 345.348 473.281 344.224 473.266 343.09C473.197 338.496 475.469 333.997 474.784 329.45C474.568 328.306 474.286 327.176 473.94 326.064C471.774 318.152 472.233 309.834 472.707 301.669C472.702 301.538 472.739 301.409 472.812 301.3C472.894 301.223 472.994 301.168 473.102 301.142C475.409 300.451 477.847 300.326 480.212 300.777C482.577 301.228 484.799 302.241 486.69 303.731C487.265 304.196 488.714 304.644 489.094 305.192C489.621 305.968 488.925 306.733 488.625 307.555C487.953 309.597 487.502 311.705 487.281 313.843Z" fill="black"/>
    <path d="M462.84 311.035C463.457 312.317 464.284 313.514 464.648 314.891C465.613 318.525 463.13 322.275 463.425 325.999C463.52 327.175 463.884 328.32 463.91 329.496C463.936 330.672 463.504 331.98 462.461 332.518C461.76 332.882 460.879 332.845 460.221 333.257C459.108 333.932 458.982 335.483 459.093 336.775C459.203 338.067 459.383 339.523 458.566 340.541C457.938 341.327 456.863 341.628 456.188 342.371C455.785 342.907 455.442 343.485 455.166 344.096C454.159 345.853 452.325 346.934 450.818 348.316C449.31 349.698 448.035 351.723 448.709 353.633C449.205 355.041 450.596 355.906 451.935 356.565C454.378 357.773 456.956 358.685 459.614 359.282C459.9 359.366 460.202 359.381 460.495 359.324C460.791 359.214 461.055 359.033 461.264 358.796C462.819 357.272 464.427 355.674 465.143 353.622C465.272 353.123 465.471 352.646 465.734 352.203C466.556 351.053 468.285 351.09 469.46 350.299C470.831 349.365 471.163 347.509 472.059 346.111C472.907 344.792 474.267 343.885 475.221 342.651C476.802 340.604 477.229 337.877 478.384 335.541C478.874 334.544 479.501 333.621 479.891 332.582C480.285 331.345 480.528 330.064 480.613 328.768C481.356 322.608 483.249 316.405 482.057 310.307C481.794 308.962 481.388 307.67 481.219 306.288C480.924 303.893 481.388 301.451 481.035 299.062C481.027 298.763 480.951 298.47 480.813 298.205C480.675 297.94 480.479 297.71 480.239 297.532C479.954 297.405 479.645 297.341 479.332 297.342C476.208 297.18 473.075 297.252 469.961 297.559C468.38 297.712 466.603 298.033 465.66 299.326C464.854 300.428 464.896 301.915 464.606 303.26C464.29 304.911 463.452 305.819 462.571 307.116C461.691 308.414 462.192 309.701 462.84 311.035Z" fill="#3F3D56"/>
    <path d="M475 353.899C474.167 353.899 473.245 353.852 472.602 354.379C471.8 355.033 471.785 356.241 471.916 357.275C472.285 360.16 473.229 362.94 474.172 365.714L476.976 373.948C477.421 375.122 477.747 376.338 477.951 377.577C478.231 379.686 477.809 381.796 477.756 383.906C477.756 384.961 477.825 386.132 478.484 386.981C479.675 388.511 481.999 388.332 483.913 388.004L493.247 386.422C494.034 386.315 494.808 386.125 495.556 385.858C496.336 385.498 497.085 385.075 497.796 384.592C499.643 383.536 501.584 382.653 503.594 381.955C504.469 381.628 505.449 381.206 505.765 380.325C506.139 379.27 505.307 378.115 504.274 377.687C503.24 377.26 502.086 377.371 500.969 377.408C498.221 377.496 495.477 377.124 492.852 376.305C492.06 376.115 491.326 375.737 490.712 375.203C490.108 374.517 489.691 373.687 489.5 372.793C488.709 370.042 488.235 367.211 488.087 364.353C487.982 362.243 488.055 360.134 487.971 358.024C487.918 356.774 488.04 352.749 486.917 351.889C486.079 351.246 482.627 353.024 481.499 353.282C479.367 353.759 477.183 353.966 475 353.899Z" fill="#2F2E41"/>
    <path d="M444.245 359.761C443.338 362.789 443.191 365.98 442.606 369.087C442.021 372.193 440.972 375.369 438.668 377.526C438.219 377.881 437.832 378.309 437.525 378.792C437.33 379.243 437.264 379.74 437.334 380.227C437.404 380.714 437.606 381.172 437.92 381.55C438.556 382.301 439.345 382.907 440.234 383.328C446.184 386.577 452.884 388.212 459.635 389.024C460.828 389.253 462.056 389.209 463.23 388.898C464.379 388.508 465.396 387.474 465.375 386.261C465.386 385.929 465.273 385.606 465.059 385.353C464.854 385.166 464.611 385.024 464.347 384.937C461.86 383.913 459.33 382.795 457.411 380.912C455.493 379.029 454.28 376.165 455.024 373.602C455.458 372.402 456.05 371.265 456.784 370.221C457.75 368.562 458.629 366.854 459.419 365.104L461.738 360.236C462.413 358.817 463.104 357.351 463.214 355.774C460.303 355.906 457.396 355.441 454.67 354.407C453.398 353.888 452.212 353.176 451.155 352.298C450.259 351.549 449.442 350.156 448.235 351.132C447.265 351.913 446.654 354.107 446.079 355.225C445.351 356.687 444.737 358.204 444.245 359.761Z" fill="#2F2E41"/>
    <path d="M478.22 238.88C477.988 240.9 476.027 242.24 474.156 243.037L485.994 246.824C485.23 245.357 485.852 243.564 486.611 242.077C487.229 240.901 487.934 239.772 488.719 238.701C488.835 238.537 488.967 238.326 488.883 238.142C488.808 238.018 488.689 237.926 488.551 237.883C486.116 236.797 483.607 235.673 480.945 235.278C480.176 235.162 478.721 234.856 478.146 235.642C477.572 236.428 478.347 237.947 478.22 238.88Z" fill="#FBBEBE"/>
    <path opacity="0.1" d="M478.22 238.88C477.988 240.9 476.027 242.24 474.156 243.037L485.994 246.824C485.23 245.357 485.852 243.564 486.611 242.077C487.229 240.901 487.934 239.772 488.719 238.701C488.835 238.537 488.967 238.326 488.883 238.142C488.808 238.018 488.689 237.926 488.551 237.883C486.116 236.797 483.607 235.673 480.945 235.278C480.176 235.162 478.721 234.856 478.146 235.642C477.572 236.428 478.347 237.947 478.22 238.88Z" fill="black"/>
    <path d="M485.119 240.521C490.249 240.521 494.407 236.36 494.407 231.227C494.407 226.095 490.249 221.934 485.119 221.934C479.99 221.934 475.832 226.095 475.832 231.227C475.832 236.36 479.99 240.521 485.119 240.521Z" fill="#FBBEBE"/>
    <path d="M493.142 307.691C492.245 308.746 490.659 308.978 489.273 308.746C486.031 308.218 483.375 305.829 480.207 304.969C476.317 303.914 472.196 305.27 468.527 306.926C464.859 308.582 461.201 310.592 457.184 310.908C460.816 302.807 458.739 293.054 462.207 284.884C463.061 282.89 464.247 280.959 464.437 278.802C464.674 276.117 463.335 273.527 463.13 270.853C462.94 268.474 463.657 266.106 464.337 263.843L466.883 255.483C467.831 252.371 468.806 249.201 470.646 246.516C471.321 245.53 471.531 243.536 472.565 242.935C474.82 241.637 478.241 243.278 480.687 243.367C483.132 243.457 485.362 245.198 486.79 247.165C488.303 249.243 489.162 251.717 489.953 254.165C491.216 257.808 492.158 261.555 492.767 265.362C492.846 265.932 492.915 266.502 492.968 267.077C493.495 272.494 492.725 277.942 492.683 283.38C492.683 283.38 492.683 283.38 492.683 283.423C492.636 290.322 493.737 297.184 493.948 304.083C493.98 305.365 493.948 306.741 493.142 307.691Z" fill="#BE1621"/>
    <path d="M493.142 307.691C492.245 308.746 490.659 308.978 489.273 308.746C486.031 308.218 483.375 305.829 480.207 304.969C476.317 303.914 472.196 305.27 468.527 306.926C464.859 308.582 461.201 310.592 457.184 310.908C460.816 302.807 458.739 293.054 462.207 284.884C463.061 282.89 464.247 280.959 464.437 278.802C464.674 276.117 463.335 273.527 463.13 270.853C462.94 268.474 463.657 266.106 464.337 263.843L466.883 255.483C467.831 252.371 468.806 249.201 470.646 246.516C471.321 245.53 471.531 243.536 472.565 242.935C474.82 241.637 478.241 243.278 480.687 243.367C483.132 243.457 485.362 245.198 486.79 247.165C488.303 249.243 489.162 251.717 489.953 254.165C491.216 257.808 492.158 261.555 492.767 265.362C492.846 265.932 492.915 266.502 492.968 267.077C493.495 272.494 492.725 277.942 492.683 283.38C492.683 283.38 492.683 283.38 492.683 283.423C492.636 290.322 493.737 297.184 493.948 304.083C493.98 305.365 493.948 306.741 493.142 307.691Z" fill="white" fill-opacity="0.2"/>
    <path opacity="0.1" d="M492.683 283.43C490.865 282.972 489.215 281.801 487.807 280.514C486.587 279.425 485.5 278.194 484.571 276.848C483.404 275.008 482.467 273.031 481.783 270.961C479.831 265.467 478.591 259.745 478.093 253.935C477.956 252.353 477.914 250.66 478.858 249.404C479.386 248.724 480.129 248.242 480.965 248.038C481.802 247.834 482.683 247.92 483.464 248.281C484.714 248.893 485.52 250.122 486.263 251.292C487.75 253.629 489.241 255.987 490.195 258.582C490.617 259.732 490.928 260.919 491.339 262.074C491.757 263.213 492.239 264.328 492.783 265.413C492.862 265.982 492.931 266.552 492.983 267.127C493.474 272.517 492.725 277.966 492.683 283.43Z" fill="black"/>
    <path d="M478.879 248.38C477.941 249.63 477.983 251.344 478.115 252.911C478.612 258.719 479.852 264.439 481.804 269.932C482.484 272.003 483.421 273.981 484.592 275.818C485.52 277.166 486.607 278.397 487.829 279.484C489.621 281.125 491.803 282.586 494.233 282.607C495.6 282.54 496.947 282.246 498.217 281.736L517.988 275.017C518.188 273.883 517.392 272.569 517.018 271.483L515.964 268.349C515.664 267.49 515.31 266.556 514.53 266.087C513.75 265.617 512.501 266.261 511.848 266.783C511.194 267.305 510.693 267.991 510.056 268.524C508.833 269.536 507.225 269.911 505.681 270.259L501.237 271.261C499.626 271.698 497.963 271.918 496.294 271.915C495.055 268.133 492.699 264.8 491.365 261.044C490.954 259.894 490.638 258.708 490.216 257.558C489.262 254.963 487.771 252.605 486.29 250.268C485.546 249.092 484.74 247.863 483.491 247.256C482.708 246.896 481.827 246.811 480.989 247.015C480.152 247.219 479.409 247.7 478.879 248.38Z" fill="#BE1621"/>
    <path d="M478.879 248.38C477.941 249.63 477.983 251.344 478.115 252.911C478.612 258.719 479.852 264.439 481.804 269.932C482.484 272.003 483.421 273.981 484.592 275.818C485.52 277.166 486.607 278.397 487.829 279.484C489.621 281.125 491.803 282.586 494.233 282.607C495.6 282.54 496.947 282.246 498.217 281.736L517.988 275.017C518.188 273.883 517.392 272.569 517.018 271.483L515.964 268.349C515.664 267.49 515.31 266.556 514.53 266.087C513.75 265.617 512.501 266.261 511.848 266.783C511.194 267.305 510.693 267.991 510.056 268.524C508.833 269.536 507.225 269.911 505.681 270.259L501.237 271.261C499.626 271.698 497.963 271.918 496.294 271.915C495.055 268.133 492.699 264.8 491.365 261.044C490.954 259.894 490.638 258.708 490.216 257.558C489.262 254.963 487.771 252.605 486.29 250.268C485.546 249.092 484.74 247.863 483.491 247.256C482.708 246.896 481.827 246.811 480.989 247.015C480.152 247.219 479.409 247.7 478.879 248.38Z" fill="white" fill-opacity="0.4"/>
    <path d="M482.157 233.321C482.228 232.712 482.418 232.122 482.716 231.586C482.872 231.317 483.109 231.104 483.393 230.978C483.677 230.852 483.993 230.819 484.297 230.884C485.225 231.174 485.536 232.614 486.506 232.662C487.159 232.693 487.628 232.029 487.834 231.401C488.039 230.773 488.15 230.072 488.64 229.629C488.981 229.372 489.373 229.192 489.789 229.101C492.04 228.389 494.364 227.071 495.113 224.829C495.286 224.375 495.328 223.882 495.234 223.405C494.891 221.986 493.126 221.559 491.782 221.042C490.438 220.525 489.146 219.66 487.829 218.995C486.511 218.331 484.982 217.856 483.533 218.194C482.797 218.425 482.074 218.696 481.367 219.006C479.185 219.76 476.507 219.412 474.815 220.984C474.078 221.77 473.536 222.718 473.234 223.753C472.048 227.029 471.305 230.926 473.26 233.806C474.462 235.584 475.637 237.615 477.957 237.826C480.655 238.068 481.73 235.6 482.157 233.321Z" fill="#2F2E41"/>
    <g opacity="0.1">
      <path opacity="0.1" d="M486.279 230.284C486.485 229.662 486.595 228.955 487.08 228.512C487.422 228.258 487.814 228.079 488.229 227.984C490.485 227.272 492.804 225.959 493.558 223.712C493.73 223.258 493.77 222.764 493.674 222.288C493.622 222.062 493.527 221.849 493.394 221.66C494.254 222.029 495.002 222.53 495.213 223.406C495.307 223.883 495.265 224.376 495.092 224.83C494.343 227.072 492.019 228.39 489.768 229.103C489.352 229.193 488.96 229.373 488.619 229.63C488.129 230.073 488.018 230.78 487.813 231.402C487.607 232.025 487.138 232.695 486.485 232.663C485.831 232.631 485.515 232.035 485.098 231.534C485.673 231.46 486.084 230.859 486.279 230.284Z" fill="black"/>
      <path opacity="0.1" d="M476.412 236.698C479.121 236.946 480.191 234.483 480.629 232.204C480.7 231.594 480.89 231.005 481.187 230.469C481.343 230.2 481.58 229.988 481.865 229.862C482.149 229.737 482.465 229.706 482.769 229.772C483.269 229.925 483.591 230.421 483.934 230.827C483.692 230.85 483.458 230.929 483.252 231.057C483.045 231.185 482.871 231.359 482.742 231.566C482.445 232.102 482.255 232.692 482.184 233.301C481.757 235.58 480.681 238.048 477.967 237.795C476.892 237.68 475.899 237.166 475.184 236.355C475.572 236.535 475.987 236.651 476.412 236.698Z" fill="black"/>
    </g>
    <path d="M90.514 342.998L100.602 337.059C99.2351 334.731 97.4915 332.645 95.4422 330.888L76.4095 336.811L91.3468 328.034C87.6544 326.01 83.4989 324.983 79.2894 325.054C75.0799 325.125 70.9614 326.292 67.3393 328.44C63.7173 330.587 60.7165 333.642 58.6323 337.303C56.5481 340.963 55.4524 345.104 55.453 349.317C55.453 362.715 66.3055 363.184 79.6985 363.184C93.0914 363.184 103.944 362.715 103.944 349.317C103.941 345.925 103.223 342.571 101.836 339.475L90.514 342.998Z" fill="#8F84FF"/>
    <path opacity="0.1" d="M93.0808 356.029C92.0072 354.951 90.8073 354.007 89.5073 353.217C87.673 351.999 85.7808 350.754 83.6198 350.343C81.7223 349.979 79.7669 350.285 77.822 350.179C74.466 349.973 71.3072 348.524 68.9619 346.113C67.5862 344.689 66.5004 342.948 64.8454 341.845C63.0586 340.675 60.7922 340.421 58.6733 340.711C58.0589 340.802 57.45 340.927 56.8497 341.086C55.8984 343.727 55.4133 346.513 55.416 349.32C55.416 362.717 66.2685 363.186 79.6615 363.186C86.1603 363.186 92.0583 363.076 96.4119 361.43L95.6846 360.069C94.9908 358.618 94.1159 357.26 93.0808 356.029Z" fill="#1C1C1C"/>
    <path d="M308.291 376.922L294.909 369.047C296.722 365.956 299.038 363.189 301.761 360.86L327.002 368.714L307.221 357.079C312.117 354.394 317.628 353.032 323.21 353.126C328.792 353.219 334.253 354.766 339.057 357.614C343.86 360.461 347.84 364.512 350.604 369.366C353.368 374.22 354.822 379.711 354.821 385.298C354.821 403.068 340.427 403.685 322.67 403.685C304.912 403.685 290.518 403.068 290.518 385.298C290.513 380.801 291.452 376.353 293.275 372.243L308.291 376.922Z" fill="#8F84FF"/>
    <path opacity="0.1" d="M304.881 394.194C306.306 392.764 307.899 391.512 309.625 390.465C312.054 388.851 314.569 387.205 317.431 386.656C319.945 386.176 322.538 386.583 325.094 386.435C329.544 386.161 333.733 384.242 336.848 381.05C338.672 379.156 340.111 376.83 342.309 375.39C344.675 373.808 347.679 373.496 350.489 373.887C351.306 374.002 352.116 374.168 352.913 374.383C354.173 377.883 354.815 381.575 354.811 385.296C354.811 403.066 340.416 403.683 322.659 403.683C314.041 403.683 306.22 403.54 300.443 401.357L301.407 399.553C302.414 397.67 303.437 395.776 304.881 394.194Z" fill="#1C1C1C"/>
  </g>
  <defs>
    <linearGradient id="paint0_linear_814_57510" x1="289.258" y1="109.954" x2="428.618" y2="27.3697" gradientUnits="userSpaceOnUse">
      <stop stop-color="#808080" stop-opacity="0.25"/>
      <stop offset="0.54" stop-color="#808080" stop-opacity="0.12"/>
      <stop offset="1" stop-color="#808080" stop-opacity="0.1"/>
    </linearGradient>
    <linearGradient id="paint1_linear_814_57510" x1="-115128" y1="137193" x2="-112863" y2="80598.7" gradientUnits="userSpaceOnUse">
      <stop stop-color="#808080" stop-opacity="0.25"/>
      <stop offset="0.54" stop-color="#808080" stop-opacity="0.12"/>
      <stop offset="1" stop-color="#808080" stop-opacity="0.1"/>
    </linearGradient>
    <clipPath id="clip0_814_57510">
      <rect width="577" height="416" fill="white" transform="translate(0.5)"/>
    </clipPath>
  </defs>
</svg>
