<svg width="262" height="164" viewBox="0 0 262 164" fill="none" xmlns="http://www.w3.org/2000/svg">
<g clip-path="url(#clip0_814_56662)">
<path d="M249.387 164.001H28.7878C26.826 164.001 24.9446 163.222 23.5575 161.835C22.1703 160.448 21.391 158.567 21.391 156.606C101.358 147.314 179.822 147.314 256.784 156.606C256.784 158.567 256.005 160.448 254.617 161.835C253.23 163.222 251.349 164.001 249.387 164.001Z" fill="#CCCCCC"/>
<path d="M256.784 157.04L21.391 156.605L48.6722 110.711L48.8027 110.493V9.34843C48.8026 8.12075 49.0444 6.90507 49.5143 5.77082C49.9841 4.63657 50.6729 3.60597 51.5412 2.73787C52.4095 1.86976 53.4403 1.18117 54.5748 0.7114C55.7093 0.241634 56.9252 -0.000102555 58.1532 3.2638e-08H218.716C219.944 -0.000102555 221.16 0.241634 222.295 0.7114C223.429 1.18117 224.46 1.86976 225.328 2.73787C226.197 3.60597 226.885 4.63657 227.355 5.77082C227.825 6.90507 228.067 8.12075 228.067 9.34843V111.189L256.784 157.04Z" fill="#E6E6E6"/>
<path d="M57.94 6.52344C57.1325 6.52434 56.3584 6.84545 55.7874 7.41632C55.2164 7.98719 54.8952 8.7612 54.8943 9.56853V101.791C54.8952 102.599 55.2164 103.373 55.7874 103.944C56.3584 104.514 57.1325 104.835 57.94 104.836H220.235C221.042 104.835 221.817 104.514 222.387 103.943C222.958 103.373 223.28 102.599 223.281 101.791V9.56853C223.28 8.76121 222.959 7.98722 222.388 7.41636C221.817 6.8455 221.042 6.52438 220.235 6.52344H57.94Z" fill="white"/>
<path d="M59.0067 117.02C58.7572 117.02 58.5129 117.092 58.3028 117.226C58.0927 117.361 57.9255 117.553 57.8208 117.779L49.4146 136.05C49.3231 136.248 49.283 136.467 49.2982 136.685C49.3133 136.904 49.3831 137.115 49.5012 137.299C49.6193 137.483 49.7819 137.635 49.9739 137.74C50.166 137.845 50.3814 137.9 50.6003 137.9H227.378C227.6 137.9 227.819 137.843 228.014 137.735C228.208 137.627 228.371 137.47 228.488 137.281C228.605 137.092 228.672 136.876 228.682 136.654C228.692 136.431 228.645 136.21 228.545 136.011L219.408 117.741C219.3 117.524 219.134 117.341 218.927 117.214C218.721 117.086 218.483 117.019 218.241 117.02L59.0067 117.02Z" fill="#CCCCCC"/>
<path d="M138.435 5.00106C139.516 5.00106 140.393 4.12463 140.393 3.0435C140.393 1.96237 139.516 1.08594 138.435 1.08594C137.353 1.08594 136.477 1.96237 136.477 3.0435C136.477 4.12463 137.353 5.00106 138.435 5.00106Z" fill="white"/>
<path d="M121.059 141.379C120.772 141.379 120.493 141.474 120.265 141.649C120.038 141.823 119.874 142.068 119.799 142.345L117.69 150.175C117.638 150.368 117.631 150.571 117.67 150.768C117.709 150.964 117.792 151.149 117.914 151.308C118.036 151.467 118.193 151.596 118.373 151.684C118.552 151.773 118.75 151.819 118.95 151.819H159.051C159.259 151.819 159.465 151.769 159.649 151.674C159.834 151.579 159.994 151.441 160.115 151.271C160.235 151.102 160.314 150.906 160.343 150.7C160.373 150.494 160.353 150.284 160.284 150.087L157.574 142.257C157.485 142.001 157.318 141.778 157.097 141.621C156.876 141.464 156.611 141.379 156.34 141.379H121.059Z" fill="#CCCCCC"/>
<path d="M228.067 108.969V110.709H48.6722L48.8071 110.491V108.969H228.067Z" fill="#CCCCCC"/>
<path d="M205.924 112.957C205.854 112.957 205.786 112.98 205.731 113.023C205.675 113.065 205.635 113.125 205.617 113.192L205.104 115.099C205.091 115.146 205.089 115.195 205.099 115.243C205.108 115.291 205.129 115.336 205.158 115.375C205.188 115.414 205.226 115.445 205.27 115.467C205.314 115.488 205.362 115.499 205.411 115.499H215.176C215.226 115.499 215.276 115.487 215.321 115.464C215.366 115.441 215.405 115.407 215.435 115.366C215.464 115.325 215.483 115.277 215.49 115.227C215.498 115.177 215.493 115.126 215.476 115.078L214.816 113.171C214.794 113.108 214.754 113.054 214.7 113.016C214.646 112.978 214.582 112.957 214.516 112.957H205.924Z" fill="#CCCCCC"/>
<path d="M191.666 112.957C191.596 112.957 191.528 112.98 191.472 113.023C191.417 113.065 191.377 113.125 191.359 113.192L190.845 115.099C190.833 115.146 190.831 115.195 190.84 115.243C190.85 115.291 190.87 115.336 190.9 115.375C190.93 115.414 190.968 115.445 191.012 115.467C191.055 115.488 191.103 115.499 191.152 115.499H200.917C200.968 115.499 201.018 115.487 201.063 115.464C201.108 115.441 201.147 115.407 201.176 115.366C201.206 115.325 201.225 115.277 201.232 115.227C201.239 115.177 201.234 115.126 201.218 115.078L200.557 113.171C200.536 113.108 200.495 113.054 200.441 113.016C200.388 112.978 200.323 112.957 200.257 112.957H191.666Z" fill="#CCCCCC"/>
<path d="M150.356 125.071H151.121L149.591 22.793H148.825L148.856 24.8334H131.702L131.733 22.793H130.967L129.437 125.071H130.202L130.301 118.44H150.257L150.356 125.071ZM149.253 51.3595H131.305L131.492 38.8617H149.066L149.253 51.3595ZM149.264 52.1247L149.451 64.6226H131.107L131.294 52.1247H149.264ZM149.463 65.3877L149.65 77.8856H130.908L131.095 65.3877H149.463ZM149.661 78.6508L149.848 91.1486H130.71L130.897 78.6508H149.661ZM149.86 91.9138L150.047 104.412H130.511L130.698 91.9138H149.86ZM148.867 25.5986L149.054 38.0965H131.504L131.691 25.5986H148.867ZM130.313 117.675L130.5 105.177H150.058L150.245 117.675H130.313Z" fill="#3F3D56"/>
<path d="M136.488 58.0205C143.38 58.0205 148.967 52.4344 148.967 45.5435C148.967 38.6526 143.38 33.0664 136.488 33.0664C129.595 33.0664 124.008 38.6526 124.008 45.5435C124.008 52.4344 129.595 58.0205 136.488 58.0205Z" fill="#2F2E41"/>
<path d="M143.828 54.1685L140.098 54.8438L141.308 61.5265L145.038 60.8512L143.828 54.1685Z" fill="#2F2E41"/>
<path d="M136.367 55.5201L132.636 56.1953L133.846 62.878L137.577 62.2028L136.367 55.5201Z" fill="#2F2E41"/>
<path d="M135.827 64.2821C137.158 63.1546 137.895 61.836 137.472 61.3367C137.049 60.8375 135.627 61.3468 134.296 62.4742C132.964 63.6017 132.227 64.9203 132.65 65.4196C133.073 65.9188 134.495 65.4095 135.827 64.2821Z" fill="#2F2E41"/>
<path d="M143.133 62.9618C144.464 61.8343 145.201 60.5156 144.778 60.0164C144.355 59.5172 142.933 60.0264 141.601 61.1539C140.27 62.2813 139.533 63.6 139.956 64.0992C140.379 64.5985 141.801 64.0892 143.133 62.9618Z" fill="#2F2E41"/>
<path d="M135.614 46.7591C137.97 46.7591 139.879 44.8499 139.879 42.4948C139.879 40.1397 137.97 38.2305 135.614 38.2305C133.258 38.2305 131.349 40.1397 131.349 42.4948C131.349 44.8499 133.258 46.7591 135.614 46.7591Z" fill="white"/>
<path d="M133.861 42.3858C134.646 42.3858 135.283 41.7494 135.283 40.9644C135.283 40.1794 134.646 39.543 133.861 39.543C133.076 39.543 132.439 40.1794 132.439 40.9644C132.439 41.7494 133.076 42.3858 133.861 42.3858Z" fill="#3F3D56"/>
<path d="M146.333 31.97C146.52 27.3508 142.538 23.4383 137.439 23.2312C132.339 23.0241 128.053 26.6008 127.865 31.22C127.677 35.8392 131.222 36.8887 136.322 37.0958C141.422 37.303 146.145 36.5892 146.333 31.97Z" fill="#8F84FF"/>
<path d="M131.047 44.6638C131.288 43.6096 128.761 42.1308 125.402 41.3611C122.043 40.5913 119.124 40.8219 118.882 41.8762C118.641 42.9305 121.168 44.4092 124.527 45.179C127.886 45.9488 130.805 45.7181 131.047 44.6638Z" fill="#2F2E41"/>
<path d="M155.544 48.7381C155.786 47.6838 153.258 46.2051 149.899 45.4353C146.54 44.6655 143.621 44.8961 143.38 45.9504C143.138 47.0047 145.665 48.4834 149.024 49.2532C152.383 50.023 155.302 49.7924 155.544 48.7381Z" fill="#2F2E41"/>
<path d="M139.915 50.4628C139.983 50.8302 139.977 51.2073 139.898 51.5724C139.82 51.9376 139.67 52.2837 139.457 52.591C139.245 52.8982 138.974 53.1606 138.66 53.3631C138.346 53.5656 137.995 53.7043 137.628 53.7712C137.26 53.8381 136.883 53.8319 136.518 53.753C136.152 53.6741 135.806 53.524 135.499 53.3113C135.192 53.0986 134.93 52.8275 134.728 52.5135C134.525 52.1994 134.387 51.8486 134.32 51.4811L134.319 51.4756C134.04 49.9306 135.234 49.3839 136.78 49.1042C138.325 48.8245 139.636 48.9178 139.915 50.4628Z" fill="white"/>
<path d="M94.2194 87.9208C95.4807 84.6216 95.6634 81.6262 94.6275 81.2303C93.5915 80.8344 91.7293 83.188 90.468 86.4872C89.2067 89.7864 89.024 92.7819 90.0599 93.1777C91.0959 93.5736 92.9581 91.22 94.2194 87.9208Z" fill="#2F2E41"/>
<path d="M93.147 98.9138C94.2787 91.941 89.5425 85.3712 82.5682 84.2397C75.594 83.1082 69.0228 87.8434 67.891 94.8162C66.7593 101.789 71.4955 108.359 78.4698 109.49C85.444 110.622 92.0152 105.886 93.147 98.9138Z" fill="#2F2E41"/>
<path d="M78.5757 106.902H74.6892V113.864H78.5757V106.902Z" fill="#2F2E41"/>
<path d="M86.3487 106.902H82.4622V113.864H86.3487V106.902Z" fill="#2F2E41"/>
<path d="M77.928 115.159C79.7167 115.159 81.1668 114.615 81.1668 113.945C81.1668 113.274 79.7167 112.73 77.928 112.73C76.1393 112.73 74.6892 113.274 74.6892 113.945C74.6892 114.615 76.1393 115.159 77.928 115.159Z" fill="#2F2E41"/>
<path d="M85.7009 114.995C87.4897 114.995 88.9397 114.451 88.9397 113.781C88.9397 113.11 87.4897 112.566 85.7009 112.566C83.9122 112.566 82.4622 113.11 82.4622 113.781C82.4622 114.451 83.9122 114.995 85.7009 114.995Z" fill="#2F2E41"/>
<path d="M68.1092 84.9687C67.0762 80.3435 70.3782 75.6699 75.4845 74.53C80.5908 73.39 85.5676 76.2154 86.6006 80.8406C87.6336 85.4658 84.2495 87.1716 79.1432 88.3116C74.037 89.4515 69.1422 89.5939 68.1092 84.9687Z" fill="#8F84FF"/>
<path d="M71.8891 93.671C72.3643 92.6692 70.162 90.6301 66.9701 89.1165C63.7782 87.603 60.8054 87.1881 60.3301 88.19C59.8549 89.1918 62.0572 91.2309 65.2491 92.7444C68.441 94.258 71.4138 94.6728 71.8891 93.671Z" fill="#2F2E41"/>
<path d="M25.1257 122.604C32.1911 122.604 37.9188 116.878 37.9188 109.814C37.9188 102.75 32.1911 97.0234 25.1257 97.0234C18.0602 97.0234 12.3325 102.75 12.3325 109.814C12.3325 116.878 18.0602 122.604 25.1257 122.604Z" fill="#2F2E41"/>
<path d="M23.1824 119.852H19.2959V126.813H23.1824V119.852Z" fill="#2F2E41"/>
<path d="M30.9554 119.852H27.0688V126.813H30.9554V119.852Z" fill="#2F2E41"/>
<path d="M22.5347 128.108C24.3234 128.108 25.7735 127.565 25.7735 126.894C25.7735 126.223 24.3234 125.68 22.5347 125.68C20.7459 125.68 19.2959 126.223 19.2959 126.894C19.2959 127.565 20.7459 128.108 22.5347 128.108Z" fill="#2F2E41"/>
<path d="M30.3076 127.948C32.0963 127.948 33.5464 127.404 33.5464 126.734C33.5464 126.063 32.0963 125.52 30.3076 125.52C28.5189 125.52 27.0688 126.063 27.0688 126.734C27.0688 127.404 28.5189 127.948 30.3076 127.948Z" fill="#2F2E41"/>
<path d="M25.4495 110.946C27.8643 110.946 29.8218 108.989 29.8218 106.575C29.8218 104.16 27.8643 102.203 25.4495 102.203C23.0347 102.203 21.0771 104.16 21.0771 106.575C21.0771 108.989 23.0347 110.946 25.4495 110.946Z" fill="white"/>
<path d="M25.4496 108.035C26.2546 108.035 26.9071 107.383 26.9071 106.578C26.9071 105.773 26.2546 105.121 25.4496 105.121C24.6447 105.121 23.9922 105.773 23.9922 106.578C23.9922 107.383 24.6447 108.035 25.4496 108.035Z" fill="#3F3D56"/>
<path d="M12.7159 97.9179C11.6829 93.2927 14.9849 88.6191 20.0912 87.4792C25.1975 86.3392 30.1743 89.1646 31.2073 93.7898C32.2403 98.415 28.8562 100.121 23.7499 101.261C18.6436 102.401 13.7489 102.543 12.7159 97.9179Z" fill="#E6E6E6"/>
<path d="M34.4538 64.12C35.7151 60.8208 35.8978 57.8254 34.8618 57.4295C33.8259 57.0336 31.9636 59.3872 30.7023 62.6864C29.4411 65.9856 29.2584 68.9811 30.2943 69.3769C31.3302 69.7728 33.1925 67.4192 34.4538 64.12Z" fill="#2F2E41"/>
<path d="M33.3813 75.113C34.5131 68.1402 29.7768 61.5704 22.8026 60.4389C15.8284 59.3074 9.25717 64.0427 8.12541 71.0154C6.99365 77.9881 11.7299 84.5579 18.7041 85.6894C25.6784 86.8209 32.2496 82.0857 33.3813 75.113Z" fill="#2F2E41"/>
<path d="M18.81 83.1016H14.9235V90.0634H18.81V83.1016Z" fill="#2F2E41"/>
<path d="M26.5831 83.1016H22.6965V90.0634H26.5831V83.1016Z" fill="#2F2E41"/>
<path d="M18.1622 91.3583C19.951 91.3583 21.401 90.8146 21.401 90.144C21.401 89.4733 19.951 88.9297 18.1622 88.9297C16.3735 88.9297 14.9235 89.4733 14.9235 90.144C14.9235 90.8146 16.3735 91.3583 18.1622 91.3583Z" fill="#2F2E41"/>
<path d="M25.9353 91.1942C27.724 91.1942 29.1741 90.6505 29.1741 89.9799C29.1741 89.3093 27.724 88.7656 25.9353 88.7656C24.1466 88.7656 22.6965 89.3093 22.6965 89.9799C22.6965 90.6505 24.1466 91.1942 25.9353 91.1942Z" fill="#2F2E41"/>
<path d="M21.0772 74.1959C23.492 74.1959 25.4495 72.2388 25.4495 69.8245C25.4495 67.4103 23.492 65.4531 21.0772 65.4531C18.6624 65.4531 16.7048 67.4103 16.7048 69.8245C16.7048 72.2388 18.6624 74.1959 21.0772 74.1959Z" fill="white"/>
<path d="M21.0772 71.2815C21.8821 71.2815 22.5347 70.6291 22.5347 69.8243C22.5347 69.0196 21.8821 68.3672 21.0772 68.3672C20.2723 68.3672 19.6198 69.0196 19.6198 69.8243C19.6198 70.6291 20.2723 71.2815 21.0772 71.2815Z" fill="#3F3D56"/>
<path d="M8.34355 61.1679C7.31057 56.5427 10.6126 51.8691 15.7189 50.7292C20.8252 49.5892 25.802 52.4146 26.835 57.0398C27.868 61.665 24.4839 63.3709 19.3776 64.5108C14.2713 65.6507 9.37653 65.7931 8.34355 61.1679Z" fill="#8F84FF"/>
<path d="M12.1235 69.8663C12.5987 68.8645 10.3964 66.8254 7.20451 65.3118C4.01259 63.7983 1.03975 63.3834 0.5645 64.3853C0.0892476 65.3871 2.29155 67.4262 5.48347 68.9398C8.67539 70.4533 11.6482 70.8681 12.1235 69.8663Z" fill="#2F2E41"/>
<path d="M14.4694 77.6771C14.4694 78.9289 17.6933 81.4009 21.2708 81.4009C24.8482 81.4009 28.2025 77.8765 28.2025 76.6247C28.2025 75.3729 24.8482 76.8676 21.2708 76.8676C17.6933 76.8676 14.4694 76.4252 14.4694 77.6771Z" fill="white"/>
<path d="M33.3311 24.2266C33.0948 24.2268 32.8683 24.3208 32.7012 24.4878C32.5342 24.6548 32.4402 24.8813 32.4399 25.1175V61.9438C32.4402 62.18 32.5342 62.4065 32.7012 62.5735C32.8683 62.7405 33.0948 62.8345 33.3311 62.8347H118.584C118.821 62.8345 119.047 62.7405 119.214 62.5735C119.381 62.4065 119.475 62.18 119.476 61.9438V25.1175C119.475 24.8813 119.381 24.6548 119.214 24.4878C119.047 24.3208 118.821 24.2268 118.584 24.2266H33.3311Z" fill="#8F84FF"/>
<path d="M56.3507 52.176C61.1282 52.176 65.0012 48.3039 65.0012 43.5275C65.0012 38.751 61.1282 34.8789 56.3507 34.8789C51.5732 34.8789 47.7003 38.751 47.7003 43.5275C47.7003 48.3039 51.5732 52.176 56.3507 52.176Z" fill="white"/>
<path d="M75.8746 42.379C75.6092 42.3834 75.3562 42.4919 75.1701 42.681C74.9839 42.8702 74.8796 43.1249 74.8796 43.3902C74.8796 43.6556 74.9839 43.9103 75.1701 44.0994C75.3562 44.2886 75.6092 44.3971 75.8746 44.4014H103.187C103.32 44.4037 103.452 44.3798 103.576 44.331C103.699 44.2823 103.812 44.2096 103.908 44.1173C104.003 44.0249 104.08 43.9146 104.132 43.7927C104.185 43.6708 104.214 43.5397 104.216 43.4068C104.218 43.274 104.194 43.142 104.145 43.0184C104.096 42.8949 104.024 42.7821 103.931 42.6867C103.839 42.5912 103.728 42.5149 103.606 42.4621C103.484 42.4094 103.353 42.3811 103.22 42.379C103.209 42.3789 103.198 42.3789 103.187 42.379H75.8746Z" fill="white"/>
<path d="M75.8746 36.5197C75.6092 36.524 75.3562 36.6325 75.1701 36.8217C74.9839 37.0108 74.8796 37.2655 74.8796 37.5309C74.8796 37.7962 74.9839 38.0509 75.1701 38.2401C75.3562 38.4292 75.6092 38.5377 75.8746 38.5421H89.5138C89.6467 38.5443 89.7787 38.5204 89.9023 38.4717C90.026 38.4229 90.1388 38.3503 90.2343 38.2579C90.3299 38.1656 90.4063 38.0553 90.4592 37.9334C90.5121 37.8115 90.5404 37.6803 90.5426 37.5475C90.5448 37.4146 90.5208 37.2826 90.4719 37.1591C90.423 37.0355 90.3503 36.9228 90.2578 36.8273C90.1654 36.7318 90.055 36.6555 89.933 36.6028C89.8111 36.55 89.6799 36.5217 89.547 36.5197C89.5359 36.5195 89.5248 36.5195 89.5138 36.5197H75.8746Z" fill="white"/>
<path d="M75.8746 48.5158C75.6092 48.5201 75.3562 48.6286 75.1701 48.8177C74.9839 49.0069 74.8796 49.2616 74.8796 49.527C74.8796 49.7923 74.9839 50.047 75.1701 50.2362C75.3562 50.4253 75.6092 50.5338 75.8746 50.5382H103.187C103.32 50.5404 103.452 50.5165 103.576 50.4678C103.699 50.419 103.812 50.3464 103.908 50.254C104.003 50.1617 104.08 50.0514 104.132 49.9295C104.185 49.8076 104.214 49.6764 104.216 49.5436C104.218 49.4107 104.194 49.2787 104.145 49.1552C104.096 49.0316 104.024 48.9189 103.931 48.8234C103.839 48.728 103.728 48.6517 103.606 48.5989C103.484 48.5461 103.353 48.5178 103.22 48.5158C103.209 48.5156 103.198 48.5156 103.187 48.5158H75.8746Z" fill="white"/>
<path d="M208.521 116.633C209.557 116.237 209.375 113.242 208.113 109.942C206.852 106.643 204.99 104.29 203.954 104.686C202.918 105.081 203.1 108.077 204.362 111.376C205.623 114.675 207.485 117.029 208.521 116.633Z" fill="#2F2E41"/>
<path d="M217.438 135.616C224.412 134.484 229.149 127.914 228.017 120.942C226.885 113.969 220.314 109.234 213.34 110.365C206.365 111.497 201.629 118.067 202.761 125.039C203.893 132.012 210.464 136.747 217.438 135.616Z" fill="#2F2E41"/>
<path d="M221.218 133.031H217.332L218.093 141.369L221.225 140.518L221.218 133.031Z" fill="#2F2E41"/>
<path d="M212.746 133.051H208.859L209.62 141.388L212.611 140.516L212.746 133.051Z" fill="#2F2E41"/>
<path d="M209.509 141.78C211.293 141.649 212.7 141.001 212.651 140.333C212.602 139.664 211.116 139.227 209.332 139.358C207.548 139.488 206.141 140.136 206.19 140.805C206.239 141.474 207.725 141.91 209.509 141.78Z" fill="#2F2E41"/>
<path d="M215.065 124.126C217.48 124.126 219.437 122.168 219.437 119.754C219.437 117.34 217.48 115.383 215.065 115.383C212.65 115.383 210.693 117.34 210.693 119.754C210.693 122.168 212.65 124.126 215.065 124.126Z" fill="white"/>
<path d="M215.065 121.211C215.87 121.211 216.522 120.559 216.522 119.754C216.522 118.949 215.87 118.297 215.065 118.297C214.26 118.297 213.607 118.949 213.607 119.754C213.607 120.559 214.26 121.211 215.065 121.211Z" fill="#3F3D56"/>
<path d="M230.522 115.281C232.621 112.439 233.599 109.602 232.707 108.944C231.815 108.285 229.391 110.054 227.292 112.895C225.193 115.736 224.215 118.573 225.107 119.232C225.999 119.891 228.423 118.122 230.522 115.281Z" fill="#2F2E41"/>
<path d="M209.147 129.585C209.147 128.553 211.804 126.516 214.753 126.516C217.701 126.516 220.466 129.42 220.466 130.452C220.466 131.484 217.701 130.252 214.753 130.252C211.804 130.252 209.147 130.616 209.147 129.585Z" fill="white"/>
<path d="M251.263 112.42L181.234 102.714C180.688 102.638 180.195 102.348 179.863 101.908C179.53 101.469 179.385 100.915 179.46 100.369L187.333 43.5939C187.409 43.0481 187.699 42.5548 188.138 42.2222C188.578 41.8897 189.132 41.7451 189.678 41.8202L259.706 51.526C260.252 51.6023 260.745 51.892 261.078 52.3316C261.411 52.7711 261.555 53.3246 261.48 53.8707L253.608 110.646C253.531 111.192 253.242 111.685 252.802 112.018C252.362 112.35 251.809 112.495 251.263 112.42Z" fill="#8F84FF"/>
<path d="M226.175 94.7045L190.424 89.7494C190.379 89.7438 190.335 89.734 190.292 89.7203L211.261 62.7818C211.389 62.6137 211.56 62.4828 211.756 62.4023C211.952 62.3219 212.165 62.2948 212.375 62.3238C212.584 62.3529 212.782 62.437 212.949 62.5677C213.115 62.6983 213.244 62.8708 213.322 63.0674L221.945 84.2907L222.358 85.3064L226.175 94.7045Z" fill="white"/>
<path opacity="0.2" d="M226.175 94.7026L213.969 93.011L221.168 85.1396L221.686 84.5727L221.945 84.2891L222.358 85.3047L226.175 94.7026Z" fill="black"/>
<path d="M246.081 97.4603L215.16 93.1745L222.358 85.3032L222.876 84.7361L232.257 74.4782C232.419 74.3241 232.612 74.2058 232.822 74.131C233.033 74.0561 233.257 74.0265 233.48 74.0439C233.703 74.0613 233.92 74.1255 234.117 74.2321C234.313 74.3388 234.485 74.4856 234.622 74.663C234.656 74.7129 234.687 74.765 234.715 74.8188L246.081 97.4603Z" fill="white"/>
<path d="M226.61 71.9259C229.563 71.9259 231.957 69.5325 231.957 66.5801C231.957 63.6277 229.563 61.2344 226.61 61.2344C223.657 61.2344 221.263 63.6277 221.263 66.5801C221.263 69.5325 223.657 71.9259 226.61 71.9259Z" fill="white"/>
<path d="M197.346 47.0847L190.872 46.1875L189.975 52.6593L196.448 53.5565L197.346 47.0847Z" fill="#3F3D56"/>
<path d="M227.799 111.098C228.832 106.472 225.529 101.799 220.423 100.659C215.317 99.5189 210.34 102.344 209.307 106.969C208.274 111.595 211.658 113.301 216.764 114.44C221.871 115.58 226.766 115.723 227.799 111.098Z" fill="#F2F2F2"/>
<path d="M218.032 141.76C219.816 141.63 221.223 140.982 221.174 140.313C221.125 139.644 219.639 139.208 217.855 139.338C216.071 139.469 214.665 140.116 214.714 140.785C214.762 141.454 216.248 141.891 218.032 141.76Z" fill="#2F2E41"/>
</g>
<defs>
<clipPath id="clip0_814_56662">
<rect width="261" height="164" fill="white" transform="translate(0.5)"/>
</clipPath>
</defs>
</svg>
